<svg width="155" height="34" viewBox="0 0 155 34" fill="none" xmlns="http://www.w3.org/2000/svg">
<path d="M136.029 6.99706C141.449 7.54483 141.898 13.9616 137.061 15.7028C139.04 17.8107 140.618 20.8773 143.628 21.6011C144.195 22.0169 143.252 22.2908 142.866 22.3397C138.6 22.8874 136.762 18.6764 134.466 15.9669C134.124 15.6734 133.322 15.5952 133.219 16.1136C133.112 16.6907 133.132 19.7328 133.229 20.354C133.4 21.4593 134.236 21.4887 135.135 21.6647C135.213 21.7723 135.003 22.0756 134.93 22.0756H128.836L128.973 21.5963C129.96 21.5278 130.395 21.0632 130.488 20.0948C130.835 16.5098 130.224 12.3623 130.473 8.71864C130.297 7.84806 129.799 7.60352 128.978 7.47147L128.836 6.99217C131.138 7.16335 133.762 6.7623 136.029 6.99217V6.99706ZM133.219 14.8126H135.619C135.79 14.8126 136.684 14.2893 136.85 14.1279C138.228 12.8074 138.067 9.46694 136.42 8.39095C136.298 8.3127 135.546 7.95566 135.482 7.95566H133.224V14.8077L133.219 14.8126Z" fill="white"/>
<path d="M77.1286 6.99706C80.2024 7.34431 81.6196 10.1125 79.5916 12.6166L78.1548 13.5753C81.9959 14.1377 83.3837 19.5372 79.7528 21.4153C79.4107 21.5914 77.9936 22.0756 77.6759 22.0756H69.6616L69.7397 21.6501C70.7415 21.5033 71.2107 21.117 71.3084 20.0948C70.9663 16.5929 71.7482 12.2596 71.2889 8.86047C71.2107 8.26868 70.9957 7.89697 70.463 7.62798C70.0574 7.42745 69.5101 7.59863 69.6567 6.99706C72.0268 7.19269 74.8025 6.73784 77.1237 6.99706H77.1286ZM74.0499 13.4432H76.1708C76.2294 13.4432 76.9869 13.0862 77.1091 13.0079C78.4187 12.1471 78.5653 9.55008 77.3827 8.52789C77.2312 8.39584 76.4445 7.96056 76.3076 7.96056H74.0499V13.4432ZM74.0499 21.117H76.4493C76.5373 21.117 77.2459 20.892 77.3974 20.8284C79.9532 19.7475 79.4743 15.2773 76.9331 14.4654C76.8256 14.4312 76.0877 14.2649 76.0388 14.2649H74.0548V21.117H74.0499Z" fill="white"/>
<path d="M128.455 14.5534C128.455 18.9307 124.907 22.4815 120.533 22.4815C116.16 22.4815 112.612 18.9307 112.612 14.5534C112.612 10.1761 116.16 6.62535 120.533 6.62535C124.907 6.62535 128.455 10.1761 128.455 14.5534ZM119.903 7.7209C113.726 8.55724 114.063 22.012 120.963 21.3908C127.521 20.8039 127.018 6.7574 119.903 7.7209Z" fill="white"/>
<path d="M38.4348 22.0805L38.513 21.6549C39.6956 21.474 40.414 20.936 40.9711 19.8893L47.3581 4.48805C48.0667 3.79355 48.3159 4.57608 48.5896 5.12386C50.8962 9.78973 52.4404 15.8788 54.9522 20.2806C55.3676 21.0142 55.8612 21.6403 56.7848 21.6696V22.0805H50.7593C50.6567 21.2686 51.8051 21.743 51.8393 20.7844C51.8687 19.8942 50.6518 17.9428 50.5003 16.9499L43.908 16.9353C43.566 17.8743 42.3394 20.0654 42.7499 20.98C43.0431 21.6354 44.1964 21.3615 44.0498 22.0805H38.4348ZM44.4602 15.6343H49.7331L49.8846 15.3506L47.1333 8.50344L44.4602 15.6343Z" fill="white"/>
<path d="M111.17 5.49067V9.46694C110.95 9.47672 110.853 9.51585 110.696 9.3251C110.54 9.13436 110.222 8.01435 109.963 7.58885C108.331 4.85975 103.903 4.83041 101.783 6.99217C99.0948 9.72615 99.09 16.9255 101.719 19.679C103.83 21.8897 108.194 21.9435 109.914 19.2438C110.207 18.7791 110.515 17.6396 110.696 17.4195C110.853 17.2287 110.95 17.2678 111.17 17.2776V21.1854C107.236 22.9755 101.739 23.0342 98.7723 19.4736C95.4102 15.4338 96.2067 7.83828 101.142 5.39286C104.324 3.81311 107.95 4.26796 111.17 5.49067Z" fill="white"/>
<path d="M81.5805 22.0805L81.6587 21.6549C82.5921 21.5082 83.3055 21.0289 83.7063 20.1632L89.2088 6.89435C89.3212 6.55688 90.0542 6.66937 90.196 6.94326L95.9331 20.5301C96.109 20.799 96.456 21.2246 96.7296 21.3762C97.1743 21.6207 97.8927 21.4495 97.7412 22.0805H92.1947L92.0578 21.8066C94.037 21.0729 91.9894 18.965 91.8379 17.5711L86.3696 17.62C85.964 18.7938 84.1852 21.2392 86.2914 21.6549L86.3745 22.0805H81.5805ZM91.3053 16.456C90.6455 14.7246 90.1031 12.6264 89.3212 10.9733C89.243 10.8119 89.1844 10.5967 88.9791 10.5625L86.785 16.456H91.3053Z" fill="white"/>
<path d="M154.453 10.0147C153.627 10.0783 153.808 8.90938 153.309 8.4154C153.211 8.32248 152.542 7.95566 152.464 7.95566H148.764L148.559 8.16108V13.5068L148.764 13.7122H151.78C151.863 13.7122 152.557 13.4432 152.669 13.3698C153.226 12.9786 152.86 12.1031 153.632 12.2058V16.1821L153.207 16.0989C153.167 15.5854 152.605 14.6708 152.053 14.6708H148.764L148.559 14.8762V20.9066L148.764 21.1121H152.053C152.762 21.1121 153.764 20.5349 154.155 19.9236C154.423 19.5079 154.379 18.8036 155 18.9161L154.726 22.0707H144.386C144.303 22.0707 144.107 21.7625 144.181 21.6598C145.671 21.4495 145.867 20.9458 145.969 19.5421C146.155 16.8961 146.228 11.8537 145.945 9.2713C145.813 8.05348 145.427 7.56929 144.181 7.403C144.107 7.30029 144.303 6.99217 144.386 6.99217H154.453V10.0147Z" fill="white"/>
<path d="M63.7729 6.99706L63.6947 7.42256C63.25 7.40789 62.131 7.97523 62.131 8.43986V21.1218H65.8987C66.5438 21.1218 67.6237 20.4714 68 19.9334C68.2786 19.5323 68.2835 18.7889 68.8455 18.9258L68.5718 22.0805H57.7524L57.8306 21.6549C58.7542 21.518 59.2477 21.1854 59.3797 20.217C59.2038 16.6956 59.6534 12.8808 59.3992 9.39358C59.3455 8.67951 59.3259 8.02903 58.6271 7.70134C58.2508 7.52527 57.6204 7.62309 57.7524 7.00195H63.7778L63.7729 6.99706Z" fill="white"/>
<path d="M122.195 25.641C124.032 25.9491 123.534 28.0522 121.853 28.0375L123.568 29.7493L124.863 30.4389C124.35 30.3704 123.539 30.5759 123.084 30.3704C122.449 30.0819 121.296 28.1451 120.553 28.106C120.265 28.0913 120.372 28.1158 120.343 28.3114C120.279 28.7173 120.24 30.0525 120.616 30.2335C120.9 30.3704 121.374 30.1601 121.437 30.4389H118.559C118.627 30.1308 119.224 30.3998 119.38 30.0623C119.58 29.6221 119.605 26.223 119.356 25.9393C119.233 25.8024 118.588 25.9296 118.559 25.641C119.663 25.7682 121.139 25.4649 122.19 25.641H122.195ZM120.348 27.9739C123.123 28.3261 123.143 25.3818 120.348 25.7828V27.9739Z" fill="white"/>
<path d="M134.27 26.5116C134.73 27.0104 134.94 27.8761 134.808 28.5266C134.226 31.3682 127.995 31.3535 128.284 27.7587C128.489 25.2595 132.809 24.9269 134.27 26.5116ZM130.859 25.8122C128.719 26.179 128.792 29.8765 130.722 30.2726C132.653 30.6688 133.982 29.6711 133.772 27.6316C133.615 26.0714 132.271 25.5725 130.859 25.8171V25.8122Z" fill="white"/>
<path d="M114.454 28.3848L113.692 28.7858L113.633 30.165C112.646 30.1112 111.83 30.6443 110.828 30.5759C106.865 30.3118 107.442 25.4013 111.229 25.4992C111.928 25.5187 112.636 25.9491 113.223 26.1888L113.496 25.7779V27.2843L112.817 26.3893C110.828 24.8536 108.712 26.1448 109.147 28.6929C109.504 30.7862 113.037 31.0601 112.607 28.7907L111.854 28.3799H114.459L114.454 28.3848Z" fill="white"/>
<path d="M30.6257 16.8668C31.8132 15.5707 32.3116 13.9225 33.0886 12.4063C33.1522 12.2792 33.1619 12.0787 33.3623 12.0689L34.0416 16.5391C34.0709 16.6516 33.8998 16.8668 33.8412 16.8668H30.6208H30.6257Z" fill="white"/>
<path d="M153.29 25.641C154.306 25.7828 154.878 26.492 154.462 27.5093C154.155 28.2625 152.43 28.2723 151.716 28.2478V30.165L152.674 30.302V30.4389H149.8C149.859 30.1553 150.289 30.3998 150.568 30.1797C150.734 30.0477 150.739 29.8814 150.768 29.6906C150.822 29.2847 150.827 26.3991 150.739 26.1448C150.602 25.7388 150.035 25.9442 149.937 25.641C150.983 25.7437 152.283 25.4992 153.295 25.641H153.29ZM151.711 27.9739C154.335 28.3897 154.35 25.3965 151.711 25.7828V27.9739Z" fill="white"/>
<path d="M28.71 10.0147C29.0032 8.23933 28.8176 6.4395 28.6416 4.66901C29.2183 4.95268 31.5835 7.91654 31.5493 8.30781L28.71 10.0196V10.0147Z" fill="white"/>
<path d="M3.36702 17.1456C2.30169 18.5933 1.29012 20.1583 0.899174 21.9435C0.713475 21.9288 0.67438 21.7528 0.620626 21.6109C0.249228 20.6768 0 18.4465 0 17.4244C0 17.263 0.00977364 17.2483 0.151491 17.1456H3.3719H3.36702Z" fill="white"/>
<path d="M5.41948 29.3434C4.21243 28.3407 3.17643 27.1082 2.44341 25.7095L5.21912 23.9977C5.11161 25.7877 5.06274 27.5778 5.42437 29.3434H5.41948Z" fill="white"/>
<path d="M25.2844 2.06708C25.3723 2.18446 24.0627 4.48805 23.8916 4.71792C23.7744 4.87443 23.745 4.9967 23.5056 4.9429C23.0267 3.21154 21.8783 1.78341 20.7641 0.418858C22.3621 0.697637 23.8037 1.45083 25.2844 2.06219V2.06708Z" fill="white"/>
<path d="M10.4871 29.0695L11.2885 30.9427L13.0918 33.5935L8.7083 31.9453C8.62034 31.8279 9.91046 29.5439 10.101 29.2945C10.2183 29.1428 10.2379 29.0108 10.4871 29.0646V29.0695Z" fill="white"/>
<path d="M31.8571 25.3671L28.9837 23.5868C30.7087 23.0635 32.121 21.9484 33.504 20.8431C33.3036 22.4522 32.4729 23.8901 31.8571 25.3671Z" fill="white"/>
<path d="M5.00899 10.4255C3.2986 10.944 1.84233 12.0395 0.488682 13.1693C0.664607 11.5407 1.53446 10.1272 2.13554 8.64527C2.39454 8.80667 5.15559 10.2299 5.00899 10.4255Z" fill="white"/>
<path d="M29.3942 28.5217C28.9837 29.1428 26.3155 31.5394 25.7584 31.5394C25.5629 31.5394 25.5287 31.4415 25.4359 31.3095C25.1818 30.9622 24.1751 29.2211 24.0529 28.8543C23.9307 28.5021 24.2044 28.7467 24.2875 28.7516C26.0663 28.869 27.6203 29.0304 29.3893 28.5119L29.3942 28.5217Z" fill="white"/>
<path d="M17.2016 30.7128C18.5406 31.8671 19.9773 32.3317 21.5215 33.036C21.6584 33.0995 21.8441 33.1289 21.8587 33.3147C20.3487 33.7256 18.78 34.0141 17.2016 33.9995V30.7079V30.7128Z" fill="white"/>
<path d="M16.7911 0.00313542V3.29468C15.457 2.13066 14.0056 1.67581 12.4712 0.971525C12.3343 0.907943 12.1486 0.883489 12.134 0.692746C13.6489 0.296587 15.2175 -0.0359914 16.7911 0.00313542Z" fill="white"/>
<path d="M9.93978 5.21679C8.16098 4.96246 6.49946 5.12386 4.73532 5.35373C5.11161 4.75705 7.72117 2.47302 8.23428 2.47302C8.50306 2.47302 8.68876 2.92298 8.8207 3.1235C8.95265 3.32403 10.0326 5.14342 9.94467 5.22168L9.93978 5.21679Z" fill="white"/>
<path d="M61.7889 25.641C62.3851 25.7388 63.1523 26.3697 63.0644 27.0496C62.908 28.2429 61.0021 28.2918 60.0785 28.2478L60.1469 30.033L61.0363 30.4438H58.2948C58.3241 30.1601 58.9692 30.3411 59.0963 30.1455C59.3455 29.764 59.2966 26.5507 59.1207 26.0127L58.2948 25.6459C59.3553 25.7682 60.7773 25.4796 61.7889 25.6459V25.641ZM60.0785 27.9739C62.8298 28.4386 62.7272 25.4209 60.0785 25.7828V27.9739Z" fill="white"/>
<path d="M43.6393 25.641C43.825 25.4307 43.8885 25.6557 43.9129 25.8464C43.9765 26.3355 43.8689 26.9224 43.9129 27.4262C43.4584 26.9273 43.4633 26.3795 42.7792 26.0274C40.8 25.0052 39.2802 26.5409 39.5294 28.5951C39.7591 30.4732 42.4127 30.928 43.4291 29.4754C43.6197 29.2015 43.5904 28.7956 43.9129 28.6586V30.302C43.3265 29.5879 42.8378 30.3704 42.0022 30.5123C40.3016 30.8057 38.2882 29.852 38.4446 27.9201C38.6352 25.553 41.7334 24.922 43.4291 26.1888L43.6393 25.641Z" fill="white"/>
<path d="M141.85 25.641C141.81 25.9051 141.356 25.7584 141.117 25.9051C140.721 26.1496 140.76 29.4461 141.263 29.9009C142.026 30.5905 144.308 30.3851 144.562 29.2456C144.635 28.9276 144.655 26.3697 144.572 26.1399C144.454 25.7975 143.863 26.0274 143.765 25.641H145.681L144.884 26.2817C144.801 28.4728 145.461 30.5759 142.46 30.5856C138.883 30.5954 140.559 28.062 140.002 26.1741C139.851 25.6654 139.323 26.0127 139.103 25.6361H141.845L141.85 25.641Z" fill="white"/>
<path d="M95.6887 25.641V25.7779L94.7309 25.9149V30.165C95.3711 30.3607 96.7687 30.4291 97.2965 29.989C97.4284 29.8765 97.8047 28.8054 98.0197 29.0695V30.4389H92.8153C92.8739 30.1553 93.304 30.3998 93.5825 30.1797C93.7926 30.0134 93.7584 29.7884 93.7829 29.5586C93.8269 29.0939 93.8513 26.4431 93.7536 26.1448C93.6021 25.6997 92.9814 25.9491 92.8153 25.641H95.6936H95.6887Z" fill="white"/>
<path d="M51.9957 30.4389C52.1032 30.1161 52.6457 30.4927 52.6896 29.9596C52.7141 29.6711 52.1423 28.6733 51.9322 28.6489L49.8309 28.688L49.3813 30.077L49.9384 30.4389H48.1596C48.2133 30.2042 48.5652 30.2237 48.7802 30.033C49.3715 29.5048 50.9304 25.7192 51.2431 25.641C51.4582 25.5921 51.5266 25.822 51.6097 25.954C52.3378 27.074 52.8753 28.5804 53.5742 29.7444L54.4587 30.4389H51.9908H51.9957ZM51.9957 28.5217L50.9695 26.6045L49.9432 28.5217H51.9957Z" fill="white"/>
<path d="M86.6481 30.4389C86.6188 30.1895 86.9218 30.3362 87.1026 30.2775C87.7134 30.077 86.824 29.1086 86.7996 28.7418L84.5468 28.6782L83.9262 29.9449L84.5908 30.4389H82.812C82.983 30.165 83.2958 30.2091 83.5597 29.8863C84.3073 28.9814 84.8742 27.0055 85.573 26.0078C85.6854 25.8513 85.8027 25.6263 86.0275 25.641L88.3096 29.9401L88.9743 30.4389H86.6432H86.6481ZM86.6481 28.5217L85.6854 26.6045C85.2016 27.1131 84.7911 27.8517 84.5908 28.5217H86.6481Z" fill="white"/>
<path d="M79.6649 25.641V26.8735C79.3863 26.7952 79.4596 26.3404 79.2593 26.1105C78.9318 25.7339 77.5831 25.5872 77.197 25.9834V29.9596C77.197 30.2482 78.0327 30.3851 78.2917 30.302V30.4389H75.2765C75.3596 30.1601 75.8922 30.3607 76.1464 30.1748C76.5666 29.8765 76.3027 26.673 76.3516 26.0029C76.2099 25.5676 74.7292 25.7633 74.3822 26.0469C74.0695 26.3013 74.2014 26.7952 73.7714 26.7365L73.7909 25.866L73.9766 25.641H79.6649Z" fill="white"/>
<path d="M13.9079 4.12613L14.3233 6.865C13.0527 6.40526 11.8896 5.56404 10.4871 5.49556C10.4187 5.17277 10.536 5.27548 10.663 5.18744C11.0149 4.95757 13.7124 3.99407 13.903 4.12613H13.9079Z" fill="white"/>
<path d="M20.7641 4.25818L19.7378 6.86011C18.9364 5.68142 18.0666 4.58587 17.0648 3.57346C18.3256 3.62237 19.5668 3.88158 20.7641 4.25818Z" fill="white"/>
<path d="M69.6664 25.641L68.865 25.9344L68.8406 30.0721L69.6664 30.4389H66.9249C66.9836 30.1553 67.4136 30.3998 67.6922 30.1797C67.9023 30.0134 67.8681 29.7884 67.8925 29.5586C67.9365 29.0939 67.9609 26.4431 67.8632 26.1448C67.7117 25.6997 67.0911 25.9491 66.9249 25.641H69.6664Z" fill="white"/>
<path d="M9.66612 24.4085C9.55861 25.8122 9.89091 27.1718 10.2134 28.5217L8.56659 27.3577L7.46705 26.1203L9.66612 24.4134V24.4085Z" fill="white"/>
<path d="M23.5056 28.5217C23.574 28.8445 23.4616 28.7418 23.3297 28.8298C22.9827 29.0548 20.2216 30.033 20.0848 29.896L19.6743 27.1523C20.9351 27.6414 22.1226 28.3897 23.5105 28.5217H23.5056Z" fill="white"/>
<path d="M16.7911 30.4389L13.2286 29.7542L14.1913 27.1523L16.7911 30.4389Z" fill="white"/>
<path d="M28.4364 23.8607C28.6661 24.0612 26.4474 26.4089 26.1738 26.5996L24.4683 24.6139C24.4096 24.2862 24.6198 24.4427 24.8152 24.4183C26.0321 24.252 27.244 24.1346 28.4413 23.8656L28.4364 23.8607Z" fill="white"/>
<path d="M24.3266 9.60388C24.4194 8.2051 24.1213 6.83566 23.7792 5.49067C23.8672 5.39775 25.0645 6.32701 25.2111 6.45417C25.6753 6.84544 26.0858 7.33453 26.5061 7.76981C26.5647 8.0975 24.6882 9.37401 24.3266 9.60388Z" fill="white"/>
<path d="M6.79267 14.1279C6.85132 14.3822 6.70471 14.392 6.56299 14.5143C5.66382 15.2919 4.45189 15.8984 3.64068 16.8668C3.52828 15.6441 4.03162 14.4947 4.188 13.3014L6.78779 14.1279H6.79267Z" fill="white"/>
<path d="M29.8047 20.7061C29.6825 20.8137 27.8353 20.041 27.5079 19.9187C27.332 19.8551 27.1414 19.9823 27.2049 19.679L30.352 17.1407C30.4449 18.3634 30.0148 19.5225 29.8047 20.7061Z" fill="white"/>
<path d="M8.02415 7.41278L9.53418 9.60388L5.5612 10.1517C5.44391 10.0441 6.32354 8.92894 6.4506 8.78222C6.63629 8.56213 7.84823 7.29051 8.02415 7.41278Z" fill="white"/>
<path d="M6.79267 19.7475L5.35595 23.5868C4.98944 23.2053 3.94855 20.2562 4.188 20.0214L6.79267 19.7475Z" fill="white"/>
<path d="M27.2049 14.2649L28.6416 10.4255L29.922 13.7905C29.8731 14.0546 27.6154 14.2453 27.2049 14.2649Z" fill="white"/>
<path d="M19.2541 26.7414L19.1856 27.0153C18.2474 26.9762 17.4459 27.2794 16.5125 27.0153L16.9279 25.0981L19.2541 26.7463V26.7414Z" fill="white"/>
<path d="M14.0496 26.7365C13.9519 26.8344 11.5915 25.5921 11.5866 25.4356L12.8865 23.9977L14.0496 26.7365Z" fill="white"/>
<path d="M10.0815 13.0275L7.34488 13.9861C7.18851 13.8345 8.25383 11.9173 8.51283 11.6531C8.71808 11.6042 10.1646 12.9443 10.0864 13.0226L10.0815 13.0275Z" fill="white"/>
<path d="M17.4753 6.99706L17.0599 8.91427L14.7337 7.26605L14.8022 6.99217C15.7355 7.03129 16.5468 6.78675 17.4753 6.99217V6.99706Z" fill="white"/>
<path d="M19.9431 7.27584C20.0848 7.16335 22.4109 8.35182 22.406 8.5768L21.1062 10.0147L19.9431 7.27584Z" fill="white"/>
<path d="M10.0815 20.9849C9.74431 21.7919 9.72965 22.6674 9.67101 23.5233C9.65635 23.7287 9.77852 23.9194 9.46576 23.8607C9.24097 23.533 7.94596 21.8457 8.16587 21.5376L10.0766 20.9849H10.0815Z" fill="white"/>
<path d="M26.6527 20.0214C26.8188 20.1975 25.7682 22.0902 25.4847 22.3494L24.0529 21.1805L24.2239 20.9458L26.6527 20.0165V20.0214Z" fill="white"/>
<path d="M12.9549 10.0147L10.0815 9.53541C10.3894 9.25663 12.0558 8.03881 12.3294 8.10239C12.5591 8.26868 13.0234 9.94135 12.9549 10.0147Z" fill="white"/>
<path d="M25.8317 12.4797L24.0529 13.0275L24.3266 10.0098C24.7371 10.2152 26.0516 12.2254 25.8317 12.4748V12.4797Z" fill="white"/>
<path d="M23.9161 24.4085C23.7011 24.7362 21.8636 25.9589 21.6584 25.9149C21.4727 25.7192 20.9693 24.0661 21.0377 23.9977L23.9112 24.4085H23.9161Z" fill="white"/>
<path d="M6.9295 16.5929L8.85002 16.9353C8.40044 17.801 7.54036 18.4123 7.20317 19.3318C7.06633 19.3709 6.9295 18.7498 6.9295 18.7155V16.5929Z" fill="white"/>
<path d="M27.0632 17.4195L25.1427 17.0771C25.5923 16.2065 26.4719 15.6294 26.7895 14.6806C26.9264 14.6415 27.0632 15.2626 27.0632 15.2968V17.4195Z" fill="white"/>
<path d="M20.6272 23.9977L18.8436 24.4868C18.5601 24.2813 18.7703 23.1418 18.7116 22.7652L20.6272 23.9977Z" fill="white"/>
<path d="M12.8181 23.5868C12.564 23.3961 11.3765 22.5793 11.4498 22.2859L12.7546 21.3957C13.1749 21.3615 12.823 21.5425 12.823 21.6011V23.5868H12.8181Z" fill="white"/>
<path d="M11.0393 15.5023L9.12368 16.7299L9.53418 14.8126L11.0393 15.5023Z" fill="white"/>
<path d="M21.1746 10.4304C21.4482 10.5527 22.6064 11.4673 22.5429 11.7314L21.1746 12.4895V10.4304Z" fill="white"/>
<path d="M15.286 11.2472C14.7484 10.6261 13.9616 10.5185 13.3703 10.0147L15.154 9.52563C15.4374 9.73104 15.2273 10.8706 15.286 11.2472Z" fill="white"/>
<path d="M24.4634 19.1997L22.9583 18.4465L24.8739 17.2825L24.4634 19.1997Z" fill="white"/>
<path d="M11.8456 11.5407L12.5445 12.8954C11.7919 12.6313 11.1077 12.7976 10.3552 12.8954C10.5848 12.6069 11.4107 11.2912 11.8456 11.5407Z" fill="white"/>
<path d="M23.6424 21.1218L22.3376 22.4962C22.0982 22.5353 22.1617 22.4032 22.0933 22.3201C21.9662 22.1734 21.2039 21.0583 21.6486 21.1218C22.3865 21.2246 22.8752 21.3126 23.6424 21.1218Z" fill="white"/>
<path d="M18.3011 11.1103L17.3384 9.19305L19.1172 9.67725L18.3011 11.1103Z" fill="white"/>
<path d="M16.6543 24.8193C16.3611 24.8193 14.9243 24.565 14.8755 24.3351L15.628 22.9021C15.7698 23.6553 16.3757 24.1395 16.6543 24.8193Z" fill="white"/>
<path d="M22.8214 15.2235C23.2564 14.6659 23.6864 14.0203 23.7841 13.3063C24.1115 13.4139 24.5611 15.1305 24.4683 15.2235H22.8214Z" fill="white"/>
<path d="M11.1761 18.7889C10.7021 19.2242 10.58 19.8893 10.2525 20.3931C10.1646 20.5252 10.2672 20.6376 9.94467 20.5692L9.53418 18.7889H11.1761Z" fill="white"/>
<path d="M13.5023 14.9496L12.134 15.2235L12.7644 14.2698L13.5023 14.9496Z" fill="white"/>
<path d="M18.9853 13.4432L18.8484 12.2107L19.8014 12.827L18.9853 13.4432Z" fill="white"/>
<path d="M12.8181 16.8717L11.8603 17.9672V16.7347L12.8181 16.8717Z" fill="white"/>
<path d="M14.7337 12.4846L15.0074 13.4432C14.5725 13.3649 14.2646 13.0617 13.7759 13.1693C13.6489 12.8221 14.6458 12.421 14.7337 12.4846Z" fill="white"/>
<path d="M22.1324 17.2776C22.0542 17.3559 21.2674 17.1211 21.1746 16.9353C21.6193 16.7445 21.7854 16.4071 22.064 16.0451L22.1324 17.2776Z" fill="white"/>
<path d="M20.6272 14.9496L20.9693 13.7171L21.5802 14.6072L20.6272 14.9496Z" fill="white"/>
<path d="M20.2168 20.8431C20.466 21.0338 19.3518 21.6109 19.2589 21.5278L18.9853 20.5692C19.4202 20.6474 19.7281 20.9507 20.2168 20.8431Z" fill="white"/>
<path d="M13.3654 19.0628L13.0234 20.2953C12.8377 20.1632 12.4174 19.3269 12.5445 19.1997L13.3654 19.0628Z" fill="white"/>
<path d="M15.286 21.8017L14.3233 21.3224L14.9439 20.5692L15.286 21.8017Z" fill="white"/>
<path d="M21.8587 18.7889L21.243 19.7475L20.6272 19.1313L21.8587 18.7889Z" fill="white"/>
<path d="M17.3384 11.9368L17.0648 12.8954C16.6934 12.6656 16.6152 12.108 16.1069 12.0689C16.2878 11.7559 17.0208 12.0151 17.3384 11.9368Z" fill="white"/>
<path d="M17.8857 22.0756H16.7911L16.9279 21.117L17.8857 22.0756Z" fill="white"/>
</svg>
