<svg width="155" height="23" viewBox="0 0 155 23" fill="none" xmlns="http://www.w3.org/2000/svg">
<path d="M47.6794 22.5C43.5318 20.6726 48.5946 12.9751 42.8367 13.077V21.2478C43.0568 21.6869 44.3863 21.3526 44.5021 21.4687V22.3527H39.0512V21.4687H40.4125V3.80424H39.0483V2.92031H43.9692C44.1806 2.92031 45.3189 3.28861 45.594 3.40194C49.2955 4.95449 49.2029 11.0882 45.2581 12.4141C47.2884 13.5332 48.1254 14.5078 48.2905 16.8253C48.3455 17.6185 48.0414 21.0749 48.583 21.4036C49.7503 22.1119 49.8835 18.324 49.8661 17.78C51.7082 17.0122 50.8711 20.191 50.4801 21.0268C50.0891 21.8625 49.6489 22.0495 48.8901 22.5H47.6794ZM42.8367 12.0486C45.8576 12.2384 45.9329 8.33723 45.5216 6.27189C45.2146 4.72217 44.6296 3.75608 42.8367 3.80424V12.0486Z" fill="#1C1D23"/>
<path d="M155 19.7037C154.652 21.4886 152.831 23.3188 150.989 21.9107C148.202 19.783 152.17 12.8022 146.977 12.9297V21.3214H148.643C148.637 21.6359 148.747 22.0467 148.393 22.1855C148.13 22.2705 143.823 22.279 143.42 22.2054C142.914 22.1147 143.044 21.7266 143.041 21.3214C143.145 21.2166 144.35 21.5282 144.556 21.1004V3.65692L143.183 3.59176L143.041 2.77299H148.113C149.155 2.77299 150.757 3.79857 151.342 4.63718C153.187 7.28331 152.416 11.057 149.248 12.2668C153.196 13.9071 151.999 16.9896 152.269 20.2222C152.298 20.5678 152.356 21.4517 152.929 21.3016C153.555 20.9616 153.694 20.2448 153.769 19.6102C153.844 18.9756 153.488 17.3777 154.467 17.4825L155 17.9358V19.7037ZM146.977 11.9013C150.039 12.1563 149.986 7.69411 149.48 5.71376C149.12 4.3057 148.48 3.80424 146.977 3.65692V11.9013Z" fill="#1C1D23"/>
<path d="M2.12011 21.4687L6.06202 0.718973L7.6521 0.701974L11.6548 21.4687H14.8321L14.9856 3.80141H13.3202V2.91747H17.5576L20.813 16.6099L23.915 2.91747H28.0017L27.8598 3.73625L26.3363 3.79857L26.4869 21.4659H28.0017V22.3498H22.4002V21.4659H23.915V7.63179L20.4423 22.2904L19.5386 22.3413L16.1181 8.07375L16.1934 21.4744H17.8588V22.3583H7.264V21.4744H8.77878L7.69845 15.0177C7.56811 14.9384 4.91507 14.9441 4.61675 14.9979C4.44587 15.0291 4.30974 15.0489 4.2605 15.2387L3.48139 21.4772H5.45089V22.3612H0V21.4772H2.12011V21.4687ZM7.56811 14.1083L6.13153 5.56644L4.54145 14.1083H7.56811Z" fill="#1C1D23"/>
<path d="M64.0292 21.4687C64.4491 21.3951 65.4889 21.6841 65.6656 21.2223L69.2744 2.91464L70.8327 2.92881L74.2445 21.4716H76.7412C77.3088 15.6099 76.9381 9.69146 77.0453 3.80424H75.2264V2.92031H79.6172L83.0233 15.1424L82.948 3.80424H81.5838L81.8126 2.92031H86.1253V3.80424H84.3093L84.1587 22.3555L82.4759 22.2677L78.1778 6.60053L78.1024 20.2193L78.2531 21.4744H79.6172V22.3583H70.2302V21.4744H71.4438L70.6618 16.1255C70.4967 15.641 68.1999 15.9668 67.6757 15.896L66.9023 21.4744H68.7212V22.3583H64.0292V21.4687ZM70.3866 14.8449L69.2513 7.62895L67.8147 14.8449H70.3866Z" fill="#1C1D23"/>
<path d="M99.2978 21.4687L101.015 21.4772L104.685 2.91181H106.162L109.591 21.4716H112.618C113.174 15.6099 112.821 9.69146 112.922 3.80424H111.103V2.92031H115.494L118.9 15.1424L118.825 3.80424H117.461V2.92031H121.547V3.80424H120.183L119.891 22.2904L118.222 22.347L113.829 6.45321L113.979 21.1004L114.228 21.4489L115.494 21.4687L115.265 22.3527H105.806V21.4687C106.075 21.3724 107.028 21.7067 107.022 21.2478C107.002 19.664 106.278 17.5109 106.087 15.896C105.551 15.9527 103.251 15.6495 103.101 16.117L102.475 21.4716H104.294V22.3555H99.2978V21.4687ZM105.956 14.8449C105.432 12.7682 105.426 10.3346 104.896 8.29474C104.844 8.09075 104.899 7.83577 104.595 7.77911L103.382 14.8449H105.956Z" fill="#1C1D23"/>
<path d="M95.437 0.563151C101.175 1.18927 102.2 8.3344 96.8765 10.3544C100.245 11.8475 101.852 15.3152 100.537 18.7744C99.5527 21.3668 96.8417 22.2054 94.235 22.3612C93.2995 22.4178 90.8029 22.5 89.989 22.3555C89.4821 22.2649 89.6125 21.8767 89.6096 21.4716L91.33 21.4517L91.5791 21.1033V1.53208L89.7515 1.38192L89.6096 0.563151C91.4632 0.710473 93.621 0.364833 95.437 0.563151ZM94.151 1.44708V9.98611C97.3949 10.0626 97.7512 6.28605 97.2906 3.91473C96.946 2.12987 96.0452 1.43859 94.151 1.44708ZM94.151 11.0174V21.2506C94.151 21.5934 95.4254 21.3328 95.6658 21.2506C98.2493 20.4063 97.9394 15.5702 97.4065 13.519C96.9749 11.8645 96.0336 10.8134 94.151 11.0174Z" fill="#1C1D23"/>
<path d="M127.224 2.92031L127.453 3.80424H125.788V11.6067L129.57 4.01956C129.712 3.56343 128.481 3.92323 128.362 3.80141L128.591 2.91747H132.603V3.80141L130.708 3.9459L127.928 9.90395L131.265 21.2223C131.415 21.7039 132.637 21.3526 132.753 21.4659V22.3498H128.061V21.4659C128.154 21.3753 128.942 21.6671 128.794 21.2704L126.396 13.0742C126.21 13.1025 125.791 13.6465 125.791 13.7372V21.4659H127.001V22.3498H122.005V21.4659H123.366V3.80424H121.852V2.92031H127.224Z" fill="#1C1D23"/>
<path d="M37.9941 2.92031V9.69146H36.934C37.0672 7.9236 36.6299 4.05639 34.4026 3.69092C33.9971 3.62575 33.4323 3.53509 33.1514 3.87507V11.1619C33.8552 11.3177 34.0666 10.6661 34.2839 10.1306C34.6662 9.19284 34.7096 8.18141 34.8168 7.18982H35.7233V16.3153H34.8168C34.614 15.0602 34.7357 12.6521 33.1514 12.3404V21.4687C36.5053 21.8399 36.9427 17.8197 36.934 15.4314L37.9941 15.6523V22.1317L37.7681 22.3527H29.0647V21.4687H30.5795V3.80424H29.0647V2.92031H37.9941Z" fill="#1C1D23"/>
<path d="M142.135 2.92031V9.69146H141.074C141.228 7.9406 140.738 4.05072 138.543 3.69092C138.138 3.62575 137.573 3.53509 137.292 3.87507V11.1619C138.925 11.295 138.697 7.43063 138.972 7.20398L139.864 7.18699V16.3153L138.972 16.2983C138.694 16.0717 138.922 12.2044 137.292 12.3404V21.4687C140.689 21.939 141.129 17.8084 141.074 15.4314H142.135V22.3527H133.657V21.4687H134.868V3.80424H133.503V2.92031H142.135Z" fill="#1C1D23"/>
<path d="M64.1798 9.83879H63.2703C63.1487 8.43356 63.0995 7.00567 62.6563 5.65144C61.7121 2.77299 60.0467 2.82115 59.3806 5.83275C58.7492 8.68287 58.4277 18.358 59.8585 20.7406C60.2234 21.3469 60.4667 21.4319 61.2342 21.3299C62.1726 21.2053 62.7374 19.8142 62.9257 18.9983C63.0908 18.2843 63.1921 15.0347 63.337 14.8336C63.4818 14.6324 63.9886 14.6353 64.1856 14.7627C64.7243 15.1112 64.2667 17.8962 64.1334 18.5535C63.0676 23.8344 58.8708 23.4066 57.0606 18.8963C55.6472 15.3747 55.7515 10.9579 56.8723 7.37114C57.4574 5.49845 58.949 2.11003 61.463 2.68799C62.0886 2.83248 62.3435 3.37361 63.0386 3.36511C63.4818 3.35944 63.2008 2.92031 63.2674 2.62283H64.1769V9.83879H64.1798Z" fill="#1C1D23"/>
<path d="M55.8557 2.92031V3.80424H54.4945V21.2506C54.6827 21.6614 55.763 21.3781 55.8586 21.4716V22.3555H51.0131V21.4716H52.0731V3.80424H50.8625V2.92031H55.8586H55.8557Z" fill="#1C1D23"/>
</svg>
