<svg width="91" height="28" viewBox="0 0 91 28" fill="none" xmlns="http://www.w3.org/2000/svg">
<path d="M59.1092 27.9966C54.5404 27.7513 50.7382 23.9562 50.447 19.2992C50.4269 14.3833 50.4938 9.46052 50.4135 4.548C50.2796 3.52598 49.5566 2.80034 48.5291 2.76627V1.94866H56.3545V2.76627C55.2701 2.79693 54.517 3.57708 54.4367 4.67064V19.8988C55.0492 26.8724 64.8795 26.903 65.4184 19.8681V4.73537C65.3347 3.63159 64.5917 2.82759 63.4871 2.76287L63.4369 2.72199V1.99976L63.4838 1.95206H70.7837L70.8306 1.99976V2.72199C70.7268 2.79012 70.5628 2.7799 70.4289 2.81737C69.5051 3.05244 68.9797 3.71675 68.8859 4.67745V18.9892C68.6784 23.8165 64.836 27.7411 60.0965 28H59.1058L59.1092 27.9966Z" fill="white"/>
<path d="M91 8.87115V10.2236C90.7423 12.4482 89.4202 14.5434 87.4956 15.6403C85.5711 16.7373 83.3486 16.4852 81.5646 15.2656C81.5747 15.1702 81.645 14.7478 81.7085 14.7239C83.5059 14.942 85.5711 14.8806 86.7057 13.2318C89.1056 9.75009 86.6923 4.8035 82.5989 4.37085C81.8558 4.29249 80.9521 4.30953 80.2794 4.65361L80.266 24.4263C80.3496 25.5914 81.1128 26.5419 82.3077 26.5828V27.4004H74.3885V26.6305C74.5191 26.5555 74.7031 26.5589 74.8605 26.5113C75.7909 26.2285 76.1591 25.2712 76.216 24.365C76.3332 22.4334 76.1892 20.3042 76.1825 18.3589C76.1692 13.7394 76.2261 9.10962 76.1457 4.49349C75.9918 3.48169 75.2454 2.80034 74.2379 2.76968V1.95206L82.5721 1.98272C86.6622 2.15647 90.6753 4.29931 91 8.87115Z" fill="white"/>
<path d="M33.889 1.95206C36.7441 2.04064 39.887 2.79353 41.6475 5.26001C43.4482 7.77759 43.3646 11.4671 41.3865 13.8586C40.707 14.6796 39.7999 15.2656 38.8527 15.7153C39.4083 16.1037 39.8736 16.6113 40.3054 17.1325C42.3036 19.5445 44.0641 22.3516 46.1661 24.6648C47.207 25.8129 48.5124 26.6237 50.1089 26.5521L50.2294 27.1074C50.2361 27.1483 50.2093 27.1551 50.1859 27.1756C50.0453 27.2812 49.6671 27.4379 49.493 27.5094C45.1486 29.2843 42.1228 25.6017 39.7999 22.4572C38.3908 20.5529 36.8646 17.6163 34.8898 16.3762C34.4915 16.1275 34.0664 15.9231 33.6079 15.8243L33.6849 15.143C35.8504 15.1702 38.0963 14.6933 39.1038 12.5402C40.6668 9.20161 38.6184 5.08967 35.0505 4.4458C34.3041 4.30953 33.2966 4.27205 32.5703 4.51393C32.4598 4.55141 32.259 4.59569 32.259 4.73196V24.3343C32.346 25.5676 33.1761 26.5453 34.4246 26.5828V27.4004H26.4753V26.5828C27.6267 26.5419 28.1689 25.4824 28.2392 24.4263V4.76603C28.1589 3.54982 27.2719 2.80375 26.1038 2.76968V1.95206H33.889Z" fill="white"/>
<path d="M24.283 26.5828V27.4004H16.086V26.5828C16.6784 26.5828 17.4181 26.3307 17.6256 25.7107C17.803 25.1826 17.6156 24.6818 17.4315 24.1913C16.7621 22.4129 15.8952 20.6721 15.2158 18.8938L15.1589 18.795H7.45726C6.87487 20.4949 6.24897 22.1813 5.69336 23.8915C5.50927 24.457 5.24485 25.0872 5.44567 25.6868C5.6465 26.2864 6.35942 26.5794 6.96189 26.5828V27.4004H0V26.5828C1.04763 26.4704 1.79403 25.5369 2.20237 24.6205L11.1056 0L11.1926 0.115829L22.191 25.1077C22.6262 25.8878 23.3625 26.5521 24.2796 26.5862L24.283 26.5828ZM14.3221 16.7373L10.9349 8.61905L8.16684 16.7373H14.3221Z" fill="white"/>
</svg>
