<svg width="142" height="22" viewBox="0 0 142 22" fill="none" xmlns="http://www.w3.org/2000/svg">
<path d="M117.674 18.984L109.518 0.5H103.783L95.4922 19.7005H99.6064L101.275 15.8653H103.919C103.919 15.8653 110.439 15.4427 113.878 19.7087H117.992L117.675 18.984H117.674ZM102.951 12.0219L106.74 3.30991L110.965 13.0075C109.136 12.329 107.2 11.9955 105.255 12.0219H102.951Z" fill="#25252A"/>
<path d="M110.972 13.0075C113.859 14.0691 116.253 16.2005 117.683 18.984L109.526 0.5H107.938L106.722 3.30165L110.972 13.0075Z" fill="url(#paint0_linear_6151_45670)"/>
<path d="M22.4987 19.7005C22.4069 19.4545 22.3006 19.2151 22.1815 18.984L22.4987 19.7005Z" fill="#25252A"/>
<path d="M22.1815 18.984L14.0254 0.5H8.29128L0 19.7005H4.11424L5.78248 15.8653H8.42654C8.42654 15.8653 14.9465 15.4427 18.3861 19.7087H22.5003L22.1831 18.984H22.1815ZM9.75984 12.0219H7.45716L11.2381 3.30991L15.4634 13.0075C13.6358 12.329 11.705 11.9955 9.76145 12.0219H9.75984Z" fill="#25252A"/>
<path d="M117.999 19.7005C117.914 19.4545 117.809 19.2151 117.69 18.984L117.999 19.7005Z" fill="#25252A"/>
<path d="M125.355 0.508255H121.343L125.355 0.524764V0.508255Z" fill="url(#paint1_linear_6151_45670)"/>
<path d="M142 0.508255H137.981V14.7988L126.49 0.533019L125.355 0.524764L121.343 0.508255V19.7087H125.355V5.48255L136.87 19.7814H142L141.936 19.7087H142V0.508255Z" fill="#25252A"/>
<path d="M44.0699 0.5H40.0587V10.2719C40.0587 13.483 37.5193 16.0849 34.3889 16.0849H33.0943C29.9623 16.0849 27.4245 13.4814 27.4245 10.2719V0.5H23.4214V10.5972C23.4214 15.6243 27.3971 19.7005 32.3004 19.7005H35.1908C40.0941 19.7005 44.0699 15.6243 44.0699 10.5972V0.5Z" fill="#25252A"/>
<path d="M93.2926 0.5H89.3216V10.2719C89.3216 13.483 86.7822 16.0849 83.6519 16.0849H82.3572C79.2253 16.1031 76.673 13.5144 76.6553 10.3033C76.6553 10.2917 76.6553 10.2818 76.6553 10.2703V0.5H72.6843V10.5972C72.6892 15.6226 76.6617 19.6955 81.5634 19.7005H84.4619C89.349 19.6741 93.2974 15.6078 93.3006 10.5972L93.2926 0.5Z" fill="#25252A"/>
<path d="M65.5992 17.5179C66.1225 17.087 66.5943 16.595 67.0049 16.0519C68.174 14.3019 68.7859 12.2217 68.7521 10.1002C68.7521 5.40991 66.5895 2.40354 62.2643 1.07783C61.0196 0.696462 59.7281 0.501651 58.4286 0.5H57.7926C54.4013 0.613915 51.8684 1.75472 50.1132 3.89599C48.7284 5.64434 48.015 7.85 48.1036 10.1002C48.1036 14.8384 50.2501 17.8465 54.5447 19.1226C55.7958 19.5106 57.0969 19.7054 58.4045 19.7005H59.493C59.493 19.7005 63.0743 19.7005 63.9889 21.5H68.7537C68.0403 19.9267 66.9566 18.558 65.6008 17.5179H65.5992ZM58.4512 15.9627C57.6444 15.966 56.8425 15.8472 56.068 15.6127C53.4207 14.8318 52.097 12.9943 52.097 10.1002C52.0439 8.72665 52.4819 7.37948 53.3273 6.31462C54.5318 4.95259 56.2612 4.20472 58.0534 4.27075H58.3868C59.1935 4.27406 59.9954 4.39127 60.77 4.62075C63.2449 5.19198 64.9373 7.53962 64.7409 10.1333C64.7634 11.4292 64.3882 12.6988 63.6684 13.7653C62.5574 15.2363 60.8086 15.9726 58.427 15.9726L58.4512 15.9644V15.9627Z" fill="#25252A"/>
<path d="M67.0049 16.0436C68.174 14.2953 68.7843 12.2184 68.7521 10.1002C68.7521 5.40991 66.5895 2.40354 62.2643 1.07783C61.0179 0.699764 59.7265 0.504953 58.4286 0.5V4.23774C59.2354 4.23774 60.0373 4.35495 60.8118 4.58774C63.4591 5.3967 64.7827 7.2342 64.7827 10.1002C64.8037 11.3962 64.4285 12.6658 63.7103 13.7323C62.5718 15.2248 60.8118 15.971 58.4286 15.971H60.6444C62.414 15.938 64.1483 16.4861 65.5927 17.5344C66.1209 17.0986 66.5959 16.5984 67.0065 16.0436H67.0049Z" fill="url(#paint2_linear_6151_45670)"/>
<path d="M15.4779 13.0075C18.3635 14.0708 20.758 16.2038 22.1895 18.984L14.0335 0.5H12.4458L11.2542 3.30991L15.4795 13.0075H15.4779Z" fill="url(#paint3_linear_6151_45670)"/>
<path d="M121.343 19.7005H125.355V5.48255L121.343 0.5V19.7005Z" fill="url(#paint4_linear_6151_45670)"/>
<path d="M142 0.5H137.981V14.7988L141.936 19.7005H142V0.5Z" fill="url(#paint5_linear_6151_45670)"/>
<defs>
<linearGradient id="paint0_linear_6151_45670" x1="-3.79668" y1="-0.10209" x2="-2.23397" y2="30.0072" gradientUnits="userSpaceOnUse">
<stop offset="0.14" stop-color="#131315"/>
<stop offset="0.75" stop-color="#25252A"/>
</linearGradient>
<linearGradient id="paint1_linear_6151_45670" x1="70.9715" y1="24421.4" x2="70.9715" y2="0.5" gradientUnits="userSpaceOnUse">
<stop offset="0.41" stop-color="#25252A"/>
<stop offset="1" stop-color="#131315"/>
</linearGradient>
<linearGradient id="paint2_linear_6151_45670" x1="-23.1877" y1="-0.883989" x2="-21.6561" y2="27.9933" gradientUnits="userSpaceOnUse">
<stop offset="0.44" stop-color="#25252A"/>
<stop offset="1" stop-color="#131315"/>
</linearGradient>
<linearGradient id="paint3_linear_6151_45670" x1="-4.11927" y1="-0.10209" x2="-2.56022" y2="30.0075" gradientUnits="userSpaceOnUse">
<stop offset="0.14" stop-color="#25252A"/>
<stop offset="0.75" stop-color="#131315"/>
</linearGradient>
<linearGradient id="paint4_linear_6151_45670" x1="-4295.69" y1="21.4982" x2="-4295.68" y2="0.498449" gradientUnits="userSpaceOnUse">
<stop offset="0.41" stop-color="#25252A"/>
<stop offset="1" stop-color="#131315"/>
</linearGradient>
<linearGradient id="paint5_linear_6151_45670" x1="139.991" y1="0.5" x2="139.991" y2="19.6988" gradientUnits="userSpaceOnUse">
<stop offset="0.41" stop-color="#25252A"/>
<stop offset="1" stop-color="#131315"/>
</linearGradient>
</defs>
</svg>
