<svg width="18" height="16" viewBox="0 0 18 16" fill="none" xmlns="http://www.w3.org/2000/svg">
<path id="Vector" d="M16.2 2.85714H12V1.71429C12 0.769143 11.1924 0 10.2 0H7.8C6.8076 0 6 0.769143 6 1.71429V2.85714H1.8C0.8076 2.85714 0 3.62629 0 4.57143V14.2857C0 15.2309 0.8076 16 1.8 16H16.2C17.1924 16 18 15.2309 18 14.2857V4.57143C18 3.62629 17.1924 2.85714 16.2 2.85714ZM7.2 1.71429C7.2 1.39886 7.4694 1.14286 7.8 1.14286H10.2C10.5306 1.14286 10.8 1.39886 10.8 1.71429V2.85714H7.2V1.71429ZM1.8 4H16.2C16.5306 4 16.8 4.256 16.8 4.57143V6.85714C16.8 7.80229 15.9924 8.57143 15 8.57143H10.8V7.42857C10.8 7.11257 10.5312 6.85714 10.2 6.85714H7.8C7.4688 6.85714 7.2 7.11257 7.2 7.42857V8.57143H3C2.0076 8.57143 1.2 7.80229 1.2 6.85714V4.57143C1.2 4.256 1.4694 4 1.8 4ZM8.4 8H9.6V9.71429C9.6 10.0297 9.3306 10.2857 9 10.2857C8.6694 10.2857 8.4 10.0297 8.4 9.71429V8ZM16.2 14.8571H1.8C1.4694 14.8571 1.2 14.6011 1.2 14.2857V9.12857C1.7028 9.49086 2.322 9.71429 3 9.71429H7.2C7.2 10.6594 8.0076 11.4286 9 11.4286C9.9924 11.4286 10.8 10.6594 10.8 9.71429H15C15.678 9.71429 16.2972 9.49086 16.8 9.12857V14.2857C16.8 14.6011 16.5306 14.8571 16.2 14.8571Z" fill="#7C8AFF"/>
</svg>
