<svg width="161" height="18" viewBox="0 0 161 18" fill="none" xmlns="http://www.w3.org/2000/svg">
<path d="M0 0.256875C2.77113 0.46291 5.92532 -0.0218775 8.64857 0.256875C10.2526 0.420491 11.2102 1.45672 11.3838 3.05652C11.5155 4.30485 11.6292 7.44385 10.7194 8.32252C10.5159 8.5225 10.1449 8.56492 10.0611 8.80731C10.6895 8.93457 11.2102 9.51025 11.3958 10.1041C11.6711 11.007 11.6412 15.0914 11.3359 16.0003C10.9349 17.182 9.83962 17.8001 8.66054 17.9031C5.90138 18.1455 2.80106 17.7153 0.00598517 17.9031V0.256875H0ZM3.22002 7.44991H7.71489C7.71489 7.44991 8.08597 7.11055 8.11589 7.03784C8.24158 6.75908 8.24158 4.28061 8.17575 3.85642C8.13983 3.60797 8.03809 3.40193 7.84656 3.23832H3.22002V7.44991ZM7.84656 10.298C6.54778 10.0617 4.59063 10.4738 3.22002 10.298V14.9156H7.97823C8.16378 14.746 8.26552 14.546 8.30742 14.2975C8.38523 13.8067 8.37326 10.8252 8.1937 10.5283C8.14582 10.4556 7.92437 10.3162 7.84656 10.298Z" fill="white"/>
<path d="M105.142 0.117499L111.582 11.2494V0.323533L111.779 0.117499H114.664V17.7638H111.582L105.142 6.63183V17.7638H102.059V0.117499H105.142Z" fill="white"/>
<path d="M143.028 0.117499C144.111 0.268995 145.224 1.32341 145.452 2.41418C145.661 3.45041 145.619 6.91664 145.518 8.06195C145.368 9.75871 144.428 10.4859 142.896 10.8434C142.734 10.8798 142.651 10.7404 142.692 11.0434L147.116 17.7638H143.698L139.203 10.9767H137.192V17.5577L136.989 17.7638H133.834V0.117499H143.028ZM142.297 3.105H137.192V7.98923H142.297V3.105Z" fill="white"/>
<path d="M80.3988 0.117499C81.4223 0.262935 82.6014 1.23857 82.8228 2.28086C83.0263 3.24438 83.0143 7.41355 82.8827 8.46796C82.7271 9.77082 81.3086 10.8798 80.0637 10.904L84.4867 17.7577H80.9973L76.5025 10.9707H74.5573V17.7577H71.3373V0.117499H80.3988ZM79.3275 3.105H74.5693V7.98923H79.3275C79.3813 7.98923 79.6267 7.83168 79.6746 7.75896C79.8781 7.42567 79.8721 3.95944 79.6986 3.54131C79.6567 3.43829 79.4053 3.12318 79.3335 3.09894L79.3275 3.105Z" fill="white"/>
<path d="M160.935 4.18971H157.584C157.596 3.82612 157.667 3.26256 157.219 3.12924C156.937 3.0444 153.52 3.0444 153.25 3.12924C152.574 3.33527 152.616 5.88647 152.963 6.35307C153.31 6.81968 157.739 7.7832 158.691 8.15285C159.726 8.55886 160.798 9.26786 160.935 10.498C161.037 11.4252 161.043 15.1398 160.774 15.8973C160.403 16.9214 159.361 17.6183 158.308 17.7456C156.794 17.9274 153.011 17.9274 151.485 17.7638C150.533 17.6607 149.54 16.8002 149.54 15.7943V13.6915H152.891C152.837 14.0188 152.951 14.7763 153.358 14.7763H157.38C157.38 14.7763 157.62 14.5642 157.643 14.5036C157.757 14.249 157.769 11.9766 157.721 11.5827C157.697 11.3949 157.697 11.2252 157.524 11.104C155.806 10.3586 153.771 10.1223 152.047 9.45571C151 9.0497 149.821 8.371 149.665 7.11661C149.557 6.23794 149.557 3.105 149.725 2.28692C149.982 1.05677 151.239 0.244756 152.418 0.123559C153.873 -0.0279373 157.703 -0.0582365 159.11 0.135678C159.69 0.214456 160.929 0.911338 160.929 1.54762V4.19577L160.935 4.18971Z" fill="white"/>
<path d="M129.818 0.117499V3.105H122.445V7.44991H129.148V10.298H122.445V14.7763H129.818V17.7638H119.225V0.117499H129.818Z" fill="white"/>
<path d="M43.584 10.9767V17.7638H40.364V0.117499H49.5512C50.4969 0.117499 51.676 1.26281 51.9633 2.15361C52.3164 3.24438 52.3044 7.95893 51.9393 9.0497C51.7119 9.72235 50.5328 10.9767 49.8206 10.9767H43.584ZM48.4799 3.105C47.1093 2.85655 45.0384 3.29286 43.584 3.105V7.98923H48.6116C48.851 7.7832 48.9168 7.55292 48.9467 7.24387C49.0066 6.71061 49.0006 3.62615 48.8211 3.32921C48.7732 3.2565 48.5517 3.11712 48.4739 3.09894L48.4799 3.105Z" fill="white"/>
<path d="M68.2609 17.7638H65.0409L63.8379 14.0248L58.0143 13.9521L56.8591 17.7638H53.6391L59.5405 0.184157C60.0253 0.129619 62.2039 -0.0218775 62.4254 0.250815L68.2549 17.7638H68.2609ZM62.8982 11.11L60.953 4.59572L59.0078 11.11H62.8982Z" fill="white"/>
<path d="M26.8196 4.7351H23.8689C23.8988 4.36545 23.9347 3.24438 23.402 3.24438H19.0448V14.9156H23.2704C23.6055 14.9156 23.8629 13.74 23.7372 13.4249H26.622L26.8255 13.6309V16.0731C26.8255 16.7578 25.9756 17.6426 25.3233 17.8122C24.4135 18.0546 18.3027 18.0486 17.2672 17.8728C16.4293 17.7335 15.8487 17.0608 15.8188 16.2185C16.16 11.6433 15.3879 6.45003 15.8188 1.95363C15.9146 0.941637 16.5011 0.372012 17.5006 0.262935C19.0688 0.0932595 23.4738 0.0629603 25.0001 0.275055C25.7961 0.384132 26.8196 1.26887 26.8196 2.09301V4.74116V4.7351Z" fill="white"/>
<path d="M98.7075 3.105H93.8774V17.7638H90.7951V3.105H86.0967V0.117499H98.504L98.7075 0.323533V3.105Z" fill="white"/>
</svg>
