<svg width="101" height="40" viewBox="0 0 101 40" fill="none" xmlns="http://www.w3.org/2000/svg">
<path d="M100.425 20C100.425 31.0491 91.4829 40 80.461 40C69.439 40 60.4965 31.0415 60.4965 20C60.4965 8.95849 69.4315 0 80.461 0C91.4904 0 100.425 8.95849 100.425 20ZM71.104 14.717V28.9887H89.9535V14.717L85.7572 9.2C83.8135 8.87547 82.2841 14.0679 80.5288 14.0755L75.7674 9.26038L71.104 14.717Z" fill="#EFEEE6"/>
<path d="M18.0511 27.4491L20.6804 28.5434L15.4294 28.9887C15.015 27.6 16.5444 28.3547 16.9813 27.7057L17.1923 16.0981L15.4219 14.9359C16.906 15.1623 19.8367 14.4075 20.9064 15.366C22.1269 16.4528 23.9802 22.8 25.0726 24.5962C25.7205 25.0868 29.5854 15.7057 30.0675 15.3358C30.8962 14.6868 35.5898 14.8226 35.5973 15.1547C35.1528 15.6302 34.3166 15.3585 33.7892 15.9849C33.0961 16.8075 33.194 27.5094 33.8118 27.917L35.5898 28.1132C35.6049 28.4377 35.2282 28.8075 34.9494 28.8377C33.2016 29.034 30.0901 27.7887 28.1389 28.9887L30.2107 26.9358L30.3237 17.5698L24.4021 28.9962L23.2269 27.9774L18.0511 17.5698V27.4491Z" fill="#EFEEE6"/>
<path d="M10.8187 14.9359C13.4028 15.3736 14.0959 18.7925 12.1597 20.2264C11.2858 20.8755 9.67358 20.5132 9.28936 21.517C12.1296 21.2226 13.9151 22.1434 13.6966 25.2453C13.2823 31.0943 3.57876 27.3283 0.0830839 28.9811C-0.255936 27.6075 1.5371 28.0679 2.25281 27.6302L2.29048 16.0755C2.01173 15.1019 -0.459348 16.4906 0.0755502 14.9283C3.33014 15.3132 7.72233 14.4 10.8187 14.9283V14.9359ZM9.22156 15.8717L5.33413 15.8113V21.0868L9.17636 20.5434C10.0126 19.1094 9.877 17.3358 9.21402 15.8792L9.22156 15.8717ZM5.33413 28.1132C12.107 29.1472 12.0769 20.3698 5.33413 21.5245V28.1132Z" fill="#EFEEE6"/>
<path d="M41.6093 15.0415C46.2727 14.2566 50.9135 15.1094 51.9381 20.2868C54.0325 30.883 37.315 32.0906 36.4637 23.0641C36.1171 19.3585 37.654 15.7057 41.6093 15.0415ZM42.9202 15.4566C38.7012 16.3623 38.3999 28.6717 44.4194 28.3019C48.917 28.0226 48.7438 22.5962 48.2616 19.1396C47.8774 16.3925 45.6624 14.8604 42.9202 15.4491V15.4566Z" fill="#EFEEE6"/>
<path d="M71.541 22.8377L75.014 17.8642C76.8975 16.0377 79.5268 22.3245 80.1069 22.4226C81.9753 22.7396 83.6402 17.0642 85.712 17.6075C86.3222 17.766 89.2303 21.834 89.5166 22.8377H71.541Z" fill="#EFEEE6"/>
</svg>
