<svg width="210" height="24" viewBox="0 0 210 24" fill="none" xmlns="http://www.w3.org/2000/svg">
<path d="M21.1499 0.27837V10.9207H11.3762V12.8339H21.1499V23.6868H4.20873C4.04869 23.6868 2.93414 23.2246 2.71123 23.0959C1.5681 22.4289 0.802202 21.0014 0.625017 19.6967C0.173481 16.3384 0.322088 8.79692 0.562145 5.26898C0.687889 3.40262 1.30518 1.4485 3.12847 0.658662C3.28279 0.588454 4.3459 0.27837 4.42021 0.27837H21.1556H21.1499Z" fill="#1C1D23"/>
<path d="M72.6079 0.494844C76.8375 1.0097 80.2154 6.07052 77.1633 9.84419C76.9003 10.1718 75.8201 10.8388 76.0373 11.1372C80.9699 12.7812 80.6269 20.27 76.2545 22.5343C75.7686 22.7858 73.8768 23.4821 73.4424 23.4821H64.8175V0.494844C67.2866 0.711318 70.2016 0.202311 72.6136 0.494844H72.6079ZM69.1785 9.42879C71.4705 9.61016 74.8427 9.24742 73.8653 6.01201C73.7282 5.54981 72.5564 4.53179 72.1906 4.53179H69.1785V9.42879ZM69.1785 19.4334H72.8194C72.8937 19.4334 73.8939 19.0648 74.0368 18.9771C75.5286 18.1053 75.8258 15.8411 74.6655 14.5598C74.3855 14.2497 72.9108 13.4716 72.6079 13.4716H69.1785V19.4334Z" fill="#1C1D23"/>
<path d="M61.9025 7.08853H57.2271C53.3576 1.89315 45.5729 3.74196 44.1211 10.0548C42.5893 16.707 49.7453 22.8268 55.5295 18.5383C55.8668 18.2867 56.9184 17.0873 57.0213 17.0873H61.9082C59.2447 23.7102 51.0656 25.951 45.2071 22.154C37.4052 17.099 38.0454 5.09346 46.3788 1.08576C51.9744 -1.60554 59.9191 0.822481 61.9025 7.08268V7.08853Z" fill="#1C1D23"/>
<path d="M158.783 12.8339C158.383 21.7269 148.386 26.6063 140.973 22.4465C135.423 19.3281 133.074 12.5706 136.012 6.65558C140.384 -2.1321 153.181 -2.1789 157.537 6.55027L154.97 6.62633C148.409 -3.44264 132.925 5.15781 137.955 16.1687C141.247 23.3826 151.918 23.7219 155.496 16.59C155.633 16.3209 156.279 14.9577 155.771 14.9577H143.402C143.482 14.2556 143.145 13.337 143.716 12.828H158.788L158.783 12.8339Z" fill="#1C1D23"/>
<path d="M93.4986 0.494844L105.97 19.4334V0.494844H108.256V23.4762L105.804 23.4294C101.626 17.3506 97.8425 10.7686 93.5843 4.76582C93.27 4.32702 92.9156 3.74781 92.4583 3.47283V23.4762H90.1721V0.494844H93.4986Z" fill="#1C1D23"/>
<path d="M165.018 0.494844V10.3883L165.327 10.7101H176.347L176.661 10.3883V0.494844H178.948V23.4762H176.661V12.8339H165.018V23.4762H162.732V0.494844H165.018Z" fill="#1C1D23"/>
<path d="M124.689 6.45081L122.597 6.3572C122.345 5.0291 121.705 3.46698 120.516 2.74149C116.064 0.0326422 111.257 7.03587 117.133 9.61016C120.648 11.1489 124.809 11.2366 125.289 16.3677C126.186 25.951 111.394 26.6122 111.594 17.0873H113.881C113.566 23.3065 123.129 23.2948 123.043 17.1985C122.957 11.2074 114.012 13.7115 112.36 8.11239C109.651 -1.05558 124.786 -3.31978 124.695 6.45081H124.689Z" fill="#1C1D23"/>
<path d="M208.675 6.45081L206.583 6.3572C206.274 4.88868 205.771 3.38507 204.376 2.65373C199.781 0.249116 195.426 7.12363 201.113 9.61016C204.496 11.0904 208.72 11.2483 209.275 16.157C210.378 25.9335 195.511 26.7292 195.574 17.0931H197.861C197.815 23.5874 207.543 23.2188 207.011 16.7772C206.554 11.1898 196.877 13.5008 196.197 7.41031C195.151 -1.95073 208.715 -2.54164 208.675 6.45081Z" fill="#1C1D23"/>
<path d="M33.2099 12.8339V20.3871C33.2099 20.7498 32.2897 22.2125 31.9696 22.5226C31.6496 22.8326 30.1292 23.6868 29.7805 23.6868H23.0246V13.1557L23.339 12.8339H33.2156H33.2099Z" fill="#1C1D23"/>
<path d="M23.0246 10.9207V0.600156L23.339 0.27837H29.5748C30.7922 0.27837 33.2156 2.27929 33.2156 3.57814V10.9207H23.0246Z" fill="#1C1D23"/>
<path d="M194.328 0.494844V2.62448H189.441L189.127 2.94627V23.4821H186.841V2.61863H181.954C181.382 2.10962 181.72 1.19107 181.64 0.488993H194.323L194.328 0.494844Z" fill="#1C1D23"/>
<path d="M85.3938 0.494844H83.1075V23.4762H85.3938V0.494844Z" fill="#1C1D23"/>
<path d="M130.919 0.494844H128.633V23.4762H130.919V0.494844Z" fill="#1C1D23"/>
</svg>
