<svg xmlns="http://www.w3.org/2000/svg">
<defs>
<font id="Copyright-Raoul-Gottschling" horiz-adv-x="856" >
  <font-face 
    font-family="Copyright Raoul Gottschling"
    font-weight="400"
    font-style="italic"
    font-stretch="normal"
    units-per-em="1000"
    panose-1="2 11 5 4 6 1 1 2 1 4"
    ascent="810"
    descent="-190"
    x-height="495"
    cap-height="700"
    bbox="-255 -271 1586 972"
    underline-thickness="72"
    underline-position="-145"
    slope="-12"
    unicode-range="U+0020-F000B"
  />
<missing-glyph horiz-adv-x="1477" 
d="M135 -175v975h1234v-975h-1234zM197 -10q1 -35 29.5 -60t77.5 -25q42 0 70.5 20.5t28.5 57.5q0 27 -14 41t-37 21.5t-50 12.5q-23 5 -39.5 13.5t-16.5 26.5t16 29.5t39 11.5q45 0 51 -45h41q-3 34 -25 55t-66 21q-43 0 -70.5 -21t-27.5 -56q0 -25 13.5 -39t34.5 -21
t43 -11q30 -5 47.5 -14t17.5 -29q0 -22 -17.5 -31.5t-37.5 -9.5q-25 0 -44 13.5t-21 38.5h-43zM392 132h85v-223h40v223h85v35h-210v-35zM405 592q0 -61 33.5 -97.5t85.5 -36.5q53 0 86 36.5t33 97.5q0 59 -33 95t-86 36q-52 0 -85.5 -36t-33.5 -95zM447 591q0 44 21 71.5
t56 27.5t57 -27.5t22 -71.5q0 -45 -22 -72t-57 -27t-56 27t-21 72zM527 315q0 -60 32.5 -96.5t85.5 -36.5t85.5 36.5t32.5 96.5t-32.5 95.5t-85.5 35.5t-85.5 -35.5t-32.5 -95.5zM567 314q0 44 21.5 71.5t56.5 27.5t56.5 -27.5t21.5 -71.5t-21.5 -71.5t-56.5 -27.5
t-56.5 27.5t-21.5 71.5zM582 39q0 -61 33 -97.5t86 -36.5t86 36.5t33 97.5q0 59 -33 95t-86 36t-86 -36t-33 -95zM623 38q0 44 21.5 71t56.5 27t56.5 -27t21.5 -71t-21.5 -72t-56.5 -28t-56.5 28t-21.5 72zM660 555q0 -44 30 -70.5t71 -26.5q42 0 71 26.5t29 70.5v165h-39
v-162q0 -31 -17.5 -47.5t-43.5 -16.5q-25 0 -43 16.5t-18 47.5v162h-40v-165zM785 185h40v114h128v33h-128v77h137v34h-177v-258zM835 38q0 -58 34.5 -95.5t87.5 -37.5q44 0 74.5 27t34.5 68h-42q-4 -27 -22.5 -44.5t-45.5 -17.5q-34 0 -55.5 28.5t-21.5 71.5q0 44 21.5 72
t55.5 28q26 0 45 -17.5t23 -44.5h42q-4 41 -34.5 67.5t-74.5 26.5q-53 0 -87.5 -37t-34.5 -95zM878 685h85v-224h40v224h85v35h-210v-35zM1091 -91h40v94l31 31l89 -125h50l-112 151l109 107h-52l-115 -113v113h-40v-258z" />
    <glyph glyph-name="f_f.liga" unicode="ff" horiz-adv-x="641" 
d="M72 0l90 426h-110l14 69h110l14 68q30 144 153 144q21 0 44 -2t53 -12l-16 -67q-13 5 -29 7t-28 2q-41 0 -63 -18.5t-30 -58.5l-13 -63h220l14 68q30 144 153 144q21 0 44 -2t53 -12l-16 -67q-13 5 -29 7t-28 2q-41 0 -63 -18.5t-30 -58.5l-13 -63h113l-15 -69h-113
l-90 -426h-84l90 426h-221l-90 -426h-84z" />
    <glyph glyph-name="f_f_i.liga" unicode="ffi" horiz-adv-x="887" 
d="M551 426l-90 -426h-84l90 426h-221l-90 -426h-84l90 426h-110l14 69h110l14 68q30 144 153 144q21 0 44 -2t53 -12l-16 -67q-13 5 -29 7t-28 2q-41 0 -63 -18.5t-30 -58.5l-13 -63h220l14 68q30 144 153 144q21 0 44 -2t53 -12l-16 -67q-13 5 -29 7t-28 2
q-41 0 -63 -18.5t-30 -58.5l-13 -63h303l-106 -495h-84l91 426h-219zM803 582l21 100h84l-20 -100h-85z" />
    <glyph glyph-name="f_f_l.liga" unicode="ffl" horiz-adv-x="868" 
d="M72 0l90 426h-110l14 69h110l14 68q30 144 153 144q21 0 44 -2t53 -12l-16 -67q-13 5 -29 7t-28 2q-41 0 -63 -18.5t-30 -58.5l-13 -63h220l14 68q30 144 153 144q21 0 44 -2t53 -12l-16 -67q-13 5 -29 7t-28 2q-41 0 -63 -18.5t-30 -58.5l-13 -63h113l-15 -69h-113
l-90 -426h-84l90 426h-221l-90 -426h-84zM659 0l149 700h85l-149 -700h-85z" />
    <glyph glyph-name="f_i.liga" unicode="fi" horiz-adv-x="544" 
d="M246 426l-90 -426h-84l90 426h-110l14 69h110l14 68q30 144 153 144q21 0 44 -2t53 -12l-16 -67q-13 5 -29 7t-28 2q-41 0 -63 -18.5t-30 -58.5l-13 -63h264l-106 -495h-84l91 426h-180zM459 582l21 100h84l-20 -100h-85z" />
    <glyph glyph-name="f_l.liga" unicode="fl" horiz-adv-x="567" 
d="M72 0l90 426h-110l14 69h110l14 68q30 144 153 144q21 0 44 -2t53 -12l-16 -67q-13 5 -29 7t-28 2q-41 0 -63 -18.5t-30 -58.5l-13 -63h113l-15 -69h-113l-90 -426h-84zM357 0l149 700h85l-149 -700h-85z" />
    <glyph glyph-name="f_t.liga" unicode="ft" horiz-adv-x="679" 
d="M72 0l90 426h-110l14 69h110l14 68q30 144 153 144q21 0 44 -2t53 -12l-16 -67q-13 5 -29 7t-28 2q-41 0 -63 -18.5t-30 -58.5l-13 -63h220l54 136h60l-29 -136h127l-15 -69h-126l-61 -288q-4 -21 -2 -39.5t17.5 -30t50.5 -11.5q27 0 55 6l-10 -72q-31 -3 -54 -3
q-66 0 -99.5 21t-41.5 58t2 85l58 274h-221l-90 -426h-84z" />
    <glyph glyph-name="t_t.liga" unicode="tt" horiz-adv-x="699" 
d="M246 -12q-66 0 -99.5 21t-41.5 58t2 85l58 274h-116l14 69h116l54 136h60l-29 -136h238l54 136h60l-29 -136h127l-15 -69h-126l-61 -288q-4 -21 -2 -39.5t17.5 -30t50.5 -11.5q27 0 55 6l-10 -72q-31 -3 -54 -3q-66 0 -99.5 21t-41.5 58t2 85l58 274h-238l-61 -288
q-4 -21 -2 -39.5t17.5 -30t50.5 -11.5q27 0 55 6l-10 -72q-31 -3 -54 -3z" />
    <glyph glyph-name="arrowright" unicode="&#x2d;&#x3e;" horiz-adv-x="793" 
d="M398 111l204 204h-553v76h552l-203 203l53 53l297 -294l-297 -295z" />
    <glyph glyph-name="arrowleft" unicode="&#x3c;&#x2d;" horiz-adv-x="793" 
d="M395 111l-53 -53l-297 295l297 294l53 -53l-203 -203h552v-76h-553z" />
    <glyph glyph-name=".notdef" horiz-adv-x="1477" 
d="M135 -175v975h1234v-975h-1234zM197 -10q1 -35 29.5 -60t77.5 -25q42 0 70.5 20.5t28.5 57.5q0 27 -14 41t-37 21.5t-50 12.5q-23 5 -39.5 13.5t-16.5 26.5t16 29.5t39 11.5q45 0 51 -45h41q-3 34 -25 55t-66 21q-43 0 -70.5 -21t-27.5 -56q0 -25 13.5 -39t34.5 -21
t43 -11q30 -5 47.5 -14t17.5 -29q0 -22 -17.5 -31.5t-37.5 -9.5q-25 0 -44 13.5t-21 38.5h-43zM392 132h85v-223h40v223h85v35h-210v-35zM405 592q0 -61 33.5 -97.5t85.5 -36.5q53 0 86 36.5t33 97.5q0 59 -33 95t-86 36q-52 0 -85.5 -36t-33.5 -95zM447 591q0 44 21 71.5
t56 27.5t57 -27.5t22 -71.5q0 -45 -22 -72t-57 -27t-56 27t-21 72zM527 315q0 -60 32.5 -96.5t85.5 -36.5t85.5 36.5t32.5 96.5t-32.5 95.5t-85.5 35.5t-85.5 -35.5t-32.5 -95.5zM567 314q0 44 21.5 71.5t56.5 27.5t56.5 -27.5t21.5 -71.5t-21.5 -71.5t-56.5 -27.5
t-56.5 27.5t-21.5 71.5zM582 39q0 -61 33 -97.5t86 -36.5t86 36.5t33 97.5q0 59 -33 95t-86 36t-86 -36t-33 -95zM623 38q0 44 21.5 71t56.5 27t56.5 -27t21.5 -71t-21.5 -72t-56.5 -28t-56.5 28t-21.5 72zM660 555q0 -44 30 -70.5t71 -26.5q42 0 71 26.5t29 70.5v165h-39
v-162q0 -31 -17.5 -47.5t-43.5 -16.5q-25 0 -43 16.5t-18 47.5v162h-40v-165zM785 185h40v114h128v33h-128v77h137v34h-177v-258zM835 38q0 -58 34.5 -95.5t87.5 -37.5q44 0 74.5 27t34.5 68h-42q-4 -27 -22.5 -44.5t-45.5 -17.5q-34 0 -55.5 28.5t-21.5 71.5q0 44 21.5 72
t55.5 28q26 0 45 -17.5t23 -44.5h42q-4 41 -34.5 67.5t-74.5 26.5q-53 0 -87.5 -37t-34.5 -95zM878 685h85v-224h40v224h85v35h-210v-35zM1091 -91h40v94l31 31l89 -125h50l-112 151l109 107h-52l-115 -113v113h-40v-258z" />
    <glyph glyph-name="space" unicode=" " horiz-adv-x="238" 
 />
    <glyph glyph-name="A" unicode="A" horiz-adv-x="677" 
d="M515 0l-29 201h-308l-115 -201h-100l409 700h126l110 -700h-93zM221 278h254l-51 356z" />
    <glyph glyph-name="A.small" horiz-adv-x="490" 
d="M379 0l-15 124h-198l-68 -124h-97l275 480h129l70 -480h-96zM204 194h152l-27 229z" />
    <glyph glyph-name="A.smaller" horiz-adv-x="378" 
d="M273 0l-7 78h-134l-41 -78h-95l195 350h131l47 -350h-96zM167 145h92l-14 150z" />
    <glyph glyph-name="Aacute" unicode="&#xc1;" horiz-adv-x="677" 
d="M515 0l-29 201h-308l-115 -201h-100l409 700h126l110 -700h-93zM221 278h254l-51 356zM408 758l105 142h102l-134 -142h-73z" />
    <glyph glyph-name="Abreve" unicode="&#x102;" horiz-adv-x="677" 
d="M515 0l-29 201h-308l-115 -201h-100l409 700h126l110 -700h-93zM221 278h254l-51 356zM315 900h75q-7 -32 7 -61t54 -29q32 0 58.5 22.5t36.5 67.5h76q-14 -70 -62 -109t-109 -39q-41 0 -76 17.5t-52.5 50.5t-7.5 80z" />
    <glyph glyph-name="Acircumflex" unicode="&#xc2;" horiz-adv-x="677" 
d="M515 0l-29 201h-308l-115 -201h-100l409 700h126l110 -700h-93zM221 278h254l-51 356zM283 757l153 142h84l93 -142h-71l-70 98l-113 -98h-76z" />
    <glyph glyph-name="Adieresis" unicode="&#xc4;" horiz-adv-x="677" 
d="M515 0l-29 201h-308l-115 -201h-100l409 700h126l110 -700h-93zM221 278h254l-51 356zM305 761l22 99h76l-22 -99h-76zM514 761l22 99h76l-22 -99h-76z" />
    <glyph glyph-name="Adieresis.ss01" horiz-adv-x="677" 
d="M515 0l-29 201h-308l-115 -201h-100l409 700h126l110 -700h-93zM221 278h254l-51 356zM309 828q0 26 18 42.5t40 16.5q23 0 38 -14t15 -37q0 -26 -18.5 -42.5t-41.5 -16.5t-37 14.5t-14 36.5zM507 828q0 26 18 42.5t40 16.5q23 0 37.5 -14t14.5 -37q0 -25 -18.5 -42
t-41.5 -17q-22 0 -36 14.5t-14 36.5z" />
    <glyph glyph-name="Agrave" unicode="&#xc0;" horiz-adv-x="677" 
d="M515 0l-29 201h-308l-115 -201h-100l409 700h126l110 -700h-93zM221 278h254l-51 356zM339 899h97l45 -142h-68z" />
    <glyph glyph-name="Amacron" unicode="&#x100;" horiz-adv-x="677" 
d="M515 0l-29 201h-308l-115 -201h-100l409 700h126l110 -700h-93zM221 278h254l-51 356zM287 783l14 65h331l-14 -65h-331z" />
    <glyph glyph-name="Aogonek" unicode="&#x104;" horiz-adv-x="677" 
d="M-37 0l409 700h126l110 -700q-58 -18 -84 -43.5t-26 -47.5q0 -17 12 -23.5t26 -6.5q9 0 21 2.5t28 8.5l-13 -59q-15 -7 -31 -10t-27 -3q-41 0 -62.5 21.5t-21.5 52.5q0 30 21 62t63 54l-28 193h-308l-115 -201h-100zM221 278h254l-51 356z" />
    <glyph glyph-name="Aring" unicode="&#xc5;" horiz-adv-x="677" 
d="M515 0l-29 201h-308l-115 -201h-100l409 700h126l110 -700h-93zM221 278h254l-51 356zM351 827q0 34 17 60t45 41t61 15q41 0 68 -26t27 -68q0 -33 -16.5 -59.5t-43.5 -42t-60 -15.5q-41 0 -69.5 26.5t-28.5 68.5zM406 827q0 -19 12 -32.5t33 -13.5q26 0 45 20t19 47
q0 20 -12.5 33t-32.5 13q-25 0 -44.5 -20t-19.5 -47z" />
    <glyph glyph-name="Atilde" unicode="&#xc3;" horiz-adv-x="677" 
d="M515 0l-29 201h-308l-115 -201h-100l409 700h126l110 -700h-93zM221 278h254l-51 356zM275 777q18 58 52.5 86.5t75.5 28.5q28 0 45 -11t33 -28q11 -11 22.5 -21.5t29.5 -10.5q20 0 36.5 16t25.5 41h54q-19 -58 -52.5 -86.5t-75.5 -28.5q-31 0 -50 14t-33 29
q-11 12 -21.5 20t-26.5 8q-22 0 -37.5 -17t-24.5 -40h-53z" />
    <glyph glyph-name="AE" unicode="&#xc6;" horiz-adv-x="975" 
d="M-64 0l592 700h503l-16 -78h-382l-47 -224h319l-17 -79h-319l-51 -241h382l-18 -78h-468l43 201h-250l-167 -201h-104zM273 281h201l69 326z" />
    <glyph glyph-name="AEacute" unicode="&#x1fc;" horiz-adv-x="975" 
d="M-64 0l592 700h503l-16 -78h-382l-47 -224h319l-17 -79h-319l-51 -241h382l-18 -78h-468l43 201h-250l-167 -201h-104zM273 281h201l69 326zM545 758l105 142h102l-134 -142h-73z" />
    <glyph glyph-name="B" unicode="B" horiz-adv-x="642" 
d="M28 0l147 700l269 -3q91 -1 138 -46.5t47 -110.5q0 -45 -20.5 -83.5t-56 -64.5t-81.5 -34q52 -8 86 -44t34 -96q0 -56 -30 -106t-84.5 -81t-130.5 -31h-318zM134 76h192q53 0 91.5 20t59 54t20.5 74q0 43 -28 72t-82 29h-201zM203 402h180q50 0 84 19.5t51.5 50.5
t17.5 67q0 38 -27.5 61t-80.5 23h-179z" />
    <glyph glyph-name="B.small" horiz-adv-x="473" 
d="M47 0l102 480h217q64 0 97 -27t33 -70q0 -46 -32.5 -84.5t-82.5 -46.5q38 -4 62.5 -27t24.5 -63q0 -44 -23.5 -81t-63 -59t-86.5 -22h-248zM151 68h122q44 0 73 25.5t29 65.5q0 26 -17.5 41.5t-50.5 15.5h-125zM196 278h112q42 0 67.5 24t25.5 61q0 24 -18 36.5t-50 12.5
h-109z" />
    <glyph glyph-name="B.smaller" horiz-adv-x="364" 
d="M28 0l74 350h185q47 0 71.5 -18.5t24.5 -50.5q0 -34 -24.5 -62.5t-63.5 -33.5q32 -3 49 -20.5t17 -45.5q0 -32 -17 -59.5t-46 -43.5t-65 -16h-205zM130 63h78q27 0 44.5 15.5t17.5 39.5q0 34 -41 34h-80zM160 205h70q26 0 42 15t16 37q0 30 -42 30h-68z" />
    <glyph glyph-name="C" unicode="C" horiz-adv-x="685" 
d="M322 -13q-127 0 -195.5 73.5t-68.5 200.5q0 58 15 120.5t46 121.5t77 106t108.5 74.5t140.5 27.5q92 0 148.5 -37.5t79.5 -99t14 -132.5h-89q7 50 -9 93.5t-54.5 71t-101.5 27.5q-58 0 -103.5 -24.5t-79 -64.5t-55.5 -89t-32.5 -99.5t-10.5 -93.5q0 -94 48 -146t133 -52
q81 0 139 46t81 120h89q-19 -77 -65.5 -131.5t-111.5 -83.5t-143 -29z" />
    <glyph glyph-name="C.small" horiz-adv-x="496" 
d="M255 -9q-89 0 -138 48.5t-49 131.5q0 65 22 122.5t61.5 101t92.5 68.5t115 25q93 0 140.5 -49t33.5 -132h-92q5 52 -22.5 81.5t-75.5 29.5q-49 0 -89.5 -33t-64.5 -87t-24 -118q0 -55 27 -86.5t76 -31.5q51 0 89.5 29t54.5 79h93q-22 -82 -90 -130.5t-160 -48.5z" />
    <glyph glyph-name="C.smaller" horiz-adv-x="383" 
d="M195 -7q-72 0 -111 36t-39 98q0 64 29.5 116t80.5 83t115 31q74 0 112.5 -37t27.5 -99h-94q3 32 -13 51t-48 19q-31 0 -56.5 -22t-40.5 -57.5t-15 -77.5q0 -35 16 -55t47 -20q32 0 56.5 19t33.5 49h95q-18 -63 -71.5 -98.5t-124.5 -35.5z" />
    <glyph glyph-name="Cacute" unicode="&#x106;" horiz-adv-x="685" 
d="M322 -13q-127 0 -195.5 73.5t-68.5 200.5q0 58 15 120.5t46 121.5t77 106t108.5 74.5t140.5 27.5q92 0 148.5 -37.5t79.5 -99t14 -132.5h-89q7 50 -9 93.5t-54.5 71t-101.5 27.5q-58 0 -103.5 -24.5t-79 -64.5t-55.5 -89t-32.5 -99.5t-10.5 -93.5q0 -94 48 -146t133 -52
q81 0 139 46t81 120h89q-19 -77 -65.5 -131.5t-111.5 -83.5t-143 -29zM404 758l105 142h102l-134 -142h-73z" />
    <glyph glyph-name="Ccaron" unicode="&#x10c;" horiz-adv-x="685" 
d="M322 -13q-127 0 -195.5 73.5t-68.5 200.5q0 58 15 120.5t46 121.5t77 106t108.5 74.5t140.5 27.5q92 0 148.5 -37.5t79.5 -99t14 -132.5h-89q7 50 -9 93.5t-54.5 71t-101.5 27.5q-58 0 -103.5 -24.5t-79 -64.5t-55.5 -89t-32.5 -99.5t-10.5 -93.5q0 -94 48 -146t133 -52
q81 0 139 46t81 120h89q-19 -77 -65.5 -131.5t-111.5 -83.5t-143 -29zM321 884l82 15l53 -70l83 70l82 -15l-136 -127h-83z" />
    <glyph glyph-name="Ccedilla" unicode="&#xc7;" horiz-adv-x="685" 
d="M301 -220q-35 0 -66.5 17t-47.5 42l38 38q11 -16 33 -28t42 -12q24 0 38.5 16t14.5 35q0 17 -11.5 25.5t-25.5 8.5q-13 0 -25.5 -4t-25.5 -11l-44 30l47 54q-101 15 -155.5 86.5t-54.5 183.5q0 58 15 120.5t46 121.5t77 106t108.5 74.5t140.5 27.5q92 0 148.5 -37.5
t79.5 -99t14 -132.5h-89q7 50 -9 93.5t-54.5 71t-101.5 27.5q-58 0 -103.5 -24.5t-79 -64.5t-55.5 -89t-32.5 -99.5t-10.5 -93.5q0 -94 48 -146t133 -52q81 0 139 46t81 120h89q-19 -75 -63.5 -129t-108 -83.5t-138.5 -31.5l-40 -40q13 7 26 9.5t24 2.5q34 0 56 -19t22 -53
q0 -44 -34 -75.5t-85 -31.5z" />
    <glyph glyph-name="Ccircumflex" unicode="&#x108;" horiz-adv-x="685" 
d="M322 -13q-127 0 -195.5 73.5t-68.5 200.5q0 58 15 120.5t46 121.5t77 106t108.5 74.5t140.5 27.5q92 0 148.5 -37.5t79.5 -99t14 -132.5h-89q7 50 -9 93.5t-54.5 71t-101.5 27.5q-58 0 -103.5 -24.5t-79 -64.5t-55.5 -89t-32.5 -99.5t-10.5 -93.5q0 -94 48 -146t133 -52
q81 0 139 46t81 120h89q-19 -77 -65.5 -131.5t-111.5 -83.5t-143 -29zM279 757l153 142h84l93 -142h-71l-70 98l-113 -98h-76z" />
    <glyph glyph-name="Cdotaccent" unicode="&#x10a;" horiz-adv-x="685" 
d="M322 -13q-127 0 -195.5 73.5t-68.5 200.5q0 58 15 120.5t46 121.5t77 106t108.5 74.5t140.5 27.5q92 0 148.5 -37.5t79.5 -99t14 -132.5h-89q7 50 -9 93.5t-54.5 71t-101.5 27.5q-58 0 -103.5 -24.5t-79 -64.5t-55.5 -89t-32.5 -99.5t-10.5 -93.5q0 -94 48 -146t133 -52
q81 0 139 46t81 120h89q-19 -77 -65.5 -131.5t-111.5 -83.5t-143 -29zM399 761l21 99h85l-22 -99h-84z" />
    <glyph glyph-name="Cdotaccent.ss01" horiz-adv-x="685" 
d="M322 -13q-127 0 -195.5 73.5t-68.5 200.5q0 58 15 120.5t46 121.5t77 106t108.5 74.5t140.5 27.5q92 0 148.5 -37.5t79.5 -99t14 -132.5h-89q7 50 -9 93.5t-54.5 71t-101.5 27.5q-58 0 -103.5 -24.5t-79 -64.5t-55.5 -89t-32.5 -99.5t-10.5 -93.5q0 -94 48 -146t133 -52
q81 0 139 46t81 120h89q-19 -77 -65.5 -131.5t-111.5 -83.5t-143 -29zM398 812q0 27 18.5 45.5t43.5 18.5q23 0 38 -15.5t15 -38.5q0 -28 -19.5 -45.5t-43.5 -17.5q-23 0 -37.5 15t-14.5 38z" />
    <glyph glyph-name="Cdotaccent.ss02" horiz-adv-x="685" 
d="M322 -13q-127 0 -195.5 73.5t-68.5 200.5q0 58 15 120.5t46 121.5t77 106t108.5 74.5t140.5 27.5q92 0 148.5 -37.5t79.5 -99t14 -132.5h-89q7 50 -9 93.5t-54.5 71t-101.5 27.5q-58 0 -103.5 -24.5t-79 -64.5t-55.5 -89t-32.5 -99.5t-10.5 -93.5q0 -94 48 -146t133 -52
q81 0 139 46t81 120h89q-19 -77 -65.5 -131.5t-111.5 -83.5t-143 -29zM398 812q0 27 18.5 45.5t43.5 18.5q23 0 38 -15.5t15 -38.5q0 -28 -19.5 -45.5t-43.5 -17.5q-23 0 -37.5 15t-14.5 38z" />
    <glyph glyph-name="D" unicode="D" horiz-adv-x="685" 
d="M28 0l147 700h245q78 0 133 -34.5t84.5 -96t29.5 -142.5q0 -84 -26 -161t-76.5 -137t-122 -94.5t-163.5 -34.5h-251zM134 76h129q74 0 127.5 24t89 64t56.5 87.5t29.5 95.5t8.5 87q0 84 -45.5 136t-145.5 52h-135z" />
    <glyph glyph-name="D.small" horiz-adv-x="499" 
d="M47 0l102 480h197q83 0 129 -46.5t46 -126.5q0 -63 -20.5 -118.5t-58 -98t-88 -66.5t-109.5 -24h-198zM151 70h86q57 0 99.5 30.5t65.5 81.5t23 114q0 53 -28 83t-88 30h-86z" />
    <glyph glyph-name="D.smaller" horiz-adv-x="384" 
d="M28 0l74 350h166q64 0 98.5 -33.5t34.5 -93.5q0 -61 -26.5 -112t-73 -81t-106.5 -30h-167zM131 66h58q35 0 61.5 20t41 53t14.5 72q0 34 -17.5 53.5t-53.5 19.5h-58z" />
    <glyph glyph-name="Eth" unicode="&#xd0;" horiz-adv-x="685" 
d="M28 0l66 314h-66l15 73h66l66 313h245q78 0 133 -34.5t84.5 -96t29.5 -142.5q0 -84 -26 -161t-76.5 -137t-122 -94.5t-163.5 -34.5h-251zM134 76h129q74 0 127.5 24t89 64t56.5 87.5t29.5 95.5t8.5 87q0 84 -45.5 136t-145.5 52h-135l-49 -235h228l-16 -73h-227z" />
    <glyph glyph-name="Dcaron" unicode="&#x10e;" horiz-adv-x="685" 
d="M28 0l147 700h245q78 0 133 -34.5t84.5 -96t29.5 -142.5q0 -84 -26 -161t-76.5 -137t-122 -94.5t-163.5 -34.5h-251zM134 76h129q74 0 127.5 24t89 64t56.5 87.5t29.5 95.5t8.5 87q0 84 -45.5 136t-145.5 52h-135zM300 884l82 15l53 -70l83 70l82 -15l-136 -127h-83z" />
    <glyph glyph-name="Dcroat" unicode="&#x110;" horiz-adv-x="685" 
d="M28 0l66 314h-66l15 73h66l66 313h245q78 0 133 -34.5t84.5 -96t29.5 -142.5q0 -84 -26 -161t-76.5 -137t-122 -94.5t-163.5 -34.5h-251zM134 76h129q74 0 127.5 24t89 64t56.5 87.5t29.5 95.5t8.5 87q0 84 -45.5 136t-145.5 52h-135l-49 -235h228l-16 -73h-227z" />
    <glyph glyph-name="E" unicode="E" horiz-adv-x="587" 
d="M27 0l149 700h468l-17 -77h-377l-48 -225h316l-17 -77h-316l-52 -244h379l-17 -77h-468z" />
    <glyph glyph-name="E.small" horiz-adv-x="431" 
d="M48 0l102 480h345l-15 -71h-256l-28 -130h215l-15 -68h-214l-30 -141h256l-14 -70h-346z" />
    <glyph glyph-name="E.smaller" horiz-adv-x="330" 
d="M28 0l74 350h273l-13 -66h-185l-16 -75h155l-13 -63h-155l-17 -80h185l-14 -66h-274z" />
    <glyph glyph-name="Eacute" unicode="&#xc9;" horiz-adv-x="587" 
d="M27 0l149 700h468l-17 -77h-377l-48 -225h316l-17 -77h-316l-52 -244h379l-17 -77h-468zM372 758l105 142h102l-134 -142h-73z" />
    <glyph glyph-name="Ebreve" unicode="&#x114;" horiz-adv-x="587" 
d="M27 0l149 700h468l-17 -77h-377l-48 -225h316l-17 -77h-316l-52 -244h379l-17 -77h-468zM279 900h75q-7 -32 7 -61t54 -29q32 0 58.5 22.5t36.5 67.5h76q-14 -70 -62 -109t-109 -39q-41 0 -76 17.5t-52.5 50.5t-7.5 80z" />
    <glyph glyph-name="Ecaron" unicode="&#x11a;" horiz-adv-x="587" 
d="M27 0l149 700h468l-17 -77h-377l-48 -225h316l-17 -77h-316l-52 -244h379l-17 -77h-468zM289 884l82 15l53 -70l83 70l82 -15l-136 -127h-83z" />
    <glyph glyph-name="Ecircumflex" unicode="&#xca;" horiz-adv-x="587" 
d="M27 0l149 700h468l-17 -77h-377l-48 -225h316l-17 -77h-316l-52 -244h379l-17 -77h-468zM247 757l153 142h84l93 -142h-71l-70 98l-113 -98h-76z" />
    <glyph glyph-name="Edieresis" unicode="&#xcb;" horiz-adv-x="587" 
d="M27 0l149 700h468l-17 -77h-377l-48 -225h316l-17 -77h-316l-52 -244h379l-17 -77h-468zM269 761l22 99h76l-22 -99h-76zM478 761l22 99h76l-22 -99h-76z" />
    <glyph glyph-name="Edieresis.ss01" horiz-adv-x="587" 
d="M27 0l149 700h468l-17 -77h-377l-48 -225h316l-17 -77h-316l-52 -244h379l-17 -77h-468zM273 828q0 26 18 42.5t40 16.5q23 0 38 -14t15 -37q0 -26 -18.5 -42.5t-41.5 -16.5t-37 14.5t-14 36.5zM471 828q0 26 18 42.5t40 16.5q23 0 37.5 -14t14.5 -37q0 -25 -18.5 -42
t-41.5 -17q-22 0 -36 14.5t-14 36.5z" />
    <glyph glyph-name="Edotaccent" unicode="&#x116;" horiz-adv-x="587" 
d="M27 0l149 700h468l-17 -77h-377l-48 -225h316l-17 -77h-316l-52 -244h379l-17 -77h-468zM367 761l21 99h85l-22 -99h-84z" />
    <glyph glyph-name="Edotaccent.ss01" horiz-adv-x="587" 
d="M27 0l149 700h468l-17 -77h-377l-48 -225h316l-17 -77h-316l-52 -244h379l-17 -77h-468zM366 812q0 27 18.5 45.5t43.5 18.5q23 0 38 -15.5t15 -38.5q0 -28 -19.5 -45.5t-43.5 -17.5q-23 0 -37.5 15t-14.5 38z" />
    <glyph glyph-name="Egrave" unicode="&#xc8;" horiz-adv-x="587" 
d="M27 0l149 700h468l-17 -77h-377l-48 -225h316l-17 -77h-316l-52 -244h379l-17 -77h-468zM303 899h97l45 -142h-68z" />
    <glyph glyph-name="Emacron" unicode="&#x112;" horiz-adv-x="587" 
d="M27 0l149 700h468l-17 -77h-377l-48 -225h316l-17 -77h-316l-52 -244h379l-17 -77h-468zM251 783l14 65h331l-14 -65h-331z" />
    <glyph glyph-name="Eogonek" unicode="&#x118;" horiz-adv-x="587" 
d="M27 0l149 700h468l-17 -77h-377l-48 -225h316l-17 -77h-316l-52 -244h379l-17 -77q-58 -18 -84 -43.5t-26 -47.5q0 -17 12 -23.5t26 -6.5q9 0 21 2.5t28 8.5l-13 -59q-15 -7 -31 -10t-27 -3q-41 0 -62.5 21.5t-21.5 52.5q0 28 18 57t52 51h-360z" />
    <glyph glyph-name="uni1EBC" unicode="&#x1ebc;" horiz-adv-x="587" 
d="M27 0l149 700h468l-17 -77h-377l-48 -225h316l-17 -77h-316l-52 -244h379l-17 -77h-468zM239 777q18 58 52.5 86.5t75.5 28.5q28 0 45 -11t33 -28q11 -11 22.5 -21.5t29.5 -10.5q20 0 36.5 16t25.5 41h54q-19 -58 -52.5 -86.5t-75.5 -28.5q-31 0 -50 14t-33 29
q-11 12 -21.5 20t-26.5 8q-22 0 -37.5 -17t-24.5 -40h-53z" />
    <glyph glyph-name="F" unicode="F" horiz-adv-x="569" 
d="M27 0l149 700h468l-17 -77h-377l-52 -242h315l-16 -77h-315l-65 -304h-90z" />
    <glyph glyph-name="F.small" horiz-adv-x="418" 
d="M47 0l102 480h345l-15 -71h-256l-31 -144h216l-15 -69h-215l-42 -196h-89z" />
    <glyph glyph-name="F.smaller" horiz-adv-x="322" 
d="M28 0l74 350h273l-13 -66h-186l-18 -87h155l-13 -65h-156l-28 -132h-88z" />
    <glyph glyph-name="G" unicode="G" horiz-adv-x="705" 
d="M315 -12q-81 0 -138.5 33t-88.5 94t-31 144q0 59 15.5 122t46 122t76 106.5t106 75t136.5 27.5q70 0 120 -23t81 -60.5t42 -82.5t2 -90h-87q7 46 -7 86.5t-52 66t-104 25.5q-56 0 -100.5 -24t-78.5 -63.5t-56 -88.5t-33.5 -99.5t-11.5 -94.5q0 -94 49.5 -148.5
t140.5 -54.5q88 0 147.5 56t79.5 154h-204l16 75h287l-72 -346h-67l17 108q-41 -57 -99.5 -88.5t-131.5 -31.5z" />
    <glyph glyph-name="G.small" horiz-adv-x="518" 
d="M240 -9q-79 0 -126 47.5t-47 130.5q0 65 22.5 123t62 102t92.5 69t114 25q65 0 105 -25t56.5 -65t8.5 -86h-92q3 20 -4 45t-28.5 43t-60.5 18q-49 0 -89.5 -33.5t-64.5 -87.5t-24 -117q0 -57 28.5 -90t83.5 -33t92 34.5t49 91.5h-124l14 62h212l-52 -245h-66l10 75
q-29 -38 -73 -61t-99 -23z" />
    <glyph glyph-name="G.smaller" horiz-adv-x="396" 
d="M177 -7q-59 0 -96 35.5t-37 97.5q0 64 29.5 116t80.5 83.5t115 31.5q74 0 109.5 -37.5t27.5 -91.5h-92q2 22 -11.5 42.5t-47.5 20.5q-31 0 -57 -22.5t-41.5 -58t-15.5 -76.5q0 -37 18 -58.5t52 -21.5q35 0 57.5 21.5t29.5 55.5h-77l12 55h168l-40 -186h-66l5 50
q-22 -27 -53.5 -42t-69.5 -15z" />
    <glyph glyph-name="Gbreve" unicode="&#x11e;" horiz-adv-x="711" 
d="M315 -12q-81 0 -138.5 33t-88.5 94t-31 144q0 59 15.5 122t46 122t76 106.5t106 75t136.5 27.5q70 0 120 -23t81 -60.5t42 -82.5t2 -90h-87q7 46 -7 86.5t-52 66t-104 25.5q-56 0 -100.5 -24t-78.5 -63.5t-56 -88.5t-33.5 -99.5t-11.5 -94.5q0 -94 49.5 -148.5
t140.5 -54.5q88 0 147.5 56t79.5 154h-204l16 75h287l-72 -346h-67l17 108q-41 -57 -99.5 -88.5t-131.5 -31.5zM317 900h75q-7 -32 7 -61t54 -29q32 0 58.5 22.5t36.5 67.5h76q-14 -70 -62 -109t-109 -39q-41 0 -76 17.5t-52.5 50.5t-7.5 80z" />
    <glyph glyph-name="Gcircumflex" unicode="&#x11c;" horiz-adv-x="711" 
d="M315 -12q-81 0 -138.5 33t-88.5 94t-31 144q0 59 15.5 122t46 122t76 106.5t106 75t136.5 27.5q70 0 120 -23t81 -60.5t42 -82.5t2 -90h-87q7 46 -7 86.5t-52 66t-104 25.5q-56 0 -100.5 -24t-78.5 -63.5t-56 -88.5t-33.5 -99.5t-11.5 -94.5q0 -94 49.5 -148.5
t140.5 -54.5q88 0 147.5 56t79.5 154h-204l16 75h287l-72 -346h-67l17 108q-41 -57 -99.5 -88.5t-131.5 -31.5zM286 757l153 142h84l93 -142h-71l-70 98l-113 -98h-76z" />
    <glyph glyph-name="uni0122" unicode="&#x122;" horiz-adv-x="711" 
d="M315 -12q-81 0 -138.5 33t-88.5 94t-31 144q0 59 15.5 122t46 122t76 106.5t106 75t136.5 27.5q70 0 120 -23t81 -60.5t42 -82.5t2 -90h-87q7 46 -7 86.5t-52 66t-104 25.5q-56 0 -100.5 -24t-78.5 -63.5t-56 -88.5t-33.5 -99.5t-11.5 -94.5q0 -94 49.5 -148.5
t140.5 -54.5q88 0 147.5 56t79.5 154h-204l16 75h287l-72 -346h-67l17 108q-41 -57 -99.5 -88.5t-131.5 -31.5zM214 -271l73 90h-51l21 98h94l-17 -85l-52 -103h-68z" />
    <glyph glyph-name="uni0122.ss01" horiz-adv-x="711" 
d="M315 -12q-81 0 -138.5 33t-88.5 94t-31 144q0 59 15.5 122t46 122t76 106.5t106 75t136.5 27.5q70 0 120 -23t81 -60.5t42 -82.5t2 -90h-87q7 46 -7 86.5t-52 66t-104 25.5q-56 0 -100.5 -24t-78.5 -63.5t-56 -88.5t-33.5 -99.5t-11.5 -94.5q0 -94 49.5 -148.5
t140.5 -54.5q88 0 147.5 56t79.5 154h-204l16 75h287l-72 -346h-67l17 108q-41 -57 -99.5 -88.5t-131.5 -31.5zM219 -270l68 82q-22 1 -36 14.5t-14 34.5q0 24 16.5 42.5t41.5 18.5q24 0 38 -15t14 -38q0 -16 -8 -37.5t-17 -37.5l-37 -64h-66z" />
    <glyph glyph-name="uni0122.ss01.ss15" horiz-adv-x="711" 
d="M315 -12q-81 0 -138.5 33t-88.5 94t-31 144q0 59 15.5 122t46 122t76 106.5t106 75t136.5 27.5q70 0 120 -23t81 -60.5t42 -82.5t2 -90h-87q7 46 -7 86.5t-52 66t-104 25.5q-56 0 -100.5 -24t-78.5 -63.5t-56 -88.5t-33.5 -99.5t-11.5 -94.5q0 -94 49.5 -148.5
t140.5 -54.5q88 0 147.5 56t79.5 154h-204l16 75h287l-72 -346h-67l17 108q-41 -57 -99.5 -88.5t-131.5 -31.5zM203 -270l7 35q24 0 43.5 13.5t29.5 37.5q-18 1 -29.5 14t-11.5 33q0 25 18 41.5t41 16.5q21 0 36 -14.5t15 -40.5q0 -37 -19 -68t-52.5 -49.5t-77.5 -18.5z" />
    <glyph glyph-name="uni0122.ss02" horiz-adv-x="711" 
d="M315 -12q-81 0 -138.5 33t-88.5 94t-31 144q0 59 15.5 122t46 122t76 106.5t106 75t136.5 27.5q70 0 120 -23t81 -60.5t42 -82.5t2 -90h-87q7 46 -7 86.5t-52 66t-104 25.5q-56 0 -100.5 -24t-78.5 -63.5t-56 -88.5t-33.5 -99.5t-11.5 -94.5q0 -94 49.5 -148.5
t140.5 -54.5q88 0 147.5 56t79.5 154h-204l16 75h287l-72 -346h-67l17 108q-41 -57 -99.5 -88.5t-131.5 -31.5zM219 -270l68 82q-22 1 -36 14.5t-14 34.5q0 24 16.5 42.5t41.5 18.5q24 0 38 -15t14 -38q0 -16 -8 -37.5t-17 -37.5l-37 -64h-66z" />
    <glyph glyph-name="uni0122.ss15" horiz-adv-x="711" 
d="M315 -12q-81 0 -138.5 33t-88.5 94t-31 144q0 59 15.5 122t46 122t76 106.5t106 75t136.5 27.5q70 0 120 -23t81 -60.5t42 -82.5t2 -90h-87q7 46 -7 86.5t-52 66t-104 25.5q-56 0 -100.5 -24t-78.5 -63.5t-56 -88.5t-33.5 -99.5t-11.5 -94.5q0 -94 49.5 -148.5
t140.5 -54.5q88 0 147.5 56t79.5 154h-204l16 75h287l-72 -346h-67l17 108q-41 -57 -99.5 -88.5t-131.5 -31.5zM208 -270l8 34q28 0 44.5 11.5t23.5 48.5h-45l21 93h97l-18 -92q-13 -61 -44.5 -78.5t-86.5 -16.5z" />
    <glyph glyph-name="Gdotaccent" unicode="&#x120;" horiz-adv-x="711" 
d="M315 -12q-81 0 -138.5 33t-88.5 94t-31 144q0 59 15.5 122t46 122t76 106.5t106 75t136.5 27.5q70 0 120 -23t81 -60.5t42 -82.5t2 -90h-87q7 46 -7 86.5t-52 66t-104 25.5q-56 0 -100.5 -24t-78.5 -63.5t-56 -88.5t-33.5 -99.5t-11.5 -94.5q0 -94 49.5 -148.5
t140.5 -54.5q88 0 147.5 56t79.5 154h-204l16 75h287l-72 -346h-67l17 108q-41 -57 -99.5 -88.5t-131.5 -31.5zM406 761l21 99h85l-22 -99h-84z" />
    <glyph glyph-name="Gdotaccent.ss01" horiz-adv-x="711" 
d="M315 -12q-81 0 -138.5 33t-88.5 94t-31 144q0 59 15.5 122t46 122t76 106.5t106 75t136.5 27.5q70 0 120 -23t81 -60.5t42 -82.5t2 -90h-87q7 46 -7 86.5t-52 66t-104 25.5q-56 0 -100.5 -24t-78.5 -63.5t-56 -88.5t-33.5 -99.5t-11.5 -94.5q0 -94 49.5 -148.5
t140.5 -54.5q88 0 147.5 56t79.5 154h-204l16 75h287l-72 -346h-67l17 108q-41 -57 -99.5 -88.5t-131.5 -31.5zM405 812q0 27 18.5 45.5t43.5 18.5q23 0 38 -15.5t15 -38.5q0 -28 -19.5 -45.5t-43.5 -17.5q-23 0 -37.5 15t-14.5 38z" />
    <glyph glyph-name="Gdotaccent.ss02" horiz-adv-x="711" 
d="M315 -12q-81 0 -138.5 33t-88.5 94t-31 144q0 59 15.5 122t46 122t76 106.5t106 75t136.5 27.5q70 0 120 -23t81 -60.5t42 -82.5t2 -90h-87q7 46 -7 86.5t-52 66t-104 25.5q-56 0 -100.5 -24t-78.5 -63.5t-56 -88.5t-33.5 -99.5t-11.5 -94.5q0 -94 49.5 -148.5
t140.5 -54.5q88 0 147.5 56t79.5 154h-204l16 75h287l-72 -346h-67l17 108q-41 -57 -99.5 -88.5t-131.5 -31.5zM405 812q0 27 18.5 45.5t43.5 18.5q23 0 38 -15.5t15 -38.5q0 -28 -19.5 -45.5t-43.5 -17.5q-23 0 -37.5 15t-14.5 38z" />
    <glyph glyph-name="uni1E20" unicode="&#x1e20;" horiz-adv-x="711" 
d="M315 -12q-81 0 -138.5 33t-88.5 94t-31 144q0 59 15.5 122t46 122t76 106.5t106 75t136.5 27.5q70 0 120 -23t81 -60.5t42 -82.5t2 -90h-87q7 46 -7 86.5t-52 66t-104 25.5q-56 0 -100.5 -24t-78.5 -63.5t-56 -88.5t-33.5 -99.5t-11.5 -94.5q0 -94 49.5 -148.5
t140.5 -54.5q88 0 147.5 56t79.5 154h-204l16 75h287l-72 -346h-67l17 108q-41 -57 -99.5 -88.5t-131.5 -31.5zM290 783l14 65h331l-14 -65h-331z" />
    <glyph glyph-name="H" unicode="H" horiz-adv-x="705" 
d="M481 0l69 323h-364l-69 -323h-90l149 700h90l-64 -300h364l64 300h90l-149 -700h-90z" />
    <glyph glyph-name="H.small" horiz-adv-x="511" 
d="M360 0l45 210h-222l-45 -210h-90l102 480h90l-42 -199h222l42 199h90l-102 -480h-90z" />
    <glyph glyph-name="H.smaller" horiz-adv-x="389" 
d="M257 0l30 144h-139l-30 -144h-90l74 350h90l-30 -140h139l30 140h90l-74 -350h-90z" />
    <glyph glyph-name="Hbar" unicode="&#x126;" horiz-adv-x="760" 
d="M62 509l14 64h95l27 127h90l-27 -127h364l27 127h90l-27 -127h99l-14 -64h-99l-108 -509h-90l69 323h-364l-69 -323h-90l108 509h-95zM224 400h364l23 109h-364z" />
    <glyph glyph-name="Hcircumflex" unicode="&#x124;" horiz-adv-x="705" 
d="M481 0l69 323h-364l-69 -323h-90l149 700h90l-64 -300h364l64 300h90l-149 -700h-90zM296 757l153 142h84l93 -142h-71l-70 98l-113 -98h-76z" />
    <glyph glyph-name="I" unicode="I" horiz-adv-x="251" 
d="M27 0l149 700h90l-149 -700h-90z" />
    <glyph glyph-name="I.small" horiz-adv-x="197" 
d="M47 0l102 480h90l-102 -480h-90z" />
    <glyph glyph-name="I.smaller" horiz-adv-x="158" 
d="M27 0l74 350h90l-74 -350h-90z" />
    <glyph glyph-name="IJ" unicode="&#x132;" horiz-adv-x="587" 
d="M261 -12q-61 0 -102.5 20t-64 54t-28.5 75t4 83h86q-8 -37 -2.5 -73t31 -59t75.5 -23q62 0 103 43.5t58 122.5l98 469h86l-98 -479q-22 -109 -87.5 -171t-158.5 -62zM85 296l85 404h87l-85 -404h-87z" />
    <glyph glyph-name="Iacute" unicode="&#xcd;" horiz-adv-x="251" 
d="M27 0l149 700h90l-149 -700h-90zM193 758l105 142h102l-134 -142h-73z" />
    <glyph glyph-name="Ibreve" unicode="&#x12c;" horiz-adv-x="251" 
d="M27 0l149 700h90l-149 -700h-90zM100 900h75q-7 -32 7 -61t54 -29q32 0 58.5 22.5t36.5 67.5h76q-14 -70 -62 -109t-109 -39q-41 0 -76 17.5t-52.5 50.5t-7.5 80z" />
    <glyph glyph-name="Icircumflex" unicode="&#xce;" horiz-adv-x="251" 
d="M27 0l149 700h90l-149 -700h-90zM68 757l153 142h84l93 -142h-71l-70 98l-113 -98h-76z" />
    <glyph glyph-name="Idieresis" unicode="&#xcf;" horiz-adv-x="251" 
d="M27 0l149 700h90l-149 -700h-90zM90 761l22 99h76l-22 -99h-76zM299 761l22 99h76l-22 -99h-76z" />
    <glyph glyph-name="Idieresis.ss01" horiz-adv-x="251" 
d="M27 0l149 700h90l-149 -700h-90zM95 828q0 26 18 42.5t40 16.5q23 0 38 -14t15 -37q0 -26 -18.5 -42.5t-41.5 -16.5t-37 14.5t-14 36.5zM293 828q0 26 18 42.5t40 16.5q23 0 37.5 -14t14.5 -37q0 -25 -18.5 -42t-41.5 -17q-22 0 -36 14.5t-14 36.5z" />
    <glyph glyph-name="Idotaccent" unicode="&#x130;" horiz-adv-x="251" 
d="M27 0l149 700h90l-149 -700h-90zM188 761l22 99h86l-22 -99h-86z" />
    <glyph glyph-name="Idotaccent.ss01" horiz-adv-x="251" 
d="M27 0l149 700h90l-149 -700h-90zM188 816q0 27 18.5 45.5t43.5 18.5q23 0 38 -15.5t15 -38.5q0 -28 -19.5 -45.5t-43.5 -17.5q-23 0 -37.5 15t-14.5 38z" />
    <glyph glyph-name="Igrave" unicode="&#xcc;" horiz-adv-x="251" 
d="M27 0l149 700h90l-149 -700h-90zM115 899h97l45 -142h-68z" />
    <glyph glyph-name="Imacron" unicode="&#x12a;" horiz-adv-x="251" 
d="M27 0l149 700h90l-149 -700h-90zM72 783l14 65h331l-14 -65h-331z" />
    <glyph glyph-name="Iogonek" unicode="&#x12e;" horiz-adv-x="251" 
d="M24 -182q-41 0 -62.5 21.5t-21.5 52.5q0 32 22.5 64.5t67.5 54.5l147 689h90l-149 -700q-58 -18 -84 -43.5t-26 -47.5q0 -17 12 -23.5t26 -6.5q9 0 21 2.5t28 8.5l-13 -59q-15 -7 -31 -10t-27 -3z" />
    <glyph glyph-name="Itilde" unicode="&#x128;" horiz-adv-x="251" 
d="M27 0l149 700h90l-149 -700h-90zM60 777q18 58 52.5 86.5t75.5 28.5q28 0 45 -11t33 -28q11 -11 22.5 -21.5t29.5 -10.5q20 0 36.5 16t25.5 41h54q-19 -58 -52.5 -86.5t-75.5 -28.5q-31 0 -50 14t-33 29q-11 12 -21.5 20t-26.5 8q-22 0 -37.5 -17t-24.5 -40h-53z" />
    <glyph glyph-name="J" unicode="J" horiz-adv-x="530" 
d="M201 -12q-80 1 -126.5 35.5t-61 89t-1.5 113.5l89 -1q-7 -41 -2.5 -77.5t28.5 -59.5t74 -24q61 -1 102.5 43t57.5 123l97 470h90l-98 -480q-22 -109 -88 -171t-161 -61z" />
    <glyph glyph-name="J.small" horiz-adv-x="400" 
d="M176 -9q-75 1 -113 45.5t-23 117.5h93q-10 -43 6 -68t50 -25q75 -2 98 101l67 317h88l-67 -317q-16 -78 -70 -124.5t-129 -46.5z" />
    <glyph glyph-name="J.smaller" horiz-adv-x="313" 
d="M138 -7q-60 1 -92 35.5t-21 86.5h94q-6 -26 3.5 -41t29.5 -16q22 0 37 16.5t21 45.5l50 230l87 -1l-49 -230q-12 -56 -55 -91t-105 -35z" />
    <glyph glyph-name="uni004A0301" horiz-adv-x="530" 
d="M201 -12q-80 1 -126.5 35.5t-61 89t-1.5 113.5l89 -1q-7 -41 -2.5 -77.5t28.5 -59.5t74 -24q61 -1 102.5 43t57.5 123l97 470h90l-98 -480q-22 -109 -88 -171t-161 -61zM478 758l105 142h102l-134 -142h-73z" />
    <glyph glyph-name="Jcircumflex" unicode="&#x134;" horiz-adv-x="537" 
d="M201 -12q-80 1 -126.5 35.5t-61 89t-1.5 113.5l89 -1q-7 -41 -2.5 -77.5t28.5 -59.5t74 -24q61 -1 102.5 43t57.5 123l97 470h90l-98 -480q-22 -109 -88 -171t-161 -61zM343 757l153 142h84l93 -142h-71l-70 98l-113 -98h-76z" />
    <glyph glyph-name="K" unicode="K" horiz-adv-x="615" 
d="M27 0l149 700l90 1l-79 -370l393 370l111 -1l-338 -318l219 -382h-108l-177 319l-128 -119l-42 -200h-90z" />
    <glyph glyph-name="K.small" horiz-adv-x="463" 
d="M47 0l102 480h88l-49 -231l248 231h107l-235 -216l155 -264h-110l-111 203l-79 -72l-28 -131h-88z" />
    <glyph glyph-name="K.smaller" horiz-adv-x="367" 
d="M28 0l74 350h88l-31 -148l161 148h106l-174 -157l116 -193h-109l-73 134l-51 -46l-19 -88h-88z" />
    <glyph glyph-name="uni0136" unicode="&#x136;" horiz-adv-x="615" 
d="M27 0l149 700l90 1l-79 -370l393 370l111 -1l-338 -318l219 -382h-108l-177 319l-128 -119l-42 -200h-90zM169 -271l73 90h-51l21 98h94l-17 -85l-52 -103h-68z" />
    <glyph glyph-name="uni0136.ss01" horiz-adv-x="615" 
d="M27 0l149 700l90 1l-79 -370l393 370l111 -1l-338 -318l219 -382h-108l-177 319l-128 -119l-42 -200h-90zM174 -270l68 82q-22 1 -36 14.5t-14 34.5q0 24 16.5 42.5t41.5 18.5q24 0 38 -15t14 -38q0 -16 -8 -37.5t-17 -37.5l-37 -64h-66z" />
    <glyph glyph-name="uni0136.ss01.ss15" horiz-adv-x="615" 
d="M27 0l149 700l90 1l-79 -370l393 370l111 -1l-338 -318l219 -382h-108l-177 319l-128 -119l-42 -200h-90zM157 -270l7 35q24 0 43.5 13.5t29.5 37.5q-18 1 -29.5 14t-11.5 33q0 25 18 41.5t41 16.5q21 0 36 -14.5t15 -40.5q0 -37 -19 -68t-52.5 -49.5t-77.5 -18.5z" />
    <glyph glyph-name="uni0136.ss02" horiz-adv-x="615" 
d="M27 0l149 700l90 1l-79 -370l393 370l111 -1l-338 -318l219 -382h-108l-177 319l-128 -119l-42 -200h-90zM174 -270l68 82q-22 1 -36 14.5t-14 34.5q0 24 16.5 42.5t41.5 18.5q24 0 38 -15t14 -38q0 -16 -8 -37.5t-17 -37.5l-37 -64h-66z" />
    <glyph glyph-name="uni0136.ss15" horiz-adv-x="615" 
d="M27 0l149 700l90 1l-79 -370l393 370l111 -1l-338 -318l219 -382h-108l-177 319l-128 -119l-42 -200h-90zM163 -270l8 34q28 0 44.5 11.5t23.5 48.5h-45l21 93h97l-18 -92q-13 -61 -44.5 -78.5t-86.5 -16.5z" />
    <glyph glyph-name="L" unicode="L" horiz-adv-x="520" 
d="M27 0l149 700h90l-133 -623h336l-17 -77h-425z" />
    <glyph glyph-name="L.small" horiz-adv-x="383" 
d="M47 0l102 481l89 -1l-87 -410h227l-15 -70h-316z" />
    <glyph glyph-name="L.smaller" horiz-adv-x="296" 
d="M28 0l74 350h88l-60 -284h165l-15 -66h-252z" />
    <glyph glyph-name="Lacute" unicode="&#x139;" horiz-adv-x="520" 
d="M27 0l149 700h90l-133 -623h336l-17 -77h-425zM198 758l105 142h102l-134 -142h-73z" />
    <glyph glyph-name="Lcaron" unicode="&#x13d;" horiz-adv-x="535" 
d="M27 0l149 700h90l-133 -623h336l-17 -77h-425zM463 511l73 91h-50l20 98h95l-17 -86l-53 -103h-68z" />
    <glyph glyph-name="Lcaron.ss01" horiz-adv-x="541" 
d="M27 0l149 700h90l-133 -623h336l-17 -77h-425zM475 512l67 82q-21 2 -35.5 15.5t-14.5 34.5q0 24 17 42.5t42 18.5q24 0 38 -15t14 -38q0 -12 -5 -30.5t-20 -45.5l-37 -64h-66z" />
    <glyph glyph-name="Lcaron.ss01.ss15" horiz-adv-x="552" 
d="M27 0l149 700h90l-133 -623h336l-17 -77h-425zM460 516l6 30q20 0 46 13.5t32 35.5h-6q-24 0 -35.5 14t-11.5 33q0 27 18 44t41 17q20 0 35.5 -13.5t15.5 -42.5q0 -26 -14.5 -56.5t-45.5 -52t-81 -22.5z" />
    <glyph glyph-name="Lcaron.ss15" horiz-adv-x="550" 
d="M27 0l149 700h90l-133 -623h336l-17 -77h-425zM457 511l10 36q23 0 39.5 10t21.5 38l2 10h-47l20 95h97l-18 -92q-11 -58 -41.5 -77.5t-83.5 -19.5z" />
    <glyph glyph-name="uni013B" unicode="&#x13b;" horiz-adv-x="520" 
d="M27 0l149 700h90l-133 -623h336l-17 -77h-425zM99 -271l73 90h-51l21 98h94l-17 -85l-52 -103h-68z" />
    <glyph glyph-name="uni013B.loclMAH" horiz-adv-x="520" 
d="M27 0l149 700h90l-133 -623h336l-17 -77h-425zM99 -271l73 90h-51l21 98h94l-17 -85l-52 -103h-68z" />
    <glyph glyph-name="uni013B.loclMAH.ss01" horiz-adv-x="520" 
d="M27 0l149 700h90l-133 -623h336l-17 -77h-425zM105 -270l68 82q-22 1 -36 14.5t-14 34.5q0 24 16.5 42.5t41.5 18.5q24 0 38 -15t14 -38q0 -16 -8 -37.5t-17 -37.5l-37 -64h-66z" />
    <glyph glyph-name="uni013B.loclMAH.ss01.ss15" horiz-adv-x="520" 
d="M27 0l149 700h90l-133 -623h336l-17 -77h-425zM88 -270l7 35q24 0 43.5 13.5t29.5 37.5q-18 1 -29.5 14t-11.5 33q0 25 18 41.5t41 16.5q21 0 36 -14.5t15 -40.5q0 -37 -19 -68t-52.5 -49.5t-77.5 -18.5z" />
    <glyph glyph-name="uni013B.loclMAH.ss15" horiz-adv-x="520" 
d="M27 0l149 700h90l-133 -623h336l-17 -77h-425zM94 -270l8 34q28 0 44.5 11.5t23.5 48.5h-45l21 93h97l-18 -92q-13 -61 -44.5 -78.5t-86.5 -16.5z" />
    <glyph glyph-name="uni013B.ss01" horiz-adv-x="520" 
d="M27 0l149 700h90l-133 -623h336l-17 -77h-425zM105 -270l68 82q-22 1 -36 14.5t-14 34.5q0 24 16.5 42.5t41.5 18.5q24 0 38 -15t14 -38q0 -16 -8 -37.5t-17 -37.5l-37 -64h-66z" />
    <glyph glyph-name="uni013B.ss01.ss15" horiz-adv-x="520" 
d="M27 0l149 700h90l-133 -623h336l-17 -77h-425zM88 -270l7 35q24 0 43.5 13.5t29.5 37.5q-18 1 -29.5 14t-11.5 33q0 25 18 41.5t41 16.5q21 0 36 -14.5t15 -40.5q0 -37 -19 -68t-52.5 -49.5t-77.5 -18.5z" />
    <glyph glyph-name="uni013B.ss15" horiz-adv-x="520" 
d="M27 0l149 700h90l-133 -623h336l-17 -77h-425zM94 -270l8 34q28 0 44.5 11.5t23.5 48.5h-45l21 93h97l-18 -92q-13 -61 -44.5 -78.5t-86.5 -16.5z" />
    <glyph glyph-name="Ldot" unicode="&#x13f;" horiz-adv-x="523" 
d="M27 0l149 700h90l-133 -623h336l-17 -77h-425zM302 305l30 142h105l-31 -142h-104z" />
    <glyph glyph-name="Ldot.ss01" horiz-adv-x="524" 
d="M27 0l149 700h90l-133 -623h336l-17 -77h-425zM305 375q0 23 18.5 44.5t51.5 21.5q27 0 43.5 -17t16.5 -41q0 -28 -18.5 -49t-49.5 -21q-27 0 -44.5 18t-17.5 44z" />
    <glyph glyph-name="Lslash" unicode="&#x141;" horiz-adv-x="597" 
d="M105 0l59 276l-152 -75l17 86l153 76l72 337h90l-61 -287l170 84l-17 -86l-172 -85l-53 -249h336l-17 -77h-425z" />
    <glyph glyph-name="M" unicode="M" horiz-adv-x="888" 
d="M327 0l-82 602l-128 -602h-90l149 700h142l84 -623l359 623h143l-149 -700h-90l129 606l-347 -606h-120z" />
    <glyph glyph-name="M.small" horiz-adv-x="649" 
d="M265 0l-48 385l-82 -385h-88l102 480h132l51 -400l225 400h133l-102 -480h-88l83 393l-218 -393h-100z" />
    <glyph glyph-name="M.smaller" horiz-adv-x="502" 
d="M199 0l-28 260l-56 -260h-87l74 350h128l31 -266l146 266h127l-74 -350h-86l56 264l-142 -264h-89z" />
    <glyph glyph-name="N" unicode="N" horiz-adv-x="719" 
d="M462 0l-216 608l-129 -608h-90l149 700h127l214 -603l128 603h90l-149 -700h-124z" />
    <glyph glyph-name="N.small" horiz-adv-x="528" 
d="M353 0l-137 375l-80 -375h-89l102 480h113l138 -382l81 382h88l-102 -480h-114z" />
    <glyph glyph-name="N.smaller" horiz-adv-x="409" 
d="M259 0l-92 242l-51 -242h-87l74 350h103l94 -254l54 254h87l-74 -350h-108z" />
    <glyph glyph-name="Nacute" unicode="&#x143;" horiz-adv-x="719" 
d="M462 0l-216 608l-129 -608h-90l149 700h127l214 -603l128 603h90l-149 -700h-124zM428 758l105 142h102l-134 -142h-73z" />
    <glyph glyph-name="Ncaron" unicode="&#x147;" horiz-adv-x="719" 
d="M462 0l-216 608l-129 -608h-90l149 700h127l214 -603l128 603h90l-149 -700h-124zM345 884l82 15l53 -70l83 70l82 -15l-136 -127h-83z" />
    <glyph glyph-name="uni0145" unicode="&#x145;" horiz-adv-x="719" 
d="M462 0l-216 608l-129 -608h-90l149 700h127l214 -603l128 603h90l-149 -700h-124zM200 -271l73 90h-51l21 98h94l-17 -85l-52 -103h-68z" />
    <glyph glyph-name="uni0145.loclMAH" horiz-adv-x="719" 
d="M462 0l-216 608l-129 -608h-90l149 700h127l214 -603l128 603h90l-149 -700h-124zM200 -271l73 90h-51l21 98h94l-17 -85l-52 -103h-68z" />
    <glyph glyph-name="uni0145.loclMAH.ss01" horiz-adv-x="719" 
d="M462 0l-216 608l-129 -608h-90l149 700h127l214 -603l128 603h90l-149 -700h-124zM205 -270l68 82q-22 1 -36 14.5t-14 34.5q0 24 16.5 42.5t41.5 18.5q24 0 38 -15t14 -38q0 -16 -8 -37.5t-17 -37.5l-37 -64h-66z" />
    <glyph glyph-name="uni0145.loclMAH.ss01.ss15" horiz-adv-x="719" 
d="M462 0l-216 608l-129 -608h-90l149 700h127l214 -603l128 603h90l-149 -700h-124zM189 -270l7 35q24 0 43.5 13.5t29.5 37.5q-18 1 -29.5 14t-11.5 33q0 25 18 41.5t41 16.5q21 0 36 -14.5t15 -40.5q0 -37 -19 -68t-52.5 -49.5t-77.5 -18.5z" />
    <glyph glyph-name="uni0145.loclMAH.ss15" horiz-adv-x="719" 
d="M462 0l-216 608l-129 -608h-90l149 700h127l214 -603l128 603h90l-149 -700h-124zM194 -270l8 34q28 0 44.5 11.5t23.5 48.5h-45l21 93h97l-18 -92q-13 -61 -44.5 -78.5t-86.5 -16.5z" />
    <glyph glyph-name="uni0145.ss01" horiz-adv-x="719" 
d="M462 0l-216 608l-129 -608h-90l149 700h127l214 -603l128 603h90l-149 -700h-124zM205 -270l68 82q-22 1 -36 14.5t-14 34.5q0 24 16.5 42.5t41.5 18.5q24 0 38 -15t14 -38q0 -16 -8 -37.5t-17 -37.5l-37 -64h-66z" />
    <glyph glyph-name="uni0145.ss01.ss15" horiz-adv-x="719" 
d="M462 0l-216 608l-129 -608h-90l149 700h127l214 -603l128 603h90l-149 -700h-124zM189 -270l7 35q24 0 43.5 13.5t29.5 37.5q-18 1 -29.5 14t-11.5 33q0 25 18 41.5t41 16.5q21 0 36 -14.5t15 -40.5q0 -37 -19 -68t-52.5 -49.5t-77.5 -18.5z" />
    <glyph glyph-name="uni0145.ss15" horiz-adv-x="719" 
d="M462 0l-216 608l-129 -608h-90l149 700h127l214 -603l128 603h90l-149 -700h-124zM194 -270l8 34q28 0 44.5 11.5t23.5 48.5h-45l21 93h97l-18 -92q-13 -61 -44.5 -78.5t-86.5 -16.5z" />
    <glyph glyph-name="Ntilde" unicode="&#xd1;" horiz-adv-x="719" 
d="M462 0l-216 608l-129 -608h-90l149 700h127l214 -603l128 603h90l-149 -700h-124zM295 777q18 58 52.5 86.5t75.5 28.5q28 0 45 -11t33 -28q11 -11 22.5 -21.5t29.5 -10.5q20 0 36.5 16t25.5 41h54q-19 -58 -52.5 -86.5t-75.5 -28.5q-31 0 -50 14t-33 29q-11 12 -21.5 20
t-26.5 8q-22 0 -37.5 -17t-24.5 -40h-53z" />
    <glyph glyph-name="Eng" unicode="&#x14a;" horiz-adv-x="714" 
d="M403 -187q-21 0 -39.5 2.5t-41.5 6.5l8 68q16 -4 31 -5t28 -1q81 0 98 82l9 36l-250 610l-131 -612h-88l149 700h125l223 -558l119 558h86l-156 -737q-16 -73 -56.5 -111.5t-113.5 -38.5z" />
    <glyph glyph-name="O" unicode="O" horiz-adv-x="715" 
d="M322 -12q-127 0 -195 74t-68 201q0 58 14.5 120.5t44.5 121t75 105.5t105.5 74.5t137.5 27.5q129 0 196.5 -73.5t67.5 -200.5q0 -81 -25 -161t-74 -145t-119 -104.5t-160 -39.5zM152 261q0 -91 44.5 -143.5t128.5 -52.5q58 0 104 24.5t79 65t54.5 89.5t32 100t10.5 94
q0 92 -45 144.5t-129 52.5q-59 0 -104.5 -24.5t-78.5 -65.5t-54.5 -90.5t-31.5 -100t-10 -93.5z" />
    <glyph glyph-name="O.small" horiz-adv-x="519" 
d="M252 -9q-88 0 -136 48t-48 132q0 64 21.5 121.5t59.5 101.5t90.5 69t113.5 25q89 0 137.5 -47t48.5 -130q0 -64 -21.5 -121.5t-60 -102.5t-91 -70.5t-114.5 -25.5zM164 178q0 -55 26.5 -86t75.5 -31q50 0 90 34t63 88.5t23 117.5q0 56 -26.5 86.5t-76.5 30.5
q-49 0 -89 -34t-63 -88.5t-23 -117.5z" />
    <glyph glyph-name="O.smaller" horiz-adv-x="394" 
d="M190 -7q-69 0 -107 36t-38 98q0 63 28.5 115t78 83.5t113.5 31.5q70 0 108.5 -35.5t38.5 -97.5t-28.5 -114.5t-78.5 -84.5t-115 -32zM140 132q0 -34 16 -53.5t47 -19.5q32 0 57.5 22.5t40 59t14.5 77.5q0 35 -16.5 54t-47.5 19q-32 0 -57 -22.5t-39.5 -59t-14.5 -77.5z
" />
    <glyph glyph-name="Oacute" unicode="&#xd3;" horiz-adv-x="715" 
d="M322 -12q-127 0 -195 74t-68 201q0 58 14.5 120.5t44.5 121t75 105.5t105.5 74.5t137.5 27.5q129 0 196.5 -73.5t67.5 -200.5q0 -81 -25 -161t-74 -145t-119 -104.5t-160 -39.5zM152 261q0 -91 44.5 -143.5t128.5 -52.5q58 0 104 24.5t79 65t54.5 89.5t32 100t10.5 94
q0 92 -45 144.5t-129 52.5q-59 0 -104.5 -24.5t-78.5 -65.5t-54.5 -90.5t-31.5 -100t-10 -93.5zM425 758l105 142h102l-134 -142h-73z" />
    <glyph glyph-name="Obreve" unicode="&#x14e;" horiz-adv-x="715" 
d="M322 -12q-127 0 -195 74t-68 201q0 58 14.5 120.5t44.5 121t75 105.5t105.5 74.5t137.5 27.5q129 0 196.5 -73.5t67.5 -200.5q0 -81 -25 -161t-74 -145t-119 -104.5t-160 -39.5zM152 261q0 -91 44.5 -143.5t128.5 -52.5q58 0 104 24.5t79 65t54.5 89.5t32 100t10.5 94
q0 92 -45 144.5t-129 52.5q-59 0 -104.5 -24.5t-78.5 -65.5t-54.5 -90.5t-31.5 -100t-10 -93.5zM332 900h75q-7 -32 7 -61t54 -29q32 0 58.5 22.5t36.5 67.5h76q-14 -70 -62 -109t-109 -39q-41 0 -76 17.5t-52.5 50.5t-7.5 80z" />
    <glyph glyph-name="Ocircumflex" unicode="&#xd4;" horiz-adv-x="715" 
d="M322 -12q-127 0 -195 74t-68 201q0 58 14.5 120.5t44.5 121t75 105.5t105.5 74.5t137.5 27.5q129 0 196.5 -73.5t67.5 -200.5q0 -81 -25 -161t-74 -145t-119 -104.5t-160 -39.5zM152 261q0 -91 44.5 -143.5t128.5 -52.5q58 0 104 24.5t79 65t54.5 89.5t32 100t10.5 94
q0 92 -45 144.5t-129 52.5q-59 0 -104.5 -24.5t-78.5 -65.5t-54.5 -90.5t-31.5 -100t-10 -93.5zM300 757l153 142h84l93 -142h-71l-70 98l-113 -98h-76z" />
    <glyph glyph-name="Odieresis" unicode="&#xd6;" horiz-adv-x="715" 
d="M322 -12q-127 0 -195 74t-68 201q0 58 14.5 120.5t44.5 121t75 105.5t105.5 74.5t137.5 27.5q129 0 196.5 -73.5t67.5 -200.5q0 -81 -25 -161t-74 -145t-119 -104.5t-160 -39.5zM152 261q0 -91 44.5 -143.5t128.5 -52.5q58 0 104 24.5t79 65t54.5 89.5t32 100t10.5 94
q0 92 -45 144.5t-129 52.5q-59 0 -104.5 -24.5t-78.5 -65.5t-54.5 -90.5t-31.5 -100t-10 -93.5zM322 761l22 99h76l-22 -99h-76zM531 761l22 99h76l-22 -99h-76z" />
    <glyph glyph-name="Odieresis.ss01" horiz-adv-x="715" 
d="M322 -12q-127 0 -195 74t-68 201q0 58 14.5 120.5t44.5 121t75 105.5t105.5 74.5t137.5 27.5q129 0 196.5 -73.5t67.5 -200.5q0 -81 -25 -161t-74 -145t-119 -104.5t-160 -39.5zM152 261q0 -91 44.5 -143.5t128.5 -52.5q58 0 104 24.5t79 65t54.5 89.5t32 100t10.5 94
q0 92 -45 144.5t-129 52.5q-59 0 -104.5 -24.5t-78.5 -65.5t-54.5 -90.5t-31.5 -100t-10 -93.5zM327 828q0 26 18 42.5t40 16.5q23 0 38 -14t15 -37q0 -26 -18.5 -42.5t-41.5 -16.5t-37 14.5t-14 36.5zM525 828q0 26 18 42.5t40 16.5q23 0 37.5 -14t14.5 -37
q0 -25 -18.5 -42t-41.5 -17q-22 0 -36 14.5t-14 36.5z" />
    <glyph glyph-name="Ograve" unicode="&#xd2;" horiz-adv-x="715" 
d="M322 -12q-127 0 -195 74t-68 201q0 58 14.5 120.5t44.5 121t75 105.5t105.5 74.5t137.5 27.5q129 0 196.5 -73.5t67.5 -200.5q0 -81 -25 -161t-74 -145t-119 -104.5t-160 -39.5zM152 261q0 -91 44.5 -143.5t128.5 -52.5q58 0 104 24.5t79 65t54.5 89.5t32 100t10.5 94
q0 92 -45 144.5t-129 52.5q-59 0 -104.5 -24.5t-78.5 -65.5t-54.5 -90.5t-31.5 -100t-10 -93.5zM356 899h97l45 -142h-68z" />
    <glyph glyph-name="Ohungarumlaut" unicode="&#x150;" horiz-adv-x="715" 
d="M322 -12q-127 0 -195 74t-68 201q0 58 14.5 120.5t44.5 121t75 105.5t105.5 74.5t137.5 27.5q129 0 196.5 -73.5t67.5 -200.5q0 -81 -25 -161t-74 -145t-119 -104.5t-160 -39.5zM152 261q0 -91 44.5 -143.5t128.5 -52.5q58 0 104 24.5t79 65t54.5 89.5t32 100t10.5 94
q0 92 -45 144.5t-129 52.5q-59 0 -104.5 -24.5t-78.5 -65.5t-54.5 -90.5t-31.5 -100t-10 -93.5zM356 752l76 142h91l-104 -142h-63zM494 752l94 142h92l-123 -142h-63z" />
    <glyph glyph-name="Omacron" unicode="&#x14c;" horiz-adv-x="715" 
d="M322 -12q-127 0 -195 74t-68 201q0 58 14.5 120.5t44.5 121t75 105.5t105.5 74.5t137.5 27.5q129 0 196.5 -73.5t67.5 -200.5q0 -81 -25 -161t-74 -145t-119 -104.5t-160 -39.5zM152 261q0 -91 44.5 -143.5t128.5 -52.5q58 0 104 24.5t79 65t54.5 89.5t32 100t10.5 94
q0 92 -45 144.5t-129 52.5q-59 0 -104.5 -24.5t-78.5 -65.5t-54.5 -90.5t-31.5 -100t-10 -93.5zM304 783l14 65h331l-14 -65h-331z" />
    <glyph glyph-name="Oslash" unicode="&#xd8;" horiz-adv-x="716" 
d="M10 0l89 101q-39 65 -39 162q0 58 14.5 120.5t44.5 121t75 105.5t105.5 74.5t137.5 27.5q97 0 161 -43l27 31h99l-73 -83q50 -70 50 -179q0 -81 -25 -161t-74 -145t-119 -104.5t-160 -39.5q-109 0 -175 55l-38 -43h-100zM153 261q0 -47 12 -85l374 427q-41 32 -107 32
q-59 0 -104.5 -24.5t-78.5 -65.5t-54.5 -90.5t-31.5 -100t-10 -93.5zM205 109q44 -44 121 -44q58 0 104 24.5t79 65t54.5 89.5t32 100t10.5 94q0 60 -20 105z" />
    <glyph glyph-name="Oslashacute" unicode="&#x1fe;" horiz-adv-x="716" 
d="M10 0l89 101q-39 65 -39 162q0 58 14.5 120.5t44.5 121t75 105.5t105.5 74.5t137.5 27.5q97 0 161 -43l27 31h99l-73 -83q50 -70 50 -179q0 -81 -25 -161t-74 -145t-119 -104.5t-160 -39.5q-109 0 -175 55l-38 -43h-100zM153 261q0 -47 12 -85l374 427q-41 32 -107 32
q-59 0 -104.5 -24.5t-78.5 -65.5t-54.5 -90.5t-31.5 -100t-10 -93.5zM205 109q44 -44 121 -44q58 0 104 24.5t79 65t54.5 89.5t32 100t10.5 94q0 60 -20 105zM433 758l105 142h102l-134 -142h-73z" />
    <glyph glyph-name="Otilde" unicode="&#xd5;" horiz-adv-x="715" 
d="M322 -12q-127 0 -195 74t-68 201q0 58 14.5 120.5t44.5 121t75 105.5t105.5 74.5t137.5 27.5q129 0 196.5 -73.5t67.5 -200.5q0 -81 -25 -161t-74 -145t-119 -104.5t-160 -39.5zM152 261q0 -91 44.5 -143.5t128.5 -52.5q58 0 104 24.5t79 65t54.5 89.5t32 100t10.5 94
q0 92 -45 144.5t-129 52.5q-59 0 -104.5 -24.5t-78.5 -65.5t-54.5 -90.5t-31.5 -100t-10 -93.5zM292 777q18 58 52.5 86.5t75.5 28.5q28 0 45 -11t33 -28q11 -11 22.5 -21.5t29.5 -10.5q20 0 36.5 16t25.5 41h54q-19 -58 -52.5 -86.5t-75.5 -28.5q-31 0 -50 14t-33 29
q-11 12 -21.5 20t-26.5 8q-22 0 -37.5 -17t-24.5 -40h-53z" />
    <glyph glyph-name="OE" unicode="&#x152;" horiz-adv-x="1056" 
d="M313 -7q-79 0 -136 33.5t-87 95.5t-30 145q0 57 14.5 118.5t43 119.5t71.5 105t101 74.5t130 27.5q78 0 129.5 -31.5t76.5 -88.5l23 109h464l-17 -81h-378l-47 -222h316l-17 -78h-315l-51 -242h378l-17 -77h-464l18 84q-39 -41 -90 -66.5t-116 -25.5zM150 265
q0 -89 42 -142t119 -53q55 0 99 24.5t76.5 65t53.5 89.5t31.5 99t10.5 92q0 89 -42 142t-121 53q-55 0 -98 -24.5t-75 -65t-53.5 -89.5t-32 -99t-10.5 -92z" />
    <glyph glyph-name="P" unicode="P" horiz-adv-x="628" 
d="M28 0l147 700h306q52 0 90.5 -26t60.5 -68t22 -92q0 -65 -34 -119t-89.5 -86t-122.5 -32h-231l-60 -277h-89zM192 355h205q50 0 86.5 23t56.5 59.5t20 76.5q0 44 -28.5 76.5t-80.5 32.5h-202z" />
    <glyph glyph-name="P.small" horiz-adv-x="461" 
d="M47 0l102 480h229q60 0 95 -32.5t35 -85.5q0 -50 -26 -92t-68.5 -67t-93.5 -25h-144l-39 -178h-90zM190 246h125q42 0 72 30t30 70q0 29 -18.5 46.5t-53.5 17.5h-120z" />
    <glyph glyph-name="P.smaller" horiz-adv-x="354" 
d="M28 0l74 350h181q50 0 78 -24t28 -65q0 -40 -20.5 -72.5t-54.5 -51.5t-77 -19h-94l-25 -118h-90zM157 183h76q29 0 47.5 18.5t18.5 44.5q0 39 -48 39h-72z" />
    <glyph glyph-name="Thorn" unicode="&#xde;" horiz-adv-x="615" 
d="M28 0l147 700h84l-30 -140h200q49 0 88 -23.5t61.5 -63.5t22.5 -88q0 -61 -31.5 -114t-84.5 -85.5t-120 -32.5h-221l-33 -153h-83zM160 230h199q45 0 81 21.5t57 56.5t21 75q0 42 -28.5 73.5t-78.5 31.5h-197z" />
    <glyph glyph-name="Q" unicode="Q" horiz-adv-x="723" 
d="M550 -7l-41 51q-39 -26 -86 -41t-101 -15q-127 0 -195 74t-68 201q0 58 14.5 120.5t44.5 121t75 105.5t105.5 74.5t137.5 27.5q129 0 196.5 -73.5t67.5 -200.5q0 -94 -33.5 -185.5t-97.5 -158.5l85 -101h-104zM152 261q0 -91 44.5 -143.5t128.5 -52.5q39 0 72.5 11.5
t61.5 31.5l-144 183h89l109 -130q32 40 52 88t30 97.5t10 91.5q0 92 -45 144.5t-129 52.5q-59 0 -104.5 -24.5t-78.5 -65.5t-54.5 -90.5t-31.5 -100t-10 -93.5z" />
    <glyph glyph-name="Q.bold" horiz-adv-x="733" 
d="M579 -53l-76 93q-38 -25 -83.5 -38.5t-97.5 -13.5q-127 0 -195 74t-68 201q0 58 14.5 120.5t44.5 121t75 105.5t105.5 74.5t137.5 27.5q129 0 196.5 -73.5t67.5 -200.5q0 -64 -16 -128t-47 -121.5t-76 -101.5l123 -140h-105zM152 261q0 -91 44.5 -143.5t128.5 -52.5
q58 0 104 24.5t79 65t54.5 89.5t32 100t10.5 94q0 92 -45 144.5t-129 52.5q-59 0 -104.5 -24.5t-78.5 -65.5t-54.5 -90.5t-31.5 -100t-10 -93.5z" />
    <glyph glyph-name="Q.small" horiz-adv-x="531" 
d="M390 -39l-32 52q-50 -22 -106 -22q-88 0 -136 48t-48 132q0 64 21.5 121.5t59.5 101.5t90.5 69t113.5 25q89 0 137.5 -47t48.5 -130q0 -78 -31.5 -146t-85.5 -112l62 -92h-94zM164 178q0 -55 26.5 -86t75.5 -31q50 0 90 34t63 88.5t23 117.5q0 56 -26.5 86.5t-76.5 30.5
q-49 0 -89 -34t-63 -88.5t-23 -117.5z" />
    <glyph glyph-name="Q.smaller" horiz-adv-x="406" 
d="M284 -31l-21 36q-34 -12 -73 -12q-69 0 -107 36t-38 98q0 63 28.5 115t78 83.5t113.5 31.5q70 0 108.5 -35.5t38.5 -97.5q0 -55 -23 -103.5t-63 -80.5l46 -71h-88zM140 132q0 -34 16 -53.5t47 -19.5q32 0 57.5 22.5t40 59t14.5 77.5q0 35 -16.5 54t-47.5 19t-56.5 -22.5
t-40 -59t-14.5 -77.5z" />
    <glyph glyph-name="Q.ss06" horiz-adv-x="715" 
d="M325 65q58 0 104 24.5t79 65t54.5 89.5t32 100t10.5 94q0 92 -45 144.5t-129 52.5q-59 0 -104.5 -24.5t-78.5 -65.5t-54.5 -90.5t-31.5 -100t-10 -93.5q0 -91 44.5 -143.5t128.5 -52.5zM59 263q0 58 14.5 120.5t44.5 121t75 105.5t105.5 74.5t137.5 27.5
q129 0 196.5 -73.5t67.5 -200.5q0 -79 -24 -157t-70.5 -143t-114 -105.5t-153.5 -44.5q-3 -16 -2.5 -34.5t11.5 -31t37 -12.5q13 0 30 4t33 12l-11 -69q-16 -9 -38 -11t-36 -2q-48 1 -74.5 21.5t-33.5 53.5t3 72l1 3q-97 17 -148 88t-51 181z" />
    <glyph glyph-name="Q.ss06.small" horiz-adv-x="519" 
d="M266 62q50 0 90 33.5t63 88t23 117.5q0 56 -26.5 87t-76.5 31q-49 0 -89 -34t-63 -89t-23 -117q0 -55 26.5 -86t75.5 -31zM68 171q0 65 21.5 122t60 101.5t90.5 69.5t114 25q88 0 136.5 -47.5t48.5 -130.5q0 -79 -32 -147t-87.5 -113t-128.5 -56q-3 -22 2.5 -38t33.5 -16
q6 0 17.5 2.5t21.5 7.5l-11 -49q-13 -7 -30.5 -10.5t-31.5 -3.5q-51 0 -66 27.5t-8 67.5l3 11q-73 8 -113.5 54.5t-40.5 122.5z" />
    <glyph glyph-name="Q.ss06.smaller" horiz-adv-x="394" 
d="M203 59q32 0 57.5 22.5t40 59t14.5 77.5q0 35 -16.5 54.5t-47.5 19.5t-56.5 -22.5t-40 -59t-14.5 -77.5q0 -35 16.5 -54.5t46.5 -19.5zM45 127q0 63 28.5 115t78 83.5t113.5 31.5q70 0 108.5 -35.5t38.5 -97.5q0 -56 -24 -105.5t-66.5 -82t-98.5 -41.5q-2 -16 3 -26
t23 -10q5 0 12.5 1.5t13.5 4.5l-8 -39q-11 -5 -25.5 -8t-27.5 -3q-37 0 -50.5 19.5t-6.5 50.5l3 10q-55 8 -85 42.5t-30 89.5z" />
    <glyph glyph-name="R" unicode="R" horiz-adv-x="634" 
d="M27 0l149 700h270q57 0 99 -22t64.5 -59.5t22.5 -84.5q0 -49 -24.5 -92.5t-66.5 -72.5t-96 -35h13q74 0 95 -50.5t1 -133.5l-34 -150h-89l33 155q11 47 8.5 80t-24.5 51t-70 18h-195l-66 -304h-90zM198 379h175q49 0 86.5 18.5t59.5 52.5t22 78t-29.5 70.5t-84.5 26.5
h-177z" />
    <glyph glyph-name="R.small" horiz-adv-x="465" 
d="M47 0l102 480h208q65 0 101.5 -27t36.5 -73q0 -36 -18.5 -69t-50.5 -54.5t-71 -25.5h15q47 0 66 -31t7 -90l-24 -110h-90l22 104q8 42 -2.5 68.5t-60.5 26.5h-108l-43 -199h-90zM193 263h107q45 0 74 27t29 67q0 27 -18.5 42.5t-52.5 15.5h-106z" />
    <glyph glyph-name="R.smaller" horiz-adv-x="359" 
d="M28 0l74 350h168q53 0 81.5 -19t28.5 -54q0 -42 -30.5 -75t-77.5 -37h13q36 0 52 -22t7 -65l-17 -78h-90l16 72q3 15 2 30t-10.5 24.5t-34.5 9.5h-63l-29 -136h-90zM159 194h66q29 0 47.5 17t18.5 42q0 17 -12 27t-35 10h-65z" />
    <glyph glyph-name="Racute" unicode="&#x154;" horiz-adv-x="634" 
d="M27 0l149 700h270q57 0 99 -22t64.5 -59.5t22.5 -84.5q0 -49 -24.5 -92.5t-66.5 -72.5t-96 -35h13q74 0 95 -50.5t1 -133.5l-34 -150h-89l33 155q11 47 8.5 80t-24.5 51t-70 18h-195l-66 -304h-90zM198 379h175q49 0 86.5 18.5t59.5 52.5t22 78t-29.5 70.5t-84.5 26.5
h-177zM408 758l105 142h102l-134 -142h-73z" />
    <glyph glyph-name="Rcaron" unicode="&#x158;" horiz-adv-x="634" 
d="M27 0l149 700h270q57 0 99 -22t64.5 -59.5t22.5 -84.5q0 -49 -24.5 -92.5t-66.5 -72.5t-96 -35h13q74 0 95 -50.5t1 -133.5l-34 -150h-89l33 155q11 47 8.5 80t-24.5 51t-70 18h-195l-66 -304h-90zM198 379h175q49 0 86.5 18.5t59.5 52.5t22 78t-29.5 70.5t-84.5 26.5
h-177zM303 884l82 15l53 -70l83 70l82 -15l-136 -127h-83z" />
    <glyph glyph-name="uni0156" unicode="&#x156;" horiz-adv-x="634" 
d="M27 0l149 700h270q57 0 99 -22t64.5 -59.5t22.5 -84.5q0 -49 -24.5 -92.5t-66.5 -72.5t-96 -35h13q74 0 95 -50.5t1 -133.5l-34 -150h-89l33 155q11 47 8.5 80t-24.5 51t-70 18h-195l-66 -304h-90zM180 -271l73 90h-51l21 98h94l-17 -85l-52 -103h-68zM198 379h175
q49 0 86.5 18.5t59.5 52.5t22 78t-29.5 70.5t-84.5 26.5h-177z" />
    <glyph glyph-name="uni0156.ss01" horiz-adv-x="634" 
d="M27 0l149 700h270q57 0 99 -22t64.5 -59.5t22.5 -84.5q0 -49 -24.5 -92.5t-66.5 -72.5t-96 -35h13q74 0 95 -50.5t1 -133.5l-34 -150h-89l33 155q11 47 8.5 80t-24.5 51t-70 18h-195l-66 -304h-90zM162 -270l68 82q-22 1 -36 14.5t-14 34.5q0 24 16.5 42.5t41.5 18.5
q24 0 38 -15t14 -38q0 -16 -8 -37.5t-17 -37.5l-37 -64h-66zM198 379h175q49 0 86.5 18.5t59.5 52.5t22 78t-29.5 70.5t-84.5 26.5h-177z" />
    <glyph glyph-name="uni0156.ss01.ss15" horiz-adv-x="634" 
d="M27 0l149 700h270q57 0 99 -22t64.5 -59.5t22.5 -84.5q0 -49 -24.5 -92.5t-66.5 -72.5t-96 -35h13q74 0 95 -50.5t1 -133.5l-34 -150h-89l33 155q11 47 8.5 80t-24.5 51t-70 18h-195l-66 -304h-90zM168 -270l7 35q24 0 43.5 13.5t29.5 37.5q-18 1 -29.5 14t-11.5 33
q0 25 18 41.5t41 16.5q21 0 36 -14.5t15 -40.5q0 -37 -19 -68t-52.5 -49.5t-77.5 -18.5zM198 379h175q49 0 86.5 18.5t59.5 52.5t22 78t-29.5 70.5t-84.5 26.5h-177z" />
    <glyph glyph-name="uni0156.ss15" horiz-adv-x="634" 
d="M27 0l149 700h270q57 0 99 -22t64.5 -59.5t22.5 -84.5q0 -49 -24.5 -92.5t-66.5 -72.5t-96 -35h13q74 0 95 -50.5t1 -133.5l-34 -150h-89l33 155q11 47 8.5 80t-24.5 51t-70 18h-195l-66 -304h-90zM151 -270l8 34q28 0 44.5 11.5t23.5 48.5h-45l21 93h97l-18 -92
q-13 -61 -44.5 -78.5t-86.5 -16.5zM198 379h175q49 0 86.5 18.5t59.5 52.5t22 78t-29.5 70.5t-84.5 26.5h-177z" />
    <glyph glyph-name="S" unicode="S" horiz-adv-x="612" 
d="M280 -13q-57 0 -107.5 16t-87.5 47t-53 75t-4 100h94q-13 -48 7.5 -84t62 -56.5t91.5 -20.5t94 20t71 53.5t27 74.5q0 28 -16 44.5t-51.5 30.5t-93.5 32t-104.5 39t-74 53.5t-27.5 82.5q0 62 38.5 111.5t103 78t141.5 28.5q70 0 123.5 -25t79 -70.5t11.5 -109.5h-89
q10 58 -27 93t-103 35q-50 0 -92 -18t-67 -48t-25 -66q0 -30 20.5 -49.5t57.5 -34t88 -30.5q53 -16 98.5 -35t73.5 -50.5t28 -85.5q0 -65 -38 -117.5t-103 -83t-147 -30.5z" />
    <glyph glyph-name="S.small" horiz-adv-x="456" 
d="M223 -9q-93 0 -141 44.5t-33 115.5h96q-6 -31 7 -52t37 -31t50 -10q47 0 81.5 27t34.5 64q0 23 -22 33.5t-79 23.5q-45 11 -80 23t-55 32t-20 53q0 49 30 88.5t81 62.5t114 23q86 0 126 -40t29 -103h-94q6 38 -17 57t-60 19q-44 0 -76.5 -23.5t-32.5 -55.5
q0 -29 34.5 -41.5t83.5 -24.5q40 -10 70.5 -21.5t48.5 -30t18 -51.5q0 -52 -30 -93.5t-82 -65t-119 -23.5z" />
    <glyph glyph-name="S.smaller" horiz-adv-x="351" 
d="M170 -7q-74 0 -111.5 31t-26.5 84h96q-4 -26 13.5 -40t42.5 -14q28 0 48.5 15.5t20.5 37.5q0 15 -14.5 21t-45.5 12q-62 11 -94.5 29t-32.5 54q0 39 23.5 69t64 47.5t91.5 17.5q68 0 102 -28.5t24 -78.5h-96q4 25 -10 35.5t-34 10.5q-25 0 -44.5 -14t-19.5 -34
q0 -14 17 -22t48 -15q56 -11 88.5 -26t32.5 -53q0 -40 -23.5 -71.5t-64.5 -49.5t-95 -18z" />
    <glyph glyph-name="Sacute" unicode="&#x15a;" horiz-adv-x="612" 
d="M280 -13q-57 0 -107.5 16t-87.5 47t-53 75t-4 100h94q-13 -48 7.5 -84t62 -56.5t91.5 -20.5t94 20t71 53.5t27 74.5q0 28 -16 44.5t-51.5 30.5t-93.5 32t-104.5 39t-74 53.5t-27.5 82.5q0 62 38.5 111.5t103 78t141.5 28.5q70 0 123.5 -25t79 -70.5t11.5 -109.5h-89
q10 58 -27 93t-103 35q-50 0 -92 -18t-67 -48t-25 -66q0 -30 20.5 -49.5t57.5 -34t88 -30.5q53 -16 98.5 -35t73.5 -50.5t28 -85.5q0 -65 -38 -117.5t-103 -83t-147 -30.5zM377 758l105 142h102l-134 -142h-73z" />
    <glyph glyph-name="Scaron" unicode="&#x160;" horiz-adv-x="612" 
d="M280 -13q-57 0 -107.5 16t-87.5 47t-53 75t-4 100h94q-13 -48 7.5 -84t62 -56.5t91.5 -20.5t94 20t71 53.5t27 74.5q0 28 -16 44.5t-51.5 30.5t-93.5 32t-104.5 39t-74 53.5t-27.5 82.5q0 62 38.5 111.5t103 78t141.5 28.5q70 0 123.5 -25t79 -70.5t11.5 -109.5h-89
q10 58 -27 93t-103 35q-50 0 -92 -18t-67 -48t-25 -66q0 -30 20.5 -49.5t57.5 -34t88 -30.5q53 -16 98.5 -35t73.5 -50.5t28 -85.5q0 -65 -38 -117.5t-103 -83t-147 -30.5zM294 884l82 15l53 -70l83 70l82 -15l-136 -127h-83z" />
    <glyph glyph-name="Scedilla" unicode="&#x15e;" horiz-adv-x="612" 
d="M266 -220q-35 0 -66.5 17t-47.5 42l38 38q11 -16 33 -28t42 -12q24 0 38.5 16t14.5 35q0 17 -11.5 25.5t-25.5 8.5q-13 0 -25.5 -4t-25.5 -11l-44 30l46 53q-65 9 -116.5 39t-77 80t-10.5 116h94q-13 -48 7.5 -84t62 -56.5t91.5 -20.5t94 20t71 53.5t27 74.5
q0 28 -16 44.5t-51.5 30.5t-93.5 32t-104.5 39t-74 53.5t-27.5 82.5q0 62 38.5 111.5t103 78t141.5 28.5q70 0 123.5 -25t79 -70.5t11.5 -109.5h-89q10 58 -27 93t-103 35q-50 0 -92 -18t-67 -48t-25 -66q0 -30 20.5 -49.5t57.5 -34t88 -30.5q53 -16 98.5 -35t73.5 -50.5
t28 -85.5q0 -62 -35.5 -113.5t-96.5 -82.5t-139 -35l-40 -40q13 7 26 9.5t24 2.5q34 0 56 -19t22 -53q0 -44 -34 -75.5t-85 -31.5z" />
    <glyph glyph-name="Scircumflex" unicode="&#x15c;" horiz-adv-x="612" 
d="M280 -13q-57 0 -107.5 16t-87.5 47t-53 75t-4 100h94q-13 -48 7.5 -84t62 -56.5t91.5 -20.5t94 20t71 53.5t27 74.5q0 28 -16 44.5t-51.5 30.5t-93.5 32t-104.5 39t-74 53.5t-27.5 82.5q0 62 38.5 111.5t103 78t141.5 28.5q70 0 123.5 -25t79 -70.5t11.5 -109.5h-89
q10 58 -27 93t-103 35q-50 0 -92 -18t-67 -48t-25 -66q0 -30 20.5 -49.5t57.5 -34t88 -30.5q53 -16 98.5 -35t73.5 -50.5t28 -85.5q0 -65 -38 -117.5t-103 -83t-147 -30.5zM251 757l153 142h84l93 -142h-71l-70 98l-113 -98h-76z" />
    <glyph glyph-name="uni0218" unicode="&#x218;" horiz-adv-x="612" 
d="M280 -13q-57 0 -107.5 16t-87.5 47t-53 75t-4 100h94q-13 -48 7.5 -84t62 -56.5t91.5 -20.5t94 20t71 53.5t27 74.5q0 28 -16 44.5t-51.5 30.5t-93.5 32t-104.5 39t-74 53.5t-27.5 82.5q0 62 38.5 111.5t103 78t141.5 28.5q70 0 123.5 -25t79 -70.5t11.5 -109.5h-89
q10 58 -27 93t-103 35q-50 0 -92 -18t-67 -48t-25 -66q0 -30 20.5 -49.5t57.5 -34t88 -30.5q53 -16 98.5 -35t73.5 -50.5t28 -85.5q0 -65 -38 -117.5t-103 -83t-147 -30.5zM166 -271l73 90h-51l21 98h94l-17 -85l-52 -103h-68z" />
    <glyph glyph-name="uni0218.ss01" horiz-adv-x="612" 
d="M280 -13q-57 0 -107.5 16t-87.5 47t-53 75t-4 100h94q-13 -48 7.5 -84t62 -56.5t91.5 -20.5t94 20t71 53.5t27 74.5q0 28 -16 44.5t-51.5 30.5t-93.5 32t-104.5 39t-74 53.5t-27.5 82.5q0 62 38.5 111.5t103 78t141.5 28.5q70 0 123.5 -25t79 -70.5t11.5 -109.5h-89
q10 58 -27 93t-103 35q-50 0 -92 -18t-67 -48t-25 -66q0 -30 20.5 -49.5t57.5 -34t88 -30.5q53 -16 98.5 -35t73.5 -50.5t28 -85.5q0 -65 -38 -117.5t-103 -83t-147 -30.5zM171 -270l68 82q-22 1 -36 14.5t-14 34.5q0 24 16.5 42.5t41.5 18.5q24 0 38 -15t14 -38
q0 -16 -8 -37.5t-17 -37.5l-37 -64h-66z" />
    <glyph glyph-name="uni0218.ss01.ss15" horiz-adv-x="612" 
d="M280 -13q-57 0 -107.5 16t-87.5 47t-53 75t-4 100h94q-13 -48 7.5 -84t62 -56.5t91.5 -20.5t94 20t71 53.5t27 74.5q0 28 -16 44.5t-51.5 30.5t-93.5 32t-104.5 39t-74 53.5t-27.5 82.5q0 62 38.5 111.5t103 78t141.5 28.5q70 0 123.5 -25t79 -70.5t11.5 -109.5h-89
q10 58 -27 93t-103 35q-50 0 -92 -18t-67 -48t-25 -66q0 -30 20.5 -49.5t57.5 -34t88 -30.5q53 -16 98.5 -35t73.5 -50.5t28 -85.5q0 -65 -38 -117.5t-103 -83t-147 -30.5zM154 -270l7 35q24 0 43.5 13.5t29.5 37.5q-18 1 -29.5 14t-11.5 33q0 25 18 41.5t41 16.5
q21 0 36 -14.5t15 -40.5q0 -37 -19 -68t-52.5 -49.5t-77.5 -18.5z" />
    <glyph glyph-name="uni0218.ss15" horiz-adv-x="612" 
d="M280 -13q-57 0 -107.5 16t-87.5 47t-53 75t-4 100h94q-13 -48 7.5 -84t62 -56.5t91.5 -20.5t94 20t71 53.5t27 74.5q0 28 -16 44.5t-51.5 30.5t-93.5 32t-104.5 39t-74 53.5t-27.5 82.5q0 62 38.5 111.5t103 78t141.5 28.5q70 0 123.5 -25t79 -70.5t11.5 -109.5h-89
q10 58 -27 93t-103 35q-50 0 -92 -18t-67 -48t-25 -66q0 -30 20.5 -49.5t57.5 -34t88 -30.5q53 -16 98.5 -35t73.5 -50.5t28 -85.5q0 -65 -38 -117.5t-103 -83t-147 -30.5zM160 -270l8 34q28 0 44.5 11.5t23.5 48.5h-45l21 93h97l-18 -92q-13 -61 -44.5 -78.5t-86.5 -16.5z
" />
    <glyph glyph-name="uni1E9E" unicode="&#x1e9e;" horiz-adv-x="640" 
d="M335 -12q-44 0 -89 16t-80 53l12 72q36 -37 76 -52.5t74 -15.5q53 0 94 26.5t65 68.5t24 88q0 53 -37 88.5t-104 35.5l-74 1l12 65l228 200h-152q-40 0 -77.5 -23.5t-65 -64.5t-38.5 -96l-94 -450h-85l94 460q15 72 55.5 126t98 84t120.5 30h266l-13 -58l-257 -224h26
q56 0 97 -23t63.5 -62.5t22.5 -90.5q0 -69 -34.5 -127t-93.5 -92.5t-134 -34.5z" />
    <glyph glyph-name="T" unicode="T" horiz-adv-x="586" 
d="M195 -1l133 624h-233l16 77h555l-16 -77h-232l-133 -624h-90z" />
    <glyph glyph-name="T.small" horiz-adv-x="425" 
d="M161 -1l87 410h-156l16 71h399l-15 -71h-155l-87 -409z" />
    <glyph glyph-name="T.smaller" horiz-adv-x="327" 
d="M113 0l61 284h-112l15 66h309l-14 -66h-111l-61 -284h-87z" />
    <glyph glyph-name="Tbar" unicode="&#x166;" horiz-adv-x="594" 
d="M199 -1l67 315h-143l15 73h143l51 236h-233l16 77h555l-16 -77h-232l-51 -236h151l-16 -73h-150l-67 -315h-90z" />
    <glyph glyph-name="Tcaron" unicode="&#x164;" horiz-adv-x="586" 
d="M195 -1l133 624h-233l16 77h555l-16 -77h-232l-133 -624h-90zM279 884l82 15l53 -70l83 70l82 -15l-136 -127h-83z" />
    <glyph glyph-name="uni0162" unicode="&#x162;" horiz-adv-x="586" 
d="M195 -1l133 624h-233l16 77h555l-16 -77h-232l-133 -624h-2l-52 -52q13 7 26 9.5t24 2.5q34 0 56 -19t22 -53q0 -44 -34 -75.5t-85 -31.5q-35 0 -66.5 17t-47.5 42l38 38q11 -16 33 -28t42 -12q24 0 38.5 16t14.5 35q0 17 -11.5 25.5t-25.5 8.5q-13 0 -25.5 -4t-25.5 -11
l-44 30l54 62h-19z" />
    <glyph glyph-name="uni021A" unicode="&#x21a;" horiz-adv-x="586" 
d="M195 -1l133 624h-233l16 77h555l-16 -77h-232l-133 -624h-90zM139 -271l73 90h-51l21 98h94l-17 -85l-52 -103h-68z" />
    <glyph glyph-name="uni021A.ss01" horiz-adv-x="586" 
d="M195 -1l133 624h-233l16 77h555l-16 -77h-232l-133 -624h-90zM145 -270l68 82q-22 1 -36 14.5t-14 34.5q0 24 16.5 42.5t41.5 18.5q24 0 38 -15t14 -38q0 -16 -8 -37.5t-17 -37.5l-37 -64h-66z" />
    <glyph glyph-name="uni021A.ss01.ss15" horiz-adv-x="586" 
d="M195 -1l133 624h-233l16 77h555l-16 -77h-232l-133 -624h-90zM128 -270l7 35q24 0 43.5 13.5t29.5 37.5q-18 1 -29.5 14t-11.5 33q0 25 18 41.5t41 16.5q21 0 36 -14.5t15 -40.5q0 -37 -19 -68t-52.5 -49.5t-77.5 -18.5z" />
    <glyph glyph-name="uni021A.ss15" horiz-adv-x="586" 
d="M195 -1l133 624h-233l16 77h555l-16 -77h-232l-133 -624h-90zM134 -270l8 34q28 0 44.5 11.5t23.5 48.5h-45l21 93h97l-18 -92q-13 -61 -44.5 -78.5t-86.5 -16.5z" />
    <glyph glyph-name="U" unicode="U" horiz-adv-x="693" 
d="M318 -12q-89 0 -149 37.5t-84.5 101t-8.5 140.5l94 433h90l-94 -439q-7 -34 -3.5 -68.5t20.5 -63.5t49.5 -46.5t83.5 -17.5q53 0 97 23t74.5 64t41.5 95l94 453h89l-95 -467q-15 -74 -58.5 -129t-105.5 -85.5t-135 -30.5z" />
    <glyph glyph-name="U.small" horiz-adv-x="503" 
d="M245 -9q-91 0 -136 51t-28 133l65 305h88l-63 -300q-11 -50 13.5 -83t75.5 -33q48 0 86 31.5t48 82.5l65 302h88l-65 -307q-11 -55 -45 -95.5t-83.5 -63.5t-108.5 -23z" />
    <glyph glyph-name="U.smaller" horiz-adv-x="380" 
d="M183 -7q-73 0 -107.5 37.5t-21.5 99.5l47 220h87l-46 -215q-7 -32 9 -52t46 -20q32 0 55 20t30 51l46 216h87l-47 -221q-13 -62 -62.5 -99t-122.5 -37z" />
    <glyph glyph-name="Uacute" unicode="&#xda;" horiz-adv-x="693" 
d="M318 -12q-89 0 -149 37.5t-84.5 101t-8.5 140.5l94 433h90l-94 -439q-7 -34 -3.5 -68.5t20.5 -63.5t49.5 -46.5t83.5 -17.5q53 0 97 23t74.5 64t41.5 95l94 453h89l-95 -467q-15 -74 -58.5 -129t-105.5 -85.5t-135 -30.5zM405 758l105 142h102l-134 -142h-73z" />
    <glyph glyph-name="Ubreve" unicode="&#x16c;" horiz-adv-x="693" 
d="M318 -12q-89 0 -149 37.5t-84.5 101t-8.5 140.5l94 433h90l-94 -439q-7 -34 -3.5 -68.5t20.5 -63.5t49.5 -46.5t83.5 -17.5q53 0 97 23t74.5 64t41.5 95l94 453h89l-95 -467q-15 -74 -58.5 -129t-105.5 -85.5t-135 -30.5zM311 900h75q-7 -32 7 -61t54 -29q32 0 58.5 22.5
t36.5 67.5h76q-14 -70 -62 -109t-109 -39q-41 0 -76 17.5t-52.5 50.5t-7.5 80z" />
    <glyph glyph-name="Ucircumflex" unicode="&#xdb;" horiz-adv-x="693" 
d="M318 -12q-89 0 -149 37.5t-84.5 101t-8.5 140.5l94 433h90l-94 -439q-7 -34 -3.5 -68.5t20.5 -63.5t49.5 -46.5t83.5 -17.5q53 0 97 23t74.5 64t41.5 95l94 453h89l-95 -467q-15 -74 -58.5 -129t-105.5 -85.5t-135 -30.5zM279 757l153 142h84l93 -142h-71l-70 98
l-113 -98h-76z" />
    <glyph glyph-name="Udieresis" unicode="&#xdc;" horiz-adv-x="693" 
d="M318 -12q-89 0 -149 37.5t-84.5 101t-8.5 140.5l94 433h90l-94 -439q-7 -34 -3.5 -68.5t20.5 -63.5t49.5 -46.5t83.5 -17.5q53 0 97 23t74.5 64t41.5 95l94 453h89l-95 -467q-15 -74 -58.5 -129t-105.5 -85.5t-135 -30.5zM302 761l22 99h76l-22 -99h-76zM511 761l22 99
h76l-22 -99h-76z" />
    <glyph glyph-name="Udieresis.ss01" horiz-adv-x="693" 
d="M318 -12q-89 0 -149 37.5t-84.5 101t-8.5 140.5l94 433h90l-94 -439q-7 -34 -3.5 -68.5t20.5 -63.5t49.5 -46.5t83.5 -17.5q53 0 97 23t74.5 64t41.5 95l94 453h89l-95 -467q-15 -74 -58.5 -129t-105.5 -85.5t-135 -30.5zM306 828q0 26 18 42.5t40 16.5q23 0 38 -14
t15 -37q0 -26 -18.5 -42.5t-41.5 -16.5t-37 14.5t-14 36.5zM504 828q0 26 18 42.5t40 16.5q23 0 37.5 -14t14.5 -37q0 -25 -18.5 -42t-41.5 -17q-22 0 -36 14.5t-14 36.5z" />
    <glyph glyph-name="Ugrave" unicode="&#xd9;" horiz-adv-x="693" 
d="M318 -12q-89 0 -149 37.5t-84.5 101t-8.5 140.5l94 433h90l-94 -439q-7 -34 -3.5 -68.5t20.5 -63.5t49.5 -46.5t83.5 -17.5q53 0 97 23t74.5 64t41.5 95l94 453h89l-95 -467q-15 -74 -58.5 -129t-105.5 -85.5t-135 -30.5zM337 899h97l45 -142h-68z" />
    <glyph glyph-name="Uhungarumlaut" unicode="&#x170;" horiz-adv-x="693" 
d="M318 -12q-89 0 -149 37.5t-84.5 101t-8.5 140.5l94 433h90l-94 -439q-7 -34 -3.5 -68.5t20.5 -63.5t49.5 -46.5t83.5 -17.5q53 0 97 23t74.5 64t41.5 95l94 453h89l-95 -467q-15 -74 -58.5 -129t-105.5 -85.5t-135 -30.5zM336 752l76 142h91l-104 -142h-63zM474 752
l94 142h92l-123 -142h-63z" />
    <glyph glyph-name="Umacron" unicode="&#x16a;" horiz-adv-x="693" 
d="M318 -12q-89 0 -149 37.5t-84.5 101t-8.5 140.5l94 433h90l-94 -439q-7 -34 -3.5 -68.5t20.5 -63.5t49.5 -46.5t83.5 -17.5q53 0 97 23t74.5 64t41.5 95l94 453h89l-95 -467q-15 -74 -58.5 -129t-105.5 -85.5t-135 -30.5zM284 783l14 65h331l-14 -65h-331z" />
    <glyph glyph-name="Uogonek" unicode="&#x172;" horiz-adv-x="693" 
d="M304 -182q-41 0 -62.5 21.5t-21.5 52.5q0 25 14 51t42 47q-75 9 -125 48t-70 98.5t-5 130.5l94 433h90l-94 -439q-7 -34 -3.5 -68.5t20.5 -63.5t49.5 -46.5t83.5 -17.5q53 0 97 23t74.5 64t41.5 95l94 453h89l-95 -467q-19 -94 -83.5 -157.5t-152.5 -81.5
q-49 -18 -71 -41.5t-22 -43.5q0 -17 12 -23.5t26 -6.5q9 0 21 2.5t28 8.5l-13 -59q-15 -7 -31 -10t-27 -3z" />
    <glyph glyph-name="Uring" unicode="&#x16e;" horiz-adv-x="693" 
d="M318 -12q-89 0 -149 37.5t-84.5 101t-8.5 140.5l94 433h90l-94 -439q-7 -34 -3.5 -68.5t20.5 -63.5t49.5 -46.5t83.5 -17.5q53 0 97 23t74.5 64t41.5 95l94 453h89l-95 -467q-15 -74 -58.5 -129t-105.5 -85.5t-135 -30.5zM358 855q0 34 17 60.5t44.5 41.5t59.5 15
q43 0 71 -26t28 -67q0 -34 -16.5 -60.5t-44 -42t-60.5 -15.5q-43 0 -71 26.5t-28 67.5zM413 856q0 -19 12.5 -32.5t32.5 -13.5q26 0 45 20t19 47q0 20 -12.5 33t-32.5 13q-25 0 -44.5 -20t-19.5 -47z" />
    <glyph glyph-name="Utilde" unicode="&#x168;" horiz-adv-x="693" 
d="M318 -12q-89 0 -149 37.5t-84.5 101t-8.5 140.5l94 433h90l-94 -439q-7 -34 -3.5 -68.5t20.5 -63.5t49.5 -46.5t83.5 -17.5q53 0 97 23t74.5 64t41.5 95l94 453h89l-95 -467q-15 -74 -58.5 -129t-105.5 -85.5t-135 -30.5zM272 777q18 58 52.5 86.5t75.5 28.5q28 0 45 -11
t33 -28q11 -11 22.5 -21.5t29.5 -10.5q20 0 36.5 16t25.5 41h54q-19 -58 -52.5 -86.5t-75.5 -28.5q-31 0 -50 14t-33 29q-11 12 -21.5 20t-26.5 8q-22 0 -37.5 -17t-24.5 -40h-53z" />
    <glyph glyph-name="V" unicode="V" horiz-adv-x="638" 
d="M203 -1l-88 701h89l78 -619l339 619h92l-383 -701h-127z" />
    <glyph glyph-name="V.small" horiz-adv-x="473" 
d="M162 -1l-52 481h93l41 -412l214 412h94l-255 -481h-135z" />
    <glyph glyph-name="V.smaller" horiz-adv-x="366" 
d="M107 0l-31 350h93l21 -283l141 283h94l-179 -350h-139z" />
    <glyph glyph-name="W" unicode="W" horiz-adv-x="949" 
d="M144 -1l-25 701h88l24 -618l283 618h109l20 -622l286 622h91l-322 -701h-137l-15 588l-266 -588h-136z" />
    <glyph glyph-name="W.small" horiz-adv-x="686" 
d="M123 -1l-8 481h89l4 -412l183 412h95l5 -416l180 416h90l-213 -480l-56 -1h-13h-16l-44 1l-3 378l-164 -379l-43 1v-1h-86z" />
    <glyph glyph-name="W.smaller" horiz-adv-x="445" 
d="M58 0l20 350h88l-21 -279l104 279h82l-15 -285l98 285h88l-129 -350h-123l14 228l-83 -228h-123z" />
    <glyph glyph-name="Wacute" unicode="&#x1e82;" horiz-adv-x="949" 
d="M144 -1l-25 701h88l24 -618l283 618h109l20 -622l286 622h91l-322 -701h-137l-15 588l-266 -588h-136zM541 758l105 142h102l-134 -142h-73z" />
    <glyph glyph-name="Wcircumflex" unicode="&#x174;" horiz-adv-x="949" 
d="M144 -1l-25 701h88l24 -618l283 618h109l20 -622l286 622h91l-322 -701h-137l-15 588l-266 -588h-136zM416 757l153 142h84l93 -142h-71l-70 98l-113 -98h-76z" />
    <glyph glyph-name="Wdieresis" unicode="&#x1e84;" horiz-adv-x="949" 
d="M144 -1l-25 701h88l24 -618l283 618h109l20 -622l286 622h91l-322 -701h-137l-15 588l-266 -588h-136zM438 761l22 99h76l-22 -99h-76zM647 761l22 99h76l-22 -99h-76z" />
    <glyph glyph-name="Wdieresis.ss01" horiz-adv-x="949" 
d="M144 -1l-25 701h88l24 -618l283 618h109l20 -622l286 622h91l-322 -701h-137l-15 588l-266 -588h-136zM443 828q0 26 18 42.5t40 16.5q23 0 38 -14t15 -37q0 -26 -18.5 -42.5t-41.5 -16.5t-37 14.5t-14 36.5zM641 828q0 26 18 42.5t40 16.5q23 0 37.5 -14t14.5 -37
q0 -25 -18.5 -42t-41.5 -17q-22 0 -36 14.5t-14 36.5z" />
    <glyph glyph-name="Wgrave" unicode="&#x1e80;" horiz-adv-x="949" 
d="M144 -1l-25 701h88l24 -618l283 618h109l20 -622l286 622h91l-322 -701h-137l-15 588l-266 -588h-136zM473 899h97l45 -142h-68z" />
    <glyph glyph-name="X" unicode="X" horiz-adv-x="618" 
d="M455 0l-139 280l-257 -280h-107l327 356l-170 344h102l135 -274l252 274h106l-320 -350l173 -350h-102z" />
    <glyph glyph-name="X.small" horiz-adv-x="472" 
d="M352 0l-88 173l-163 -173h-105l231 245l-120 235h106l85 -166l155 166h107l-225 -239l123 -241h-106z" />
    <glyph glyph-name="X.smaller" horiz-adv-x="378" 
d="M262 0l-59 111l-107 -111h-106l175 182l-89 168h107l55 -104l99 104h107l-168 -174l93 -176h-107z" />
    <glyph glyph-name="Y" unicode="Y" horiz-adv-x="657" 
d="M229 -1l59 271l-177 430h106l132 -343l278 343h110l-359 -430l-59 -271h-90z" />
    <glyph glyph-name="Y.small" horiz-adv-x="480" 
d="M190 -1l37 176l-124 305h104l82 -221l173 221h103l-249 -305l-38 -176h-88z" />
    <glyph glyph-name="Y.smaller" horiz-adv-x="369" 
d="M134 0l25 121l-92 229h101l52 -148l112 148h102l-187 -229l-25 -121h-88z" />
    <glyph glyph-name="Yacute" unicode="&#xdd;" horiz-adv-x="657" 
d="M229 -1l59 271l-177 430h106l132 -343l278 343h110l-359 -430l-59 -271h-90zM395 758l105 142h102l-134 -142h-73z" />
    <glyph glyph-name="Ycircumflex" unicode="&#x176;" horiz-adv-x="657" 
d="M229 -1l59 271l-177 430h106l132 -343l278 343h110l-359 -430l-59 -271h-90zM270 757l153 142h84l93 -142h-71l-70 98l-113 -98h-76z" />
    <glyph glyph-name="Ydieresis" unicode="&#x178;" horiz-adv-x="657" 
d="M229 -1l59 271l-177 430h106l132 -343l278 343h110l-359 -430l-59 -271h-90zM292 761l22 99h76l-22 -99h-76zM501 761l22 99h76l-22 -99h-76z" />
    <glyph glyph-name="Ydieresis.ss01" horiz-adv-x="657" 
d="M229 -1l59 271l-177 430h106l132 -343l278 343h110l-359 -430l-59 -271h-90zM297 828q0 26 18 42.5t40 16.5q23 0 38 -14t15 -37q0 -26 -18.5 -42.5t-41.5 -16.5t-37 14.5t-14 36.5zM495 828q0 26 18 42.5t40 16.5q23 0 37.5 -14t14.5 -37q0 -25 -18.5 -42t-41.5 -17
q-22 0 -36 14.5t-14 36.5z" />
    <glyph glyph-name="Ygrave" unicode="&#x1ef2;" horiz-adv-x="657" 
d="M229 -1l59 271l-177 430h106l132 -343l278 343h110l-359 -430l-59 -271h-90zM328 899h97l45 -142h-68z" />
    <glyph glyph-name="uni0232" unicode="&#x232;" horiz-adv-x="657" 
d="M229 -1l59 271l-177 430h106l132 -343l278 343h110l-359 -430l-59 -271h-90zM274 783l14 65h331l-14 -65h-331z" />
    <glyph glyph-name="uni1EF8" unicode="&#x1ef8;" horiz-adv-x="657" 
d="M229 -1l59 271l-177 430h106l132 -343l278 343h110l-359 -430l-59 -271h-90zM262 777q18 58 52.5 86.5t75.5 28.5q28 0 45 -11t33 -28q11 -11 22.5 -21.5t29.5 -10.5q20 0 36.5 16t25.5 41h54q-19 -58 -52.5 -86.5t-75.5 -28.5q-31 0 -50 14t-33 29q-11 12 -21.5 20
t-26.5 8q-22 0 -37.5 -17t-24.5 -40h-53z" />
    <glyph glyph-name="Z" unicode="Z" horiz-adv-x="604" 
d="M-23 0l16 76l543 548h-416l16 76h523l-15 -76l-544 -548h438l-16 -76h-545z" />
    <glyph glyph-name="Z.small" horiz-adv-x="438" 
d="M20 0l14 69l344 341h-266l15 70h373l-15 -70l-346 -341h282l-14 -69h-387z" />
    <glyph glyph-name="Z.smaller" horiz-adv-x="331" 
d="M12 0l14 66l228 218h-179l13 66h286l-14 -66l-228 -218h190l-15 -66h-295z" />
    <glyph glyph-name="Zacute" unicode="&#x179;" horiz-adv-x="604" 
d="M-23 0l16 76l543 548h-416l16 76h523l-15 -76l-544 -548h438l-16 -76h-545zM371 758l105 142h102l-134 -142h-73z" />
    <glyph glyph-name="Zcaron" unicode="&#x17d;" horiz-adv-x="604" 
d="M-23 0l16 76l543 548h-416l16 76h523l-15 -76l-544 -548h438l-16 -76h-545zM288 884l82 15l53 -70l83 70l82 -15l-136 -127h-83z" />
    <glyph glyph-name="Zdotaccent" unicode="&#x17b;" horiz-adv-x="604" 
d="M-23 0l16 76l543 548h-416l16 76h523l-15 -76l-544 -548h438l-16 -76h-545zM366 761l21 99h85l-22 -99h-84z" />
    <glyph glyph-name="Zdotaccent.ss01" horiz-adv-x="604" 
d="M-23 0l16 76l543 548h-416l16 76h523l-15 -76l-544 -548h438l-16 -76h-545zM365 812q0 27 18.5 45.5t43.5 18.5q23 0 38 -15.5t15 -38.5q0 -28 -19.5 -45.5t-43.5 -17.5q-23 0 -37.5 15t-14.5 38z" />
    <glyph glyph-name="S_S" horiz-adv-x="1192" 
d="M277 -12q-83 0 -144 29.5t-90 81.5t-16 120h91q-8 -49 11 -84t57.5 -53.5t86.5 -18.5q50 0 92.5 20t69 55.5t26.5 80.5q0 38 -35 57.5t-112 43.5q-55 18 -101.5 37.5t-75 50.5t-28.5 81q0 71 39 120.5t104.5 75.5t144.5 26q101 0 161.5 -29t88 -80t31.5 -116.5t-7 -139.5
q-8 -53 -4.5 -103.5t23.5 -91t63 -64.5t114 -24q53 0 96 18.5t68.5 52.5t25.5 78q0 39 -38 60t-118 46q-51 16 -96 35.5t-73 50.5t-28 82q0 66 35.5 117t96 80t134.5 29q71 0 122 -25t76 -73t16 -116h-85q8 64 -23.5 101.5t-110.5 37.5q-47 0 -85.5 -17.5t-60.5 -48
t-22 -71.5q0 -30 18.5 -48.5t49.5 -30.5t68 -23q63 -18 111.5 -37.5t76.5 -49.5t28 -82q0 -73 -35 -127.5t-98 -84t-146 -29.5q-100 0 -162 29t-93 80t-37 119.5t7 146.5q9 60 7 110.5t-22 87t-63 57t-116 20.5q-50 0 -93.5 -16t-70 -46t-26.5 -73q0 -31 19.5 -50.5
t52.5 -32t72 -23.5q61 -17 107.5 -35.5t73.5 -48t27 -80.5q0 -60 -31.5 -116.5t-93 -92.5t-151.5 -36z" />
    <glyph glyph-name="a" unicode="a" horiz-adv-x="577" 
d="M213 -10q-80 0 -128.5 55.5t-48.5 146.5q0 51 17 106t49.5 103t80 77.5t109.5 29.5q60 0 103.5 -29.5t58.5 -72.5l19 89h85l-104 -494h-84l21 93q-32 -52 -79.5 -78t-98.5 -26zM122 191q0 -62 30.5 -97t86.5 -35q47 0 82 23.5t58 61t35 79.5t13 79q2 37 -8 69.5
t-35.5 53.5t-70.5 21q-51 0 -87.5 -26.5t-59.5 -67t-33.5 -84t-10.5 -77.5z" />
    <glyph glyph-name="a.ordn" horiz-adv-x="299" 
d="M189 439q-30 0 -50.5 15.5t-20.5 43.5q0 44 36.5 70t97.5 32l60 5l2 12q4 17 -5.5 28.5t-29.5 11.5q-19 0 -34 -12t-19 -29h-80q10 41 51.5 67t95.5 26t82.5 -26.5t18.5 -71.5l-35 -165h-82l11 50q-19 -28 -45.5 -42.5t-53.5 -14.5zM202 521q0 -11 9.5 -18.5t23.5 -7.5
q25 0 43.5 21.5t25.5 55.5l-37 -5q-65 -9 -65 -46z" />
    <glyph glyph-name="a.ordn.ss02" horiz-adv-x="299" 
d="M189 439q-30 0 -50.5 15.5t-20.5 43.5q0 44 36.5 70t97.5 32l60 5l2 12q4 17 -5.5 28.5t-29.5 11.5q-19 0 -34 -12t-19 -29h-80q10 41 51.5 67t95.5 26t82.5 -26.5t18.5 -71.5l-35 -165h-82l11 50q-19 -28 -45.5 -42.5t-53.5 -14.5zM202 521q0 -11 9.5 -18.5t23.5 -7.5
q25 0 43.5 21.5t25.5 55.5l-37 -5q-65 -9 -65 -46z" />
    <glyph glyph-name="a.small" horiz-adv-x="387" 
d="M134 -9q-40 0 -67 21.5t-27 59.5q0 56 48 90.5t133 43.5l77 7l3 17q7 33 -10 49.5t-45 16.5q-33 0 -58 -20t-31 -49h-82q9 38 35.5 66t65.5 44t84 16q67 0 101 -35t21 -95l-47 -223h-83l16 73q-25 -37 -59 -59.5t-75 -22.5zM128 92q0 -17 12 -29t37 -12q41 0 71 35t41 86
l-61 -8q-47 -5 -73.5 -23.5t-26.5 -48.5z" />
    <glyph glyph-name="a.smaller" horiz-adv-x="299" 
d="M94 -7q-30 0 -50.5 15.5t-20.5 43.5q0 44 36.5 70t97.5 32l60 5l2 12q4 17 -5.5 28.5t-29.5 11.5q-19 0 -34 -12t-19 -29h-80q10 41 51.5 67t95.5 26t82.5 -26.5t18.5 -71.5l-35 -165h-82l11 50q-19 -28 -45.5 -42.5t-53.5 -14.5zM107 75q0 -11 9.5 -18.5t23.5 -7.5
q25 0 43.5 21.5t25.5 55.5l-37 -5q-65 -9 -65 -46z" />
    <glyph glyph-name="a.ss02" horiz-adv-x="524" 
d="M167 -11q-40 0 -73.5 15.5t-53 44.5t-19.5 67q0 61 35 99t93 56.5t126 22.5l109 6l6 29q11 50 -13.5 81t-77.5 31q-58 0 -98 -33.5t-50 -81.5h-81q11 54 44 94.5t80.5 63.5t103.5 23q62 0 105.5 -25t62.5 -70t5 -106l-67 -306h-84l24 101q-32 -50 -77 -81t-100 -31z
M110 122q0 -29 20.5 -49t60.5 -20q46 0 83 26.5t62.5 71t36.5 96.5l-96 -10q-43 -4 -81 -17t-62 -36.5t-24 -61.5z" />
    <glyph glyph-name="a.ss02.small" horiz-adv-x="443" 
d="M180 -9q-54 0 -85 35.5t-31 94.5q0 61 26 113.5t70 85.5t96 33q37 0 64.5 -17t38.5 -47l11 55h83l-73 -344h-82l13 61q-23 -33 -58 -51.5t-73 -18.5zM152 133q0 -38 18 -60t51 -22q32 0 58.5 22t43 57.5t17.5 77.5q1 38 -16.5 62.5t-52.5 24.5q-33 0 -60 -23t-43 -60
t-16 -79z" />
    <glyph glyph-name="aacute" unicode="&#xe1;" horiz-adv-x="577" 
d="M213 -10q-80 0 -128.5 55.5t-48.5 146.5q0 51 17 106t49.5 103t80 77.5t109.5 29.5q60 0 103.5 -29.5t58.5 -72.5l19 89h85l-104 -494h-84l21 93q-32 -52 -79.5 -78t-98.5 -26zM122 191q0 -62 30.5 -97t86.5 -35q47 0 82 23.5t58 61t35 79.5t13 79q2 37 -8 69.5
t-35.5 53.5t-70.5 21q-51 0 -87.5 -26.5t-59.5 -67t-33.5 -84t-10.5 -77.5zM312 557l105 142h102l-134 -142h-73z" />
    <glyph glyph-name="aacute.ss02" horiz-adv-x="524" 
d="M167 -11q-40 0 -73.5 15.5t-53 44.5t-19.5 67q0 61 35 99t93 56.5t126 22.5l109 6l6 29q11 50 -13.5 81t-77.5 31q-58 0 -98 -33.5t-50 -81.5h-81q11 54 44 94.5t80.5 63.5t103.5 23q62 0 105.5 -25t62.5 -70t5 -106l-67 -306h-84l24 101q-32 -50 -77 -81t-100 -31z
M110 122q0 -29 20.5 -49t60.5 -20q46 0 83 26.5t62.5 71t36.5 96.5l-96 -10q-43 -4 -81 -17t-62 -36.5t-24 -61.5zM287 557l105 142h102l-134 -142h-73z" />
    <glyph glyph-name="abreve" unicode="&#x103;" horiz-adv-x="577" 
d="M213 -10q-80 0 -128.5 55.5t-48.5 146.5q0 51 17 106t49.5 103t80 77.5t109.5 29.5q60 0 103.5 -29.5t58.5 -72.5l19 89h85l-104 -494h-84l21 93q-32 -52 -79.5 -78t-98.5 -26zM122 191q0 -62 30.5 -97t86.5 -35q47 0 82 23.5t58 61t35 79.5t13 79q2 37 -8 69.5
t-35.5 53.5t-70.5 21q-51 0 -87.5 -26.5t-59.5 -67t-33.5 -84t-10.5 -77.5zM230 700h75q-7 -32 7 -61t54 -29q32 0 58.5 22.5t36.5 67.5h76q-14 -70 -62 -109t-109 -39q-41 0 -76 17.5t-52.5 50.5t-7.5 80z" />
    <glyph glyph-name="abreve.ss02" horiz-adv-x="524" 
d="M167 -11q-40 0 -73.5 15.5t-53 44.5t-19.5 67q0 61 35 99t93 56.5t126 22.5l109 6l6 29q11 50 -13.5 81t-77.5 31q-58 0 -98 -33.5t-50 -81.5h-81q11 54 44 94.5t80.5 63.5t103.5 23q62 0 105.5 -25t62.5 -70t5 -106l-67 -306h-84l24 101q-32 -50 -77 -81t-100 -31z
M110 122q0 -29 20.5 -49t60.5 -20q46 0 83 26.5t62.5 71t36.5 96.5l-96 -10q-43 -4 -81 -17t-62 -36.5t-24 -61.5zM205 700h75q-7 -32 7 -61t54 -29q32 0 58.5 22.5t36.5 67.5h76q-14 -70 -62 -109t-109 -39q-41 0 -76 17.5t-52.5 50.5t-7.5 80z" />
    <glyph glyph-name="acircumflex" unicode="&#xe2;" horiz-adv-x="577" 
d="M213 -10q-80 0 -128.5 55.5t-48.5 146.5q0 51 17 106t49.5 103t80 77.5t109.5 29.5q60 0 103.5 -29.5t58.5 -72.5l19 89h85l-104 -494h-84l21 93q-32 -52 -79.5 -78t-98.5 -26zM122 191q0 -62 30.5 -97t86.5 -35q47 0 82 23.5t58 61t35 79.5t13 79q2 37 -8 69.5
t-35.5 53.5t-70.5 21q-51 0 -87.5 -26.5t-59.5 -67t-33.5 -84t-10.5 -77.5zM189 557l153 142h84l93 -142h-71l-71 98l-112 -98h-76z" />
    <glyph glyph-name="acircumflex.ss02" horiz-adv-x="524" 
d="M167 -11q-40 0 -73.5 15.5t-53 44.5t-19.5 67q0 61 35 99t93 56.5t126 22.5l109 6l6 29q11 50 -13.5 81t-77.5 31q-58 0 -98 -33.5t-50 -81.5h-81q11 54 44 94.5t80.5 63.5t103.5 23q62 0 105.5 -25t62.5 -70t5 -106l-67 -306h-84l24 101q-32 -50 -77 -81t-100 -31z
M110 122q0 -29 20.5 -49t60.5 -20q46 0 83 26.5t62.5 71t36.5 96.5l-96 -10q-43 -4 -81 -17t-62 -36.5t-24 -61.5zM164 557l153 142h84l93 -142h-71l-71 98l-112 -98h-76z" />
    <glyph glyph-name="adieresis" unicode="&#xe4;" horiz-adv-x="577" 
d="M213 -10q-80 0 -128.5 55.5t-48.5 146.5q0 51 17 106t49.5 103t80 77.5t109.5 29.5q60 0 103.5 -29.5t58.5 -72.5l19 89h85l-104 -494h-84l21 93q-32 -52 -79.5 -78t-98.5 -26zM122 191q0 -62 30.5 -97t86.5 -35q47 0 82 23.5t58 61t35 79.5t13 79q2 37 -8 69.5
t-35.5 53.5t-70.5 21q-51 0 -87.5 -26.5t-59.5 -67t-33.5 -84t-10.5 -77.5zM217 561l21 99h76l-21 -99h-76zM406 561l21 99h76l-21 -99h-76z" />
    <glyph glyph-name="adieresis.ss01" horiz-adv-x="577" 
d="M213 -10q-80 0 -128.5 55.5t-48.5 146.5q0 51 17 106t49.5 103t80 77.5t109.5 29.5q60 0 103.5 -29.5t58.5 -72.5l19 89h85l-104 -494h-84l21 93q-32 -52 -79.5 -78t-98.5 -26zM122 191q0 -62 30.5 -97t86.5 -35q47 0 82 23.5t58 61t35 79.5t13 79q2 37 -8 69.5
t-35.5 53.5t-70.5 21q-51 0 -87.5 -26.5t-59.5 -67t-33.5 -84t-10.5 -77.5zM226 629q0 24 18.5 41t40.5 17q23 0 37.5 -14.5t14.5 -36.5q0 -23 -18.5 -41t-42.5 -18q-22 0 -36 15t-14 37zM404 628q0 23 18.5 41t40.5 18q23 0 37.5 -15t14.5 -36q0 -25 -18.5 -42t-41.5 -17
q-22 0 -36.5 14.5t-14.5 36.5z" />
    <glyph glyph-name="adieresis.ss01.ss02" horiz-adv-x="524" 
d="M167 -11q-40 0 -73.5 15.5t-53 44.5t-19.5 67q0 61 35 99t93 56.5t126 22.5l109 6l6 29q11 50 -13.5 81t-77.5 31q-58 0 -98 -33.5t-50 -81.5h-81q11 54 44 94.5t80.5 63.5t103.5 23q62 0 105.5 -25t62.5 -70t5 -106l-67 -306h-84l24 101q-32 -50 -77 -81t-100 -31z
M110 122q0 -29 20.5 -49t60.5 -20q46 0 83 26.5t62.5 71t36.5 96.5l-96 -10q-43 -4 -81 -17t-62 -36.5t-24 -61.5zM200 629q0 24 18.5 41t40.5 17q23 0 37.5 -14.5t14.5 -36.5q0 -23 -18.5 -41t-42.5 -18q-22 0 -36 15t-14 37zM378 628q0 23 18.5 41t40.5 18q23 0 37.5 -15
t14.5 -36q0 -25 -18.5 -42t-41.5 -17q-22 0 -36.5 14.5t-14.5 36.5z" />
    <glyph glyph-name="adieresis.ss02" horiz-adv-x="524" 
d="M167 -11q-40 0 -73.5 15.5t-53 44.5t-19.5 67q0 61 35 99t93 56.5t126 22.5l109 6l6 29q11 50 -13.5 81t-77.5 31q-58 0 -98 -33.5t-50 -81.5h-81q11 54 44 94.5t80.5 63.5t103.5 23q62 0 105.5 -25t62.5 -70t5 -106l-67 -306h-84l24 101q-32 -50 -77 -81t-100 -31z
M110 122q0 -29 20.5 -49t60.5 -20q46 0 83 26.5t62.5 71t36.5 96.5l-96 -10q-43 -4 -81 -17t-62 -36.5t-24 -61.5zM191 561l21 99h76l-21 -99h-76zM380 561l21 99h76l-21 -99h-76z" />
    <glyph glyph-name="agrave" unicode="&#xe0;" horiz-adv-x="577" 
d="M213 -10q-80 0 -128.5 55.5t-48.5 146.5q0 51 17 106t49.5 103t80 77.5t109.5 29.5q60 0 103.5 -29.5t58.5 -72.5l19 89h85l-104 -494h-84l21 93q-32 -52 -79.5 -78t-98.5 -26zM122 191q0 -62 30.5 -97t86.5 -35q47 0 82 23.5t58 61t35 79.5t13 79q2 37 -8 69.5
t-35.5 53.5t-70.5 21q-51 0 -87.5 -26.5t-59.5 -67t-33.5 -84t-10.5 -77.5zM229 699h96l45 -142h-67z" />
    <glyph glyph-name="agrave.ss02" horiz-adv-x="524" 
d="M167 -11q-40 0 -73.5 15.5t-53 44.5t-19.5 67q0 61 35 99t93 56.5t126 22.5l109 6l6 29q11 50 -13.5 81t-77.5 31q-58 0 -98 -33.5t-50 -81.5h-81q11 54 44 94.5t80.5 63.5t103.5 23q62 0 105.5 -25t62.5 -70t5 -106l-67 -306h-84l24 101q-32 -50 -77 -81t-100 -31z
M110 122q0 -29 20.5 -49t60.5 -20q46 0 83 26.5t62.5 71t36.5 96.5l-96 -10q-43 -4 -81 -17t-62 -36.5t-24 -61.5zM203 699h96l45 -142h-67z" />
    <glyph glyph-name="amacron" unicode="&#x101;" horiz-adv-x="577" 
d="M213 -10q-80 0 -128.5 55.5t-48.5 146.5q0 51 17 106t49.5 103t80 77.5t109.5 29.5q60 0 103.5 -29.5t58.5 -72.5l19 89h85l-104 -494h-84l21 93q-32 -52 -79.5 -78t-98.5 -26zM122 191q0 -62 30.5 -97t86.5 -35q47 0 82 23.5t58 61t35 79.5t13 79q2 37 -8 69.5
t-35.5 53.5t-70.5 21q-51 0 -87.5 -26.5t-59.5 -67t-33.5 -84t-10.5 -77.5zM194 583l14 65h331l-14 -65h-331z" />
    <glyph glyph-name="amacron.ss02" horiz-adv-x="524" 
d="M167 -11q-40 0 -73.5 15.5t-53 44.5t-19.5 67q0 61 35 99t93 56.5t126 22.5l109 6l6 29q11 50 -13.5 81t-77.5 31q-58 0 -98 -33.5t-50 -81.5h-81q11 54 44 94.5t80.5 63.5t103.5 23q62 0 105.5 -25t62.5 -70t5 -106l-67 -306h-84l24 101q-32 -50 -77 -81t-100 -31z
M110 122q0 -29 20.5 -49t60.5 -20q46 0 83 26.5t62.5 71t36.5 96.5l-96 -10q-43 -4 -81 -17t-62 -36.5t-24 -61.5zM168 583l14 65h331l-14 -65h-331z" />
    <glyph glyph-name="aogonek" unicode="&#x105;" horiz-adv-x="577" 
d="M213 -10q-80 0 -128.5 55.5t-48.5 146.5q0 51 17 106t49.5 103t80 77.5t109.5 29.5q60 0 103.5 -29.5t58.5 -72.5l19 89h85l-104 -494q-58 -18 -84 -43.5t-26 -47.5q0 -17 12 -23.5t26 -6.5q9 0 21 2.5t28 8.5l-13 -59q-15 -7 -31 -10t-27 -3q-41 0 -62.5 21.5
t-21.5 52.5q0 33 24.5 67t72.5 56l18 78q-32 -52 -79.5 -78t-98.5 -26zM122 191q0 -62 30.5 -97t86.5 -35q47 0 82 23.5t58 61t35 79.5t13 79q2 37 -8 69.5t-35.5 53.5t-70.5 21q-51 0 -87.5 -26.5t-59.5 -67t-33.5 -84t-10.5 -77.5z" />
    <glyph glyph-name="aogonek.ss02" horiz-adv-x="524" 
d="M167 -11q-40 0 -73.5 15.5t-53 44.5t-19.5 67q0 61 35 99t93 56.5t126 22.5l109 6l6 29q11 50 -13.5 81t-77.5 31q-58 0 -98 -33.5t-50 -81.5h-81q11 54 44 94.5t80.5 63.5t103.5 23q62 0 105.5 -25t62.5 -70t5 -106l-67 -306q-58 -18 -84 -43.5t-26 -47.5
q0 -17 12 -23.5t26 -6.5q9 0 21 2.5t28 8.5l-13 -59q-15 -7 -31 -10t-27 -3q-41 0 -62.5 21.5t-21.5 52.5q0 33 24.5 67t72.5 56l21 86q-32 -50 -77 -81t-100 -31zM110 122q0 -29 20.5 -49t60.5 -20q46 0 83 26.5t62.5 71t36.5 96.5l-96 -10q-43 -4 -81 -17t-62 -36.5
t-24 -61.5z" />
    <glyph glyph-name="aring" unicode="&#xe5;" horiz-adv-x="577" 
d="M213 -10q-80 0 -128.5 55.5t-48.5 146.5q0 51 17 106t49.5 103t80 77.5t109.5 29.5q60 0 103.5 -29.5t58.5 -72.5l19 89h85l-104 -494h-84l21 93q-32 -52 -79.5 -78t-98.5 -26zM122 191q0 -62 30.5 -97t86.5 -35q47 0 82 23.5t58 61t35 79.5t13 79q2 37 -8 69.5
t-35.5 53.5t-70.5 21q-51 0 -87.5 -26.5t-59.5 -67t-33.5 -84t-10.5 -77.5zM267 650q0 34 17 60.5t44.5 41.5t59.5 15q43 0 71 -26t28 -67q0 -34 -16.5 -60.5t-44 -42t-60.5 -15.5q-43 0 -71 26.5t-28 67.5zM322 651q0 -19 12.5 -32.5t32.5 -13.5q26 0 45 20t19 47
q0 20 -12.5 33t-32.5 13q-25 0 -44.5 -20t-19.5 -47z" />
    <glyph glyph-name="aring.ss02" horiz-adv-x="524" 
d="M167 -11q-40 0 -73.5 15.5t-53 44.5t-19.5 67q0 61 35 99t93 56.5t126 22.5l109 6l6 29q11 50 -13.5 81t-77.5 31q-58 0 -98 -33.5t-50 -81.5h-81q11 54 44 94.5t80.5 63.5t103.5 23q62 0 105.5 -25t62.5 -70t5 -106l-67 -306h-84l24 101q-32 -50 -77 -81t-100 -31z
M110 122q0 -29 20.5 -49t60.5 -20q46 0 83 26.5t62.5 71t36.5 96.5l-96 -10q-43 -4 -81 -17t-62 -36.5t-24 -61.5zM241 650q0 34 17 60.5t44.5 41.5t59.5 15q43 0 71 -26t28 -67q0 -34 -16.5 -60.5t-44 -42t-60.5 -15.5q-43 0 -71 26.5t-28 67.5zM296 651q0 -19 12.5 -32.5
t32.5 -13.5q26 0 45 20t19 47q0 20 -12.5 33t-32.5 13q-25 0 -44.5 -20t-19.5 -47z" />
    <glyph glyph-name="atilde" unicode="&#xe3;" horiz-adv-x="577" 
d="M213 -10q-80 0 -128.5 55.5t-48.5 146.5q0 51 17 106t49.5 103t80 77.5t109.5 29.5q60 0 103.5 -29.5t58.5 -72.5l19 89h85l-104 -494h-84l21 93q-32 -52 -79.5 -78t-98.5 -26zM122 191q0 -62 30.5 -97t86.5 -35q47 0 82 23.5t58 61t35 79.5t13 79q2 37 -8 69.5
t-35.5 53.5t-70.5 21q-51 0 -87.5 -26.5t-59.5 -67t-33.5 -84t-10.5 -77.5zM181 572q18 58 52.5 86.5t75.5 28.5q28 0 45 -11t33 -28q11 -11 22.5 -21.5t29.5 -10.5q20 0 36.5 16t25.5 41h54q-19 -58 -52.5 -86.5t-75.5 -28.5q-31 0 -50 14t-33 29q-11 12 -21.5 20t-26.5 8
q-22 0 -37.5 -17t-24.5 -40h-53z" />
    <glyph glyph-name="atilde.ss02" horiz-adv-x="524" 
d="M167 -11q-40 0 -73.5 15.5t-53 44.5t-19.5 67q0 61 35 99t93 56.5t126 22.5l109 6l6 29q11 50 -13.5 81t-77.5 31q-58 0 -98 -33.5t-50 -81.5h-81q11 54 44 94.5t80.5 63.5t103.5 23q62 0 105.5 -25t62.5 -70t5 -106l-67 -306h-84l24 101q-32 -50 -77 -81t-100 -31z
M110 122q0 -29 20.5 -49t60.5 -20q46 0 83 26.5t62.5 71t36.5 96.5l-96 -10q-43 -4 -81 -17t-62 -36.5t-24 -61.5zM156 572q18 58 52.5 86.5t75.5 28.5q28 0 45 -11t33 -28q11 -11 22.5 -21.5t29.5 -10.5q20 0 36.5 16t25.5 41h54q-19 -58 -52.5 -86.5t-75.5 -28.5
q-31 0 -50 14t-33 29q-11 12 -21.5 20t-26.5 8q-22 0 -37.5 -17t-24.5 -40h-53z" />
    <glyph glyph-name="ae" unicode="&#xe6;" horiz-adv-x="863" 
d="M169 -12q-38 0 -72 14t-55 43.5t-21 74.5q0 46 21.5 78t58 53t81.5 31.5t92 13.5l109 6l6 29q11 50 -15.5 79.5t-79.5 29.5q-57 0 -93.5 -32t-46.5 -82h-81q11 57 44 97.5t80.5 62t99.5 21.5q56 0 97.5 -24t58.5 -68q35 41 82.5 66.5t106.5 25.5q64 0 105.5 -27
t61.5 -72.5t20 -99.5q0 -23 -3 -43.5t-8 -34.5h-358q-6 -25 -3 -55t16.5 -56.5t38.5 -43.5t64 -17q47 0 82 26.5t56 69.5h88q-31 -77 -94 -121.5t-134 -44.5q-77 0 -127.5 43t-61.5 113q-23 -43 -55.5 -78.5t-72.5 -56.5t-88 -21zM111 124q0 -29 19.5 -47.5t59.5 -18.5
q48 0 84.5 26t61.5 69.5t35 94.5l-97 -10q-43 -5 -80 -18.5t-60 -36.5t-23 -59zM474 298h273q6 35 -4 67.5t-36.5 53.5t-71.5 21q-58 0 -101.5 -40.5t-59.5 -101.5z" />
    <glyph glyph-name="ae.ss03" horiz-adv-x="860" 
d="M169 -12q-38 0 -72 14t-55 43.5t-21 74.5q0 46 21.5 78t58 53t81.5 31.5t92 13.5l109 6l6 29q11 50 -16 79.5t-80 29.5q-56 0 -92.5 -31.5t-46.5 -82.5h-81q11 57 44 97.5t80 62t100 21.5q56 0 97.5 -24t58.5 -68q35 41 82 66.5t107 25.5q67 0 108 -29.5t59.5 -76.5
t18.5 -99q0 -19 -2 -37t-6 -35h-360q-6 -25 -4 -55t14.5 -56.5t37 -43.5t63.5 -17q47 0 83 27t60 70l70 -38q-30 -55 -87 -92t-128 -37q-76 0 -125.5 42.5t-61.5 109.5q-34 -63 -88 -107.5t-125 -44.5zM111 124q0 -29 19.5 -47.5t59.5 -18.5q48 0 84.5 26t61.5 69.5t35 94.5
l-97 -10q-43 -5 -80 -18.5t-60 -36.5t-23 -59zM474 298h273q6 35 -4 67.5t-36.5 53.5t-71.5 21q-58 0 -101.5 -40.5t-59.5 -101.5z" />
    <glyph glyph-name="aeacute" unicode="&#x1fd;" horiz-adv-x="863" 
d="M169 -12q-38 0 -72 14t-55 43.5t-21 74.5q0 46 21.5 78t58 53t81.5 31.5t92 13.5l109 6l6 29q11 50 -15.5 79.5t-79.5 29.5q-57 0 -93.5 -32t-46.5 -82h-81q11 57 44 97.5t80.5 62t99.5 21.5q56 0 97.5 -24t58.5 -68q35 41 82.5 66.5t106.5 25.5q64 0 105.5 -27
t61.5 -72.5t20 -99.5q0 -23 -3 -43.5t-8 -34.5h-358q-6 -25 -3 -55t16.5 -56.5t38.5 -43.5t64 -17q47 0 82 26.5t56 69.5h88q-31 -77 -94 -121.5t-134 -44.5q-77 0 -127.5 43t-61.5 113q-23 -43 -55.5 -78.5t-72.5 -56.5t-88 -21zM111 124q0 -29 19.5 -47.5t59.5 -18.5
q48 0 84.5 26t61.5 69.5t35 94.5l-97 -10q-43 -5 -80 -18.5t-60 -36.5t-23 -59zM457 557l105 142h102l-134 -142h-73zM474 298h273q6 35 -4 67.5t-36.5 53.5t-71.5 21q-58 0 -101.5 -40.5t-59.5 -101.5z" />
    <glyph glyph-name="aeacute.ss03" horiz-adv-x="860" 
d="M169 -12q-38 0 -72 14t-55 43.5t-21 74.5q0 46 21.5 78t58 53t81.5 31.5t92 13.5l109 6l6 29q11 50 -16 79.5t-80 29.5q-56 0 -92.5 -31.5t-46.5 -82.5h-81q11 57 44 97.5t80 62t100 21.5q56 0 97.5 -24t58.5 -68q35 41 82 66.5t107 25.5q67 0 108 -29.5t59.5 -76.5
t18.5 -99q0 -19 -2 -37t-6 -35h-360q-6 -25 -4 -55t14.5 -56.5t37 -43.5t63.5 -17q47 0 83 27t60 70l70 -38q-30 -55 -87 -92t-128 -37q-76 0 -125.5 42.5t-61.5 109.5q-34 -63 -88 -107.5t-125 -44.5zM111 124q0 -29 19.5 -47.5t59.5 -18.5q48 0 84.5 26t61.5 69.5t35 94.5
l-97 -10q-43 -5 -80 -18.5t-60 -36.5t-23 -59zM456 557l105 142h102l-134 -142h-73zM474 298h273q6 35 -4 67.5t-36.5 53.5t-71.5 21q-58 0 -101.5 -40.5t-59.5 -101.5z" />
    <glyph glyph-name="b" unicode="b" horiz-adv-x="579" 
d="M287 -12q-62 0 -105.5 31.5t-57.5 78.5l-23 -98h-83l149 700h84l-62 -280q31 41 76.5 64t94.5 23q83 0 132.5 -55t49.5 -147q0 -55 -18 -111t-51.5 -103t-80.5 -75t-105 -28zM149 197q-2 -61 26 -101t88 -40q51 0 87.5 26.5t60 67.5t34.5 85t11 78q0 61 -30 96.5
t-86 35.5q-49 0 -84.5 -25t-58.5 -64t-34.5 -81.5t-13.5 -77.5z" />
    <glyph glyph-name="b.small" horiz-adv-x="426" 
d="M241 -9q-38 0 -65 19t-38 50l-13 -60h-83l102 480h83l-40 -187q23 28 56.5 44t69.5 16q55 0 86.5 -35t31.5 -94q0 -60 -26 -113t-69 -86.5t-95 -33.5zM156 138q-1 -37 15.5 -61.5t52.5 -24.5q34 0 60.5 23.5t42.5 61t16 79.5q0 38 -17.5 59t-49.5 21t-59 -21.5
t-43.5 -57.5t-17.5 -79z" />
    <glyph glyph-name="b.smaller" horiz-adv-x="327" 
d="M191 -7q-29 0 -48.5 13t-27.5 34l-8 -40h-82l74 350h82l-28 -129q36 42 92 42q41 0 64.5 -25.5t23.5 -69.5q0 -46 -19.5 -86t-51.5 -64.5t-71 -24.5zM130 105q-1 -25 9 -39.5t31 -14.5q22 0 38.5 16t26.5 41t10 52q0 51 -41 51q-30 0 -51.5 -32t-22.5 -74z" />
    <glyph glyph-name="c" unicode="c" horiz-adv-x="534" 
d="M250 -12q-101 0 -157.5 54.5t-56.5 147.5q0 60 20 116.5t57.5 101.5t90 72t116.5 27q66 0 110.5 -24.5t65 -63.5t15.5 -85h-84q2 26 -9.5 50.5t-36 40t-63.5 15.5q-50 0 -87 -25.5t-61 -64.5t-35.5 -82t-11.5 -79q0 -61 35 -97.5t93 -36.5q50 0 90.5 30t56.5 80h85
q-25 -86 -87.5 -131.5t-145.5 -45.5z" />
    <glyph glyph-name="c.small" horiz-adv-x="391" 
d="M197 -9q-70 0 -108.5 36t-38.5 98t29 113.5t78.5 83t112.5 31.5q69 0 104.5 -35.5t30.5 -90.5h-83q2 24 -13.5 45.5t-51.5 21.5q-34 0 -61.5 -23t-44 -59.5t-16.5 -78.5q0 -37 19 -59.5t53 -22.5q32 0 57 19t35 50h83q-17 -59 -67 -94t-118 -35z" />
    <glyph glyph-name="c.smaller" horiz-adv-x="301" 
d="M151 -7q-57 0 -87.5 27.5t-30.5 73.5t22.5 84.5t61.5 61.5t89 23q55 0 84 -27.5t24 -71.5h-82q2 20 -8.5 32t-30.5 12q-21 0 -39 -15.5t-28.5 -39.5t-10.5 -52q0 -25 12 -38.5t32 -13.5q19 0 35.5 12t23.5 34h82q-13 -44 -51.5 -73t-97.5 -29z" />
    <glyph glyph-name="cacute" unicode="&#x107;" horiz-adv-x="534" 
d="M250 -12q-101 0 -157.5 54.5t-56.5 147.5q0 60 20 116.5t57.5 101.5t90 72t116.5 27q66 0 110.5 -24.5t65 -63.5t15.5 -85h-84q2 26 -9.5 50.5t-36 40t-63.5 15.5q-50 0 -87 -25.5t-61 -64.5t-35.5 -82t-11.5 -79q0 -61 35 -97.5t93 -36.5q50 0 90.5 30t56.5 80h85
q-25 -86 -87.5 -131.5t-145.5 -45.5zM294 557l105 142h102l-134 -142h-73z" />
    <glyph glyph-name="ccaron" unicode="&#x10d;" horiz-adv-x="534" 
d="M250 -12q-101 0 -157.5 54.5t-56.5 147.5q0 60 20 116.5t57.5 101.5t90 72t116.5 27q66 0 110.5 -24.5t65 -63.5t15.5 -85h-84q2 26 -9.5 50.5t-36 40t-63.5 15.5q-50 0 -87 -25.5t-61 -64.5t-35.5 -82t-11.5 -79q0 -61 35 -97.5t93 -36.5q50 0 90.5 30t56.5 80h85
q-25 -86 -87.5 -131.5t-145.5 -45.5zM201 699h71l70 -99l114 99h75l-153 -142h-84z" />
    <glyph glyph-name="ccedilla" unicode="&#xe7;" horiz-adv-x="534" 
d="M250 -12h-7l-41 -41q13 7 26 9.5t24 2.5q34 0 56 -19t22 -53q0 -44 -34 -75.5t-85 -31.5q-35 0 -66.5 17t-47.5 42l38 38q11 -16 33 -28t42 -12q24 0 38.5 16t14.5 35q0 17 -11.5 25.5t-25.5 8.5q-13 0 -25.5 -4t-25.5 -11l-44 30l51 59q-70 17 -108 67.5t-38 126.5
q0 60 20 116.5t57.5 101.5t90 72t116.5 27q66 0 110.5 -24.5t65 -63.5t15.5 -85h-84q2 26 -9.5 50.5t-36 40t-63.5 15.5q-50 0 -87 -25.5t-61 -64.5t-35.5 -82t-11.5 -79q0 -61 35 -97.5t93 -36.5q50 0 90.5 30t56.5 80h85q-25 -86 -87.5 -131.5t-145.5 -45.5z" />
    <glyph glyph-name="ccircumflex" unicode="&#x109;" horiz-adv-x="534" 
d="M250 -12q-101 0 -157.5 54.5t-56.5 147.5q0 60 20 116.5t57.5 101.5t90 72t116.5 27q66 0 110.5 -24.5t65 -63.5t15.5 -85h-84q2 26 -9.5 50.5t-36 40t-63.5 15.5q-50 0 -87 -25.5t-61 -64.5t-35.5 -82t-11.5 -79q0 -61 35 -97.5t93 -36.5q50 0 90.5 30t56.5 80h85
q-25 -86 -87.5 -131.5t-145.5 -45.5zM172 557l153 142h84l93 -142h-71l-71 98l-112 -98h-76z" />
    <glyph glyph-name="cdotaccent" unicode="&#x10b;" horiz-adv-x="534" 
d="M250 -12q-101 0 -157.5 54.5t-56.5 147.5q0 60 20 116.5t57.5 101.5t90 72t116.5 27q66 0 110.5 -24.5t65 -63.5t15.5 -85h-84q2 26 -9.5 50.5t-36 40t-63.5 15.5q-50 0 -87 -25.5t-61 -64.5t-35.5 -82t-11.5 -79q0 -61 35 -97.5t93 -36.5q50 0 90.5 30t56.5 80h85
q-25 -86 -87.5 -131.5t-145.5 -45.5zM293 561l20 99h85l-21 -99h-84z" />
    <glyph glyph-name="cdotaccent.ss01" horiz-adv-x="534" 
d="M250 -12q-101 0 -157.5 54.5t-56.5 147.5q0 60 20 116.5t57.5 101.5t90 72t116.5 27q66 0 110.5 -24.5t65 -63.5t15.5 -85h-84q2 26 -9.5 50.5t-36 40t-63.5 15.5q-50 0 -87 -25.5t-61 -64.5t-35.5 -82t-11.5 -79q0 -61 35 -97.5t93 -36.5q50 0 90.5 30t56.5 80h85
q-25 -86 -87.5 -131.5t-145.5 -45.5zM291 611q0 27 18.5 45.5t43.5 18.5q23 0 38 -15.5t15 -38.5q0 -28 -19.5 -45.5t-43.5 -17.5q-23 0 -37.5 15t-14.5 38z" />
    <glyph glyph-name="d" unicode="d" horiz-adv-x="576" 
d="M213 -10q-80 0 -128.5 55.5t-48.5 146.5q0 51 17 106t49.5 103t80 77.5t109.5 29.5q60 0 103.5 -29.5t58.5 -72.5l60 294h84l-144 -699h-84l21 93q-32 -52 -79.5 -78t-98.5 -26zM122 191q0 -62 30.5 -97t86.5 -35q47 0 82 23.5t58 61t35 79.5t13 79q2 37 -8 69.5
t-35.5 53.5t-70.5 21q-51 0 -87.5 -26.5t-59.5 -67t-33.5 -84t-10.5 -77.5z" />
    <glyph glyph-name="d.small" horiz-adv-x="427" 
d="M170 -9q-54 0 -85 35.5t-31 94.5q0 61 26 113.5t69.5 85.5t96.5 33q38 0 65 -16.5t38 -45.5l40 189h83l-102 -480h-83l13 58q-24 -31 -58 -49t-72 -18zM143 134q0 -38 17.5 -60t50.5 -22q32 0 58 22t42.5 57.5t17.5 77.5q2 38 -15 62.5t-53 24.5q-33 0 -60 -23.5
t-42.5 -60.5t-15.5 -78z" />
    <glyph glyph-name="d.smaller" horiz-adv-x="326" 
d="M121 -7q-41 0 -64 26t-23 70q0 46 19.5 85.5t52 64t72.5 24.5q27 0 47 -11t29 -32l27 130h82l-75 -350h-82l9 39q-36 -46 -94 -46zM123 101q0 -51 41 -51q30 0 52 32t23 74q1 24 -9.5 39.5t-31.5 15.5t-38 -16t-27 -41t-10 -53z" />
    <glyph glyph-name="eth" unicode="&#xf0;" horiz-adv-x="552" 
d="M229 -12q-64 0 -108 26.5t-66.5 72t-22.5 100.5q0 53 19 101.5t53 86.5t79 60t96 22q63 0 106 -32t54 -75q5 42 2.5 92t-16.5 99l-262 -45l12 58l231 40q-14 32 -36 59.5t-52 46.5h102q40 -30 65 -92l107 18l-12 -59l-78 -13q9 -35 13.5 -74t4.5 -78q0 -75 -16.5 -148
t-51 -133.5t-90 -96.5t-133.5 -36zM114 177q0 -58 30.5 -93.5t85.5 -35.5q42 0 76 20.5t58 54t36.5 73.5t12.5 78q0 59 -30 92.5t-84 33.5q-43 0 -77.5 -20t-58.5 -53t-36.5 -72.5t-12.5 -77.5z" />
    <glyph glyph-name="dcaron" unicode="&#x10f;" horiz-adv-x="588" 
d="M213 -10q-80 0 -128.5 55.5t-48.5 146.5q0 51 17 106t49.5 103t80 77.5t109.5 29.5q60 0 103.5 -29.5t58.5 -72.5l60 294h84l-144 -699h-84l21 93q-32 -52 -79.5 -78t-98.5 -26zM122 191q0 -62 30.5 -97t86.5 -35q47 0 82 23.5t58 61t35 79.5t13 79q2 37 -8 69.5
t-35.5 53.5t-70.5 21q-51 0 -87.5 -26.5t-59.5 -67t-33.5 -84t-10.5 -77.5zM599 511l73 91h-50l20 98h95l-17 -86l-53 -103h-68z" />
    <glyph glyph-name="dcaron.ss01" horiz-adv-x="593" 
d="M213 -10q-80 0 -128.5 55.5t-48.5 146.5q0 51 17 106t49.5 103t80 77.5t109.5 29.5q60 0 103.5 -29.5t58.5 -72.5l60 294h84l-144 -699h-84l21 93q-32 -52 -79.5 -78t-98.5 -26zM122 191q0 -62 30.5 -97t86.5 -35q47 0 82 23.5t58 61t35 79.5t13 79q2 37 -8 69.5
t-35.5 53.5t-70.5 21q-51 0 -87.5 -26.5t-59.5 -67t-33.5 -84t-10.5 -77.5zM611 512l67 82q-21 2 -35.5 15.5t-14.5 34.5q0 24 17 42.5t42 18.5q24 0 38 -15t14 -38q0 -12 -5 -30.5t-20 -45.5l-37 -64h-66z" />
    <glyph glyph-name="dcaron.ss01.ss15" horiz-adv-x="592" 
d="M213 -10q-80 0 -128.5 55.5t-48.5 146.5q0 51 17 106t49.5 103t80 77.5t109.5 29.5q60 0 103.5 -29.5t58.5 -72.5l60 294h84l-144 -699h-84l21 93q-32 -52 -79.5 -78t-98.5 -26zM122 191q0 -62 30.5 -97t86.5 -35q47 0 82 23.5t58 61t35 79.5t13 79q2 37 -8 69.5
t-35.5 53.5t-70.5 21q-51 0 -87.5 -26.5t-59.5 -67t-33.5 -84t-10.5 -77.5zM596 516l6 30q20 0 46 13.5t32 35.5h-6q-24 0 -35.5 14t-11.5 33q0 27 18 44t41 17q20 0 35.5 -13.5t15.5 -42.5q0 -26 -14.5 -56.5t-45.5 -52t-81 -22.5z" />
    <glyph glyph-name="dcaron.ss15" horiz-adv-x="585" 
d="M213 -10q-80 0 -128.5 55.5t-48.5 146.5q0 51 17 106t49.5 103t80 77.5t109.5 29.5q60 0 103.5 -29.5t58.5 -72.5l60 294h84l-144 -699h-84l21 93q-32 -52 -79.5 -78t-98.5 -26zM122 191q0 -62 30.5 -97t86.5 -35q47 0 82 23.5t58 61t35 79.5t13 79q2 37 -8 69.5
t-35.5 53.5t-70.5 21q-51 0 -87.5 -26.5t-59.5 -67t-33.5 -84t-10.5 -77.5zM593 511l10 36q23 0 39.5 10t21.5 38l2 10h-47l20 95h97l-18 -92q-11 -58 -41.5 -77.5t-83.5 -19.5z" />
    <glyph glyph-name="dcroat" unicode="&#x111;" horiz-adv-x="585" 
d="M326 560l15 65h158l15 75h84l-15 -75h124l-15 -65h-123l-115 -559h-84l21 93q-32 -52 -79.5 -78t-98.5 -26q-80 0 -128.5 55.5t-48.5 146.5q0 51 17 106t49.5 103t80 77.5t109.5 29.5q60 0 103.5 -29.5t58.5 -72.5l31 154h-159zM122 191q0 -62 30.5 -97t86.5 -35
q47 0 82 23.5t58 61t35 79.5t13 79q2 37 -8 69.5t-35.5 53.5t-70.5 21q-51 0 -87.5 -26.5t-59.5 -67t-33.5 -84t-10.5 -77.5z" />
    <glyph glyph-name="e" unicode="e" horiz-adv-x="529" 
d="M234 -11q-95 0 -146.5 56.5t-51.5 148.5q0 57 18.5 112t54.5 100.5t87 72.5t115 27q58 0 95.5 -18.5t58 -49.5t27.5 -67.5t4 -73.5t-12 -68h-359q-6 -25 -4.5 -54.5t14 -56t37.5 -43t64 -16.5q49 0 85.5 27.5t55.5 76.5h87q-32 -89 -94 -131.5t-136 -42.5zM140 297h273
q6 38 -3.5 70t-35 51.5t-68.5 19.5q-39 0 -73 -18.5t-58.5 -50t-34.5 -72.5z" />
    <glyph glyph-name="e.small" horiz-adv-x="382" 
d="M186 -9q-65 0 -101.5 37t-36.5 98t28 112.5t76.5 83t108.5 31.5q63 0 94 -30t36 -75t-10 -91h-247q-10 -44 7 -75t58 -31q30 0 53 18t39 46l68 -26q-20 -38 -65.5 -68t-107.5 -30zM145 209h163q6 34 -9 61t-53 27q-35 0 -63 -25t-38 -63z" />
    <glyph glyph-name="e.smaller" horiz-adv-x="293" 
d="M142 -7q-51 0 -80.5 28.5t-29.5 74.5q0 45 22 83t59.5 61t83.5 23q48 0 73.5 -22t31 -56t-7.5 -71h-180q-6 -27 4 -46t35 -19q20 0 34.5 12t22.5 29l70 -25q-18 -31 -54.5 -51.5t-83.5 -20.5zM123 158h98q5 26 -5.5 40t-31.5 14q-22 0 -38.5 -15.5t-22.5 -38.5z" />
    <glyph glyph-name="e.ss03" horiz-adv-x="530" 
d="M229 -12q-94 0 -144 57t-50 147q0 58 20 114t57.5 101.5t90 72.5t116.5 27q67 0 106.5 -27.5t57.5 -71.5t18 -92q0 -47 -14 -89h-362q-9 -39 -2.5 -79t33 -67t76.5 -27t87 28.5t61 71.5l69 -38q-29 -58 -88 -93t-132 -35zM140 295h273q6 37 -3.5 70t-34.5 54.5t-68 21.5
q-39 0 -73 -20t-58.5 -53t-35.5 -73z" />
    <glyph glyph-name="e.ss03.smaller" horiz-adv-x="292" 
d="M142 -7q-52 0 -81 28.5t-29 74.5q0 45 22 83t59 61t83 23t72 -20.5t32.5 -54.5t-6.5 -73h-180q-6 -27 4.5 -46.5t35.5 -19.5q17 0 30.5 10.5t20.5 27.5h82q-19 -46 -60 -70t-85 -24zM123 159h98q5 21 -4.5 36.5t-33.5 15.5q-21 0 -37.5 -14.5t-22.5 -37.5z" />
    <glyph glyph-name="eacute" unicode="&#xe9;" horiz-adv-x="529" 
d="M234 -11q-95 0 -146.5 56.5t-51.5 148.5q0 57 18.5 112t54.5 100.5t87 72.5t115 27q58 0 95.5 -18.5t58 -49.5t27.5 -67.5t4 -73.5t-12 -68h-359q-6 -25 -4.5 -54.5t14 -56t37.5 -43t64 -16.5q49 0 85.5 27.5t55.5 76.5h87q-32 -89 -94 -131.5t-136 -42.5zM140 297h273
q6 38 -3.5 70t-35 51.5t-68.5 19.5q-39 0 -73 -18.5t-58.5 -50t-34.5 -72.5zM292 557l105 142h102l-134 -142h-73z" />
    <glyph glyph-name="eacute.ss03" horiz-adv-x="530" 
d="M229 -12q-94 0 -144 57t-50 147q0 58 20 114t57.5 101.5t90 72.5t116.5 27q67 0 106.5 -27.5t57.5 -71.5t18 -92q0 -47 -14 -89h-362q-9 -39 -2.5 -79t33 -67t76.5 -27t87 28.5t61 71.5l69 -38q-29 -58 -88 -93t-132 -35zM140 295h273q6 37 -3.5 70t-34.5 54.5t-68 21.5
q-39 0 -73 -20t-58.5 -53t-35.5 -73zM291 557l105 142h102l-134 -142h-73z" />
    <glyph glyph-name="ebreve" unicode="&#x115;" horiz-adv-x="529" 
d="M234 -11q-95 0 -146.5 56.5t-51.5 148.5q0 57 18.5 112t54.5 100.5t87 72.5t115 27q58 0 95.5 -18.5t58 -49.5t27.5 -67.5t4 -73.5t-12 -68h-359q-6 -25 -4.5 -54.5t14 -56t37.5 -43t64 -16.5q49 0 85.5 27.5t55.5 76.5h87q-32 -89 -94 -131.5t-136 -42.5zM140 297h273
q6 38 -3.5 70t-35 51.5t-68.5 19.5q-39 0 -73 -18.5t-58.5 -50t-34.5 -72.5zM210 700h75q-7 -32 7 -61t54 -29q32 0 58.5 22.5t36.5 67.5h76q-14 -70 -62 -109t-109 -39q-41 0 -76 17.5t-52.5 50.5t-7.5 80z" />
    <glyph glyph-name="ebreve.ss03" horiz-adv-x="530" 
d="M229 -12q-94 0 -144 57t-50 147q0 58 20 114t57.5 101.5t90 72.5t116.5 27q67 0 106.5 -27.5t57.5 -71.5t18 -92q0 -47 -14 -89h-362q-9 -39 -2.5 -79t33 -67t76.5 -27t87 28.5t61 71.5l69 -38q-29 -58 -88 -93t-132 -35zM140 295h273q6 37 -3.5 70t-34.5 54.5t-68 21.5
q-39 0 -73 -20t-58.5 -53t-35.5 -73zM209 700h75q-7 -32 7 -61t54 -29q32 0 58.5 22.5t36.5 67.5h76q-14 -70 -62 -109t-109 -39q-41 0 -76 17.5t-52.5 50.5t-7.5 80z" />
    <glyph glyph-name="ecaron" unicode="&#x11b;" horiz-adv-x="529" 
d="M234 -11q-95 0 -146.5 56.5t-51.5 148.5q0 57 18.5 112t54.5 100.5t87 72.5t115 27q58 0 95.5 -18.5t58 -49.5t27.5 -67.5t4 -73.5t-12 -68h-359q-6 -25 -4.5 -54.5t14 -56t37.5 -43t64 -16.5q49 0 85.5 27.5t55.5 76.5h87q-32 -89 -94 -131.5t-136 -42.5zM140 297h273
q6 38 -3.5 70t-35 51.5t-68.5 19.5q-39 0 -73 -18.5t-58.5 -50t-34.5 -72.5zM198 699h71l70 -99l114 99h75l-153 -142h-84z" />
    <glyph glyph-name="ecaron.ss03" horiz-adv-x="530" 
d="M229 -12q-94 0 -144 57t-50 147q0 58 20 114t57.5 101.5t90 72.5t116.5 27q67 0 106.5 -27.5t57.5 -71.5t18 -92q0 -47 -14 -89h-362q-9 -39 -2.5 -79t33 -67t76.5 -27t87 28.5t61 71.5l69 -38q-29 -58 -88 -93t-132 -35zM140 295h273q6 37 -3.5 70t-34.5 54.5t-68 21.5
q-39 0 -73 -20t-58.5 -53t-35.5 -73zM197 699h71l70 -99l114 99h75l-153 -142h-84z" />
    <glyph glyph-name="ecircumflex" unicode="&#xea;" horiz-adv-x="529" 
d="M234 -11q-95 0 -146.5 56.5t-51.5 148.5q0 57 18.5 112t54.5 100.5t87 72.5t115 27q58 0 95.5 -18.5t58 -49.5t27.5 -67.5t4 -73.5t-12 -68h-359q-6 -25 -4.5 -54.5t14 -56t37.5 -43t64 -16.5q49 0 85.5 27.5t55.5 76.5h87q-32 -89 -94 -131.5t-136 -42.5zM140 297h273
q6 38 -3.5 70t-35 51.5t-68.5 19.5q-39 0 -73 -18.5t-58.5 -50t-34.5 -72.5zM169 557l153 142h84l93 -142h-71l-71 98l-112 -98h-76z" />
    <glyph glyph-name="ecircumflex.ss03" horiz-adv-x="530" 
d="M229 -12q-94 0 -144 57t-50 147q0 58 20 114t57.5 101.5t90 72.5t116.5 27q67 0 106.5 -27.5t57.5 -71.5t18 -92q0 -47 -14 -89h-362q-9 -39 -2.5 -79t33 -67t76.5 -27t87 28.5t61 71.5l69 -38q-29 -58 -88 -93t-132 -35zM140 295h273q6 37 -3.5 70t-34.5 54.5t-68 21.5
q-39 0 -73 -20t-58.5 -53t-35.5 -73zM168 557l153 142h84l93 -142h-71l-71 98l-112 -98h-76z" />
    <glyph glyph-name="edieresis" unicode="&#xeb;" horiz-adv-x="529" 
d="M234 -11q-95 0 -146.5 56.5t-51.5 148.5q0 57 18.5 112t54.5 100.5t87 72.5t115 27q58 0 95.5 -18.5t58 -49.5t27.5 -67.5t4 -73.5t-12 -68h-359q-6 -25 -4.5 -54.5t14 -56t37.5 -43t64 -16.5q49 0 85.5 27.5t55.5 76.5h87q-32 -89 -94 -131.5t-136 -42.5zM140 297h273
q6 38 -3.5 70t-35 51.5t-68.5 19.5q-39 0 -73 -18.5t-58.5 -50t-34.5 -72.5zM196 561l21 99h76l-21 -99h-76zM385 561l21 99h76l-21 -99h-76z" />
    <glyph glyph-name="edieresis.ss01" horiz-adv-x="529" 
d="M234 -11q-95 0 -146.5 56.5t-51.5 148.5q0 57 18.5 112t54.5 100.5t87 72.5t115 27q58 0 95.5 -18.5t58 -49.5t27.5 -67.5t4 -73.5t-12 -68h-359q-6 -25 -4.5 -54.5t14 -56t37.5 -43t64 -16.5q49 0 85.5 27.5t55.5 76.5h87q-32 -89 -94 -131.5t-136 -42.5zM140 297h273
q6 38 -3.5 70t-35 51.5t-68.5 19.5q-39 0 -73 -18.5t-58.5 -50t-34.5 -72.5zM205 629q0 24 18.5 41t40.5 17q23 0 37.5 -14.5t14.5 -36.5q0 -23 -18.5 -41t-42.5 -18q-22 0 -36 15t-14 37zM383 628q0 23 18.5 41t40.5 18q23 0 37.5 -15t14.5 -36q0 -25 -18.5 -42t-41.5 -17
q-22 0 -36.5 14.5t-14.5 36.5z" />
    <glyph glyph-name="edieresis.ss01.ss03" horiz-adv-x="530" 
d="M229 -12q-94 0 -144 57t-50 147q0 58 20 114t57.5 101.5t90 72.5t116.5 27q67 0 106.5 -27.5t57.5 -71.5t18 -92q0 -47 -14 -89h-362q-9 -39 -2.5 -79t33 -67t76.5 -27t87 28.5t61 71.5l69 -38q-29 -58 -88 -93t-132 -35zM140 295h273q6 37 -3.5 70t-34.5 54.5t-68 21.5
q-39 0 -73 -20t-58.5 -53t-35.5 -73zM204 629q0 24 18.5 41t40.5 17q23 0 37.5 -14.5t14.5 -36.5q0 -23 -18.5 -41t-42.5 -18q-22 0 -36 15t-14 37zM382 628q0 23 18.5 41t40.5 18q23 0 37.5 -15t14.5 -36q0 -25 -18.5 -42t-41.5 -17q-22 0 -36.5 14.5t-14.5 36.5z" />
    <glyph glyph-name="edieresis.ss03" horiz-adv-x="530" 
d="M229 -12q-94 0 -144 57t-50 147q0 58 20 114t57.5 101.5t90 72.5t116.5 27q67 0 106.5 -27.5t57.5 -71.5t18 -92q0 -47 -14 -89h-362q-9 -39 -2.5 -79t33 -67t76.5 -27t87 28.5t61 71.5l69 -38q-29 -58 -88 -93t-132 -35zM140 295h273q6 37 -3.5 70t-34.5 54.5t-68 21.5
q-39 0 -73 -20t-58.5 -53t-35.5 -73zM196 561l21 99h76l-21 -99h-76zM385 561l21 99h76l-21 -99h-76z" />
    <glyph glyph-name="edotaccent" unicode="&#x117;" horiz-adv-x="529" 
d="M234 -11q-95 0 -146.5 56.5t-51.5 148.5q0 57 18.5 112t54.5 100.5t87 72.5t115 27q58 0 95.5 -18.5t58 -49.5t27.5 -67.5t4 -73.5t-12 -68h-359q-6 -25 -4.5 -54.5t14 -56t37.5 -43t64 -16.5q49 0 85.5 27.5t55.5 76.5h87q-32 -89 -94 -131.5t-136 -42.5zM140 297h273
q6 38 -3.5 70t-35 51.5t-68.5 19.5q-39 0 -73 -18.5t-58.5 -50t-34.5 -72.5zM290 561l20 99h85l-21 -99h-84z" />
    <glyph glyph-name="edotaccent.ss01" horiz-adv-x="529" 
d="M234 -11q-95 0 -146.5 56.5t-51.5 148.5q0 57 18.5 112t54.5 100.5t87 72.5t115 27q58 0 95.5 -18.5t58 -49.5t27.5 -67.5t4 -73.5t-12 -68h-359q-6 -25 -4.5 -54.5t14 -56t37.5 -43t64 -16.5q49 0 85.5 27.5t55.5 76.5h87q-32 -89 -94 -131.5t-136 -42.5zM140 297h273
q6 38 -3.5 70t-35 51.5t-68.5 19.5q-39 0 -73 -18.5t-58.5 -50t-34.5 -72.5zM288 611q0 27 18.5 45.5t43.5 18.5q23 0 38 -15.5t15 -38.5q0 -28 -19.5 -45.5t-43.5 -17.5q-23 0 -37.5 15t-14.5 38z" />
    <glyph glyph-name="edotaccent.ss01.ss03" horiz-adv-x="530" 
d="M229 -12q-94 0 -144 57t-50 147q0 58 20 114t57.5 101.5t90 72.5t116.5 27q67 0 106.5 -27.5t57.5 -71.5t18 -92q0 -47 -14 -89h-362q-9 -39 -2.5 -79t33 -67t76.5 -27t87 28.5t61 71.5l69 -38q-29 -58 -88 -93t-132 -35zM140 295h273q6 37 -3.5 70t-34.5 54.5t-68 21.5
q-39 0 -73 -20t-58.5 -53t-35.5 -73zM287 611q0 27 18.5 45.5t43.5 18.5q23 0 38 -15.5t15 -38.5q0 -28 -19.5 -45.5t-43.5 -17.5q-23 0 -37.5 15t-14.5 38z" />
    <glyph glyph-name="edotaccent.ss03" horiz-adv-x="530" 
d="M229 -12q-94 0 -144 57t-50 147q0 58 20 114t57.5 101.5t90 72.5t116.5 27q67 0 106.5 -27.5t57.5 -71.5t18 -92q0 -47 -14 -89h-362q-9 -39 -2.5 -79t33 -67t76.5 -27t87 28.5t61 71.5l69 -38q-29 -58 -88 -93t-132 -35zM140 295h273q6 37 -3.5 70t-34.5 54.5t-68 21.5
q-39 0 -73 -20t-58.5 -53t-35.5 -73zM289 561l20 99h85l-21 -99h-84z" />
    <glyph glyph-name="egrave" unicode="&#xe8;" horiz-adv-x="529" 
d="M234 -11q-95 0 -146.5 56.5t-51.5 148.5q0 57 18.5 112t54.5 100.5t87 72.5t115 27q58 0 95.5 -18.5t58 -49.5t27.5 -67.5t4 -73.5t-12 -68h-359q-6 -25 -4.5 -54.5t14 -56t37.5 -43t64 -16.5q49 0 85.5 27.5t55.5 76.5h87q-32 -89 -94 -131.5t-136 -42.5zM140 297h273
q6 38 -3.5 70t-35 51.5t-68.5 19.5q-39 0 -73 -18.5t-58.5 -50t-34.5 -72.5zM208 699h96l45 -142h-67z" />
    <glyph glyph-name="egrave.ss03" horiz-adv-x="530" 
d="M229 -12q-94 0 -144 57t-50 147q0 58 20 114t57.5 101.5t90 72.5t116.5 27q67 0 106.5 -27.5t57.5 -71.5t18 -92q0 -47 -14 -89h-362q-9 -39 -2.5 -79t33 -67t76.5 -27t87 28.5t61 71.5l69 -38q-29 -58 -88 -93t-132 -35zM140 295h273q6 37 -3.5 70t-34.5 54.5t-68 21.5
q-39 0 -73 -20t-58.5 -53t-35.5 -73zM208 699h96l45 -142h-67z" />
    <glyph glyph-name="emacron" unicode="&#x113;" horiz-adv-x="529" 
d="M234 -11q-95 0 -146.5 56.5t-51.5 148.5q0 57 18.5 112t54.5 100.5t87 72.5t115 27q58 0 95.5 -18.5t58 -49.5t27.5 -67.5t4 -73.5t-12 -68h-359q-6 -25 -4.5 -54.5t14 -56t37.5 -43t64 -16.5q49 0 85.5 27.5t55.5 76.5h87q-32 -89 -94 -131.5t-136 -42.5zM140 297h273
q6 38 -3.5 70t-35 51.5t-68.5 19.5q-39 0 -73 -18.5t-58.5 -50t-34.5 -72.5zM173 583l14 65h331l-14 -65h-331z" />
    <glyph glyph-name="emacron.ss03" horiz-adv-x="530" 
d="M229 -12q-94 0 -144 57t-50 147q0 58 20 114t57.5 101.5t90 72.5t116.5 27q67 0 106.5 -27.5t57.5 -71.5t18 -92q0 -47 -14 -89h-362q-9 -39 -2.5 -79t33 -67t76.5 -27t87 28.5t61 71.5l69 -38q-29 -58 -88 -93t-132 -35zM140 295h273q6 37 -3.5 70t-34.5 54.5t-68 21.5
q-39 0 -73 -20t-58.5 -53t-35.5 -73zM172 583l14 65h331l-14 -65h-331z" />
    <glyph glyph-name="eogonek" unicode="&#x119;" horiz-adv-x="529" 
d="M413 297q6 38 -3.5 70t-35 51.5t-68.5 19.5q-39 0 -73 -18.5t-58.5 -50t-34.5 -72.5h273zM36 194q0 57 18.5 112t54.5 100.5t87 72.5t115 27q58 0 95.5 -18.5t58 -49.5t27.5 -67.5t4 -73.5t-12 -68h-359q-6 -25 -4.5 -54.5t14 -56t37.5 -43t64 -16.5q49 0 85.5 27.5
t55.5 76.5h87q-26 -72 -72 -113t-102 -55q-51 -18 -73.5 -42t-22.5 -44q0 -17 12 -23.5t26 -6.5q9 0 21 2.5t28 8.5l-13 -59q-15 -7 -31 -10t-27 -3q-41 0 -62.5 21.5t-21.5 52.5q0 26 15 52.5t45 48.5q-73 14 -111.5 67.5t-38.5 133.5z" />
    <glyph glyph-name="eogonek.ss03" horiz-adv-x="530" 
d="M413 295q6 37 -3.5 70t-34.5 54.5t-68 21.5q-39 0 -73 -20t-58.5 -53t-35.5 -73h273zM35 192q0 58 20 114t57.5 101.5t90 72.5t116.5 27q67 0 106.5 -27.5t57.5 -71.5t18 -92q0 -47 -14 -89h-362q-9 -39 -2.5 -79t33 -67t76.5 -27t87 28.5t61 71.5l69 -38
q-22 -45 -63 -76.5t-94 -43.5q-51 -19 -73.5 -43t-22.5 -44q0 -17 12 -23.5t26 -6.5q9 0 21 2.5t28 8.5l-13 -59q-15 -7 -31 -10t-27 -3q-41 0 -62.5 21.5t-21.5 52.5q0 26 14.5 52t43.5 48q-73 13 -112 67t-39 133z" />
    <glyph glyph-name="uni1EBD" unicode="&#x1ebd;" horiz-adv-x="529" 
d="M234 -11q-95 0 -146.5 56.5t-51.5 148.5q0 57 18.5 112t54.5 100.5t87 72.5t115 27q58 0 95.5 -18.5t58 -49.5t27.5 -67.5t4 -73.5t-12 -68h-359q-6 -25 -4.5 -54.5t14 -56t37.5 -43t64 -16.5q49 0 85.5 27.5t55.5 76.5h87q-32 -89 -94 -131.5t-136 -42.5zM140 297h273
q6 38 -3.5 70t-35 51.5t-68.5 19.5q-39 0 -73 -18.5t-58.5 -50t-34.5 -72.5zM161 572q18 58 52.5 86.5t75.5 28.5q28 0 45 -11t33 -28q11 -11 22.5 -21.5t29.5 -10.5q20 0 36.5 16t25.5 41h54q-19 -58 -52.5 -86.5t-75.5 -28.5q-31 0 -50 14t-33 29q-11 12 -21.5 20t-26.5 8
q-22 0 -37.5 -17t-24.5 -40h-53z" />
    <glyph glyph-name="uni1EBD.ss03" horiz-adv-x="530" 
d="M229 -12q-94 0 -144 57t-50 147q0 58 20 114t57.5 101.5t90 72.5t116.5 27q67 0 106.5 -27.5t57.5 -71.5t18 -92q0 -47 -14 -89h-362q-9 -39 -2.5 -79t33 -67t76.5 -27t87 28.5t61 71.5l69 -38q-29 -58 -88 -93t-132 -35zM140 295h273q6 37 -3.5 70t-34.5 54.5t-68 21.5
q-39 0 -73 -20t-58.5 -53t-35.5 -73zM160 572q18 58 52.5 86.5t75.5 28.5q28 0 45 -11t33 -28q11 -11 22.5 -21.5t29.5 -10.5q20 0 36.5 16t25.5 41h54q-19 -58 -52.5 -86.5t-75.5 -28.5q-31 0 -50 14t-33 29q-11 12 -21.5 20t-26.5 8q-22 0 -37.5 -17t-24.5 -40h-53z" />
    <glyph glyph-name="uni01DD" unicode="&#x1dd;" horiz-adv-x="529" 
d="M295 506q95 0 146.5 -56.5t51.5 -148.5q0 -57 -18.5 -112t-54.5 -100.5t-86.5 -72.5t-115.5 -27q-58 0 -95.5 18.5t-58 49.5t-27.5 67.5t-4 73.5t12 68h359q6 26 4.5 55t-14 55.5t-37.5 43t-64 16.5q-49 0 -85 -27t-56 -77h-87q32 89 94.5 131.5t135.5 42.5zM116 198
q-5 -38 4.5 -70t35 -51.5t67.5 -19.5q39 0 73 18.5t58.5 50.5t34.5 72h-273z" />
    <glyph glyph-name="uni01DD.ss03" horiz-adv-x="530" 
d="M301 507q95 0 144.5 -57t49.5 -147q0 -58 -20 -114t-57.5 -101.5t-89.5 -72.5t-117 -27q-66 0 -106 28t-58 71.5t-18 91.5q0 47 14 89h362q9 39 2.5 79t-33 67t-76.5 27q-49 0 -86.5 -28.5t-61.5 -71.5l-69 38q29 58 88 93t132 35zM117 200q-6 -36 3.5 -69.5t35 -55
t67.5 -21.5q39 0 73 20t59 53t35 73h-273z" />
    <glyph glyph-name="uni0259" unicode="&#x259;" horiz-adv-x="529" 
d="M295 506q95 0 146.5 -56.5t51.5 -148.5q0 -57 -18.5 -112t-54.5 -100.5t-86.5 -72.5t-115.5 -27q-58 0 -95.5 18.5t-58 49.5t-27.5 67.5t-4 73.5t12 68h359q6 26 4.5 55t-14 55.5t-37.5 43t-64 16.5q-49 0 -85 -27t-56 -77h-87q32 89 94.5 131.5t135.5 42.5zM116 198
q-5 -38 4.5 -70t35 -51.5t67.5 -19.5q39 0 73 18.5t58.5 50.5t34.5 72h-273z" />
    <glyph glyph-name="uni0259.ss03" horiz-adv-x="530" 
d="M301 507q95 0 144.5 -57t49.5 -147q0 -58 -20 -114t-57.5 -101.5t-89.5 -72.5t-117 -27q-66 0 -106 28t-58 71.5t-18 91.5q0 47 14 89h362q9 39 2.5 79t-33 67t-76.5 27q-49 0 -86.5 -28.5t-61.5 -71.5l-69 38q29 58 88 93t132 35zM117 200q-6 -36 3.5 -69.5t35 -55
t67.5 -21.5q39 0 73 20t59 53t35 73h-273z" />
    <glyph glyph-name="f" unicode="f" horiz-adv-x="336" 
d="M72 0l90 426h-110l14 69h110l14 68q30 144 153 144q21 0 44 -2t53 -12l-16 -67q-13 5 -29 7t-28 2q-41 0 -63 -18.5t-30 -58.5l-13 -63h113l-15 -69h-113l-90 -426h-84z" />
    <glyph glyph-name="f.small" horiz-adv-x="257" 
d="M79 0l60 283h-72l13 61h71l9 41q12 56 48.5 81t80.5 25q12 0 28.5 -1t35.5 -6l-11 -57q-19 6 -40 6q-26 0 -40 -12.5t-19 -36.5l-9 -40h74l-12 -61h-75l-60 -283h-82z" />
    <glyph glyph-name="f.smaller" horiz-adv-x="202" 
d="M52 0l43 200h-48l12 56h48l6 28q6 30 23 47t38.5 24t39.5 7q29 0 56 -7l-10 -48q-9 2 -15.5 3t-12.5 1q-32 0 -38 -31l-5 -24h50l-12 -56h-50l-43 -200h-82z" />
    <glyph glyph-name="g" unicode="g" horiz-adv-x="572" 
d="M210 -187q-64 0 -111.5 23t-73 62.5t-22.5 89.5h84q-3 -48 31 -78t89 -30q63 0 106.5 43.5t60.5 113.5l14 59q-25 -41 -67.5 -64t-94.5 -23q-87 0 -137.5 53.5t-50.5 141.5q0 56 19 110t54 97.5t82.5 69.5t103.5 26q65 0 103 -29t50 -73l19 89h83l-97 -467
q-21 -100 -86.5 -157t-158.5 -57zM126 204q0 -58 31.5 -93.5t86.5 -35.5q42 0 76 19.5t58 52.5t37.5 72.5t14.5 79.5q2 59 -27 99.5t-88 40.5q-43 0 -78 -21t-59.5 -56t-38 -76t-13.5 -82z" />
    <glyph glyph-name="g.small" horiz-adv-x="423" 
d="M176 -129q-69 0 -108.5 34t-37.5 89h83q-1 -31 20 -48t52 -17q44 0 72 28.5t36 69.5l10 47q-18 -29 -50 -48t-76 -19q-57 0 -90 34.5t-33 92.5q0 59 27 108.5t71.5 80t98.5 30.5q39 0 65.5 -17t30.5 -46l11 54h83l-68 -317q-15 -73 -69 -114.5t-128 -41.5zM143 144
q0 -37 18 -58.5t52 -21.5q31 0 57 20t41.5 52.5t16.5 71.5q2 37 -15 61.5t-53 24.5q-32 0 -58.5 -21t-42.5 -55.5t-16 -73.5z" />
    <glyph glyph-name="g.smaller" horiz-adv-x="331" 
d="M137 -94q-53 0 -86 24t-34 67h83q-1 -16 11 -27.5t34 -11.5q28 0 46.5 16.5t23.5 44.5l8 36q-15 -22 -39 -35t-56 -13q-43 0 -68.5 26t-25.5 69t20.5 79.5t55 59t74.5 22.5q29 0 48.5 -13t23.5 -35l8 40h82l-50 -236q-11 -52 -55 -82.5t-104 -30.5zM122 108q0 -23 12 -37
t33 -14q29 0 50.5 29t22.5 69q0 23 -10 38.5t-33 15.5q-30 0 -52.5 -30.5t-22.5 -70.5z" />
    <glyph glyph-name="g.ss04" horiz-adv-x="585" 
d="M212 -185q-121 0 -184.5 29.5t-63.5 84.5q0 39 29.5 63t75.5 31q-30 5 -45.5 25t-15.5 44q0 27 16.5 48.5t42 37t52.5 23.5q-31 40 -31 96q0 54 30 102t82 78t118 30q52 0 93.5 -21t57.5 -65q13 42 42 63t65 21q11 0 25 -2.5t27 -8.5l-17 -76q-10 5 -20.5 7t-18.5 2
q-36 0 -53 -23.5t-25 -62.5q-20 -97 -81.5 -153t-144.5 -56q-67 0 -116 36q-29 -5 -49.5 -23t-20.5 -38q0 -32 55 -32q20 0 53.5 2.5t74.5 2.5q39 0 76.5 -5t68.5 -18t49 -37.5t18 -63.5q0 -52 -34.5 -83t-94 -44.5t-136.5 -13.5zM56 -57q0 -31 36 -44t115 -13
q85 0 133 15.5t48 52.5q0 35 -41 47t-108 12q-91 0 -137 -16.5t-46 -53.5zM168 296q0 -43 26 -69t71 -26q40 0 73 20.5t53 53.5t20 70q0 43 -26.5 68t-70.5 25q-40 0 -73.5 -20t-53 -52t-19.5 -70z" />
    <glyph glyph-name="g.ss04.small" horiz-adv-x="423" 
d="M166 -127q-46 0 -84.5 6t-61.5 20.5t-23 39.5q0 28 21.5 48.5t52.5 23.5q-20 4 -30.5 17.5t-10.5 29.5q0 29 22 50.5t50 31.5q-20 25 -20 60q0 41 24.5 75.5t65.5 55t91 20.5q38 0 68 -14t43 -44q9 27 27 42t46 15q8 0 17.5 -1.5t19.5 -5.5l-14 -66q-7 4 -15.5 5.5
t-14.5 1.5q-23 0 -35.5 -15t-18.5 -39q-15 -63 -64.5 -98.5t-111.5 -35.5q-50 0 -83 22q-16 -4 -25 -15t-9 -23q0 -21 39 -21q16 0 39.5 2t58.5 2q36 0 70.5 -5t57 -21t22.5 -49q0 -62 -57 -88.5t-157 -26.5zM80 -35q0 -18 24.5 -26t76.5 -8q54 0 85.5 10t31.5 35
q0 20 -26.5 27t-73.5 7q-58 0 -88 -10t-30 -35zM163 206q0 -25 15.5 -41t41.5 -16q36 0 62.5 28.5t26.5 65.5q0 25 -15.5 40.5t-42.5 15.5q-37 0 -62.5 -27.5t-25.5 -65.5z" />
    <glyph glyph-name="g.ss04.smaller" horiz-adv-x="330" 
d="M124 -93q-60 0 -95 10.5t-35 37.5q0 21 17 37.5t39 17.5q-32 5 -32 35q0 23 17 39.5t39 24.5q-15 17 -15 42q0 31 18.5 56t50.5 39.5t72 14.5q32 0 56 -10.5t35 -30.5q14 41 55 41q8 0 15 -1.5t14 -3.5l-14 -61q-7 4 -13 5t-11 1q-17 0 -26 -10t-14 -27
q-12 -42 -49.5 -65t-86.5 -23q-39 0 -65 14q-22 -5 -22 -25q0 -15 29 -15q14 0 32.5 1.5t45.5 1.5q49 0 82.5 -10.5t33.5 -44.5q0 -50 -44.5 -70.5t-128.5 -20.5zM70 -21q0 -11 16 -16t53 -5q41 0 60 6.5t19 22.5q0 12 -18 16t-50 4q-43 0 -61.5 -6t-18.5 -22zM135 155
q0 -16 9.5 -26t24.5 -10q24 0 39.5 19.5t15.5 44.5q0 35 -34 35q-22 0 -38.5 -18.5t-16.5 -44.5z" />
    <glyph glyph-name="gbreve" unicode="&#x11f;" horiz-adv-x="572" 
d="M210 -187q-64 0 -111.5 23t-73 62.5t-22.5 89.5h84q-3 -48 31 -78t89 -30q63 0 106.5 43.5t60.5 113.5l14 59q-25 -41 -67.5 -64t-94.5 -23q-87 0 -137.5 53.5t-50.5 141.5q0 56 19 110t54 97.5t82.5 69.5t103.5 26q65 0 103 -29t50 -73l19 89h83l-97 -467
q-21 -100 -86.5 -157t-158.5 -57zM126 204q0 -58 31.5 -93.5t86.5 -35.5q42 0 76 19.5t58 52.5t37.5 72.5t14.5 79.5q2 59 -27 99.5t-88 40.5q-43 0 -78 -21t-59.5 -56t-38 -76t-13.5 -82zM215 700h75q-7 -32 7 -61t54 -29q32 0 58.5 22.5t36.5 67.5h76q-14 -70 -62 -109
t-109 -39q-41 0 -76 17.5t-52.5 50.5t-7.5 80z" />
    <glyph glyph-name="gbreve.ss04" horiz-adv-x="585" 
d="M212 -185q-121 0 -184.5 29.5t-63.5 84.5q0 39 29.5 63t75.5 31q-30 5 -45.5 25t-15.5 44q0 27 16.5 48.5t42 37t52.5 23.5q-31 40 -31 96q0 54 30 102t82 78t118 30q52 0 93.5 -21t57.5 -65q13 42 42 63t65 21q11 0 25 -2.5t27 -8.5l-17 -76q-10 5 -20.5 7t-18.5 2
q-36 0 -53 -23.5t-25 -62.5q-20 -97 -81.5 -153t-144.5 -56q-67 0 -116 36q-29 -5 -49.5 -23t-20.5 -38q0 -32 55 -32q20 0 53.5 2.5t74.5 2.5q39 0 76.5 -5t68.5 -18t49 -37.5t18 -63.5q0 -52 -34.5 -83t-94 -44.5t-136.5 -13.5zM56 -57q0 -31 36 -44t115 -13
q85 0 133 15.5t48 52.5q0 35 -41 47t-108 12q-91 0 -137 -16.5t-46 -53.5zM168 296q0 -43 26 -69t71 -26q40 0 73 20.5t53 53.5t20 70q0 43 -26.5 68t-70.5 25q-40 0 -73.5 -20t-53 -52t-19.5 -70zM227 700h75q-7 -32 7 -61t54 -29q32 0 58.5 22.5t36.5 67.5h76
q-14 -70 -62 -109t-109 -39q-41 0 -76 17.5t-52.5 50.5t-7.5 80z" />
    <glyph glyph-name="gcircumflex" unicode="&#x11d;" horiz-adv-x="572" 
d="M210 -187q-64 0 -111.5 23t-73 62.5t-22.5 89.5h84q-3 -48 31 -78t89 -30q63 0 106.5 43.5t60.5 113.5l14 59q-25 -41 -67.5 -64t-94.5 -23q-87 0 -137.5 53.5t-50.5 141.5q0 56 19 110t54 97.5t82.5 69.5t103.5 26q65 0 103 -29t50 -73l19 89h83l-97 -467
q-21 -100 -86.5 -157t-158.5 -57zM126 204q0 -58 31.5 -93.5t86.5 -35.5q42 0 76 19.5t58 52.5t37.5 72.5t14.5 79.5q2 59 -27 99.5t-88 40.5q-43 0 -78 -21t-59.5 -56t-38 -76t-13.5 -82zM175 557l153 142h84l93 -142h-71l-71 98l-112 -98h-76z" />
    <glyph glyph-name="gcircumflex.ss04" horiz-adv-x="585" 
d="M212 -185q-121 0 -184.5 29.5t-63.5 84.5q0 39 29.5 63t75.5 31q-30 5 -45.5 25t-15.5 44q0 27 16.5 48.5t42 37t52.5 23.5q-31 40 -31 96q0 54 30 102t82 78t118 30q52 0 93.5 -21t57.5 -65q13 42 42 63t65 21q11 0 25 -2.5t27 -8.5l-17 -76q-10 5 -20.5 7t-18.5 2
q-36 0 -53 -23.5t-25 -62.5q-20 -97 -81.5 -153t-144.5 -56q-67 0 -116 36q-29 -5 -49.5 -23t-20.5 -38q0 -32 55 -32q20 0 53.5 2.5t74.5 2.5q39 0 76.5 -5t68.5 -18t49 -37.5t18 -63.5q0 -52 -34.5 -83t-94 -44.5t-136.5 -13.5zM56 -57q0 -31 36 -44t115 -13
q85 0 133 15.5t48 52.5q0 35 -41 47t-108 12q-91 0 -137 -16.5t-46 -53.5zM168 296q0 -43 26 -69t71 -26q40 0 73 20.5t53 53.5t20 70q0 43 -26.5 68t-70.5 25q-40 0 -73.5 -20t-53 -52t-19.5 -70zM186 557l153 142h84l93 -142h-71l-71 98l-112 -98h-76z" />
    <glyph glyph-name="uni0123" unicode="&#x123;" horiz-adv-x="572" 
d="M210 -187q-64 0 -111.5 23t-73 62.5t-22.5 89.5h84q-3 -48 31 -78t89 -30q63 0 106.5 43.5t60.5 113.5l14 59q-25 -41 -67.5 -64t-94.5 -23q-87 0 -137.5 53.5t-50.5 141.5q0 56 19 110t54 97.5t82.5 69.5t103.5 26q65 0 103 -29t50 -73l19 89h83l-97 -467
q-21 -100 -86.5 -157t-158.5 -57zM126 204q0 -58 31.5 -93.5t86.5 -35.5q42 0 76 19.5t58 52.5t37.5 72.5t14.5 79.5q2 59 -27 99.5t-88 40.5q-43 0 -78 -21t-59.5 -56t-38 -76t-13.5 -82zM283 561l17 85l56 117h67l-77 -104h50l-20 -98h-93z" />
    <glyph glyph-name="uni0123.ss01" horiz-adv-x="572" 
d="M210 -187q-64 0 -111.5 23t-73 62.5t-22.5 89.5h84q-3 -48 31 -78t89 -30q63 0 106.5 43.5t60.5 113.5l14 59q-25 -41 -67.5 -64t-94.5 -23q-87 0 -137.5 53.5t-50.5 141.5q0 56 19 110t54 97.5t82.5 69.5t103.5 26q65 0 103 -29t50 -73l19 89h83l-97 -467
q-21 -100 -86.5 -157t-158.5 -57zM126 204q0 -58 31.5 -93.5t86.5 -35.5q42 0 76 19.5t58 52.5t37.5 72.5t14.5 79.5q2 59 -27 99.5t-88 40.5q-43 0 -78 -21t-59.5 -56t-38 -76t-13.5 -82zM301 630q0 18 8.5 39t16.5 37l39 78h66l-70 -96q21 -1 35.5 -14.5t14.5 -34.5
q0 -25 -17 -43t-42 -18q-23 0 -37 15t-14 37z" />
    <glyph glyph-name="uni0123.ss01.ss04" horiz-adv-x="585" 
d="M212 -185q-121 0 -184.5 29.5t-63.5 84.5q0 39 29.5 63t75.5 31q-30 5 -45.5 25t-15.5 44q0 27 16.5 48.5t42 37t52.5 23.5q-31 40 -31 96q0 54 30 102t82 78t118 30q52 0 93.5 -21t57.5 -65q13 42 42 63t65 21q11 0 25 -2.5t27 -8.5l-17 -76q-10 5 -20.5 7t-18.5 2
q-36 0 -53 -23.5t-25 -62.5q-20 -97 -81.5 -153t-144.5 -56q-67 0 -116 36q-29 -5 -49.5 -23t-20.5 -38q0 -32 55 -32q20 0 53.5 2.5t74.5 2.5q39 0 76.5 -5t68.5 -18t49 -37.5t18 -63.5q0 -52 -34.5 -83t-94 -44.5t-136.5 -13.5zM56 -57q0 -31 36 -44t115 -13
q85 0 133 15.5t48 52.5q0 35 -41 47t-108 12q-91 0 -137 -16.5t-46 -53.5zM168 296q0 -43 26 -69t71 -26q40 0 73 20.5t53 53.5t20 70q0 43 -26.5 68t-70.5 25q-40 0 -73.5 -20t-53 -52t-19.5 -70zM312 630q0 18 8.5 39t16.5 37l39 78h66l-70 -96q21 -1 35.5 -14.5
t14.5 -34.5q0 -25 -17 -43t-42 -18q-23 0 -37 15t-14 37z" />
    <glyph glyph-name="uni0123.ss01.ss04.ss15" horiz-adv-x="585" 
d="M212 -185q-121 0 -184.5 29.5t-63.5 84.5q0 39 29.5 63t75.5 31q-30 5 -45.5 25t-15.5 44q0 27 16.5 48.5t42 37t52.5 23.5q-31 40 -31 96q0 54 30 102t82 78t118 30q52 0 93.5 -21t57.5 -65q13 42 42 63t65 21q11 0 25 -2.5t27 -8.5l-17 -76q-10 5 -20.5 7t-18.5 2
q-36 0 -53 -23.5t-25 -62.5q-20 -97 -81.5 -153t-144.5 -56q-67 0 -116 36q-29 -5 -49.5 -23t-20.5 -38q0 -32 55 -32q20 0 53.5 2.5t74.5 2.5q39 0 76.5 -5t68.5 -18t49 -37.5t18 -63.5q0 -52 -34.5 -83t-94 -44.5t-136.5 -13.5zM56 -57q0 -31 36 -44t115 -13
q85 0 133 15.5t48 52.5q0 35 -41 47t-108 12q-91 0 -137 -16.5t-46 -53.5zM168 296q0 -43 26 -69t71 -26q40 0 73 20.5t53 53.5t20 70q0 43 -26.5 68t-70.5 25q-40 0 -73.5 -20t-53 -52t-19.5 -70zM296 624q0 38 21 72t58 55.5t84 21.5l-7 -34q-30 0 -54.5 -18.5
t-29.5 -54.5q17 -1 29 -13.5t12 -33.5q0 -25 -16.5 -42t-42.5 -17q-19 0 -36.5 13.5t-17.5 50.5z" />
    <glyph glyph-name="uni0123.ss01.ss15" horiz-adv-x="572" 
d="M210 -187q-64 0 -111.5 23t-73 62.5t-22.5 89.5h84q-3 -48 31 -78t89 -30q63 0 106.5 43.5t60.5 113.5l14 59q-25 -41 -67.5 -64t-94.5 -23q-87 0 -137.5 53.5t-50.5 141.5q0 56 19 110t54 97.5t82.5 69.5t103.5 26q65 0 103 -29t50 -73l19 89h83l-97 -467
q-21 -100 -86.5 -157t-158.5 -57zM126 204q0 -58 31.5 -93.5t86.5 -35.5q42 0 76 19.5t58 52.5t37.5 72.5t14.5 79.5q2 59 -27 99.5t-88 40.5q-43 0 -78 -21t-59.5 -56t-38 -76t-13.5 -82zM284 624q0 38 21 72t58 55.5t84 21.5l-7 -34q-30 0 -54.5 -18.5t-29.5 -54.5
q17 -1 29 -13.5t12 -33.5q0 -25 -16.5 -42t-42.5 -17q-19 0 -36.5 13.5t-17.5 50.5z" />
    <glyph glyph-name="uni0123.ss04" horiz-adv-x="585" 
d="M212 -185q-121 0 -184.5 29.5t-63.5 84.5q0 39 29.5 63t75.5 31q-30 5 -45.5 25t-15.5 44q0 27 16.5 48.5t42 37t52.5 23.5q-31 40 -31 96q0 54 30 102t82 78t118 30q52 0 93.5 -21t57.5 -65q13 42 42 63t65 21q11 0 25 -2.5t27 -8.5l-17 -76q-10 5 -20.5 7t-18.5 2
q-36 0 -53 -23.5t-25 -62.5q-20 -97 -81.5 -153t-144.5 -56q-67 0 -116 36q-29 -5 -49.5 -23t-20.5 -38q0 -32 55 -32q20 0 53.5 2.5t74.5 2.5q39 0 76.5 -5t68.5 -18t49 -37.5t18 -63.5q0 -52 -34.5 -83t-94 -44.5t-136.5 -13.5zM56 -57q0 -31 36 -44t115 -13
q85 0 133 15.5t48 52.5q0 35 -41 47t-108 12q-91 0 -137 -16.5t-46 -53.5zM168 296q0 -43 26 -69t71 -26q40 0 73 20.5t53 53.5t20 70q0 43 -26.5 68t-70.5 25q-40 0 -73.5 -20t-53 -52t-19.5 -70zM295 561l17 85l56 117h67l-77 -104h50l-20 -98h-93z" />
    <glyph glyph-name="uni0123.ss04.ss15" horiz-adv-x="585" 
d="M212 -185q-121 0 -184.5 29.5t-63.5 84.5q0 39 29.5 63t75.5 31q-30 5 -45.5 25t-15.5 44q0 27 16.5 48.5t42 37t52.5 23.5q-31 40 -31 96q0 54 30 102t82 78t118 30q52 0 93.5 -21t57.5 -65q13 42 42 63t65 21q11 0 25 -2.5t27 -8.5l-17 -76q-10 5 -20.5 7t-18.5 2
q-36 0 -53 -23.5t-25 -62.5q-20 -97 -81.5 -153t-144.5 -56q-67 0 -116 36q-29 -5 -49.5 -23t-20.5 -38q0 -32 55 -32q20 0 53.5 2.5t74.5 2.5q39 0 76.5 -5t68.5 -18t49 -37.5t18 -63.5q0 -52 -34.5 -83t-94 -44.5t-136.5 -13.5zM56 -57q0 -31 36 -44t115 -13
q85 0 133 15.5t48 52.5q0 35 -41 47t-108 12q-91 0 -137 -16.5t-46 -53.5zM168 296q0 -43 26 -69t71 -26q40 0 73 20.5t53 53.5t20 70q0 43 -26.5 68t-70.5 25q-40 0 -73.5 -20t-53 -52t-19.5 -70zM304 583l26 127q23 104 129 104l-8 -35q-25 0 -42 -14.5t-23 -46.5l-6 -31
h43l-21 -104h-98z" />
    <glyph glyph-name="uni0123.ss15" horiz-adv-x="572" 
d="M210 -187q-64 0 -111.5 23t-73 62.5t-22.5 89.5h84q-3 -48 31 -78t89 -30q63 0 106.5 43.5t60.5 113.5l14 59q-25 -41 -67.5 -64t-94.5 -23q-87 0 -137.5 53.5t-50.5 141.5q0 56 19 110t54 97.5t82.5 69.5t103.5 26q65 0 103 -29t50 -73l19 89h83l-97 -467
q-21 -100 -86.5 -157t-158.5 -57zM126 204q0 -58 31.5 -93.5t86.5 -35.5q42 0 76 19.5t58 52.5t37.5 72.5t14.5 79.5q2 59 -27 99.5t-88 40.5q-43 0 -78 -21t-59.5 -56t-38 -76t-13.5 -82zM292 583l26 127q23 104 129 104l-8 -35q-25 0 -42 -14.5t-23 -46.5l-6 -31h43
l-21 -104h-98z" />
    <glyph glyph-name="gdotaccent" unicode="&#x121;" horiz-adv-x="572" 
d="M210 -187q-64 0 -111.5 23t-73 62.5t-22.5 89.5h84q-3 -48 31 -78t89 -30q63 0 106.5 43.5t60.5 113.5l14 59q-25 -41 -67.5 -64t-94.5 -23q-87 0 -137.5 53.5t-50.5 141.5q0 56 19 110t54 97.5t82.5 69.5t103.5 26q65 0 103 -29t50 -73l19 89h83l-97 -467
q-21 -100 -86.5 -157t-158.5 -57zM126 204q0 -58 31.5 -93.5t86.5 -35.5q42 0 76 19.5t58 52.5t37.5 72.5t14.5 79.5q2 59 -27 99.5t-88 40.5q-43 0 -78 -21t-59.5 -56t-38 -76t-13.5 -82zM296 561l20 99h85l-21 -99h-84z" />
    <glyph glyph-name="gdotaccent.ss01" horiz-adv-x="572" 
d="M210 -187q-64 0 -111.5 23t-73 62.5t-22.5 89.5h84q-3 -48 31 -78t89 -30q63 0 106.5 43.5t60.5 113.5l14 59q-25 -41 -67.5 -64t-94.5 -23q-87 0 -137.5 53.5t-50.5 141.5q0 56 19 110t54 97.5t82.5 69.5t103.5 26q65 0 103 -29t50 -73l19 89h83l-97 -467
q-21 -100 -86.5 -157t-158.5 -57zM126 204q0 -58 31.5 -93.5t86.5 -35.5q42 0 76 19.5t58 52.5t37.5 72.5t14.5 79.5q2 59 -27 99.5t-88 40.5q-43 0 -78 -21t-59.5 -56t-38 -76t-13.5 -82zM294 611q0 27 18.5 45.5t43.5 18.5q23 0 38 -15.5t15 -38.5q0 -28 -19.5 -45.5
t-43.5 -17.5q-23 0 -37.5 15t-14.5 38z" />
    <glyph glyph-name="gdotaccent.ss02" horiz-adv-x="572" 
d="M210 -187q-64 0 -111.5 23t-73 62.5t-22.5 89.5h84q-3 -48 31 -78t89 -30q63 0 106.5 43.5t60.5 113.5l14 59q-25 -41 -67.5 -64t-94.5 -23q-87 0 -137.5 53.5t-50.5 141.5q0 56 19 110t54 97.5t82.5 69.5t103.5 26q65 0 103 -29t50 -73l19 89h83l-97 -467
q-21 -100 -86.5 -157t-158.5 -57zM126 204q0 -58 31.5 -93.5t86.5 -35.5q42 0 76 19.5t58 52.5t37.5 72.5t14.5 79.5q2 59 -27 99.5t-88 40.5q-43 0 -78 -21t-59.5 -56t-38 -76t-13.5 -82zM294 611q0 27 18.5 45.5t43.5 18.5q23 0 38 -15.5t15 -38.5q0 -28 -19.5 -45.5
t-43.5 -17.5q-23 0 -37.5 15t-14.5 38z" />
    <glyph glyph-name="gdotaccent.ss04" horiz-adv-x="585" 
d="M212 -185q-121 0 -184.5 29.5t-63.5 84.5q0 39 29.5 63t75.5 31q-30 5 -45.5 25t-15.5 44q0 27 16.5 48.5t42 37t52.5 23.5q-31 40 -31 96q0 54 30 102t82 78t118 30q52 0 93.5 -21t57.5 -65q13 42 42 63t65 21q11 0 25 -2.5t27 -8.5l-17 -76q-10 5 -20.5 7t-18.5 2
q-36 0 -53 -23.5t-25 -62.5q-20 -97 -81.5 -153t-144.5 -56q-67 0 -116 36q-29 -5 -49.5 -23t-20.5 -38q0 -32 55 -32q20 0 53.5 2.5t74.5 2.5q39 0 76.5 -5t68.5 -18t49 -37.5t18 -63.5q0 -52 -34.5 -83t-94 -44.5t-136.5 -13.5zM56 -57q0 -31 36 -44t115 -13
q85 0 133 15.5t48 52.5q0 35 -41 47t-108 12q-91 0 -137 -16.5t-46 -53.5zM168 296q0 -43 26 -69t71 -26q40 0 73 20.5t53 53.5t20 70q0 43 -26.5 68t-70.5 25q-40 0 -73.5 -20t-53 -52t-19.5 -70zM307 561l20 99h85l-21 -99h-84z" />
    <glyph glyph-name="gdotaccent.ss04.ss01" horiz-adv-x="585" 
d="M212 -185q-121 0 -184.5 29.5t-63.5 84.5q0 39 29.5 63t75.5 31q-30 5 -45.5 25t-15.5 44q0 27 16.5 48.5t42 37t52.5 23.5q-31 40 -31 96q0 54 30 102t82 78t118 30q52 0 93.5 -21t57.5 -65q13 42 42 63t65 21q11 0 25 -2.5t27 -8.5l-17 -76q-10 5 -20.5 7t-18.5 2
q-36 0 -53 -23.5t-25 -62.5q-20 -97 -81.5 -153t-144.5 -56q-67 0 -116 36q-29 -5 -49.5 -23t-20.5 -38q0 -32 55 -32q20 0 53.5 2.5t74.5 2.5q39 0 76.5 -5t68.5 -18t49 -37.5t18 -63.5q0 -52 -34.5 -83t-94 -44.5t-136.5 -13.5zM56 -57q0 -31 36 -44t115 -13
q85 0 133 15.5t48 52.5q0 35 -41 47t-108 12q-91 0 -137 -16.5t-46 -53.5zM168 296q0 -43 26 -69t71 -26q40 0 73 20.5t53 53.5t20 70q0 43 -26.5 68t-70.5 25q-40 0 -73.5 -20t-53 -52t-19.5 -70zM305 611q0 27 18.5 45.5t43.5 18.5q23 0 38 -15.5t15 -38.5
q0 -28 -19.5 -45.5t-43.5 -17.5q-23 0 -37.5 15t-14.5 38z" />
    <glyph glyph-name="uni1E21" unicode="&#x1e21;" horiz-adv-x="572" 
d="M210 -187q-64 0 -111.5 23t-73 62.5t-22.5 89.5h84q-3 -48 31 -78t89 -30q63 0 106.5 43.5t60.5 113.5l14 59q-25 -41 -67.5 -64t-94.5 -23q-87 0 -137.5 53.5t-50.5 141.5q0 56 19 110t54 97.5t82.5 69.5t103.5 26q65 0 103 -29t50 -73l19 89h83l-97 -467
q-21 -100 -86.5 -157t-158.5 -57zM126 204q0 -58 31.5 -93.5t86.5 -35.5q42 0 76 19.5t58 52.5t37.5 72.5t14.5 79.5q2 59 -27 99.5t-88 40.5q-43 0 -78 -21t-59.5 -56t-38 -76t-13.5 -82zM179 583l14 65h331l-14 -65h-331z" />
    <glyph glyph-name="uni1E21.ss04" horiz-adv-x="585" 
d="M212 -185q-121 0 -184.5 29.5t-63.5 84.5q0 39 29.5 63t75.5 31q-30 5 -45.5 25t-15.5 44q0 27 16.5 48.5t42 37t52.5 23.5q-31 40 -31 96q0 54 30 102t82 78t118 30q52 0 93.5 -21t57.5 -65q13 42 42 63t65 21q11 0 25 -2.5t27 -8.5l-17 -76q-10 5 -20.5 7t-18.5 2
q-36 0 -53 -23.5t-25 -62.5q-20 -97 -81.5 -153t-144.5 -56q-67 0 -116 36q-29 -5 -49.5 -23t-20.5 -38q0 -32 55 -32q20 0 53.5 2.5t74.5 2.5q39 0 76.5 -5t68.5 -18t49 -37.5t18 -63.5q0 -52 -34.5 -83t-94 -44.5t-136.5 -13.5zM56 -57q0 -31 36 -44t115 -13
q85 0 133 15.5t48 52.5q0 35 -41 47t-108 12q-91 0 -137 -16.5t-46 -53.5zM168 296q0 -43 26 -69t71 -26q40 0 73 20.5t53 53.5t20 70q0 43 -26.5 68t-70.5 25q-40 0 -73.5 -20t-53 -52t-19.5 -70zM191 583l14 65h331l-14 -65h-331z" />
    <glyph glyph-name="h" unicode="h" horiz-adv-x="549" 
d="M18 0l149 700h84l-56 -267q28 36 67 54t83 18q51 0 84 -18t50 -47.5t20.5 -64.5t-4.5 -68l-65 -307h-84l63 304q8 35 5.5 65.5t-23 49.5t-66.5 19q-62 0 -104.5 -41t-58.5 -115l-60 -282h-84z" />
    <glyph glyph-name="h.small" horiz-adv-x="407" 
d="M44 0l101 480h83l-40 -188q21 29 52 45t68 16q57 0 82 -36t12 -96l-46 -221h-83l44 206q17 81 -50 81q-37 0 -63.5 -24.5t-36.5 -71.5l-41 -191h-82z" />
    <glyph glyph-name="h.smaller" horiz-adv-x="315" 
d="M27 0l74 350h82l-28 -134q33 47 91 47q43 0 61.5 -27t8.5 -73l-35 -163h-82l31 147q13 52 -30 52q-22 0 -38.5 -15t-22.5 -44l-30 -140h-82z" />
    <glyph glyph-name="hbar" unicode="&#x127;" horiz-adv-x="542" 
d="M20 561l14 64h110l16 75h84l-16 -75h134l-14 -64h-133l-27 -128q28 36 67 54t83 18q51 0 84 -18t50 -47.5t20.5 -64.5t-4.5 -68l-65 -307h-84l63 304q8 35 5.5 65.5t-23 49.5t-66.5 19q-62 0 -104.5 -41t-58.5 -115l-60 -282h-84l119 561h-110z" />
    <glyph glyph-name="hcircumflex" unicode="&#x125;" horiz-adv-x="549" 
d="M18 0l149 700h84l-56 -267q28 36 67 54t83 18q51 0 84 -18t50 -47.5t20.5 -64.5t-4.5 -68l-65 -307h-84l63 304q8 35 5.5 65.5t-23 49.5t-66.5 19q-62 0 -104.5 -41t-58.5 -115l-60 -282h-84zM57 762l153 142h84l93 -142h-71l-71 98l-112 -98h-76z" />
    <glyph glyph-name="i" unicode="i" horiz-adv-x="227" 
d="M18 0l106 495h84l-106 -495h-84zM142 582l21 100h84l-20 -100h-85z" />
    <glyph glyph-name="i.small" horiz-adv-x="181" 
d="M42 0l73 344h83l-73 -344h-83zM126 398l17 77h83l-17 -77h-83z" />
    <glyph glyph-name="i.smaller" horiz-adv-x="146" 
d="M25 0l55 256h81l-54 -256h-82zM87 291l13 62h82l-13 -62h-82z" />
    <glyph glyph-name="i.ss01" horiz-adv-x="227" 
d="M18 0l106 495h84l-106 -495h-84zM134 611q0 27 18.5 45.5t43.5 18.5q23 0 38 -15.5t15 -38.5q0 -28 -19.5 -45.5t-43.5 -17.5q-23 0 -37.5 15t-14.5 38z" />
    <glyph glyph-name="dotlessi" unicode="&#x131;" horiz-adv-x="227" 
d="M18 0l106 495h84l-106 -495h-84z" />
    <glyph glyph-name="iacute" unicode="&#xed;" horiz-adv-x="227" 
d="M18 0l106 495h84l-106 -495h-84zM137 557l105 142h102l-134 -142h-73z" />
    <glyph glyph-name="ibreve" unicode="&#x12d;" horiz-adv-x="227" 
d="M18 0l106 495h84l-106 -495h-84zM55 700h75q-7 -32 7 -61t54 -29q32 0 58.5 22.5t36.5 67.5h76q-14 -70 -62 -109t-109 -39q-41 0 -76 17.5t-52.5 50.5t-7.5 80z" />
    <glyph glyph-name="icircumflex" unicode="&#xee;" horiz-adv-x="227" 
d="M18 0l106 495h84l-106 -495h-84zM15 557l153 142h84l93 -142h-71l-71 98l-112 -98h-76z" />
    <glyph glyph-name="idieresis" unicode="&#xef;" horiz-adv-x="227" 
d="M18 0l106 495h84l-106 -495h-84zM42 561l21 99h76l-21 -99h-76zM231 561l21 99h76l-21 -99h-76z" />
    <glyph glyph-name="idieresis.ss01" horiz-adv-x="227" 
d="M18 0l106 495h84l-106 -495h-84zM51 629q0 24 18.5 41t40.5 17q23 0 37.5 -14.5t14.5 -36.5q0 -23 -18.5 -41t-42.5 -18q-22 0 -36 15t-14 37zM229 628q0 23 18.5 41t40.5 18q23 0 37.5 -15t14.5 -36q0 -25 -18.5 -42t-41.5 -17q-22 0 -36.5 14.5t-14.5 36.5z" />
    <glyph glyph-name="i.loclTRK" horiz-adv-x="227" 
d="M18 0l106 495h84l-106 -495h-84zM136 561l20 99h85l-21 -99h-84z" />
    <glyph glyph-name="i.loclTRK.ss01" horiz-adv-x="227" 
d="M18 0l106 495h84l-106 -495h-84zM134 611q0 27 18.5 45.5t43.5 18.5q23 0 38 -15.5t15 -38.5q0 -28 -19.5 -45.5t-43.5 -17.5q-23 0 -37.5 15t-14.5 38z" />
    <glyph glyph-name="igrave" unicode="&#xec;" horiz-adv-x="227" 
d="M18 0l106 495h84l-106 -495h-84zM54 699h96l45 -142h-67z" />
    <glyph glyph-name="ij" unicode="&#x133;" horiz-adv-x="457" 
d="M18 0l106 495h84l-106 -495h-84zM76 -173l15 68q14 -4 29.5 -6t31.5 -2q73 0 89 77l112 531h84l-112 -536q-14 -70 -52 -107t-103 -37q-25 0 -46.5 3.5t-47.5 8.5zM142 582l21 100h84l-20 -100h-85zM367 578l21 100h85l-21 -100h-85z" />
    <glyph glyph-name="ij.ss01" horiz-adv-x="453" 
d="M18 0l106 495h84l-106 -495h-84zM73 -173l14 68q27 -9 61 -9q74 0 90 79l112 530h84l-112 -536q-14 -70 -52 -107t-104 -37q-25 0 -46.5 3.5t-46.5 8.5zM134 611q0 27 18.5 45.5t43.5 18.5q23 0 38 -15.5t15 -38.5q0 -28 -19.5 -45.5t-43.5 -17.5q-23 0 -37.5 15
t-14.5 38zM357 611q0 27 18.5 45.5t43.5 18.5q23 0 38 -15.5t15 -38.5q0 -28 -19.5 -45.5t-43.5 -17.5q-23 0 -37.5 15t-14.5 38z" />
    <glyph glyph-name="imacron" unicode="&#x12b;" horiz-adv-x="227" 
d="M18 0l106 495h84l-106 -495h-84zM19 583l14 65h331l-14 -65h-331z" />
    <glyph glyph-name="iogonek" unicode="&#x12f;" horiz-adv-x="227" 
d="M143 582l21 100h84l-20 -100h-85zM-75 -108q0 33 24.5 66.5t72.5 55.5l103 481h84l-106 -495q-58 -18 -84 -43.5t-26 -47.5q0 -17 12 -23.5t26 -6.5q9 0 21 2.5t28 8.5l-13 -59q-15 -7 -31 -10t-27 -3q-41 0 -62.5 21.5t-21.5 52.5z" />
    <glyph glyph-name="iogonek.ss01" horiz-adv-x="227" 
d="M186 558q-23 0 -37.5 15t-14.5 38q0 27 18.5 45.5t43.5 18.5q23 0 38 -15.5t15 -38.5q0 -28 -19.5 -45.5t-43.5 -17.5zM-75 -109q0 32 24.5 66t72.5 56l103 482h84l-106 -495h-3l3 -1q-58 -18 -84 -43.5t-26 -47.5q0 -17 12 -23.5t26 -6.5q9 0 21 2.5t28 8.5l-13 -59
q-15 -7 -31 -10t-27 -3q-41 0 -62.5 21.5t-21.5 52.5z" />
    <glyph glyph-name="itilde" unicode="&#x129;" horiz-adv-x="227" 
d="M18 0l106 495h84l-106 -495h-84zM7 572q18 58 52.5 86.5t75.5 28.5q28 0 45 -11t33 -28q11 -11 22.5 -21.5t29.5 -10.5q20 0 36.5 16t25.5 41h54q-19 -58 -52.5 -86.5t-75.5 -28.5q-31 0 -50 14t-33 29q-11 12 -21.5 20t-26.5 8q-22 0 -37.5 -17t-24.5 -40h-53z" />
    <glyph glyph-name="j" unicode="j" horiz-adv-x="227" 
d="M-60 -185q-25 0 -46.5 3.5t-47.5 8.5l15 68q14 -4 29.5 -6t31.5 -2q73 0 89 77l112 531h84l-112 -536q-14 -70 -52 -107t-103 -37zM137 578l21 100h85l-21 -100h-85z" />
    <glyph glyph-name="j.small" horiz-adv-x="181" 
d="M-9 -128q-13 0 -29.5 2t-34.5 6l13 60q11 -2 22 -3t18 -1q26 0 39.5 12t18.5 35l77 361h83l-79 -369q-11 -55 -47 -79t-81 -24zM127 398l16 77h83l-16 -77h-83z" />
    <glyph glyph-name="j.smaller" horiz-adv-x="141" 
d="M1 -93q-13 0 -27.5 1.5t-28.5 5.5l12 55q14 -3 27 -3q31 0 38 30l55 260h83l-59 -277q-6 -29 -22.5 -45t-37.5 -21.5t-40 -5.5zM86 291l13 62h81l-13 -62h-81z" />
    <glyph glyph-name="j.ss01" horiz-adv-x="227" 
d="M-61 -185q-25 0 -46.5 3.5t-46.5 8.5l14 68q27 -9 61 -9q74 0 90 79l112 530h84l-112 -536q-14 -70 -52 -107t-104 -37zM131 611q0 27 18.5 45.5t43.5 18.5q23 0 38 -15.5t15 -38.5q0 -28 -19.5 -45.5t-43.5 -17.5q-23 0 -37.5 15t-14.5 38z" />
    <glyph glyph-name="uni0237" unicode="&#x237;" horiz-adv-x="227" 
d="M-61 -185q-25 0 -46.5 3.5t-46.5 8.5l14 68q27 -9 61 -9q74 0 90 79l112 530h84l-112 -536q-14 -70 -52 -107t-104 -37z" />
    <glyph glyph-name="uni006A0301" horiz-adv-x="227" 
d="M-61 -185q-25 0 -46.5 3.5t-46.5 8.5l14 68q27 -9 61 -9q74 0 90 79l112 530h84l-112 -536q-14 -70 -52 -107t-104 -37zM135 557l105 142h102l-134 -142h-73z" />
    <glyph glyph-name="jcircumflex" unicode="&#x135;" horiz-adv-x="227" 
d="M-61 -185q-25 0 -46.5 3.5t-46.5 8.5l14 68q27 -9 61 -9q74 0 90 79l112 530h84l-112 -536q-14 -70 -52 -107t-104 -37zM12 557l153 142h84l93 -142h-71l-71 98l-112 -98h-76z" />
    <glyph glyph-name="k" unicode="k" horiz-adv-x="490" 
d="M18 0l149 700h84l-87 -403l242 199h109l-235 -191l168 -305h-103l-131 249l-69 -55l-43 -194h-84z" />
    <glyph glyph-name="k.small" horiz-adv-x="383" 
d="M43 0l102 480h83l-55 -260l151 125h103l-162 -134l116 -211h-103l-79 157l-48 -39l-25 -118h-83z" />
    <glyph glyph-name="k.smaller" horiz-adv-x="308" 
d="M26 0l74 350h82l-38 -177l99 83h100l-122 -100l87 -156h-101l-50 102l-34 -28l-15 -74h-82z" />
    <glyph glyph-name="uni0137" unicode="&#x137;" horiz-adv-x="490" 
d="M18 0l149 700h84l-87 -403l242 199h109l-235 -191l168 -305h-103l-131 249l-69 -55l-43 -194h-84zM111 -271l73 90h-51l21 98h94l-17 -85l-52 -103h-68z" />
    <glyph glyph-name="uni0137.ss01" horiz-adv-x="490" 
d="M18 0l149 700h84l-87 -403l242 199h109l-235 -191l168 -305h-103l-131 249l-69 -55l-43 -194h-84zM117 -270l68 82q-22 1 -36 14.5t-14 34.5q0 24 16.5 42.5t41.5 18.5q24 0 38 -15t14 -38q0 -16 -8 -37.5t-17 -37.5l-37 -64h-66z" />
    <glyph glyph-name="uni0137.ss01.ss15" horiz-adv-x="490" 
d="M18 0l149 700h84l-87 -403l242 199h109l-235 -191l168 -305h-103l-131 249l-69 -55l-43 -194h-84zM100 -270l7 35q24 0 43.5 13.5t29.5 37.5q-18 1 -29.5 14t-11.5 33q0 25 18 41.5t41 16.5q21 0 36 -14.5t15 -40.5q0 -37 -19 -68t-52.5 -49.5t-77.5 -18.5z" />
    <glyph glyph-name="uni0137.ss15" horiz-adv-x="490" 
d="M18 0l149 700h84l-87 -403l242 199h109l-235 -191l168 -305h-103l-131 249l-69 -55l-43 -194h-84zM106 -270l8 34q28 0 44.5 11.5t23.5 48.5h-45l21 93h97l-18 -92q-13 -61 -44.5 -78.5t-86.5 -16.5z" />
    <glyph glyph-name="l" unicode="l" horiz-adv-x="227" 
d="M18 0l149 700h85l-149 -700h-85z" />
    <glyph glyph-name="l.small" horiz-adv-x="183" 
d="M43 0l102 480h83l-102 -480h-83z" />
    <glyph glyph-name="l.smaller" horiz-adv-x="147" 
d="M25 0l74 350h82l-74 -350h-82z" />
    <glyph glyph-name="l.ss05" horiz-adv-x="232" 
d="M53 0q-19 35 -17.5 69.5t10.5 77.5l118 553h85l-122 -579q-9 -40 -7.5 -65.5t23.5 -55.5h-90z" />
    <glyph glyph-name="l.ss05.small" horiz-adv-x="186" 
d="M69 0q-16 20 -15 46t8 57l80 377h84l-83 -388q-7 -31 -5 -48.5t19 -43.5h-88z" />
    <glyph glyph-name="l.ss05.smaller" horiz-adv-x="153" 
d="M48 0q-13 15 -13 33.5t5 46.5l57 270h82l-58 -276q-5 -25 -3.5 -39t15.5 -35h-85z" />
    <glyph glyph-name="lacute" unicode="&#x13a;" horiz-adv-x="227" 
d="M18 0l149 700h85l-149 -700h-85zM181 758l105 142h102l-134 -142h-73z" />
    <glyph glyph-name="lcaron" unicode="&#x13e;" horiz-adv-x="278" 
d="M18 0l149 700h85l-149 -700h-85zM291 511l73 91h-50l20 98h95l-17 -86l-53 -103h-68z" />
    <glyph glyph-name="lcaron.ss01" horiz-adv-x="283" 
d="M18 0l149 700h85l-149 -700h-85zM303 512l67 82q-21 2 -35.5 15.5t-14.5 34.5q0 24 17 42.5t42 18.5q24 0 38 -15t14 -38q0 -12 -5 -30.5t-20 -45.5l-37 -64h-66z" />
    <glyph glyph-name="lcaron.ss01.ss05" horiz-adv-x="263" 
d="M53 0q-19 35 -17.5 69.5t10.5 77.5l118 553h85l-122 -579q-9 -40 -7.5 -65.5t23.5 -55.5h-90zM303 512l67 82q-21 2 -35.5 15.5t-14.5 34.5q0 24 17 42.5t42 18.5q24 0 38 -15t14 -38q0 -12 -5 -30.5t-20 -45.5l-37 -64h-66z" />
    <glyph glyph-name="lcaron.ss01.ss05.ss15" horiz-adv-x="278" 
d="M53 0q-19 35 -17.5 69.5t10.5 77.5l118 553h85l-122 -579q-9 -40 -7.5 -65.5t23.5 -55.5h-90zM305 517l6 30q20 0 46 13.5t32 35.5h-6q-24 0 -35.5 14t-11.5 33q0 27 18 44t41 17q20 0 35.5 -13.5t15.5 -42.5q0 -26 -14.5 -56.5t-45.5 -52t-81 -22.5z" />
    <glyph glyph-name="lcaron.ss01.ss15" horiz-adv-x="299" 
d="M18 0l149 700h85l-149 -700h-85zM305 517l6 30q20 0 46 13.5t32 35.5h-6q-24 0 -35.5 14t-11.5 33q0 27 18 44t41 17q20 0 35.5 -13.5t15.5 -42.5q0 -26 -14.5 -56.5t-45.5 -52t-81 -22.5z" />
    <glyph glyph-name="lcaron.ss05" horiz-adv-x="257" 
d="M53 0q-19 35 -17.5 69.5t10.5 77.5l118 553h85l-122 -579q-9 -40 -7.5 -65.5t23.5 -55.5h-90zM291 511l73 91h-50l20 98h95l-17 -86l-53 -103h-68z" />
    <glyph glyph-name="lcaron.ss05.ss15" horiz-adv-x="259" 
d="M53 0q-19 35 -17.5 69.5t10.5 77.5l118 553h85l-122 -579q-9 -40 -7.5 -65.5t23.5 -55.5h-90zM290 511l10 36q23 0 39.5 10t21.5 38l2 10h-47l20 95h97l-18 -92q-11 -58 -41.5 -77.5t-83.5 -19.5z" />
    <glyph glyph-name="lcaron.ss15" horiz-adv-x="279" 
d="M18 0l149 700h85l-149 -700h-85zM290 511l10 36q23 0 39.5 10t21.5 38l2 10h-47l20 95h97l-18 -92q-11 -58 -41.5 -77.5t-83.5 -19.5z" />
    <glyph glyph-name="uni013C" unicode="&#x13c;" horiz-adv-x="227" 
d="M18 0l149 700h85l-149 -700h-85zM-46 -271l73 90h-51l21 98h94l-17 -85l-52 -103h-68z" />
    <glyph glyph-name="uni013C.loclMAH" horiz-adv-x="227" 
d="M18 0l149 700h85l-149 -700h-85zM-46 -271l73 90h-51l21 98h94l-17 -85l-52 -103h-68z" />
    <glyph glyph-name="uni013C.loclMAH.ss01" horiz-adv-x="227" 
d="M18 0l149 700h85l-149 -700h-85zM-41 -270l68 82q-22 1 -36 14.5t-14 34.5q0 24 16.5 42.5t41.5 18.5q24 0 38 -15t14 -38q0 -16 -8 -37.5t-17 -37.5l-37 -64h-66z" />
    <glyph glyph-name="uni013C.loclMAH.ss01.ss15" horiz-adv-x="227" 
d="M18 0l149 700h85l-149 -700h-85zM-57 -270l7 35q24 0 43.5 13.5t29.5 37.5q-18 1 -29.5 14t-11.5 33q0 25 18 41.5t41 16.5q21 0 36 -14.5t15 -40.5q0 -37 -19 -68t-52.5 -49.5t-77.5 -18.5z" />
    <glyph glyph-name="uni013C.loclMAH.ss15" horiz-adv-x="227" 
d="M18 0l149 700h85l-149 -700h-85zM-52 -270l8 34q28 0 44.5 11.5t23.5 48.5h-45l21 93h97l-18 -92q-13 -61 -44.5 -78.5t-86.5 -16.5z" />
    <glyph glyph-name="uni013C.ss01" horiz-adv-x="227" 
d="M18 0l149 700h85l-149 -700h-85zM-41 -270l68 82q-22 1 -36 14.5t-14 34.5q0 24 16.5 42.5t41.5 18.5q24 0 38 -15t14 -38q0 -16 -8 -37.5t-17 -37.5l-37 -64h-66z" />
    <glyph glyph-name="uni013C.ss01.ss15" horiz-adv-x="227" 
d="M18 0l149 700h85l-149 -700h-85zM-57 -270l7 35q24 0 43.5 13.5t29.5 37.5q-18 1 -29.5 14t-11.5 33q0 25 18 41.5t41 16.5q21 0 36 -14.5t15 -40.5q0 -37 -19 -68t-52.5 -49.5t-77.5 -18.5z" />
    <glyph glyph-name="uni013C.ss05" horiz-adv-x="232" 
d="M53 0q-19 35 -17.5 69.5t10.5 77.5l118 553h85l-122 -579q-9 -40 -7.5 -65.5t23.5 -55.5h-90zM-4 -271l73 90h-51l21 98h94l-17 -85l-52 -103h-68z" />
    <glyph glyph-name="uni013C.ss05.ss01" horiz-adv-x="232" 
d="M53 0q-19 35 -17.5 69.5t10.5 77.5l118 553h85l-122 -579q-9 -40 -7.5 -65.5t23.5 -55.5h-90zM2 -270l68 82q-22 1 -36 14.5t-14 34.5q0 24 16.5 42.5t41.5 18.5q24 0 38 -15t14 -38q0 -16 -8 -37.5t-17 -37.5l-37 -64h-66z" />
    <glyph glyph-name="uni013C.ss05.ss01.ss15" horiz-adv-x="232" 
d="M53 0q-19 35 -17.5 69.5t10.5 77.5l118 553h85l-122 -579q-9 -40 -7.5 -65.5t23.5 -55.5h-90zM-15 -270l7 35q24 0 43.5 13.5t29.5 37.5q-18 1 -29.5 14t-11.5 33q0 25 18 41.5t41 16.5q21 0 36 -14.5t15 -40.5q0 -37 -19 -68t-52.5 -49.5t-77.5 -18.5z" />
    <glyph glyph-name="uni013C.ss05.ss15" horiz-adv-x="232" 
d="M53 0q-19 35 -17.5 69.5t10.5 77.5l118 553h85l-122 -579q-9 -40 -7.5 -65.5t23.5 -55.5h-90zM-9 -270l8 34q28 0 44.5 11.5t23.5 48.5h-45l21 93h97l-18 -92q-13 -61 -44.5 -78.5t-86.5 -16.5z" />
    <glyph glyph-name="uni013C.ss15" horiz-adv-x="227" 
d="M18 0l149 700h85l-149 -700h-85zM-52 -270l8 34q28 0 44.5 11.5t23.5 48.5h-45l21 93h97l-18 -92q-13 -61 -44.5 -78.5t-86.5 -16.5z" />
    <glyph glyph-name="ldot" unicode="&#x140;" horiz-adv-x="324" 
d="M18 0l149 700h85l-149 -700h-85zM226 279l30 142h105l-31 -142h-104z" />
    <glyph glyph-name="ldot.ss01" horiz-adv-x="297" 
d="M18 0l149 700h85l-149 -700h-85zM201 349q0 23 18.5 44.5t51.5 21.5q27 0 43.5 -17t16.5 -41q0 -28 -18.5 -49t-49.5 -21q-27 0 -44.5 18t-17.5 44z" />
    <glyph glyph-name="ldot.ss05" horiz-adv-x="380" 
d="M53 0q-19 35 -17.5 69.5t10.5 77.5l118 553h85l-122 -579q-9 -40 -7.5 -65.5t23.5 -55.5h-90zM256 279l30 142h105l-31 -142h-104z" />
    <glyph glyph-name="ldot.ss05.ss01" horiz-adv-x="353" 
d="M53 0q-19 35 -17.5 69.5t10.5 77.5l118 553h85l-122 -579q-9 -40 -7.5 -65.5t23.5 -55.5h-90zM231 349q0 23 18.5 44.5t51.5 21.5q27 0 43.5 -17t16.5 -41q0 -28 -18.5 -49t-49.5 -21q-27 0 -44.5 18t-17.5 44z" />
    <glyph glyph-name="lslash" unicode="&#x142;" horiz-adv-x="336" 
d="M69 0l58 274l-110 -57l15 79l112 57l74 347h84l-65 -303l120 62l-15 -80l-122 -64l-67 -315h-84z" />
    <glyph glyph-name="lslash.ss05" horiz-adv-x="365" 
d="M104 0q-19 35 -17.5 69.5t10.5 77.5l27 127l-106 -54l15 80l108 55l74 345h85l-64 -303l158 83l-15 -80l-160 -84l-41 -195q-9 -40 -7.5 -65.5t23.5 -55.5h-90z" />
    <glyph glyph-name="m" unicode="m" horiz-adv-x="822" 
d="M684 309q7 31 4.5 61.5t-21 51t-60.5 20.5q-58 0 -91.5 -39t-48.5 -102l-65 -301h-83l64 309q8 36 5 66t-21.5 48.5t-60.5 18.5q-58 0 -92 -40.5t-49 -105.5l-62 -296h-83l103 495h84l-11 -52q53 64 132 64q62 0 95.5 -26.5t44.5 -65.5q26 44 65 68t89 24
q64 0 99.5 -29.5t47 -74.5t1.5 -93l-67 -310h-84z" />
    <glyph glyph-name="m.small" horiz-adv-x="594" 
d="M507 208q10 44 -2.5 62t-38.5 18q-35 0 -59 -25.5t-33 -70.5h-1l-40 -192h-82l44 208q10 45 -3.5 62.5t-39.5 17.5q-36 0 -59 -26.5t-32 -69.5l-41 -192h-82l72 344h83l-10 -46q44 55 110 55q37 0 61.5 -18.5t28.5 -54.5q45 73 122 73q51 0 76.5 -34t11.5 -98l-47 -221
h-83z" />
    <glyph glyph-name="m.smaller" horiz-adv-x="459" 
d="M375 148q10 51 -25 51q-41 0 -54 -54l-31 -145h-82l31 148q6 28 -1.5 39.5t-24.5 11.5q-19 0 -32.5 -14t-20.5 -37l-32 -148h-81l54 256h82l-8 -36q34 43 85 43q61 0 67 -55q35 55 93 55q41 0 59 -26.5t7 -73.5l-35 -163h-82z" />
    <glyph glyph-name="n" unicode="n" horiz-adv-x="550" 
d="M19 0l104 495h84l-14 -72q30 40 70 62t89 22q62 0 97.5 -30t46.5 -75t1 -92l-66 -310h-85l66 309q7 35 1.5 65t-27.5 49t-66 19q-65 0 -103.5 -45t-52.5 -109l-61 -288h-84z" />
    <glyph glyph-name="n.small" horiz-adv-x="407" 
d="M42 0l73 344h82l-11 -53q47 62 121 62q57 0 81.5 -36t11.5 -96l-46 -221h-83l44 208q17 81 -49 81q-37 0 -64 -25.5t-36 -71.5l-41 -192h-83z" />
    <glyph glyph-name="n.smaller" horiz-adv-x="315" 
d="M25 0l54 256h82l-9 -41q35 48 91 48q43 0 61.5 -27t8.5 -73l-34 -163h-82l31 148q5 23 -1.5 37t-29.5 14q-21 0 -37.5 -14.5t-22.5 -44.5l-30 -140h-82z" />
    <glyph glyph-name="nacute" unicode="&#x144;" horiz-adv-x="550" 
d="M19 0l104 495h84l-14 -72q30 40 70 62t89 22q62 0 97.5 -30t46.5 -75t1 -92l-66 -310h-85l66 309q7 35 1.5 65t-27.5 49t-66 19q-65 0 -103.5 -45t-52.5 -109l-61 -288h-84zM325 557l105 142h102l-134 -142h-73z" />
    <glyph glyph-name="napostrophe" unicode="&#x149;" horiz-adv-x="634" 
d="M103 0l104 495h84l-14 -72q30 40 70 62t89 22q62 0 97.5 -30t46.5 -75t1 -92l-66 -310h-85l66 309q7 35 1.5 65t-27.5 49t-66 19q-65 0 -103.5 -45t-52.5 -109l-61 -288h-84zM35 422l91 135h-58l30 143h105l-29 -140l-55 -138h-84z" />
    <glyph glyph-name="napostrophe.ss01" horiz-adv-x="604" 
d="M74 0l104 495h84l-14 -72q30 40 70 62t89 22q62 0 97.5 -30t46.5 -75t1 -92l-66 -310h-85l66 309q7 35 1.5 65t-27.5 49t-66 19q-65 0 -103.5 -45t-52.5 -109l-61 -288h-84zM32 458l83 124q-25 2 -43 18.5t-18 41.5q0 29 21 49.5t49 20.5t44.5 -18t16.5 -45
q0 -20 -9.5 -45t-18.5 -43l-49 -103h-76z" />
    <glyph glyph-name="napostrophe.ss01.ss15" horiz-adv-x="647" 
d="M116 0l104 495h84l-14 -72q30 40 70 62t89 22q62 0 97.5 -30t46.5 -75t1 -92l-66 -310h-85l66 309q7 35 1.5 65t-27.5 49t-66 19q-65 0 -103.5 -45t-52.5 -109l-61 -288h-84zM54 455l8 42q73 1 101 89q-24 -1 -38.5 16.5t-14.5 39.5q0 30 21 49.5t49 19.5
q26 0 43.5 -17.5t17.5 -46.5q0 -19 -10 -50.5t-32 -64t-57.5 -55t-87.5 -22.5z" />
    <glyph glyph-name="napostrophe.ss15" horiz-adv-x="649" 
d="M118 0l104 495h84l-14 -72q30 40 70 62t89 22q62 0 97.5 -30t46.5 -75t1 -92l-66 -310h-85l66 309q7 35 1.5 65t-27.5 49t-66 19q-65 0 -103.5 -45t-52.5 -109l-61 -288h-84zM45 426l9 41q33 0 53 16.5t27 53.5l5 21h-42l30 142h105l-30 -142l-1 -3q-13 -62 -53.5 -95.5
t-102.5 -33.5z" />
    <glyph glyph-name="ncaron" unicode="&#x148;" horiz-adv-x="550" 
d="M19 0l104 495h84l-14 -72q30 40 70 62t89 22q62 0 97.5 -30t46.5 -75t1 -92l-66 -310h-85l66 309q7 35 1.5 65t-27.5 49t-66 19q-65 0 -103.5 -45t-52.5 -109l-61 -288h-84zM231 699h71l70 -99l114 99h75l-153 -142h-84z" />
    <glyph glyph-name="uni0146" unicode="&#x146;" horiz-adv-x="550" 
d="M19 0l104 495h84l-14 -72q30 40 70 62t89 22q62 0 97.5 -30t46.5 -75t1 -92l-66 -310h-85l66 309q7 35 1.5 65t-27.5 49t-66 19q-65 0 -103.5 -45t-52.5 -109l-61 -288h-84zM125 -271l73 90h-51l21 98h94l-17 -85l-52 -103h-68z" />
    <glyph glyph-name="uni0146.loclMAH" horiz-adv-x="550" 
d="M19 0l104 495h84l-14 -72q30 40 70 62t89 22q62 0 97.5 -30t46.5 -75t1 -92l-66 -310h-85l66 309q7 35 1.5 65t-27.5 49t-66 19q-65 0 -103.5 -45t-52.5 -109l-61 -288h-84zM125 -271l73 90h-51l21 98h94l-17 -85l-52 -103h-68z" />
    <glyph glyph-name="uni0146.loclMAH.ss01" horiz-adv-x="550" 
d="M19 0l104 495h84l-14 -72q30 40 70 62t89 22q62 0 97.5 -30t46.5 -75t1 -92l-66 -310h-85l66 309q7 35 1.5 65t-27.5 49t-66 19q-65 0 -103.5 -45t-52.5 -109l-61 -288h-84zM130 -270l68 82q-22 1 -36 14.5t-14 34.5q0 24 16.5 42.5t41.5 18.5q24 0 38 -15t14 -38
q0 -16 -8 -37.5t-17 -37.5l-37 -64h-66z" />
    <glyph glyph-name="uni0146.loclMAH.ss01.ss15" horiz-adv-x="550" 
d="M19 0l104 495h84l-14 -72q30 40 70 62t89 22q62 0 97.5 -30t46.5 -75t1 -92l-66 -310h-85l66 309q7 35 1.5 65t-27.5 49t-66 19q-65 0 -103.5 -45t-52.5 -109l-61 -288h-84zM114 -270l7 35q24 0 43.5 13.5t29.5 37.5q-18 1 -29.5 14t-11.5 33q0 25 18 41.5t41 16.5
q21 0 36 -14.5t15 -40.5q0 -37 -19 -68t-52.5 -49.5t-77.5 -18.5z" />
    <glyph glyph-name="uni0146.loclMAH.ss15" horiz-adv-x="550" 
d="M19 0l104 495h84l-14 -72q30 40 70 62t89 22q62 0 97.5 -30t46.5 -75t1 -92l-66 -310h-85l66 309q7 35 1.5 65t-27.5 49t-66 19q-65 0 -103.5 -45t-52.5 -109l-61 -288h-84zM119 -270l8 34q28 0 44.5 11.5t23.5 48.5h-45l21 93h97l-18 -92q-13 -61 -44.5 -78.5
t-86.5 -16.5z" />
    <glyph glyph-name="uni0146.ss01" horiz-adv-x="550" 
d="M19 0l104 495h84l-14 -72q30 40 70 62t89 22q62 0 97.5 -30t46.5 -75t1 -92l-66 -310h-85l66 309q7 35 1.5 65t-27.5 49t-66 19q-65 0 -103.5 -45t-52.5 -109l-61 -288h-84zM130 -270l68 82q-22 1 -36 14.5t-14 34.5q0 24 16.5 42.5t41.5 18.5q24 0 38 -15t14 -38
q0 -16 -8 -37.5t-17 -37.5l-37 -64h-66z" />
    <glyph glyph-name="uni0146.ss01.ss15" horiz-adv-x="550" 
d="M19 0l104 495h84l-14 -72q30 40 70 62t89 22q62 0 97.5 -30t46.5 -75t1 -92l-66 -310h-85l66 309q7 35 1.5 65t-27.5 49t-66 19q-65 0 -103.5 -45t-52.5 -109l-61 -288h-84zM114 -270l7 35q24 0 43.5 13.5t29.5 37.5q-18 1 -29.5 14t-11.5 33q0 25 18 41.5t41 16.5
q21 0 36 -14.5t15 -40.5q0 -37 -19 -68t-52.5 -49.5t-77.5 -18.5z" />
    <glyph glyph-name="uni0146.ss15" horiz-adv-x="550" 
d="M19 0l104 495h84l-14 -72q30 40 70 62t89 22q62 0 97.5 -30t46.5 -75t1 -92l-66 -310h-85l66 309q7 35 1.5 65t-27.5 49t-66 19q-65 0 -103.5 -45t-52.5 -109l-61 -288h-84zM119 -270l8 34q28 0 44.5 11.5t23.5 48.5h-45l21 93h97l-18 -92q-13 -61 -44.5 -78.5
t-86.5 -16.5z" />
    <glyph glyph-name="ntilde" unicode="&#xf1;" horiz-adv-x="550" 
d="M19 0l104 495h84l-14 -72q30 40 70 62t89 22q62 0 97.5 -30t46.5 -75t1 -92l-66 -310h-85l66 309q7 35 1.5 65t-27.5 49t-66 19q-65 0 -103.5 -45t-52.5 -109l-61 -288h-84zM194 572q18 58 52.5 86.5t75.5 28.5q28 0 45 -11t33 -28q11 -11 22.5 -21.5t29.5 -10.5
q20 0 36.5 16t25.5 41h54q-19 -58 -52.5 -86.5t-75.5 -28.5q-31 0 -50 14t-33 29q-11 12 -21.5 20t-26.5 8q-22 0 -37.5 -17t-24.5 -40h-53z" />
    <glyph glyph-name="eng" unicode="&#x14b;" horiz-adv-x="548" 
d="M260 -187q-37 0 -90 12l10 69q19 -6 36.5 -8t28.5 -2q75 0 91 78l72 343q8 36 5 67t-23.5 50t-65.5 19q-62 0 -105 -41.5t-58 -115.5l-58 -284h-84l104 495h84l-17 -80q29 44 68.5 68t92.5 24q51 0 82 -19t47 -49t18.5 -64t-3.5 -65l-75 -354q-14 -70 -53 -106.5
t-107 -36.5z" />
    <glyph glyph-name="o" unicode="o" horiz-adv-x="530" 
d="M235 -10q-98 0 -152.5 54t-54.5 147q0 60 18.5 116t53.5 101.5t86 72t116 26.5q98 0 152 -54t54 -147q0 -59 -18.5 -115.5t-54 -102t-86 -72t-114.5 -26.5zM115 186q0 -61 30 -95.5t85 -34.5q50 0 86.5 26t59.5 66t34 84t11 79q0 60 -30 95t-86 35q-51 0 -87.5 -26
t-59 -66.5t-33 -84t-10.5 -78.5z" />
    <glyph glyph-name="o.small" horiz-adv-x="398" 
d="M192 -9q-67 0 -104.5 36t-37.5 97q0 63 28 115t77 83t111 31q68 0 104.5 -35t36.5 -96q0 -62 -28 -115t-76.5 -84.5t-110.5 -31.5zM135 132q0 -38 17.5 -60t49.5 -22q35 0 62 23.5t42.5 61.5t15.5 79q0 38 -18 59t-51 21t-60 -23t-42.5 -60t-15.5 -79z" />
    <glyph glyph-name="o.smaller" horiz-adv-x="307" 
d="M147 -7q-53 0 -83.5 27t-30.5 74t22 85t60 61t87 23q54 0 83 -26.5t29 -73.5q0 -46 -21.5 -84.5t-59.5 -62t-86 -23.5zM115 99q0 -51 43 -51q21 0 38 16t27 41t10 52q0 23 -11 37t-31 14q-33 0 -54.5 -33.5t-21.5 -75.5z" />
    <glyph glyph-name="oacute" unicode="&#xf3;" horiz-adv-x="553" 
d="M235 -10q-98 0 -152.5 54t-54.5 147q0 60 18.5 116t53.5 101.5t86 72t116 26.5q98 0 152 -54t54 -147q0 -59 -18.5 -115.5t-54 -102t-86 -72t-114.5 -26.5zM115 186q0 -61 30 -95.5t85 -34.5q50 0 86.5 26t59.5 66t34 84t11 79q0 60 -30 95t-86 35q-51 0 -87.5 -26
t-59 -66.5t-33 -84t-10.5 -78.5zM292 557l105 142h102l-134 -142h-73z" />
    <glyph glyph-name="obreve" unicode="&#x14f;" horiz-adv-x="553" 
d="M235 -10q-98 0 -152.5 54t-54.5 147q0 60 18.5 116t53.5 101.5t86 72t116 26.5q98 0 152 -54t54 -147q0 -59 -18.5 -115.5t-54 -102t-86 -72t-114.5 -26.5zM115 186q0 -61 30 -95.5t85 -34.5q50 0 86.5 26t59.5 66t34 84t11 79q0 60 -30 95t-86 35q-51 0 -87.5 -26
t-59 -66.5t-33 -84t-10.5 -78.5zM210 700h75q-7 -32 7 -61t54 -29q32 0 58.5 22.5t36.5 67.5h76q-14 -70 -62 -109t-109 -39q-41 0 -76 17.5t-52.5 50.5t-7.5 80z" />
    <glyph glyph-name="ocircumflex" unicode="&#xf4;" horiz-adv-x="553" 
d="M235 -10q-98 0 -152.5 54t-54.5 147q0 60 18.5 116t53.5 101.5t86 72t116 26.5q98 0 152 -54t54 -147q0 -59 -18.5 -115.5t-54 -102t-86 -72t-114.5 -26.5zM115 186q0 -61 30 -95.5t85 -34.5q50 0 86.5 26t59.5 66t34 84t11 79q0 60 -30 95t-86 35q-51 0 -87.5 -26
t-59 -66.5t-33 -84t-10.5 -78.5zM169 557l153 142h84l93 -142h-71l-71 98l-112 -98h-76z" />
    <glyph glyph-name="odieresis" unicode="&#xf6;" horiz-adv-x="553" 
d="M235 -10q-98 0 -152.5 54t-54.5 147q0 60 18.5 116t53.5 101.5t86 72t116 26.5q98 0 152 -54t54 -147q0 -59 -18.5 -115.5t-54 -102t-86 -72t-114.5 -26.5zM115 186q0 -61 30 -95.5t85 -34.5q50 0 86.5 26t59.5 66t34 84t11 79q0 60 -30 95t-86 35q-51 0 -87.5 -26
t-59 -66.5t-33 -84t-10.5 -78.5zM197 561l21 99h76l-21 -99h-76zM386 561l21 99h76l-21 -99h-76z" />
    <glyph glyph-name="odieresis.ss01" horiz-adv-x="553" 
d="M235 -10q-98 0 -152.5 54t-54.5 147q0 60 18.5 116t53.5 101.5t86 72t116 26.5q98 0 152 -54t54 -147q0 -59 -18.5 -115.5t-54 -102t-86 -72t-114.5 -26.5zM115 186q0 -61 30 -95.5t85 -34.5q50 0 86.5 26t59.5 66t34 84t11 79q0 60 -30 95t-86 35q-51 0 -87.5 -26
t-59 -66.5t-33 -84t-10.5 -78.5zM205 629q0 24 18.5 41t40.5 17q23 0 37.5 -14.5t14.5 -36.5q0 -23 -18.5 -41t-42.5 -18q-22 0 -36 15t-14 37zM383 628q0 23 18.5 41t40.5 18q23 0 37.5 -15t14.5 -36q0 -25 -18.5 -42t-41.5 -17q-22 0 -36.5 14.5t-14.5 36.5z" />
    <glyph glyph-name="ograve" unicode="&#xf2;" horiz-adv-x="553" 
d="M235 -10q-98 0 -152.5 54t-54.5 147q0 60 18.5 116t53.5 101.5t86 72t116 26.5q98 0 152 -54t54 -147q0 -59 -18.5 -115.5t-54 -102t-86 -72t-114.5 -26.5zM115 186q0 -61 30 -95.5t85 -34.5q50 0 86.5 26t59.5 66t34 84t11 79q0 60 -30 95t-86 35q-51 0 -87.5 -26
t-59 -66.5t-33 -84t-10.5 -78.5zM209 699h96l45 -142h-67z" />
    <glyph glyph-name="ohungarumlaut" unicode="&#x151;" horiz-adv-x="553" 
d="M235 -10q-98 0 -152.5 54t-54.5 147q0 60 18.5 116t53.5 101.5t86 72t116 26.5q98 0 152 -54t54 -147q0 -59 -18.5 -115.5t-54 -102t-86 -72t-114.5 -26.5zM115 186q0 -61 30 -95.5t85 -34.5q50 0 86.5 26t59.5 66t34 84t11 79q0 60 -30 95t-86 35q-51 0 -87.5 -26
t-59 -66.5t-33 -84t-10.5 -78.5zM233 557l76 142h91l-103 -142h-64zM371 557l95 142h92l-123 -142h-64z" />
    <glyph glyph-name="omacron" unicode="&#x14d;" horiz-adv-x="553" 
d="M235 -10q-98 0 -152.5 54t-54.5 147q0 60 18.5 116t53.5 101.5t86 72t116 26.5q98 0 152 -54t54 -147q0 -59 -18.5 -115.5t-54 -102t-86 -72t-114.5 -26.5zM115 186q0 -61 30 -95.5t85 -34.5q50 0 86.5 26t59.5 66t34 84t11 79q0 60 -30 95t-86 35q-51 0 -87.5 -26
t-59 -66.5t-33 -84t-10.5 -78.5zM174 583l14 65h331l-14 -65h-331z" />
    <glyph glyph-name="oslash" unicode="&#xf8;" horiz-adv-x="556" 
d="M242 -12q-88 0 -141 50l-40 -38h-64l76 73q-33 53 -33 131q0 53 16 106.5t49 98t83.5 71.5t119.5 27q100 0 154 -60l50 48h66l-90 -86q12 -24 18.5 -53t6.5 -64q0 -57 -18 -111.5t-52.5 -98t-85 -69t-115.5 -25.5zM125 199q0 -19 3 -35.5t7 -30.5l269 258q-32 46 -97 46
q-48 0 -82 -23t-56.5 -59.5t-33 -78t-10.5 -77.5zM158 93q16 -16 37.5 -25.5t49.5 -9.5q48 0 82.5 24t56.5 62t33 79.5t11 76.5q0 13 -1.5 24.5t-3.5 22.5z" />
    <glyph glyph-name="oslashacute" unicode="&#x1ff;" horiz-adv-x="556" 
d="M242 -12q-88 0 -141 50l-40 -38h-64l76 73q-33 53 -33 131q0 53 16 106.5t49 98t83.5 71.5t119.5 27q100 0 154 -60l50 48h66l-90 -86q12 -24 18.5 -53t6.5 -64q0 -57 -18 -111.5t-52.5 -98t-85 -69t-115.5 -25.5zM125 199q0 -19 3 -35.5t7 -30.5l269 258q-32 46 -97 46
q-48 0 -82 -23t-56.5 -59.5t-33 -78t-10.5 -77.5zM158 93q16 -16 37.5 -25.5t49.5 -9.5q48 0 82.5 24t56.5 62t33 79.5t11 76.5q0 13 -1.5 24.5t-3.5 22.5zM301 557l105 142h102l-134 -142h-73z" />
    <glyph glyph-name="otilde" unicode="&#xf5;" horiz-adv-x="553" 
d="M235 -10q-98 0 -152.5 54t-54.5 147q0 60 18.5 116t53.5 101.5t86 72t116 26.5q98 0 152 -54t54 -147q0 -59 -18.5 -115.5t-54 -102t-86 -72t-114.5 -26.5zM115 186q0 -61 30 -95.5t85 -34.5q50 0 86.5 26t59.5 66t34 84t11 79q0 60 -30 95t-86 35q-51 0 -87.5 -26
t-59 -66.5t-33 -84t-10.5 -78.5zM161 572q18 58 52.5 86.5t75.5 28.5q28 0 45 -11t33 -28q11 -11 22.5 -21.5t29.5 -10.5q20 0 36.5 16t25.5 41h54q-19 -58 -52.5 -86.5t-75.5 -28.5q-31 0 -50 14t-33 29q-11 12 -21.5 20t-26.5 8q-22 0 -37.5 -17t-24.5 -40h-53z" />
    <glyph glyph-name="oe" unicode="&#x153;" horiz-adv-x="922" 
d="M235 -10q-98 0 -152.5 54t-54.5 147q0 60 18.5 116t53.5 101.5t86 72t116 26.5q72 0 120.5 -30t70.5 -83q35 50 88.5 81t122.5 31q58 0 95.5 -18.5t58 -49.5t27.5 -67.5t4 -73.5t-12 -68h-359q-6 -25 -4.5 -54.5t14 -56t37.5 -43t64 -16.5q49 0 85.5 27.5t55.5 76.5h87
q-32 -89 -94 -131.5t-136 -42.5q-69 0 -115 30.5t-67 82.5q-35 -50 -88.5 -81t-121.5 -31zM115 186q0 -61 30 -95.5t85 -34.5q50 0 86.5 26t59.5 66t34 84t11 79q0 60 -30 95t-86 35q-51 0 -87.5 -26t-59 -66.5t-33 -84t-10.5 -78.5zM533 297h273q6 38 -4 70t-35 51.5
t-68 19.5q-39 0 -73 -18.5t-58.5 -50t-34.5 -72.5z" />
    <glyph glyph-name="oe.ss03" horiz-adv-x="924" 
d="M235 -10q-98 0 -152.5 54t-54.5 147q0 60 18.5 116t53.5 101.5t86 72t116 26.5q73 0 122 -30t69 -85q38 51 93.5 83t125.5 32q67 0 106.5 -27.5t57.5 -71.5t18 -92q0 -47 -14 -89h-362q-9 -39 -2.5 -79t33 -67t76.5 -27t87 28.5t61 71.5l69 -38q-29 -58 -88 -93t-132 -35
q-68 0 -113 30t-65 82q-35 -49 -88 -79.5t-121 -30.5zM115 186q0 -61 30 -95.5t85 -34.5q50 0 86.5 26t59.5 66t34 84t11 79q0 60 -30 95t-86 35q-51 0 -87.5 -26t-59 -66.5t-33 -84t-10.5 -78.5zM533 295h273q6 37 -3.5 70t-34.5 54.5t-68 21.5q-39 0 -73 -20t-58.5 -53
t-35.5 -73z" />
    <glyph glyph-name="p" unicode="p" horiz-adv-x="576" 
d="M363 505q80 0 128.5 -55t48.5 -147q0 -51 -17 -106t-49.5 -103t-80 -77.5t-109.5 -29.5q-60 0 -103.5 29.5t-58.5 72.5l-60 -294h-84l144 699h84l-21 -93q32 52 79.5 78t98.5 26zM149 193q-1 -36 8.5 -69t35 -54t70.5 -21q51 0 87.5 26.5t59.5 67t33.5 84t10.5 77.5
q0 62 -30.5 97t-86.5 35q-47 0 -82 -23.5t-58 -61t-35 -79.5t-13 -79z" />
    <glyph glyph-name="p.small" horiz-adv-x="427" 
d="M316 353q53 0 84.5 -35t31.5 -94q0 -61 -26 -114t-69.5 -86t-96.5 -33q-37 0 -64.5 16.5t-38.5 45.5l-40 -188h-82l102 479h81l-13 -61q25 34 59.5 52t71.5 18zM157 135q-1 -37 15.5 -61.5t53.5 -24.5q33 0 59.5 23t42 60.5t15.5 79.5q0 38 -17.5 59t-50.5 21
q-31 0 -57.5 -21.5t-43 -57t-17.5 -78.5z" />
    <glyph glyph-name="p.smaller" horiz-adv-x="326" 
d="M5 -94l74 350h81l-8 -39q38 46 94 46q41 0 63.5 -26t22.5 -70q0 -46 -19 -85.5t-51.5 -64t-73.5 -24.5q-55 0 -74 40l-28 -127h-81zM129 99q-1 -24 8.5 -39t31.5 -15q21 0 38 16t26.5 41t9.5 53q0 50 -41 50q-29 0 -50.5 -31.5t-22.5 -74.5z" />
    <glyph glyph-name="thorn" unicode="&#xfe;" horiz-adv-x="578" 
d="M-16 -168l182 868h84l-62 -282q31 42 77 65.5t95 23.5q82 0 131.5 -55t49.5 -147q0 -55 -18 -111t-51.5 -103t-80.5 -75t-105 -28q-62 0 -105.5 31.5t-57.5 78.5l-56 -266h-83zM147 187q0 -60 30 -95.5t85 -35.5q51 0 87.5 26.5t60 67t34.5 84.5t11 79q0 61 -30 96.5
t-86 35.5q-52 0 -88.5 -27t-59.5 -68t-33.5 -85t-10.5 -78z" />
    <glyph glyph-name="q" unicode="q" horiz-adv-x="579" 
d="M292 507q62 0 105.5 -31.5t57.5 -78.5l23 98h83l-149 -700h-84l62 280q-31 -41 -76.5 -64t-94.5 -23q-82 0 -132 55.5t-50 146.5q0 56 18 111.5t51.5 102.5t80.5 75t105 28zM123 182q0 -61 30 -96.5t86 -35.5q49 0 84.5 25t58.5 64t35 81.5t13 77.5q2 61 -26 101t-88 40
q-51 0 -87.5 -26.5t-60 -67.5t-34.5 -84.5t-11 -78.5z" />
    <glyph glyph-name="q.small" horiz-adv-x="426" 
d="M259 -135l39 186q-49 -60 -126 -60q-54 0 -86 35t-32 94q0 60 26 113.5t69.5 86.5t95.5 33q38 0 65.5 -19t37.5 -51l13 61h83l-102 -479h-83zM142 128q0 -37 17.5 -58t50.5 -21q32 0 58 21.5t42.5 57t17.5 78.5q2 37 -14.5 61.5t-52.5 24.5q-33 0 -60 -23.5t-43 -61
t-16 -79.5z" />
    <glyph glyph-name="q.smaller" horiz-adv-x="327" 
d="M187 -94l27 128q-16 -19 -40.5 -30t-50.5 -11q-42 0 -65.5 26t-23.5 69q0 46 19.5 85.5t52 64.5t71.5 25q57 0 75 -48l9 41h82l-74 -350h-82zM122 96q0 -51 42 -51q29 0 51 32t23 74q2 54 -41 54q-21 0 -38 -16t-27 -40.5t-10 -52.5z" />
    <glyph glyph-name="r" unicode="r" horiz-adv-x="371" 
d="M20 0l102 495h84l-20 -97q25 49 62.5 75t94.5 26q33 0 58 -7l-18 -79q-13 5 -28.5 7t-26.5 2q-64 0 -106 -33t-62 -119l-55 -270h-85z" />
    <glyph glyph-name="r.small" horiz-adv-x="284" 
d="M42 0l73 344h82l-17 -83q19 39 49 62t77 23h14t14 -2l-17 -78q-17 5 -38 5q-37 0 -69 -18.5t-47 -69.5l-38 -183h-83z" />
    <glyph glyph-name="r.smaller" horiz-adv-x="228" 
d="M25 0l54 256h82l-13 -63q14 29 37 47t57 18q5 0 11.5 -0.5t11.5 -1.5l-17 -75q-12 4 -34 4t-45.5 -11t-34.5 -45l-27 -129h-82z" />
    <glyph glyph-name="racute" unicode="&#x155;" horiz-adv-x="371" 
d="M20 0l102 495h84l-20 -97q25 49 62.5 75t94.5 26q33 0 58 -7l-18 -79q-13 5 -28.5 7t-26.5 2q-64 0 -106 -33t-62 -119l-55 -270h-85zM208 557l105 142h102l-134 -142h-73z" />
    <glyph glyph-name="rcaron" unicode="&#x159;" horiz-adv-x="371" 
d="M20 0l102 495h84l-20 -97q25 49 62.5 75t94.5 26q33 0 58 -7l-18 -79q-13 5 -28.5 7t-26.5 2q-64 0 -106 -33t-62 -119l-55 -270h-85zM115 699h71l70 -99l114 99h75l-153 -142h-84z" />
    <glyph glyph-name="uni0157" unicode="&#x157;" horiz-adv-x="371" 
d="M20 0l102 495h84l-20 -97q25 49 62.5 75t94.5 26q33 0 58 -7l-18 -79q-13 5 -28.5 7t-26.5 2q-64 0 -106 -33t-62 -119l-55 -270h-85zM-44 -271l73 90h-51l21 98h94l-17 -85l-52 -103h-68z" />
    <glyph glyph-name="uni0157.ss01" horiz-adv-x="371" 
d="M20 0l102 495h84l-20 -97q25 49 62.5 75t94.5 26q33 0 58 -7l-18 -79q-13 5 -28.5 7t-26.5 2q-64 0 -106 -33t-62 -119l-55 -270h-85zM-39 -270l68 82q-22 1 -36 14.5t-14 34.5q0 24 16.5 42.5t41.5 18.5q24 0 38 -15t14 -38q0 -16 -8 -37.5t-17 -37.5l-37 -64h-66z" />
    <glyph glyph-name="uni0157.ss01.ss15" horiz-adv-x="371" 
d="M20 0l102 495h84l-20 -97q25 49 62.5 75t94.5 26q33 0 58 -7l-18 -79q-13 5 -28.5 7t-26.5 2q-64 0 -106 -33t-62 -119l-55 -270h-85zM-55 -270l7 35q24 0 43.5 13.5t29.5 37.5q-18 1 -29.5 14t-11.5 33q0 25 18 41.5t41 16.5q21 0 36 -14.5t15 -40.5q0 -37 -19 -68
t-52.5 -49.5t-77.5 -18.5z" />
    <glyph glyph-name="uni0157.ss15" horiz-adv-x="371" 
d="M20 0l102 495h84l-20 -97q25 49 62.5 75t94.5 26q33 0 58 -7l-18 -79q-13 5 -28.5 7t-26.5 2q-64 0 -106 -33t-62 -119l-55 -270h-85zM-50 -270l8 34q28 0 44.5 11.5t23.5 48.5h-45l21 93h97l-18 -92q-13 -61 -44.5 -78.5t-86.5 -16.5z" />
    <glyph glyph-name="s" unicode="s" horiz-adv-x="474" 
d="M203 -11q-61 0 -107 23t-68 62.5t-13 88.5h86q-6 -34 7.5 -59.5t40 -39.5t58.5 -14q35 0 63 14.5t44.5 37.5t16.5 51q0 24 -24.5 37t-79.5 29q-46 14 -82 29t-56.5 37.5t-20.5 57.5q0 48 29.5 85t78.5 58t105 21q57 0 97 -19.5t58 -54t8 -79.5h-83q9 42 -15.5 67
t-70.5 25q-29 0 -56.5 -11.5t-44.5 -31.5t-17 -45q0 -21 17 -35t45 -24.5t60 -19.5q40 -11 71.5 -25t50 -35.5t18.5 -56.5q0 -50 -29 -89.5t-77.5 -61.5t-109.5 -22z" />
    <glyph glyph-name="s.small" horiz-adv-x="341" 
d="M166 -7q-73 0 -108.5 34t-25.5 83h82q-7 -31 14 -48t49 -17q32 0 55 17t23 42q0 16 -16 24t-51 15q-55 11 -87.5 29t-32.5 54t23 65t62 45.5t86 16.5q68 0 98.5 -30.5t20.5 -77.5h-79q5 28 -10.5 42t-41.5 14q-31 0 -53 -15.5t-22 -37.5q0 -18 17 -26.5t45 -14.5
q56 -10 91 -26t35 -55t-23 -69t-62 -47t-89 -17z" />
    <glyph glyph-name="s.smaller" horiz-adv-x="272" 
d="M132 -5q-63 0 -90 26t-20 63h78q-4 -20 9 -32t33 -12t34.5 10t14.5 26q0 11 -11 16.5t-34 9.5q-46 8 -72.5 22t-26.5 42q0 43 39.5 71.5t100.5 28.5q60 0 83 -25.5t16 -59.5h-77q4 20 -5.5 29.5t-28.5 9.5t-33 -10t-14 -24q0 -18 37 -24q53 -10 80.5 -21.5t27.5 -42.5
q0 -45 -39.5 -74t-101.5 -29z" />
    <glyph glyph-name="sacute" unicode="&#x15b;" horiz-adv-x="474" 
d="M203 -11q-61 0 -107 23t-68 62.5t-13 88.5h86q-6 -34 7.5 -59.5t40 -39.5t58.5 -14q35 0 63 14.5t44.5 37.5t16.5 51q0 24 -24.5 37t-79.5 29q-46 14 -82 29t-56.5 37.5t-20.5 57.5q0 48 29.5 85t78.5 58t105 21q57 0 97 -19.5t58 -54t8 -79.5h-83q9 42 -15.5 67
t-70.5 25q-29 0 -56.5 -11.5t-44.5 -31.5t-17 -45q0 -21 17 -35t45 -24.5t60 -19.5q40 -11 71.5 -25t50 -35.5t18.5 -56.5q0 -50 -29 -89.5t-77.5 -61.5t-109.5 -22zM262 557l105 142h102l-134 -142h-73z" />
    <glyph glyph-name="scaron" unicode="&#x161;" horiz-adv-x="474" 
d="M203 -11q-61 0 -107 23t-68 62.5t-13 88.5h86q-6 -34 7.5 -59.5t40 -39.5t58.5 -14q35 0 63 14.5t44.5 37.5t16.5 51q0 24 -24.5 37t-79.5 29q-46 14 -82 29t-56.5 37.5t-20.5 57.5q0 48 29.5 85t78.5 58t105 21q57 0 97 -19.5t58 -54t8 -79.5h-83q9 42 -15.5 67
t-70.5 25q-29 0 -56.5 -11.5t-44.5 -31.5t-17 -45q0 -21 17 -35t45 -24.5t60 -19.5q40 -11 71.5 -25t50 -35.5t18.5 -56.5q0 -50 -29 -89.5t-77.5 -61.5t-109.5 -22zM168 699h71l70 -99l114 99h75l-153 -142h-84z" />
    <glyph glyph-name="scedilla" unicode="&#x15f;" horiz-adv-x="474" 
d="M195 -220q-35 0 -66.5 17t-47.5 42l38 38q11 -16 33 -28t42 -12q24 0 38.5 16t14.5 35q0 17 -11.5 25.5t-25.5 8.5q-13 0 -25.5 -4t-25.5 -11l-44 30l48 55q-50 7 -86.5 31t-53 60.5t-8.5 79.5h86q-6 -34 7.5 -59.5t40 -39.5t58.5 -14q35 0 63 14.5t44.5 37.5t16.5 51
q0 24 -24.5 37t-79.5 29q-46 14 -82 29t-56.5 37.5t-20.5 57.5q0 48 29.5 85t78.5 58t105 21q57 0 97 -19.5t58 -54t8 -79.5h-83q9 42 -15.5 67t-70.5 25q-29 0 -56.5 -11.5t-44.5 -31.5t-17 -45q0 -21 17 -35t45 -24.5t60 -19.5q40 -11 71.5 -25t50 -35.5t18.5 -56.5
q0 -47 -25 -84t-68 -60t-97 -28l-43 -43q13 7 26 9.5t24 2.5q34 0 56 -19t22 -53q0 -44 -34 -75.5t-85 -31.5z" />
    <glyph glyph-name="scircumflex" unicode="&#x15d;" horiz-adv-x="474" 
d="M203 -11q-61 0 -107 23t-68 62.5t-13 88.5h86q-6 -34 7.5 -59.5t40 -39.5t58.5 -14q35 0 63 14.5t44.5 37.5t16.5 51q0 24 -24.5 37t-79.5 29q-46 14 -82 29t-56.5 37.5t-20.5 57.5q0 48 29.5 85t78.5 58t105 21q57 0 97 -19.5t58 -54t8 -79.5h-83q9 42 -15.5 67
t-70.5 25q-29 0 -56.5 -11.5t-44.5 -31.5t-17 -45q0 -21 17 -35t45 -24.5t60 -19.5q40 -11 71.5 -25t50 -35.5t18.5 -56.5q0 -50 -29 -89.5t-77.5 -61.5t-109.5 -22zM139 557l153 142h84l93 -142h-71l-71 98l-112 -98h-76z" />
    <glyph glyph-name="uni0219" unicode="&#x219;" horiz-adv-x="474" 
d="M203 -11q-61 0 -107 23t-68 62.5t-13 88.5h86q-6 -34 7.5 -59.5t40 -39.5t58.5 -14q35 0 63 14.5t44.5 37.5t16.5 51q0 24 -24.5 37t-79.5 29q-46 14 -82 29t-56.5 37.5t-20.5 57.5q0 48 29.5 85t78.5 58t105 21q57 0 97 -19.5t58 -54t8 -79.5h-83q9 42 -15.5 67
t-70.5 25q-29 0 -56.5 -11.5t-44.5 -31.5t-17 -45q0 -21 17 -35t45 -24.5t60 -19.5q40 -11 71.5 -25t50 -35.5t18.5 -56.5q0 -50 -29 -89.5t-77.5 -61.5t-109.5 -22zM95 -271l73 90h-51l21 98h94l-17 -85l-52 -103h-68z" />
    <glyph glyph-name="uni0219.ss01" horiz-adv-x="474" 
d="M203 -11q-61 0 -107 23t-68 62.5t-13 88.5h86q-6 -34 7.5 -59.5t40 -39.5t58.5 -14q35 0 63 14.5t44.5 37.5t16.5 51q0 24 -24.5 37t-79.5 29q-46 14 -82 29t-56.5 37.5t-20.5 57.5q0 48 29.5 85t78.5 58t105 21q57 0 97 -19.5t58 -54t8 -79.5h-83q9 42 -15.5 67
t-70.5 25q-29 0 -56.5 -11.5t-44.5 -31.5t-17 -45q0 -21 17 -35t45 -24.5t60 -19.5q40 -11 71.5 -25t50 -35.5t18.5 -56.5q0 -50 -29 -89.5t-77.5 -61.5t-109.5 -22zM100 -270l68 82q-22 1 -36 14.5t-14 34.5q0 24 16.5 42.5t41.5 18.5q24 0 38 -15t14 -38q0 -16 -8 -37.5
t-17 -37.5l-37 -64h-66z" />
    <glyph glyph-name="uni0219.ss01.ss15" horiz-adv-x="474" 
d="M203 -11q-61 0 -107 23t-68 62.5t-13 88.5h86q-6 -34 7.5 -59.5t40 -39.5t58.5 -14q35 0 63 14.5t44.5 37.5t16.5 51q0 24 -24.5 37t-79.5 29q-46 14 -82 29t-56.5 37.5t-20.5 57.5q0 48 29.5 85t78.5 58t105 21q57 0 97 -19.5t58 -54t8 -79.5h-83q9 42 -15.5 67
t-70.5 25q-29 0 -56.5 -11.5t-44.5 -31.5t-17 -45q0 -21 17 -35t45 -24.5t60 -19.5q40 -11 71.5 -25t50 -35.5t18.5 -56.5q0 -50 -29 -89.5t-77.5 -61.5t-109.5 -22zM84 -270l7 35q24 0 43.5 13.5t29.5 37.5q-18 1 -29.5 14t-11.5 33q0 25 18 41.5t41 16.5q21 0 36 -14.5
t15 -40.5q0 -37 -19 -68t-52.5 -49.5t-77.5 -18.5z" />
    <glyph glyph-name="uni0219.ss15" horiz-adv-x="474" 
d="M203 -11q-61 0 -107 23t-68 62.5t-13 88.5h86q-6 -34 7.5 -59.5t40 -39.5t58.5 -14q35 0 63 14.5t44.5 37.5t16.5 51q0 24 -24.5 37t-79.5 29q-46 14 -82 29t-56.5 37.5t-20.5 57.5q0 48 29.5 85t78.5 58t105 21q57 0 97 -19.5t58 -54t8 -79.5h-83q9 42 -15.5 67
t-70.5 25q-29 0 -56.5 -11.5t-44.5 -31.5t-17 -45q0 -21 17 -35t45 -24.5t60 -19.5q40 -11 71.5 -25t50 -35.5t18.5 -56.5q0 -50 -29 -89.5t-77.5 -61.5t-109.5 -22zM89 -270l8 34q28 0 44.5 11.5t23.5 48.5h-45l21 93h97l-18 -92q-13 -61 -44.5 -78.5t-86.5 -16.5z" />
    <glyph glyph-name="germandbls" unicode="&#xdf;" horiz-adv-x="578" 
d="M311 -12q-26 0 -62 8.5t-67 31.5l15 68q22 -14 48.5 -23t52.5 -9q44 0 76 23t49 57.5t17 68.5q0 41 -23.5 66.5t-63 38t-89.5 12.5h-16l14 60h10q58 0 102.5 22t70 58.5t25.5 79.5q0 41 -25.5 67.5t-72.5 26.5q-62 0 -106 -47t-63 -133l-98 -464h-86l99 474
q24 117 91.5 176.5t160.5 59.5q59 0 100.5 -21.5t63 -58t21.5 -80.5q0 -47 -21.5 -82.5t-54 -59.5t-66 -36t-57.5 -12q22 -2 50.5 -10t56 -25.5t45.5 -47t18 -74.5q0 -54 -28 -103t-76.5 -80.5t-110.5 -31.5z" />
    <glyph glyph-name="t" unicode="t" horiz-adv-x="376" 
d="M246 -12q-66 0 -99.5 21t-41.5 58t2 85l58 274h-116l14 69h116l54 136h60l-29 -136h127l-15 -69h-126l-61 -288q-4 -21 -2 -39.5t17.5 -30t50.5 -11.5q27 0 55 6l-10 -72q-31 -3 -54 -3z" />
    <glyph glyph-name="t.small" horiz-adv-x="280" 
d="M188 -9q-45 0 -71.5 23.5t-14.5 79.5l40 189h-77l13 61h77l37 94h65l-20 -94h83l-13 -61h-83l-38 -180q-10 -49 40 -49q6 0 17.5 1t22.5 3l-13 -60q-18 -4 -35 -5.5t-30 -1.5z" />
    <glyph glyph-name="t.smaller" horiz-adv-x="217" 
d="M139 -7q-19 0 -38 6t-28.5 22t-3.5 45l28 134h-52l12 56h52l28 68h68l-14 -68h56l-12 -56h-56l-25 -118q-3 -14 2.5 -22t23.5 -8q13 0 28 3l-12 -55q-16 -4 -30 -5.5t-27 -1.5z" />
    <glyph glyph-name="tbar" unicode="&#x167;" horiz-adv-x="386" 
d="M250 -12q-66 0 -99.5 21t-41.5 58t2 85l13 64h-93l13 65h94l31 145h-116l14 69h116l54 136h60l-29 -136h127l-15 -69h-126l-31 -145h148l-14 -65h-148l-16 -78q-4 -21 -2 -39.5t17.5 -30t50.5 -11.5q27 0 55 6l-10 -72q-31 -3 -54 -3z" />
    <glyph glyph-name="tcaron" unicode="&#x165;" horiz-adv-x="376" 
d="M246 -12q-66 0 -99.5 21t-41.5 58t2 85l58 274h-116l14 69h116l54 136h60l-29 -136h127l-15 -69h-126l-61 -288q-4 -21 -2 -39.5t17.5 -30t50.5 -11.5q27 0 55 6l-10 -72q-31 -3 -54 -3zM314 549l73 91h-50l20 98h95l-17 -86l-53 -103h-68z" />
    <glyph glyph-name="tcaron.ss01" horiz-adv-x="376" 
d="M246 -12q-66 0 -99.5 21t-41.5 58t2 85l58 274h-116l14 69h116l54 136h60l-29 -136h127l-15 -69h-126l-61 -288q-4 -21 -2 -39.5t17.5 -30t50.5 -11.5q27 0 55 6l-10 -72q-31 -3 -54 -3zM326 550l67 82q-21 2 -35.5 15.5t-14.5 34.5q0 24 17 42.5t42 18.5q24 0 38 -15
t14 -38q0 -12 -5 -30.5t-20 -45.5l-37 -64h-66z" />
    <glyph glyph-name="tcaron.ss01.ss15" horiz-adv-x="376" 
d="M246 -12q-66 0 -99.5 21t-41.5 58t2 85l58 274h-116l14 69h116l54 136h60l-29 -136h127l-15 -69h-126l-61 -288q-4 -21 -2 -39.5t17.5 -30t50.5 -11.5q27 0 55 6l-10 -72q-31 -3 -54 -3zM311 554l6 30q20 0 46 13.5t32 35.5h-6q-24 0 -35.5 14t-11.5 33q0 27 18 44t41 17
q20 0 35.5 -13.5t15.5 -42.5q0 -26 -14.5 -56.5t-45.5 -52t-81 -22.5z" />
    <glyph glyph-name="tcaron.ss15" horiz-adv-x="376" 
d="M246 -12q-66 0 -99.5 21t-41.5 58t2 85l58 274h-116l14 69h116l54 136h60l-29 -136h127l-15 -69h-126l-61 -288q-4 -21 -2 -39.5t17.5 -30t50.5 -11.5q27 0 55 6l-10 -72q-31 -3 -54 -3zM308 549l10 36q23 0 39.5 10t21.5 38l2 10h-47l20 95h97l-18 -92
q-11 -58 -41.5 -77.5t-83.5 -19.5z" />
    <glyph glyph-name="uni0163" unicode="&#x163;" horiz-adv-x="376" 
d="M246 -12h-15l-41 -41q13 7 26 9.5t24 2.5q34 0 56 -19t22 -53q0 -44 -34 -75.5t-85 -31.5q-35 0 -66.5 17t-47.5 42l38 38q11 -16 33 -28t42 -12q24 0 38.5 16t14.5 35q0 17 -11.5 25.5t-25.5 8.5q-13 0 -25.5 -4t-25.5 -11l-44 30l53 61q-51 17 -63.5 58t-1.5 96l58 274
h-116l14 69h116l54 136h60l-29 -136h127l-15 -69h-126l-61 -288q-4 -21 -2 -39.5t17.5 -30t50.5 -11.5q27 0 55 6l-10 -72q-31 -3 -54 -3z" />
    <glyph glyph-name="uni021B" unicode="&#x21b;" horiz-adv-x="376" 
d="M246 -12q-66 0 -99.5 21t-41.5 58t2 85l58 274h-116l14 69h116l54 136h60l-29 -136h127l-15 -69h-126l-61 -288q-4 -21 -2 -39.5t17.5 -30t50.5 -11.5q27 0 55 6l-10 -72q-31 -3 -54 -3zM99 -271l73 90h-51l21 98h94l-17 -85l-52 -103h-68z" />
    <glyph glyph-name="uni021B.ss01" horiz-adv-x="376" 
d="M246 -12q-66 0 -99.5 21t-41.5 58t2 85l58 274h-116l14 69h116l54 136h60l-29 -136h127l-15 -69h-126l-61 -288q-4 -21 -2 -39.5t17.5 -30t50.5 -11.5q27 0 55 6l-10 -72q-31 -3 -54 -3zM104 -270l68 82q-22 1 -36 14.5t-14 34.5q0 24 16.5 42.5t41.5 18.5q24 0 38 -15
t14 -38q0 -16 -8 -37.5t-17 -37.5l-37 -64h-66z" />
    <glyph glyph-name="uni021B.ss01.ss15" horiz-adv-x="376" 
d="M246 -12q-66 0 -99.5 21t-41.5 58t2 85l58 274h-116l14 69h116l54 136h60l-29 -136h127l-15 -69h-126l-61 -288q-4 -21 -2 -39.5t17.5 -30t50.5 -11.5q27 0 55 6l-10 -72q-31 -3 -54 -3zM88 -270l7 35q24 0 43.5 13.5t29.5 37.5q-18 1 -29.5 14t-11.5 33q0 25 18 41.5
t41 16.5q21 0 36 -14.5t15 -40.5q0 -37 -19 -68t-52.5 -49.5t-77.5 -18.5z" />
    <glyph glyph-name="uni021B.ss15" horiz-adv-x="376" 
d="M246 -12q-66 0 -99.5 21t-41.5 58t2 85l58 274h-116l14 69h116l54 136h60l-29 -136h127l-15 -69h-126l-61 -288q-4 -21 -2 -39.5t17.5 -30t50.5 -11.5q27 0 55 6l-10 -72q-31 -3 -54 -3zM93 -270l8 34q28 0 44.5 11.5t23.5 48.5h-45l21 93h97l-18 -92
q-13 -61 -44.5 -78.5t-86.5 -16.5z" />
    <glyph glyph-name="u" unicode="u" horiz-adv-x="550" 
d="M531 495l-104 -495h-84l14 72q-30 -40 -69.5 -62t-89.5 -22q-62 0 -97 30t-46.5 75.5t-1.5 91.5l66 310h85l-66 -309q-7 -34 -1.5 -64.5t28 -49.5t65.5 -19q65 0 104 45t52 109l61 288h84z" />
    <glyph glyph-name="u.small" horiz-adv-x="408" 
d="M424 344l-73 -344h-83l11 53q-46 -62 -120 -62q-57 0 -81.5 36t-12.5 97l47 220h83l-44 -207q-8 -39 3.5 -60.5t45.5 -21.5q37 0 64 25.5t36 71.5l41 192h83z" />
    <glyph glyph-name="u.smaller" horiz-adv-x="315" 
d="M330 256l-54 -256h-82l9 40q-35 -47 -91 -47q-43 0 -61.5 27t-8.5 73l35 163h82l-32 -148q-4 -24 2.5 -38t28.5 -14t38.5 16t21.5 44l30 140h82z" />
    <glyph glyph-name="uacute" unicode="&#xfa;" horiz-adv-x="550" 
d="M530 495l-104 -495h-84l14 72q-30 -40 -69.5 -62t-89.5 -22q-62 0 -97 30t-46.5 75.5t-1.5 91.5l66 310h85l-66 -309q-7 -34 -1.5 -64.5t28 -49.5t65.5 -19q65 0 104 45t52 109l61 288h84zM290 557l105 142h102l-134 -142h-73z" />
    <glyph glyph-name="ubreve" unicode="&#x16d;" horiz-adv-x="550" 
d="M530 495l-104 -495h-84l14 72q-30 -40 -69.5 -62t-89.5 -22q-62 0 -97 30t-46.5 75.5t-1.5 91.5l66 310h85l-66 -309q-7 -34 -1.5 -64.5t28 -49.5t65.5 -19q65 0 104 45t52 109l61 288h84zM208 700h75q-7 -32 7 -61t54 -29q32 0 58.5 22.5t36.5 67.5h76q-14 -70 -62 -109
t-109 -39q-41 0 -76 17.5t-52.5 50.5t-7.5 80z" />
    <glyph glyph-name="ucircumflex" unicode="&#xfb;" horiz-adv-x="550" 
d="M530 495l-104 -495h-84l14 72q-30 -40 -69.5 -62t-89.5 -22q-62 0 -97 30t-46.5 75.5t-1.5 91.5l66 310h85l-66 -309q-7 -34 -1.5 -64.5t28 -49.5t65.5 -19q65 0 104 45t52 109l61 288h84zM167 557l153 142h84l93 -142h-71l-71 98l-112 -98h-76z" />
    <glyph glyph-name="udieresis" unicode="&#xfc;" horiz-adv-x="550" 
d="M530 495l-104 -495h-84l14 72q-30 -40 -69.5 -62t-89.5 -22q-62 0 -97 30t-46.5 75.5t-1.5 91.5l66 310h85l-66 -309q-7 -34 -1.5 -64.5t28 -49.5t65.5 -19q65 0 104 45t52 109l61 288h84zM195 561l21 99h76l-21 -99h-76zM384 561l21 99h76l-21 -99h-76z" />
    <glyph glyph-name="udieresis.ss01" horiz-adv-x="550" 
d="M530 495l-104 -495h-84l14 72q-30 -40 -69.5 -62t-89.5 -22q-62 0 -97 30t-46.5 75.5t-1.5 91.5l66 310h85l-66 -309q-7 -34 -1.5 -64.5t28 -49.5t65.5 -19q65 0 104 45t52 109l61 288h84zM204 629q0 24 18.5 41t40.5 17q23 0 37.5 -14.5t14.5 -36.5q0 -23 -18.5 -41
t-42.5 -18q-22 0 -36 15t-14 37zM382 628q0 23 18.5 41t40.5 18q23 0 37.5 -15t14.5 -36q0 -25 -18.5 -42t-41.5 -17q-22 0 -36.5 14.5t-14.5 36.5z" />
    <glyph glyph-name="ugrave" unicode="&#xf9;" horiz-adv-x="550" 
d="M530 495l-104 -495h-84l14 72q-30 -40 -69.5 -62t-89.5 -22q-62 0 -97 30t-46.5 75.5t-1.5 91.5l66 310h85l-66 -309q-7 -34 -1.5 -64.5t28 -49.5t65.5 -19q65 0 104 45t52 109l61 288h84zM207 699h96l45 -142h-67z" />
    <glyph glyph-name="uhungarumlaut" unicode="&#x171;" horiz-adv-x="550" 
d="M530 495l-104 -495h-84l14 72q-30 -40 -69.5 -62t-89.5 -22q-62 0 -97 30t-46.5 75.5t-1.5 91.5l66 310h85l-66 -309q-7 -34 -1.5 -64.5t28 -49.5t65.5 -19q65 0 104 45t52 109l61 288h84zM231 557l76 142h91l-103 -142h-64zM369 557l95 142h92l-123 -142h-64z" />
    <glyph glyph-name="umacron" unicode="&#x16b;" horiz-adv-x="550" 
d="M530 495l-104 -495h-84l14 72q-30 -40 -69.5 -62t-89.5 -22q-62 0 -97 30t-46.5 75.5t-1.5 91.5l66 310h85l-66 -309q-7 -34 -1.5 -64.5t28 -49.5t65.5 -19q65 0 104 45t52 109l61 288h84zM172 583l14 65h331l-14 -65h-331z" />
    <glyph glyph-name="uogonek" unicode="&#x173;" horiz-adv-x="548" 
d="M530 495l-104 -495h-8q-58 -18 -84 -43.5t-26 -47.5q0 -17 12 -23.5t26 -6.5q9 0 21 2.5t28 8.5l-13 -59q-15 -7 -31 -10t-27 -3q-41 0 -62.5 21.5t-21.5 52.5q0 34 26.5 69t78.5 57l11 54q-30 -40 -69.5 -62t-89.5 -22q-62 0 -97 30t-46.5 75.5t-1.5 91.5l66 310h85
l-66 -309q-7 -34 -1.5 -64.5t28 -49.5t65.5 -19q65 0 104 45t52 109l61 288h84z" />
    <glyph glyph-name="uring" unicode="&#x16f;" horiz-adv-x="550" 
d="M530 495l-104 -495h-84l14 72q-30 -40 -69.5 -62t-89.5 -22q-62 0 -97 30t-46.5 75.5t-1.5 91.5l66 310h85l-66 -309q-7 -34 -1.5 -64.5t28 -49.5t65.5 -19q65 0 104 45t52 109l61 288h84zM245 650q0 34 17 60.5t44.5 41.5t59.5 15q43 0 71 -26t28 -67q0 -34 -16.5 -60.5
t-44 -42t-60.5 -15.5q-43 0 -71 26.5t-28 67.5zM300 651q0 -19 12.5 -32.5t32.5 -13.5q26 0 45 20t19 47q0 20 -12.5 33t-32.5 13q-25 0 -44.5 -20t-19.5 -47z" />
    <glyph glyph-name="utilde" unicode="&#x169;" horiz-adv-x="550" 
d="M530 495l-104 -495h-84l14 72q-30 -40 -69.5 -62t-89.5 -22q-62 0 -97 30t-46.5 75.5t-1.5 91.5l66 310h85l-66 -309q-7 -34 -1.5 -64.5t28 -49.5t65.5 -19q65 0 104 45t52 109l61 288h84zM159 572q18 58 52.5 86.5t75.5 28.5q28 0 45 -11t33 -28q11 -11 22.5 -21.5
t29.5 -10.5q20 0 36.5 16t25.5 41h54q-19 -58 -52.5 -86.5t-75.5 -28.5q-31 0 -50 14t-33 29q-11 12 -21.5 20t-26.5 8q-22 0 -37.5 -17t-24.5 -40h-53z" />
    <glyph glyph-name="v" unicode="v" horiz-adv-x="507" 
d="M149 0l-75 495h85l58 -409l233 409h88l-287 -495h-102z" />
    <glyph glyph-name="v.small" horiz-adv-x="382" 
d="M132 0l-52 344h85l35 -267l148 267h84l-196 -344h-104z" />
    <glyph glyph-name="v.smaller" horiz-adv-x="299" 
d="M90 0l-36 256h83l21 -183l100 183h82l-144 -256h-106z" />
    <glyph glyph-name="w" unicode="w" horiz-adv-x="757" 
d="M439 0l-28 400l-205 -400h-110l-18 495h87l9 -402l202 402h108l26 -408l181 408h90l-228 -495h-114z" />
    <glyph glyph-name="w.small" horiz-adv-x="554" 
d="M338 0l-16 243l-125 -243h-98l-13 344h83l1 -264l130 264h89l12 -270l115 270h83l-159 -344h-102z" />
    <glyph glyph-name="w.smaller" horiz-adv-x="424" 
d="M247 0l-9 151l-79 -151h-90l-10 255h80l-4 -182l88 182h77l4 -185l76 185h79l-117 -255h-95z" />
    <glyph glyph-name="wacute" unicode="&#x1e83;" horiz-adv-x="757" 
d="M439 0l-28 400l-205 -400h-110l-18 495h87l9 -402l202 402h108l26 -408l181 408h90l-228 -495h-114zM402 557l105 142h102l-134 -142h-73z" />
    <glyph glyph-name="wcircumflex" unicode="&#x175;" horiz-adv-x="757" 
d="M439 0l-28 400l-205 -400h-110l-18 495h87l9 -402l202 402h108l26 -408l181 408h90l-228 -495h-114zM279 557l153 142h84l93 -142h-71l-71 98l-112 -98h-76z" />
    <glyph glyph-name="wdieresis" unicode="&#x1e85;" horiz-adv-x="757" 
d="M439 0l-28 400l-205 -400h-110l-18 495h87l9 -402l202 402h108l26 -408l181 408h90l-228 -495h-114zM306 561l21 99h76l-21 -99h-76zM495 561l21 99h76l-21 -99h-76z" />
    <glyph glyph-name="wdieresis.ss01" horiz-adv-x="757" 
d="M439 0l-28 400l-205 -400h-110l-18 495h87l9 -402l202 402h108l26 -408l181 408h90l-228 -495h-114zM315 629q0 24 18.5 41t40.5 17q23 0 37.5 -14.5t14.5 -36.5q0 -23 -18.5 -41t-42.5 -18q-22 0 -36 15t-14 37zM493 628q0 23 18.5 41t40.5 18q23 0 37.5 -15t14.5 -36
q0 -25 -18.5 -42t-41.5 -17q-22 0 -36.5 14.5t-14.5 36.5z" />
    <glyph glyph-name="wgrave" unicode="&#x1e81;" horiz-adv-x="757" 
d="M439 0l-28 400l-205 -400h-110l-18 495h87l9 -402l202 402h108l26 -408l181 408h90l-228 -495h-114zM318 699h96l45 -142h-67z" />
    <glyph glyph-name="x" unicode="x" horiz-adv-x="479" 
d="M-50 0l238 256l-120 239h97l87 -178l166 178h104l-231 -247l125 -248h-97l-92 188l-176 -188h-101z" />
    <glyph glyph-name="x.small" horiz-adv-x="368" 
d="M-1 0l167 177l-85 167h93l53 -115l104 115h95l-163 -170l88 -174h-93l-57 119l-108 -119h-94z" />
    <glyph glyph-name="x.smaller" horiz-adv-x="290" 
d="M-8 0l125 131l-62 125h91l30 -78l69 78h91l-123 -127l65 -129h-90l-34 79l-70 -79h-92z" />
    <glyph glyph-name="y" unicode="y" horiz-adv-x="509" 
d="M42 -185q-19 0 -47.5 3.5t-51.5 8.5l13 73q23 -4 40 -6t33 -2q41 0 68 19.5t48 56.5l17 29l-96 498h91l66 -389l220 389h93l-299 -525q-46 -82 -90.5 -118.5t-104.5 -36.5z" />
    <glyph glyph-name="y.small" horiz-adv-x="376" 
d="M58 -129q-14 0 -31.5 2t-28.5 4l14 68q17 -3 28.5 -4t18.5 -1q28 0 47 10t33 35l10 19l-73 340h87l45 -236l133 236h84l-201 -352q-34 -62 -70.5 -91.5t-95.5 -29.5z" />
    <glyph glyph-name="y.smaller" horiz-adv-x="291" 
d="M45 -94q-15 0 -26 1.5t-20 2.5l14 64q11 -2 19.5 -2.5t15.5 -0.5q20 0 34 6t22 22l5 9l-57 248h83l30 -148l83 148h81l-145 -255q-16 -28 -33 -49.5t-42 -33.5t-64 -12z" />
    <glyph glyph-name="yacute" unicode="&#xfd;" horiz-adv-x="509" 
d="M42 -185q-19 0 -47.5 3.5t-51.5 8.5l13 73q23 -4 40 -6t33 -2q41 0 68 19.5t48 56.5l17 29l-96 498h91l66 -389l220 389h93l-299 -525q-46 -82 -90.5 -118.5t-104.5 -36.5zM268 557l105 142h102l-134 -142h-73z" />
    <glyph glyph-name="ycircumflex" unicode="&#x177;" horiz-adv-x="509" 
d="M42 -185q-19 0 -47.5 3.5t-51.5 8.5l13 73q23 -4 40 -6t33 -2q41 0 68 19.5t48 56.5l17 29l-96 498h91l66 -389l220 389h93l-299 -525q-46 -82 -90.5 -118.5t-104.5 -36.5zM145 557l153 142h84l93 -142h-71l-71 98l-112 -98h-76z" />
    <glyph glyph-name="ydieresis" unicode="&#xff;" horiz-adv-x="509" 
d="M42 -185q-19 0 -47.5 3.5t-51.5 8.5l13 73q23 -4 40 -6t33 -2q41 0 68 19.5t48 56.5l17 29l-96 498h91l66 -389l220 389h93l-299 -525q-46 -82 -90.5 -118.5t-104.5 -36.5zM173 561l21 99h76l-21 -99h-76zM362 561l21 99h76l-21 -99h-76z" />
    <glyph glyph-name="ydieresis.ss01" horiz-adv-x="509" 
d="M42 -185q-19 0 -47.5 3.5t-51.5 8.5l13 73q23 -4 40 -6t33 -2q41 0 68 19.5t48 56.5l17 29l-96 498h91l66 -389l220 389h93l-299 -525q-46 -82 -90.5 -118.5t-104.5 -36.5zM182 629q0 24 18.5 41t40.5 17q23 0 37.5 -14.5t14.5 -36.5q0 -23 -18.5 -41t-42.5 -18
q-22 0 -36 15t-14 37zM360 628q0 23 18.5 41t40.5 18q23 0 37.5 -15t14.5 -36q0 -25 -18.5 -42t-41.5 -17q-22 0 -36.5 14.5t-14.5 36.5z" />
    <glyph glyph-name="ygrave" unicode="&#x1ef3;" horiz-adv-x="509" 
d="M42 -185q-19 0 -47.5 3.5t-51.5 8.5l13 73q23 -4 40 -6t33 -2q41 0 68 19.5t48 56.5l17 29l-96 498h91l66 -389l220 389h93l-299 -525q-46 -82 -90.5 -118.5t-104.5 -36.5zM185 699h96l45 -142h-67z" />
    <glyph glyph-name="uni0233" unicode="&#x233;" horiz-adv-x="509" 
d="M42 -185q-19 0 -47.5 3.5t-51.5 8.5l13 73q23 -4 40 -6t33 -2q41 0 68 19.5t48 56.5l17 29l-96 498h91l66 -389l220 389h93l-299 -525q-46 -82 -90.5 -118.5t-104.5 -36.5zM150 583l14 65h331l-14 -65h-331z" />
    <glyph glyph-name="uni1EF9" unicode="&#x1ef9;" horiz-adv-x="509" 
d="M42 -185q-19 0 -47.5 3.5t-51.5 8.5l13 73q23 -4 40 -6t33 -2q41 0 68 19.5t48 56.5l17 29l-96 498h91l66 -389l220 389h93l-299 -525q-46 -82 -90.5 -118.5t-104.5 -36.5zM137 572q18 58 52.5 86.5t75.5 28.5q28 0 45 -11t33 -28q11 -11 22.5 -21.5t29.5 -10.5
q20 0 36.5 16t25.5 41h54q-19 -58 -52.5 -86.5t-75.5 -28.5q-31 0 -50 14t-33 29q-11 12 -21.5 20t-26.5 8q-22 0 -37.5 -17t-24.5 -40h-53z" />
    <glyph glyph-name="z" unicode="z" horiz-adv-x="461" 
d="M-16 0l15 72l370 354h-294l15 69h386l-15 -73l-370 -354h294l-15 -68h-386z" />
    <glyph glyph-name="z.small" horiz-adv-x="340" 
d="M24 0l14 64l237 218h-191l13 62h279l-14 -63l-236 -220h190l-13 -61h-279z" />
    <glyph glyph-name="z.smaller" horiz-adv-x="258" 
d="M14 0l13 59l158 140h-129l12 57h217l-13 -58l-158 -141h128l-12 -57h-216z" />
    <glyph glyph-name="zacute" unicode="&#x17a;" horiz-adv-x="461" 
d="M-16 0l15 72l370 354h-294l15 69h386l-15 -73l-370 -354h294l-15 -68h-386zM255 557l105 142h102l-134 -142h-73z" />
    <glyph glyph-name="zcaron" unicode="&#x17e;" horiz-adv-x="461" 
d="M-16 0l15 72l370 354h-294l15 69h386l-15 -73l-370 -354h294l-15 -68h-386zM161 699h71l70 -99l114 99h75l-153 -142h-84z" />
    <glyph glyph-name="zdotaccent" unicode="&#x17c;" horiz-adv-x="461" 
d="M-16 0l15 72l370 354h-294l15 69h386l-15 -73l-370 -354h294l-15 -68h-386zM253 561l20 99h85l-21 -99h-84z" />
    <glyph glyph-name="zdotaccent.ss01" horiz-adv-x="461" 
d="M-16 0l15 72l370 354h-294l15 69h386l-15 -73l-370 -354h294l-15 -68h-386zM251 611q0 27 18.5 45.5t43.5 18.5q23 0 38 -15.5t15 -38.5q0 -28 -19.5 -45.5t-43.5 -17.5q-23 0 -37.5 15t-14.5 38z" />
    <glyph glyph-name="e_r.ordn" horiz-adv-x="520" 
d="M237 438q-52 0 -81 28.5t-29 74.5q0 45 22 83t59 61t83 23t72 -20.5t32.5 -54.5t-6.5 -73h-180q-6 -27 4.5 -46.5t35.5 -19.5q17 0 30.5 10.5t20.5 27.5h82q-19 -46 -60 -70t-85 -24zM218 604h98q5 21 -4.5 36.5t-33.5 15.5q-21 0 -37.5 -14.5t-22.5 -37.5zM413 446
l54 256h82l-13 -63q14 29 37 47t57 18q5 0 11.5 -0.5t11.5 -1.5l-17 -75q-12 4 -34 4t-45.5 -11t-34.5 -45l-27 -129h-82z" />
    <glyph glyph-name="e_r.ordn.ss03" horiz-adv-x="520" 
d="M237 439q-51 0 -80.5 28.5t-29.5 74.5q0 45 22 83t59.5 61t83.5 23q48 0 73.5 -22t31 -56t-7.5 -71h-180q-6 -27 4 -46t35 -19q20 0 34.5 12t22.5 29l70 -25q-18 -31 -54.5 -51.5t-83.5 -20.5zM218 604h98q5 26 -5.5 40t-31.5 14q-22 0 -38.5 -15.5t-22.5 -38.5zM413 446
l54 256h82l-13 -63q14 29 37 47t57 18q5 0 11.5 -0.5t11.5 -1.5l-17 -75q-12 4 -34 4t-45.5 -11t-34.5 -45l-27 -129h-82z" />
    <glyph glyph-name="e_r_e.ordn" horiz-adv-x="812" 
d="M237 438q-52 0 -81 28.5t-29 74.5q0 45 22 83t59 61t83 23t72 -20.5t32.5 -54.5t-6.5 -73h-180q-6 -27 4.5 -46.5t35.5 -19.5q17 0 30.5 10.5t20.5 27.5h82q-19 -46 -60 -70t-85 -24zM218 604h98q5 21 -4.5 36.5t-33.5 15.5q-21 0 -37.5 -14.5t-22.5 -37.5zM413 446
l54 256h82l-13 -63q14 29 37 47t57 18q5 0 11.5 -0.5t11.5 -1.5l-17 -75q-12 4 -34 4t-45.5 -11t-34.5 -45l-27 -129h-82zM647 541q0 45 22 83t59 61t83 23t72 -20.5t32.5 -54.5t-6.5 -73h-180q-6 -27 4.5 -46.5t35.5 -19.5q17 0 30.5 10.5t20.5 27.5h82q-19 -46 -60 -70
t-85 -24q-52 0 -81 28.5t-29 74.5zM738 604h98q5 21 -4.5 36.5t-33.5 15.5q-21 0 -37.5 -14.5t-22.5 -37.5z" />
    <glyph glyph-name="e_r_e.ordn.ss03" horiz-adv-x="813" 
d="M237 439q-51 0 -80.5 28.5t-29.5 74.5q0 45 22 83t59.5 61t83.5 23q48 0 73.5 -22t31 -56t-7.5 -71h-180q-6 -27 4 -46t35 -19q20 0 34.5 12t22.5 29l70 -25q-18 -31 -54.5 -51.5t-83.5 -20.5zM218 604h98q5 26 -5.5 40t-31.5 14q-22 0 -38.5 -15.5t-22.5 -38.5zM413 446
l54 256h82l-13 -63q14 29 37 47t57 18q5 0 11.5 -0.5t11.5 -1.5l-17 -75q-12 4 -34 4t-45.5 -11t-34.5 -45l-27 -129h-82zM647 542q0 45 22 83t59.5 61t83.5 23q48 0 73.5 -22t31 -56t-7.5 -71h-180q-6 -27 4 -46t35 -19q20 0 34.5 12t22.5 29l70 -25q-18 -31 -54.5 -51.5
t-83.5 -20.5q-51 0 -80.5 28.5t-29.5 74.5zM738 604h98q5 26 -5.5 40t-31.5 14q-22 0 -38.5 -15.5t-22.5 -38.5z" />
    <glyph glyph-name="f_f_i.liga.ss01" horiz-adv-x="887" 
d="M551 426l-90 -426h-84l90 426h-221l-90 -426h-84l90 426h-110l14 69h110l14 68q30 144 153 144q21 0 44 -2t53 -12l-16 -67q-13 5 -29 7t-28 2q-41 0 -63 -18.5t-30 -58.5l-13 -63h220l14 68q30 144 153 144q21 0 44 -2t53 -12l-16 -67q-13 5 -29 7t-28 2
q-41 0 -63 -18.5t-30 -58.5l-13 -63h303l-106 -495h-84l91 426h-219zM794 611q0 27 18.5 45.5t43.5 18.5q23 0 38 -15.5t15 -38.5q0 -28 -19.5 -45.5t-43.5 -17.5q-23 0 -37.5 15t-14.5 38z" />
    <glyph glyph-name="f_f_l.liga.ss05" horiz-adv-x="872" 
d="M72 0l90 426h-110l14 69h110l14 68q30 144 153 144q21 0 44 -2t53 -12l-16 -67q-13 5 -29 7t-28 2q-41 0 -63 -18.5t-30 -58.5l-13 -63h220l14 68q30 144 153 144q21 0 44 -2t53 -12l-16 -67q-13 5 -29 7t-28 2q-41 0 -63 -18.5t-30 -58.5l-13 -63h113l-15 -69h-113
l-90 -426h-84l90 426h-221l-90 -426h-84zM687 147l118 553h85l-122 -579q-9 -40 -7.5 -65.5t23.5 -55.5h-90q-19 35 -17.5 69.5t10.5 77.5z" />
    <glyph glyph-name="f_i.liga.ss01" horiz-adv-x="544" 
d="M246 426l-90 -426h-84l90 426h-110l14 69h110l14 68q30 144 153 144q21 0 44 -2t53 -12l-16 -67q-13 5 -29 7t-28 2q-41 0 -63 -18.5t-30 -58.5l-13 -63h264l-106 -495h-84l91 426h-180zM451 611q0 27 18.5 45.5t43.5 18.5q23 0 38 -15.5t15 -38.5q0 -28 -19.5 -45.5
t-43.5 -17.5q-23 0 -37.5 15t-14.5 38z" />
    <glyph glyph-name="f_l.liga.ss05" horiz-adv-x="571" 
d="M72 0l90 426h-110l14 69h110l14 68q30 144 153 144q21 0 44 -2t53 -12l-16 -67q-13 5 -29 7t-28 2q-41 0 -63 -18.5t-30 -58.5l-13 -63h113l-15 -69h-113l-90 -426h-84zM385 147l118 553h85l-122 -579q-9 -40 -7.5 -65.5t23.5 -55.5h-90q-19 35 -17.5 69.5t10.5 77.5z
" />
    <glyph glyph-name="n_d.ordn" horiz-adv-x="641" 
d="M120 446l54 256h82l-9 -41q35 48 91 48q43 0 61.5 -27t8.5 -73l-34 -163h-82l31 148q5 23 -1.5 37t-29.5 14q-21 0 -37.5 -14.5t-22.5 -44.5l-30 -140h-82zM444 535q0 46 19.5 85.5t52 64t72.5 24.5q27 0 47 -11t29 -32l27 130h82l-75 -350h-82l9 39q-36 -46 -94 -46
q-41 0 -64 26t-23 70zM533 547q0 -51 41 -51q30 0 52 32t23 74q1 24 -9.5 39.5t-31.5 15.5t-38 -16t-27 -41t-10 -53z" />
    <glyph glyph-name="s_s" horiz-adv-x="906" 
d="M199 -11q-62 0 -106 23.5t-65.5 61.5t-14.5 83h81q-8 -32 7 -56.5t43 -38t58 -13.5q33 0 59 15t41 39t15 50q0 27 -20.5 38.5t-75.5 28.5q-41 13 -75.5 27.5t-55 38t-20.5 63.5q0 46 27.5 81t77 55t115.5 20q119 0 170 -68.5t33 -200.5q-8 -54 1 -96.5t40.5 -67
t90.5 -24.5q50 0 81 16t45.5 39.5t14.5 46.5q0 30 -25.5 41.5t-78.5 27.5q-43 14 -76 28.5t-51.5 37.5t-18.5 61q0 46 26.5 82.5t72.5 57.5t103 21t94.5 -21.5t53.5 -56.5t10 -76h-79q8 38 -12 66t-72 28t-84 -29t-32 -64q0 -30 24.5 -43t63.5 -24q53 -15 90 -29t56 -36.5
t19 -63.5q0 -44 -23 -82.5t-71.5 -62.5t-125.5 -24q-129 0 -179.5 70.5t-31.5 186.5q9 53 3 98.5t-36 73.5t-96 28q-65 0 -101 -26.5t-36 -63.5q0 -33 28 -45.5t70 -25.5q45 -13 78.5 -26.5t52 -36t18.5 -61.5q0 -40 -21 -79.5t-65.5 -66t-114.5 -26.5z" />
    <glyph glyph-name="s_t.ordn" horiz-adv-x="489" 
d="M227 441q-63 0 -90 26t-20 63h78q-4 -20 9 -32t33 -12t34.5 10t14.5 26q0 11 -11 16.5t-34 9.5q-46 8 -72.5 22t-26.5 42q0 43 39.5 71.5t100.5 28.5q60 0 83 -25.5t16 -59.5h-77q4 20 -5.5 29.5t-28.5 9.5t-33 -10t-14 -24q0 -18 37 -24q53 -10 80.5 -21.5t27.5 -42.5
q0 -45 -39.5 -74t-101.5 -29zM412 646l12 56h52l28 68h68l-14 -68h56l-12 -56h-56l-25 -118q-3 -14 2.5 -22t23.5 -8q13 0 28 3l-12 -55q-16 -4 -30 -5.5t-27 -1.5q-19 0 -38 6t-28.5 22t-3.5 45l28 134h-52z" />
    <glyph glyph-name="t_h.ordn" horiz-adv-x="532" 
d="M195 439q-19 0 -38 6t-28.5 22t-3.5 45l28 134h-52l12 56h52l28 68h68l-14 -68h56l-12 -56h-56l-25 -118q-3 -14 2.5 -22t23.5 -8q13 0 28 3l-12 -55q-16 -4 -30 -5.5t-27 -1.5zM276 442l74 350h82l-28 -134q33 47 91 47q43 0 61.5 -27t8.5 -73l-35 -163h-82l31 147
q13 52 -30 52q-22 0 -38.5 -15t-22.5 -44l-30 -140h-82z" />
    <glyph glyph-name="A.subs" horiz-adv-x="378" 
d="M247 -122l-7 78h-134l-41 -78h-95l195 350h131l47 -350h-96zM141 23h92l-14 150z" />
    <glyph glyph-name="A.sups" horiz-adv-x="378" 
d="M368 446l-7 78h-134l-41 -78h-95l195 350h131l47 -350h-96zM262 591h92l-14 150z" />
    <glyph glyph-name="B.subs" horiz-adv-x="364" 
d="M2 -122l74 350h185q47 0 71.5 -18.5t24.5 -50.5q0 -34 -24.5 -62.5t-63.5 -33.5q32 -3 49 -20.5t17 -45.5q0 -32 -17 -59.5t-46 -43.5t-65 -16h-205zM104 -59h78q27 0 44.5 15.5t17.5 39.5q0 34 -41 34h-80zM134 83h70q26 0 42 15t16 37q0 30 -42 30h-68z" />
    <glyph glyph-name="B.sups" horiz-adv-x="364" 
d="M123 446l74 350h185q47 0 71.5 -18.5t24.5 -50.5q0 -34 -24.5 -62.5t-63.5 -33.5q32 -3 49 -20.5t17 -45.5q0 -32 -17 -59.5t-46 -43.5t-65 -16h-205zM225 509h78q27 0 44.5 15.5t17.5 39.5q0 34 -41 34h-80zM255 651h70q26 0 42 15t16 37q0 30 -42 30h-68z" />
    <glyph glyph-name="C.subs" horiz-adv-x="383" 
d="M169 -129q-72 0 -111 36t-39 98q0 64 29.5 116t80.5 83t115 31q74 0 112.5 -37t27.5 -99h-94q3 32 -13 51t-48 19q-31 0 -56.5 -22t-40.5 -57.5t-15 -77.5q0 -35 16 -55t47 -20q32 0 56.5 19t33.5 49h95q-18 -63 -71.5 -98.5t-124.5 -35.5z" />
    <glyph glyph-name="C.sups" horiz-adv-x="383" 
d="M290 439q-72 0 -111 36t-39 98q0 64 29.5 116t80.5 83t115 31q74 0 112.5 -37t27.5 -99h-94q3 32 -13 51t-48 19q-31 0 -56.5 -22t-40.5 -57.5t-15 -77.5q0 -35 16 -55t47 -20q32 0 56.5 19t33.5 49h95q-18 -63 -71.5 -98.5t-124.5 -35.5z" />
    <glyph glyph-name="D.subs" horiz-adv-x="384" 
d="M2 -122l74 350h166q64 0 98.5 -33.5t34.5 -93.5q0 -61 -26.5 -112t-73 -81t-106.5 -30h-167zM105 -56h58q35 0 61.5 20t41 53t14.5 72q0 34 -17.5 53.5t-53.5 19.5h-58z" />
    <glyph glyph-name="D.sups" horiz-adv-x="384" 
d="M123 446l74 350h166q64 0 98.5 -33.5t34.5 -93.5q0 -61 -26.5 -112t-73 -81t-106.5 -30h-167zM226 512h58q35 0 61.5 20t41 53t14.5 72q0 34 -17.5 53.5t-53.5 19.5h-58z" />
    <glyph glyph-name="E.subs" horiz-adv-x="330" 
d="M2 -122l74 350h273l-13 -66h-185l-16 -75h155l-13 -63h-155l-17 -80h185l-14 -66h-274z" />
    <glyph glyph-name="E.sups" horiz-adv-x="330" 
d="M123 446l74 350h273l-13 -66h-185l-16 -75h155l-13 -63h-155l-17 -80h185l-14 -66h-274z" />
    <glyph glyph-name="F.subs" horiz-adv-x="322" 
d="M2 -122l74 350h273l-13 -66h-186l-18 -87h155l-13 -65h-156l-28 -132h-88z" />
    <glyph glyph-name="F.sups" horiz-adv-x="322" 
d="M123 446l74 350h273l-13 -66h-186l-18 -87h155l-13 -65h-156l-28 -132h-88z" />
    <glyph glyph-name="G.subs" horiz-adv-x="396" 
d="M151 -129q-59 0 -96 35.5t-37 97.5q0 64 29.5 116t80.5 83.5t115 31.5q74 0 109.5 -37.5t27.5 -91.5h-92q2 22 -11.5 42.5t-47.5 20.5q-31 0 -57 -22.5t-41.5 -58t-15.5 -76.5q0 -37 18 -58.5t52 -21.5q35 0 57.5 21.5t29.5 55.5h-77l12 55h168l-40 -186h-66l5 50
q-22 -27 -53.5 -42t-69.5 -15z" />
    <glyph glyph-name="G.sups" horiz-adv-x="396" 
d="M272 439q-59 0 -96 35.5t-37 97.5q0 64 29.5 116t80.5 83.5t115 31.5q74 0 109.5 -37.5t27.5 -91.5h-92q2 22 -11.5 42.5t-47.5 20.5q-31 0 -57 -22.5t-41.5 -58t-15.5 -76.5q0 -37 18 -58.5t52 -21.5q35 0 57.5 21.5t29.5 55.5h-77l12 55h168l-40 -186h-66l5 50
q-22 -27 -53.5 -42t-69.5 -15z" />
    <glyph glyph-name="H.subs" horiz-adv-x="389" 
d="M231 -122l30 144h-139l-30 -144h-90l74 350h90l-30 -140h139l30 140h90l-74 -350h-90z" />
    <glyph glyph-name="H.sups" horiz-adv-x="389" 
d="M352 446l30 144h-139l-30 -144h-90l74 350h90l-30 -140h139l30 140h90l-74 -350h-90z" />
    <glyph glyph-name="I.subs" horiz-adv-x="158" 
d="M1 -122l74 350h90l-74 -350h-90z" />
    <glyph glyph-name="I.sups" horiz-adv-x="158" 
d="M122 446l74 350h90l-74 -350h-90z" />
    <glyph glyph-name="J.subs" horiz-adv-x="313" 
d="M112 -129q-60 1 -92 35.5t-21 86.5h94q-6 -26 3.5 -41t29.5 -16q22 0 37 16.5t21 45.5l50 230l87 -1l-49 -230q-12 -56 -55 -91t-105 -35z" />
    <glyph glyph-name="J.sups" horiz-adv-x="313" 
d="M233 439q-60 1 -92 35.5t-21 86.5h94q-6 -26 3.5 -41t29.5 -16q22 0 37 16.5t21 45.5l50 230l87 -1l-49 -230q-12 -56 -55 -91t-105 -35z" />
    <glyph glyph-name="K.subs" horiz-adv-x="367" 
d="M2 -122l74 350h88l-31 -148l161 148h106l-174 -157l116 -193h-109l-73 134l-51 -46l-19 -88h-88z" />
    <glyph glyph-name="K.sups" horiz-adv-x="367" 
d="M123 446l74 350h88l-31 -148l161 148h106l-174 -157l116 -193h-109l-73 134l-51 -46l-19 -88h-88z" />
    <glyph glyph-name="L.subs" horiz-adv-x="296" 
d="M2 -122l74 350h88l-60 -284h165l-15 -66h-252z" />
    <glyph glyph-name="L.sups" horiz-adv-x="296" 
d="M123 446l74 350h88l-60 -284h165l-15 -66h-252z" />
    <glyph glyph-name="M.subs" horiz-adv-x="502" 
d="M173 -122l-28 260l-56 -260h-87l74 350h128l31 -266l146 266h127l-74 -350h-86l56 264l-142 -264h-89z" />
    <glyph glyph-name="M.sups" horiz-adv-x="502" 
d="M294 446l-28 260l-56 -260h-87l74 350h128l31 -266l146 266h127l-74 -350h-86l56 264l-142 -264h-89z" />
    <glyph glyph-name="N.subs" horiz-adv-x="409" 
d="M233 -122l-92 242l-51 -242h-87l74 350h103l94 -254l54 254h87l-74 -350h-108z" />
    <glyph glyph-name="N.sups" horiz-adv-x="409" 
d="M354 446l-92 242l-51 -242h-87l74 350h103l94 -254l54 254h87l-74 -350h-108z" />
    <glyph glyph-name="O.subs" horiz-adv-x="394" 
d="M164 -129q-69 0 -107 36t-38 98q0 63 28.5 115t78 83.5t113.5 31.5q70 0 108.5 -35.5t38.5 -97.5t-28.5 -114.5t-78.5 -84.5t-115 -32zM114 10q0 -34 16 -53.5t47 -19.5q32 0 57.5 22.5t40 58.5t14.5 78q0 35 -16.5 54t-47.5 19q-32 0 -57 -22.5t-39.5 -59t-14.5 -77.5z
" />
    <glyph glyph-name="O.sups" horiz-adv-x="394" 
d="M285 439q-69 0 -107 36t-38 98q0 63 28.5 115t78 83.5t113.5 31.5q70 0 108.5 -35.5t38.5 -97.5t-28.5 -114.5t-78.5 -84.5t-115 -32zM235 578q0 -34 16 -53.5t47 -19.5q32 0 57.5 22.5t40 59t14.5 77.5q0 35 -16.5 54t-47.5 19q-32 0 -57 -22.5t-39.5 -59t-14.5 -77.5z
" />
    <glyph glyph-name="P.subs" horiz-adv-x="354" 
d="M2 -122l74 350h181q50 0 78 -24t28 -65q0 -40 -20.5 -72.5t-54.5 -51.5t-77 -19h-94l-25 -118h-90zM131 61h76q29 0 47.5 18.5t18.5 44.5q0 39 -48 39h-72z" />
    <glyph glyph-name="P.sups" horiz-adv-x="354" 
d="M123 446l74 350h181q50 0 78 -24t28 -65q0 -40 -20.5 -72.5t-54.5 -51.5t-77 -19h-94l-25 -118h-90zM252 629h76q29 0 47.5 18.5t18.5 44.5q0 39 -48 39h-72z" />
    <glyph glyph-name="Q.ss06.subs" horiz-adv-x="394" 
d="M177 -63q32 0 57.5 22.5t40 58.5t14.5 78q0 35 -16.5 54.5t-47.5 19.5t-56.5 -22.5t-40 -59t-14.5 -77.5q0 -35 16.5 -54.5t46.5 -19.5zM19 5q0 63 28.5 115t78 83.5t113.5 31.5q70 0 108.5 -35.5t38.5 -97.5q0 -57 -24 -105.5t-66.5 -81.5t-98.5 -42q-2 -16 3 -26
t23 -10q5 0 12.5 1.5t13.5 4.5l-8 -39q-11 -5 -25.5 -8t-27.5 -3q-37 0 -50.5 19.5t-6.5 50.5l3 10q-55 8 -85 42.5t-30 89.5z" />
    <glyph glyph-name="Q.ss06.sups" horiz-adv-x="394" 
d="M298 504q32 0 57.5 22.5t40 59t14.5 77.5q0 35 -16.5 54.5t-47.5 19.5t-56.5 -22.5t-40 -59t-14.5 -77.5q0 -35 16.5 -54.5t46.5 -19.5zM140 572q0 63 28.5 115t78 83.5t113.5 31.5q70 0 108.5 -35.5t38.5 -97.5q0 -56 -24 -105t-66.5 -82t-98.5 -42q-2 -16 3 -26t23 -10
q5 0 12.5 1.5t13.5 4.5l-8 -39q-11 -5 -25.5 -8t-27.5 -3q-37 0 -50.5 19.5t-6.5 50.5l3 10q-55 8 -85 42.5t-30 89.5z" />
    <glyph glyph-name="Q.subs" horiz-adv-x="406" 
d="M258 -153l-21 36q-34 -12 -73 -12q-69 0 -107 36t-38 98q0 63 28.5 115t78 83.5t113.5 31.5q70 0 108.5 -35.5t38.5 -97.5q0 -55 -23 -103.5t-63 -80.5l46 -71h-88zM114 10q0 -34 16 -53.5t47 -19.5q32 0 57.5 22.5t40 58.5t14.5 78q0 35 -16.5 54t-47.5 19t-56.5 -22.5
t-40 -59t-14.5 -77.5z" />
    <glyph glyph-name="Q.sups" horiz-adv-x="406" 
d="M379 415l-21 36q-34 -12 -73 -12q-69 0 -107 36t-38 98q0 63 28.5 115t78 83.5t113.5 31.5q70 0 108.5 -35.5t38.5 -97.5q0 -55 -23 -103.5t-63 -80.5l46 -71h-88zM235 578q0 -34 16 -53.5t47 -19.5q32 0 57.5 22.5t40 59t14.5 77.5q0 35 -16.5 54t-47.5 19t-56.5 -22.5
t-40 -59t-14.5 -77.5z" />
    <glyph glyph-name="R.subs" horiz-adv-x="359" 
d="M2 -122l74 350h168q53 0 81.5 -19t28.5 -54q0 -42 -30.5 -75t-77.5 -37h13q36 0 52 -22t7 -65l-17 -78h-90l16 72q3 15 2 30t-10.5 24.5t-34.5 9.5h-63l-29 -136h-90zM133 72h66q29 0 47.5 17t18.5 42q0 17 -12 27t-35 10h-65z" />
    <glyph glyph-name="R.sups" horiz-adv-x="359" 
d="M123 446l74 350h168q53 0 81.5 -19t28.5 -54q0 -42 -30.5 -75t-77.5 -37h13q36 0 52 -22t7 -65l-17 -78h-90l16 72q3 15 2 30t-10.5 24.5t-34.5 9.5h-63l-29 -136h-90zM254 640h66q29 0 47.5 17t18.5 42q0 17 -12 27t-35 10h-65z" />
    </font>
</defs>
</svg>
