<svg width="102" height="40" viewBox="0 0 102 40" fill="none" xmlns="http://www.w3.org/2000/svg">
<path d="M72.8018 0.559107C73.4159 0.652892 73.8662 1.92981 74.1865 2.41316C76.5056 5.91926 78.8753 9.34842 81.0162 12.9651L81.8422 14.0064V0.746676L82.03 0.559107H84.7104V18.5513C84.7104 18.5922 84.5442 18.7413 84.5851 18.8615H81.9048C81.5532 18.8615 81.0017 18.0415 80.7898 17.7337C78.8753 14.9563 77.098 12.0008 75.2558 9.1897C74.3719 7.83824 73.6471 6.28238 72.4887 5.16658V18.6764L72.3009 18.864H70.0564C70.0348 18.864 69.7458 18.5754 69.7458 18.5537V0.559107C70.6874 0.660106 71.8939 0.422037 72.8018 0.559107Z" fill="#1C1D23"/>
<path d="M38.4103 0.583154C40.8811 0.66732 43.547 0.383561 45.9961 0.554298C51.6746 0.94627 52.9317 5.96736 52.6668 10.8369C52.3851 16.0312 49.7866 18.5778 44.6234 18.8688C43.0942 18.9553 40.2068 19.0443 38.7498 18.8712C38.2802 18.8159 38.0803 18.371 38.0635 17.9381L38.1333 0.8092L38.4079 0.585559L38.4103 0.583154ZM41.2543 3.04801L41.0665 3.23558V15.935L41.2543 16.1226H45.4928C46.4609 16.1226 48.2935 15.0621 48.8498 14.2445C50.2056 12.2437 50.1864 6.75371 48.7414 4.78663C48.1635 4.00028 46.3357 3.05041 45.37 3.05041H41.2543V3.04801Z" fill="#1C1D23"/>
<path d="M67.3761 0.559107V2.7378C67.3761 2.89651 66.986 3.03358 66.8222 3.05522C64.2768 3.39669 60.8764 2.69932 58.3309 3.0432C58.1671 3.06484 57.777 3.20191 57.777 3.36062V8.03062C57.777 8.03062 57.9167 8.00898 57.9817 8.07391C58.0467 8.13883 58.0154 8.27831 58.0251 8.27831H66.8776V10.457C66.8776 10.4786 66.685 10.6758 66.6272 10.7047L58.0251 10.8297C57.818 10.9452 57.7987 11.1111 57.7698 11.3227C57.6662 12.1259 57.6638 14.7663 57.7698 15.5671C57.7939 15.7402 57.7987 15.8893 57.9504 16.0095L67.039 16.1466C67.6266 16.3197 67.3689 18.3133 67.2509 18.8615H55.3423C55.311 18.8615 54.9064 18.4576 54.9064 18.4263V0.746676L55.0943 0.559107H67.3761Z" fill="#1C1D23"/>
<path d="M12.8857 0.559107V2.7378C12.8857 2.75944 12.5967 3.04801 12.5751 3.04801H3.59729L3.40945 3.23558V7.9681C3.40945 7.98974 3.69843 8.27831 3.7201 8.27831H12.3872V10.457C12.3872 10.4786 12.0982 10.7672 12.0766 10.7672H3.59729L3.40945 10.9548V15.935L3.59729 16.1226H12.5751C12.5967 16.1226 12.8857 16.4111 12.8857 16.4328V18.674L12.6979 18.8615H0.79173C0.83267 18.7389 0.666504 18.5922 0.666504 18.5513V0.559107H12.8857Z" fill="#1C1D23"/>
<path d="M15.2554 37.1039C15.2626 37.0726 15.4288 36.9596 15.4697 36.8201C16.4475 33.5377 17.9839 30.1999 19.2073 26.9823C19.8358 25.3303 20.3849 23.1396 21.1218 21.5741C21.1603 21.4923 21.5601 21.122 21.6708 21.1028C21.9671 21.0475 23.4866 21.0523 23.7901 21.1076C24.2308 21.1893 24.486 21.9468 24.6642 22.3532C25.8105 24.9936 26.6944 27.9322 27.7034 30.6448C28.6137 33.0952 30.4752 36.433 30.2224 39.1022C30.2079 39.2657 30.2224 39.4317 30.0345 39.5014C29.4566 39.1744 28.1947 39.7491 27.8599 39.208C27.3277 37.8373 26.9448 36.4017 26.4391 35.0238C25.3265 31.9818 24.2741 28.6753 23.0724 25.8088C23.0291 25.7054 22.8027 25.0153 22.61 25.2125L17.6347 39.3331L15.2506 39.4076C15.3517 38.7487 15.1133 37.7051 15.2506 37.1039H15.2554Z" fill="#1C1D23"/>
<path d="M17.4372 0.559107L22.7979 14.7543L28.0357 0.559107H30.2176V2.86284C30.2176 3.33177 28.893 6.18378 28.6354 6.88597C27.3518 10.3825 26.0273 14.8336 24.4017 18.0343C24.1441 18.5417 24.3728 18.7942 23.5516 18.8712C22.8533 18.9361 21.4734 19.0491 21.141 18.3998C20.5872 17.3177 20.1609 15.5502 19.7057 14.3551C18.4029 10.9307 17.0736 7.49677 15.8406 4.01952C15.7707 3.82233 15.253 2.92777 15.253 2.86284V0.559107H17.4372Z" fill="#1C1D23"/>
<path d="M101.667 0.559107V2.7378C101.667 2.83158 101.363 3.01915 101.226 3.0456C99.882 3.30291 97.7821 2.85082 96.3588 3.0432C96.1951 3.06484 95.8049 3.20191 95.8049 3.36062V18.6764L95.6171 18.864H93.3727C93.3414 18.864 92.9368 18.46 92.9368 18.4287V3.04801H87.3257C87.3016 3.04801 87.0752 2.6368 87.0752 2.61275V0.559107H101.667Z" fill="#1C1D23"/>
<path d="M35.3302 0.559107H32.5872V18.8615H35.3302V0.559107Z" fill="#1C1D23"/>
</svg>
