<svg width="129" height="36" viewBox="0 0 129 36" fill="none" xmlns="http://www.w3.org/2000/svg">
<path d="M64.6753 21.659L66.8744 28.7265L69.2348 21.659H72.9806V22.1409C71.9107 22.1222 71.6094 22.2625 71.6782 23.3434C71.8371 25.8981 72.3828 28.4575 72.5275 31.0192C72.7054 31.7445 73.1537 31.6415 73.7943 31.6181V32.2592H69.2348L69.3297 31.7632C69.9725 31.6252 70.4304 31.6462 70.4826 30.8718C70.5941 29.1874 69.8871 26.1554 69.7258 24.3096C69.6855 23.8581 69.7472 23.3972 69.7235 22.9457L66.3027 32.4206L62.9673 22.9457L62.0563 30.8976C62.0729 31.7187 62.8392 31.5854 63.4417 31.7655L63.5366 32.2615H59.9545V31.6205C60.5238 31.6462 61.1098 31.7211 61.2521 31.052C61.3494 29.9899 62.36 22.6766 62.0539 22.3234L60.7682 22.1456V21.6636H64.6777L64.6753 21.659Z" fill="#1C1D23"/>
<path d="M90.2388 12.6683V6.96699C90.2388 6.08968 88.2864 6.65817 88.6114 5.76215H92.5185L92.5114 6.23239C92.2149 6.33299 91.0524 6.44996 91.0524 6.80556V16.5214L83.5632 7.84897V15.3166C83.938 15.8032 84.6189 15.843 85.193 15.8804V16.36H81.2835V15.8804C81.8196 15.8687 82.6238 15.7822 82.7448 15.1528C82.5289 12.6145 83.0437 9.59423 82.7567 7.11905C82.6499 6.19262 81.7224 6.52248 81.051 6.25812L80.9561 5.76215H84.6189L90.2364 12.6683H90.2388Z" fill="#1C1D23"/>
<path d="M67.605 12.6683V6.96699C67.605 6.08968 65.6527 6.65817 65.9777 5.76215H69.8848L69.8777 6.23239C69.5811 6.33299 68.4187 6.44996 68.4187 6.80556V16.5214L60.9295 7.84897V15.3166C61.3043 15.8032 61.9851 15.843 62.5592 15.8804V16.36H58.6498V15.8804C59.1859 15.7868 59.9972 15.8009 60.1111 15.1505C59.926 12.6309 60.372 9.75097 60.1253 7.27814C60.0209 6.24175 59.6271 6.49441 58.7446 6.25812L58.6498 5.76215H61.9875L67.605 12.6683Z" fill="#1C1D23"/>
<path d="M82.7495 21.659V24.3891H82.2632C82.2798 23.596 81.8149 22.3023 80.8778 22.3023H77.8651V26.4783H80.3891C80.8707 26.4783 81.0747 25.5846 81.1245 25.1939H81.4472V28.406C80.7047 28.4154 81.1696 27.4211 80.5505 27.1217H77.8627V31.2157C77.8627 31.7515 80.1092 31.6673 80.5505 31.6181C82.1185 31.4427 82.5953 30.5701 82.8966 29.143L83.3995 29.0494L83.0484 31.9925L82.8302 32.2592H74.6079V31.6181C75.6328 31.7164 75.9174 30.5818 75.9174 30.5818L75.8985 23.0369C75.8985 23.0369 75.284 22.1081 74.6056 22.1432V21.6613H82.7472L82.7495 21.659Z" fill="#1C1D23"/>
<path d="M52.1379 5.76215L52.2992 8.65376L51.7963 8.56018C51.7133 7.87237 51.3171 6.40551 50.4275 6.40551H47.2534V10.5815H49.6138C49.8582 10.5815 50.316 9.60359 50.1855 9.29478H50.6742V12.5069H50.1855C50.2757 10.7429 48.4609 11.2974 47.2534 11.2225V15.3166C47.6282 15.8032 48.3091 15.843 48.8832 15.8804V16.36H44.0793C43.9797 16.36 43.7662 16.0278 43.835 15.8781L44.9761 15.6371L45.1469 15.1622L45.1397 6.80088C45.0781 6.26748 44.4209 6.3751 43.9987 6.32597L44.0793 5.75747H52.1403L52.1379 5.76215Z" fill="#1C1D23"/>
<path d="M69.5598 16.36V15.8804C70.2027 15.8921 70.8289 15.7073 71.1634 15.1318L74.6862 5.9189L75.9293 5.85573C77.2032 8.71224 78.126 12.0367 79.5162 14.8089C79.6395 15.0546 79.7842 15.471 79.9882 15.6278C80.3654 15.9155 80.9703 15.6395 80.7948 16.3577H76.2353V15.8757L77.5495 15.6184L76.3753 12.2028L72.9592 12.2753C72.8928 13.0426 71.9083 14.6569 71.9913 15.3073C72.0578 15.85 73.0328 15.8196 73.4669 15.8734V16.353H69.5574L69.5598 16.36ZM76.074 11.543L74.7693 8.0104C73.9959 8.92514 73.7373 10.4107 73.3056 11.543H76.074Z" fill="#1C1D23"/>
<path d="M108.477 16.36V15.8804L109.789 15.4429L113.439 5.9189L114.683 5.85573C115.942 8.71224 116.882 12.0413 118.269 14.8089C118.393 15.0546 118.537 15.471 118.741 15.6278C119.119 15.9155 119.724 15.6395 119.548 16.3577H114.989V15.8757L116.303 15.6184L115.129 12.2028L111.712 12.2753C111.506 13.803 109.426 15.8991 112.218 15.8734C112.313 15.9787 112.068 16.353 111.973 16.353H108.472L108.477 16.36ZM114.827 11.543L113.522 8.0104C112.766 8.97427 112.514 10.3943 112.059 11.543H114.827Z" fill="#1C1D23"/>
<path d="M53.6016 21.659V24.7096C52.9326 24.7284 53.1675 23.9283 53.0038 23.4533C52.4843 21.9444 51.189 22.3421 49.8558 22.3023V31.3748L51.4832 31.7772L51.2388 32.2592H46.11L46.2689 31.693C46.4896 31.5456 47.7397 31.7094 47.7397 31.2157V22.3842C47.6187 22.2204 47.5974 22.2087 47.4076 22.2087C45.2489 22.2041 44.5301 22.4286 44.3166 24.712H43.8326L43.9939 21.6613H53.6016V21.659Z" fill="#1C1D23"/>
<path d="M91.0548 24.712C90.476 24.7518 90.5899 24.0569 90.3882 23.6849C89.0669 21.2425 85.5061 21.9046 86.2439 24.2394C86.6495 25.5238 90.642 26.3216 91.3371 28.0458C92.3951 30.6683 89.8379 32.7341 87.2995 32.3457C86.7753 32.2662 85.7481 31.7328 85.4349 31.7655C84.9913 31.81 85.1455 32.444 84.5406 32.2592L84.3769 29.0471H84.8608C84.6284 31.8451 89.9327 32.9704 89.928 30.0905C89.9232 27.6246 85.1787 27.751 84.6118 25.0419C84.1326 22.7468 86.1608 21.2987 88.3481 21.5162C88.8462 21.5654 90.0087 22.1385 90.1344 22.1152C90.3906 22.0684 90.5163 21.563 90.8888 21.659C90.8129 21.8648 91.0524 22.1315 91.0524 22.2204V24.7096L91.0548 24.712Z" fill="#1C1D23"/>
<path d="M124.679 5.76215C124.814 5.79958 124.976 6.07096 124.924 6.24175L123.78 6.48037L123.619 6.80322C123.858 9.43982 123.306 12.5934 123.612 15.1645C123.64 15.3985 123.633 15.5763 123.863 15.719H126.307C127.301 15.719 128.285 14.0697 128.181 13.1479H128.667L128.342 16.36H120.2V15.8804L121.341 15.6395C121.519 15.5225 121.489 15.3423 121.512 15.1645C121.828 12.6122 121.258 9.42813 121.505 6.80322L121.349 6.4757L120.298 6.25578L120.203 5.75981H124.682L124.679 5.76215Z" fill="#1C1D23"/>
<path d="M101.965 8.97427C101.36 9 101.469 8.21861 101.279 7.80218C100.195 5.42059 96.8811 5.87913 95.7044 8.01976C94.1577 10.8342 95.7804 15.5857 99.4384 15.5693C100.734 15.5646 100.966 15.0359 101.877 14.5844C102.067 14.4908 102.231 14.3785 102.287 14.6733C102.442 15.471 99.8061 16.4536 99.111 16.5144C90.8579 17.242 91.451 4.63686 99.2344 5.63816C99.9721 5.73408 101.381 6.66285 101.479 5.75981C101.611 5.66389 101.962 5.91422 101.962 5.99844V8.96959L101.965 8.97427Z" fill="#1C1D23"/>
<path d="M59.0578 21.659C60.0043 21.8882 57.9998 22.7024 57.9998 22.7024L58.0045 30.9935C58.0045 31.2181 58.1634 31.4099 58.3841 31.4567L59.1384 31.6158V32.2568H54.579L54.7403 31.693L55.7342 31.3889C55.9051 31.197 55.8908 30.7385 55.8908 30.7385L55.8647 22.8708C55.8647 22.8708 55.7936 22.4333 55.6773 22.3374L54.5766 22.1385V21.659H59.0578Z" fill="#1C1D23"/>
<path d="M57.8361 5.76215V6.24175L56.6926 6.48271L56.5313 6.80556L56.5242 15.1669C56.4839 15.8407 57.3071 15.8524 57.8361 15.8804V16.36H53.1129V15.8804L54.254 15.6395L54.4248 15.1645L54.4176 6.80322C54.4651 6.24175 53.2173 6.35404 53.1129 6.24175C53.0441 6.09202 53.2576 5.76215 53.3572 5.76215H57.8361Z" fill="#1C1D23"/>
<path d="M107.827 5.76215L107.732 6.25812L106.714 6.43124C106.527 6.74474 106.536 7.09098 106.515 7.4419C106.396 9.42579 106.292 13.2555 106.539 15.1458C106.56 15.3026 106.61 15.5833 106.726 15.6792L107.827 15.8781V16.3577H103.267V15.8781C104.23 15.7962 104.491 15.6231 104.577 14.6779C104.733 12.9701 104.769 8.95555 104.553 7.29919C104.356 5.78789 103.293 6.93423 103.267 5.75747H107.827V5.76215Z" fill="#1C1D23"/>
<path d="M0.666992 0V36H37.1713V0H0.666992ZM17.2918 10.661C17.2918 10.8692 16.6015 11.0634 16.388 10.7499C16.1982 10.4739 16.2527 8.70289 15.6383 7.7975C15.3299 7.34364 14.3027 6.72836 13.7927 6.72836H9.64125V13.3117H13.1427C13.7524 13.3117 14.0608 11.8822 14.0465 11.3933L14.8531 11.3863V16.3647L14.0465 16.3577C14.0631 15.8664 13.7524 14.4393 13.1427 14.4393H9.64125V20.5009C9.64125 21.0881 11.7692 21.804 12.2484 21.6636V22.4684H4.10202V21.6636C5.30239 21.6098 6.38888 20.4682 6.38888 20.4682L6.36041 7.6314L6.1137 6.87809L4.09965 6.57161L4.17082 5.9189L17.2894 5.84871V10.6657L17.2918 10.661ZM34.0637 10.661C34.0637 10.8692 33.3733 11.0634 33.1598 10.7499C32.9795 10.4856 33.008 8.70756 32.4078 7.7975C32.1255 7.36938 31.198 6.72836 30.7259 6.72836H28.0381V20.4588C28.0381 20.5079 28.3797 21.2987 28.4699 21.3548C28.9372 21.6543 30.0783 21.6707 30.6429 21.6613V22.4661H22.1739V21.6636L24.4181 21.3969C24.6173 21.3408 24.9423 20.5243 24.9423 20.4588V6.72602H22.4182C22.3542 6.72602 21.3365 7.06758 21.2084 7.14011C20.0412 7.78581 20.0033 9.66441 19.7494 10.8084L18.9168 10.902V5.60307H34.0613V10.661H34.0637Z" fill="#1C1D23"/>
</svg>
