<svg width="115" height="27" viewBox="0 0 115 27" fill="none" xmlns="http://www.w3.org/2000/svg">
<path d="M114.988 23.6847C115.004 23.8131 115.004 24.0355 114.988 24.1639C114.634 26.9457 110.361 26.8172 110.361 23.9259C110.361 21.0345 114.64 20.9468 114.988 23.6878V23.6847ZM114.555 23.9259C114.555 22.8796 113.704 22.0338 112.653 22.0338C111.601 22.0338 110.75 22.8827 110.75 23.9259C110.75 24.969 111.601 25.8179 112.653 25.8179C113.704 25.8179 114.555 24.969 114.555 23.9259Z" fill="#1C1D23"/>
<path d="M18.6434 21.2881V16.0191H13.5423L13.8311 11.7087H23.4556V24.0635C15.5231 28.4648 2.74391 27.3402 0.402155 17.0748C-1.17994 10.1455 1.94972 3.15989 9.01893 1.12685C13.6083 -0.191961 19.4752 0.509734 23.0695 3.80833L19.8456 7.01295C16.6971 4.40352 10.9557 4.03701 7.81039 6.82186C4.77489 9.5096 4.35426 14.8757 6.30363 18.2871C8.79606 22.6507 14.3491 22.8637 18.6402 21.2881H18.6434Z" fill="#1C1D23"/>
<path d="M101.804 18.9921H89.2917C89.6433 22.4911 93.8936 23.4309 96.5995 21.8114C97.2148 21.4417 97.626 20.9249 98.1941 20.5239L101.11 22.7762C96.9103 28.3177 87.0033 27.2495 85.0069 20.2388C82.8817 12.7708 89.3043 6.5683 96.7251 9.05556C101.026 10.4965 102.074 14.9135 101.801 18.9921H101.804ZM89.2917 15.5431H97.1363C97.3309 15.3238 97.1363 14.6785 97.039 14.3966C95.7582 10.7002 89.5146 11.6681 89.2948 15.5431H89.2917Z" fill="#1C1D23"/>
<path d="M41.3579 25.8868H37.3148L37.2175 24.2579C33.4318 28.0984 24.545 26.551 25.7881 19.9256C26.6702 15.2392 33.1869 15.1641 36.9287 15.1609C36.9193 10.8098 31.0272 11.7151 28.7953 13.8233L26.2527 11.2671C26.215 11.0479 27.5114 10.2428 27.7563 10.1018C30.5689 8.48543 34.7125 7.99362 37.7637 9.20279C40.4413 10.2647 41.2198 12.2915 41.3611 15.0106C41.5431 18.5786 41.2167 22.3032 41.3579 25.8868ZM36.9318 18.5128C35.334 18.4877 31.1026 18.3812 30.4057 20.2106C29.9756 21.3352 30.6097 22.3815 31.7272 22.6854C34.2354 23.3683 37.3776 21.3039 36.9287 18.5159L36.9318 18.5128Z" fill="#1C1D23"/>
<path d="M82.5521 25.8868H77.9314V15.4961C77.9314 14.9135 77.4605 13.7544 77.021 13.3378C75.9349 12.304 73.6622 12.5766 72.6326 13.579C72.2245 13.9768 71.5779 15.2424 71.5779 15.7843V25.89H66.9571V8.93339H71.1918L71.2891 11.0416C72.212 9.9734 73.1537 9.15893 74.56 8.78929C78.9955 7.6271 82.4297 10.2083 82.549 14.7286V25.8868H82.5521Z" fill="#1C1D23"/>
<path d="M60.4153 4.2408V8.93339H64.9387L64.6499 12.8616H60.4153V20.8591C60.4153 20.9123 60.6036 21.3979 60.6507 21.4887C61.3696 22.8451 63.7333 22.3314 64.9387 21.9617L64.6405 25.7835C62.4431 26.3035 58.7139 26.6136 57.0439 24.7873C56.0583 23.7097 55.9452 22.2468 55.7914 20.8622V4.2408H60.4153Z" fill="#1C1D23"/>
<path d="M108.252 8.93339V10.4182L108.443 11.0416C108.845 10.1112 110.019 9.45026 110.967 9.19652C111.303 9.10568 112.125 8.93652 112.439 8.93652H114.316L114.028 12.8648H112.342C110.402 12.8648 108.443 14.6816 108.443 16.6489V25.89H103.92V8.93339H108.252Z" fill="#1C1D23"/>
<path d="M48.5778 8.93339V10.5122C48.5778 10.5404 48.6814 11.0447 48.7693 11.0385C49.1711 10.1081 50.3451 9.44713 51.2931 9.19339C51.629 9.10255 52.4514 8.93339 52.7654 8.93339H54.2564L53.9676 12.8616H52.5707C50.6402 12.8616 48.7693 14.7224 48.7693 16.6458V25.8868H44.2459V8.93339H48.5778Z" fill="#1C1D23"/>
<path d="M113.208 22.629C113.902 22.7731 113.88 24.0324 113.064 24.0668L113.739 25.2133C113.073 25.5172 112.942 24.1169 112.537 24.0574C112.433 24.0418 112.307 24.0731 112.198 24.0637V25.2133H111.811V22.6258C112.223 22.6822 112.829 22.5475 113.208 22.6258V22.629ZM112.198 23.7786C113.667 24.0136 113.638 22.7042 112.198 22.9172V23.7786Z" fill="#1C1D23"/>
</svg>
