<svg width="32" height="32" viewBox="0 0 32 32" fill="none" xmlns="http://www.w3.org/2000/svg">
<path d="M29.6133 4.30739e-05H2.38667C1.7663 -0.00369758 1.16913 0.236329 0.723043 0.668722C0.276956 1.10111 0.0174152 1.6915 0 2.31344V29.6864C0.014002 30.3095 0.272475 30.9019 0.719312 31.335C1.16615 31.7682 1.76529 32.007 2.38667 31.9998H29.6133C30.2347 32.007 30.8339 31.7682 31.2807 31.335C31.7275 30.9019 31.986 30.3095 32 29.6864V2.31344C31.9826 1.6915 31.723 1.10111 31.277 0.668722C30.8309 0.236329 30.2337 -0.00369758 29.6133 4.30739e-05ZM9.48 27.2928H4.78667V12.0351H9.48V27.2928ZM7.18667 9.90888C6.46608 9.90909 5.77398 9.62665 5.25825 9.12192C4.74252 8.61718 4.44407 7.93017 4.42667 7.20769C4.41362 6.84066 4.47608 6.47487 4.61017 6.13311C4.74425 5.79135 4.94708 5.48095 5.20602 5.22126C5.46496 4.96157 5.77445 4.75814 6.11522 4.62367C6.45598 4.48919 6.82071 4.42654 7.18667 4.43963C7.88379 4.48831 8.53655 4.80039 9.01321 5.31289C9.48987 5.82539 9.75495 6.50015 9.75495 7.201C9.75495 7.90185 9.48987 8.57661 9.01321 9.08911C8.53655 9.60161 7.88379 9.91369 7.18667 9.96237V9.90888ZM27.3067 27.1992H22.6667V19.7375C22.6667 17.959 22.6667 15.6456 20.1867 15.6456C17.7067 15.6456 17.3333 17.5979 17.3333 19.5636V27.119H12.5867V12.0351H17.0133V14.0409H17.1067C17.5604 13.2506 18.222 12.6007 19.0191 12.162C19.8163 11.7234 20.7183 11.5129 21.6267 11.5537C26.4133 11.5537 27.3067 14.763 27.3067 18.8415V27.1992Z" fill="#1C1D23"/>
</svg>
