<svg width="146" height="25" viewBox="0 0 146 25" fill="none" xmlns="http://www.w3.org/2000/svg">
<g filter="url(#filter0_d_6304_50426)">
<path d="M119.674 19.484L111.518 1H105.783L97.4922 20.2005H101.606L103.275 16.3653H105.919C105.919 16.3653 112.439 15.9427 115.878 20.2087H119.992L119.675 19.484H119.674ZM104.951 12.5219L108.74 3.80991L112.965 13.5075C111.136 12.829 109.2 12.4955 107.255 12.5219H104.951Z" fill="url(#paint0_linear_6304_50426)"/>
<path d="M112.972 13.5075C115.859 14.5691 118.253 16.7005 119.683 19.484L111.526 1H109.938L108.722 3.80165L112.972 13.5075Z" fill="url(#paint1_linear_6304_50426)"/>
<path d="M24.4987 20.2005C24.4069 19.9545 24.3006 19.7151 24.1815 19.484L24.4987 20.2005Z" fill="url(#paint2_linear_6304_50426)"/>
<path d="M24.1815 19.484L16.0254 1H10.2913L2 20.2005H6.11424L7.78248 16.3653H10.4265C10.4265 16.3653 16.9465 15.9427 20.3861 20.2087H24.5003L24.1831 19.484H24.1815ZM11.7598 12.5219H9.45716L13.2381 3.80991L17.4634 13.5075C15.6358 12.829 13.705 12.4955 11.7615 12.5219H11.7598Z" fill="url(#paint3_linear_6304_50426)"/>
<path d="M119.999 20.2005C119.914 19.9545 119.809 19.7151 119.69 19.484L119.999 20.2005Z" fill="url(#paint4_linear_6304_50426)"/>
<path d="M127.355 1.00825H123.343L127.355 1.02476V1.00825Z" fill="url(#paint5_linear_6304_50426)"/>
<path d="M144 1.00825H139.981V15.2988L128.49 1.03302L127.355 1.02476L123.343 1.00825V20.2087H127.355V5.98255L138.87 20.2814H144L143.936 20.2087H144V1.00825Z" fill="url(#paint6_linear_6304_50426)"/>
<path d="M46.0699 1H42.0587V10.7719C42.0587 13.983 39.5193 16.5849 36.3889 16.5849H35.0943C31.9623 16.5849 29.4245 13.9814 29.4245 10.7719V1H25.4214V11.0972C25.4214 16.1243 29.3971 20.2005 34.3004 20.2005H37.1908C42.0941 20.2005 46.0699 16.1243 46.0699 11.0972V1Z" fill="url(#paint7_linear_6304_50426)"/>
<path d="M95.2926 1H91.3216V10.7719C91.3216 13.983 88.7822 16.5849 85.6519 16.5849H84.3572C81.2253 16.6031 78.673 14.0144 78.6553 10.8033C78.6553 10.7917 78.6553 10.7818 78.6553 10.7703V1H74.6843V11.0972C74.6892 16.1226 78.6617 20.1955 83.5634 20.2005H86.4619C91.349 20.1741 95.2974 16.1078 95.3006 11.0972L95.2926 1Z" fill="url(#paint8_linear_6304_50426)"/>
<path d="M67.5992 18.0179C68.1225 17.587 68.5943 17.095 69.0049 16.5519C70.174 14.8019 70.7859 12.7217 70.7521 10.6002C70.7521 5.90991 68.5895 2.90354 64.2643 1.57783C63.0196 1.19646 61.7281 1.00165 60.4286 1H59.7926C56.4013 1.11392 53.8684 2.25472 52.1132 4.39599C50.7284 6.14434 50.015 8.35 50.1036 10.6002C50.1036 15.3384 52.2501 18.3465 56.5447 19.6226C57.7958 20.0106 59.0969 20.2054 60.4045 20.2005H61.493C61.493 20.2005 65.0743 20.2005 65.9889 22H70.7537C70.0403 20.4267 68.9566 19.058 67.6008 18.0179H67.5992ZM60.4512 16.4627C59.6444 16.466 58.8425 16.3472 58.068 16.1127C55.4207 15.3318 54.097 13.4943 54.097 10.6002C54.0439 9.22665 54.4819 7.87948 55.3273 6.81462C56.5318 5.45259 58.2612 4.70472 60.0534 4.77075H60.3868C61.1935 4.77406 61.9954 4.89127 62.77 5.12075C65.2449 5.69198 66.9373 8.03962 66.7409 10.6333C66.7634 11.9292 66.3882 13.1988 65.6684 14.2653C64.5574 15.7363 62.8086 16.4726 60.427 16.4726L60.4512 16.4644V16.4627Z" fill="url(#paint9_linear_6304_50426)"/>
<path d="M69.0049 16.5436C70.174 14.7953 70.7843 12.7184 70.7521 10.6002C70.7521 5.90991 68.5895 2.90354 64.2643 1.57783C63.0179 1.19976 61.7265 1.00495 60.4286 1V4.73774C61.2354 4.73774 62.0373 4.85495 62.8118 5.08774C65.4591 5.8967 66.7827 7.7342 66.7827 10.6002C66.8037 11.8962 66.4285 13.1658 65.7103 14.2323C64.5718 15.7248 62.8118 16.471 60.4286 16.471H62.6444C64.414 16.438 66.1483 16.9861 67.5927 18.0344C68.1209 17.5986 68.5959 17.0983 69.0065 16.5436H69.0049Z" fill="url(#paint10_linear_6304_50426)"/>
<path d="M17.4779 13.5075C20.3635 14.5708 22.758 16.7038 24.1895 19.484L16.0335 1H14.4458L13.2542 3.80991L17.4795 13.5075H17.4779Z" fill="url(#paint11_linear_6304_50426)"/>
<path d="M123.343 20.2005H127.355V5.98255L123.343 1V20.2005Z" fill="url(#paint12_linear_6304_50426)"/>
<path d="M144 1H139.981V15.2988L143.936 20.2005H144V1Z" fill="url(#paint13_linear_6304_50426)"/>
</g>
<defs>
<filter id="filter0_d_6304_50426" x="0" y="0" width="146" height="25" filterUnits="userSpaceOnUse" color-interpolation-filters="sRGB">
<feFlood flood-opacity="0" result="BackgroundImageFix"/>
<feColorMatrix in="SourceAlpha" type="matrix" values="0 0 0 0 0 0 0 0 0 0 0 0 0 0 0 0 0 0 127 0" result="hardAlpha"/>
<feOffset dy="1"/>
<feGaussianBlur stdDeviation="1"/>
<feComposite in2="hardAlpha" operator="out"/>
<feColorMatrix type="matrix" values="0 0 0 0 0 0 0 0 0 0 0 0 0 0 0 0 0 0 0.25 0"/>
<feBlend mode="normal" in2="BackgroundImageFix" result="effect1_dropShadow_6304_50426"/>
<feBlend mode="normal" in="SourceGraphic" in2="effect1_dropShadow_6304_50426" result="shape"/>
</filter>
<linearGradient id="paint0_linear_6304_50426" x1="-2.11927" y1="0.39791" x2="-0.560216" y2="30.5075" gradientUnits="userSpaceOnUse">
<stop stop-color="white"/>
<stop offset="1" stop-color="#D5CBFF"/>
</linearGradient>
<linearGradient id="paint1_linear_6304_50426" x1="-2.11927" y1="0.39791" x2="-0.560216" y2="30.5075" gradientUnits="userSpaceOnUse">
<stop stop-color="white"/>
<stop offset="1" stop-color="#D5CBFF"/>
</linearGradient>
<linearGradient id="paint2_linear_6304_50426" x1="-2.11927" y1="0.39791" x2="-0.560216" y2="30.5075" gradientUnits="userSpaceOnUse">
<stop stop-color="white"/>
<stop offset="1" stop-color="#D5CBFF"/>
</linearGradient>
<linearGradient id="paint3_linear_6304_50426" x1="-2.11927" y1="0.39791" x2="-0.560216" y2="30.5075" gradientUnits="userSpaceOnUse">
<stop stop-color="white"/>
<stop offset="1" stop-color="#D5CBFF"/>
</linearGradient>
<linearGradient id="paint4_linear_6304_50426" x1="-2.11927" y1="0.39791" x2="-0.560216" y2="30.5075" gradientUnits="userSpaceOnUse">
<stop stop-color="white"/>
<stop offset="1" stop-color="#D5CBFF"/>
</linearGradient>
<linearGradient id="paint5_linear_6304_50426" x1="-2.11927" y1="0.39791" x2="-0.560216" y2="30.5075" gradientUnits="userSpaceOnUse">
<stop stop-color="white"/>
<stop offset="1" stop-color="#D5CBFF"/>
</linearGradient>
<linearGradient id="paint6_linear_6304_50426" x1="-2.11927" y1="0.39791" x2="-0.560216" y2="30.5075" gradientUnits="userSpaceOnUse">
<stop stop-color="white"/>
<stop offset="1" stop-color="#D5CBFF"/>
</linearGradient>
<linearGradient id="paint7_linear_6304_50426" x1="-2.11927" y1="0.39791" x2="-0.560216" y2="30.5075" gradientUnits="userSpaceOnUse">
<stop stop-color="white"/>
<stop offset="1" stop-color="#D5CBFF"/>
</linearGradient>
<linearGradient id="paint8_linear_6304_50426" x1="-2.11927" y1="0.39791" x2="-0.560216" y2="30.5075" gradientUnits="userSpaceOnUse">
<stop stop-color="white"/>
<stop offset="1" stop-color="#D5CBFF"/>
</linearGradient>
<linearGradient id="paint9_linear_6304_50426" x1="-2.11927" y1="0.39791" x2="-0.560216" y2="30.5075" gradientUnits="userSpaceOnUse">
<stop stop-color="white"/>
<stop offset="1" stop-color="#D5CBFF"/>
</linearGradient>
<linearGradient id="paint10_linear_6304_50426" x1="-2.11927" y1="0.39791" x2="-0.560216" y2="30.5075" gradientUnits="userSpaceOnUse">
<stop stop-color="white"/>
<stop offset="1" stop-color="#D5CBFF"/>
</linearGradient>
<linearGradient id="paint11_linear_6304_50426" x1="-2.11927" y1="0.39791" x2="-0.560216" y2="30.5075" gradientUnits="userSpaceOnUse">
<stop stop-color="white"/>
<stop offset="1" stop-color="#D5CBFF"/>
</linearGradient>
<linearGradient id="paint12_linear_6304_50426" x1="-2.11927" y1="0.39791" x2="-0.560216" y2="30.5075" gradientUnits="userSpaceOnUse">
<stop stop-color="white"/>
<stop offset="1" stop-color="#D5CBFF"/>
</linearGradient>
<linearGradient id="paint13_linear_6304_50426" x1="-2.11927" y1="0.39791" x2="-0.560216" y2="30.5075" gradientUnits="userSpaceOnUse">
<stop stop-color="white"/>
<stop offset="1" stop-color="#D5CBFF"/>
</linearGradient>
</defs>
</svg>
