<svg class="w-6 h-6" width="24" height="24" viewBox="0 0 24 24" fill="none" xmlns="http://www.w3.org/2000/svg"><path d="M19 5.99955C16.6805 5.99955 13.9706 4.66296 12.1104 3.03959V3.04057C12.0796 3.01427 12.0405 2.99955 12 2.99955C11.9595 2.99955 11.9204 3.01427 11.8896 3.04057L11.8887 3.03959C10.0971 4.60157 7.48931 5.91506 5.21875 5.99564L5 5.99955V12.9996L5.00879 13.4117C5.09782 15.4371 5.8465 16.9384 6.98633 18.106C8.07404 19.22 9.55305 20.0641 11.2539 20.7232L11.9961 20.9947L12.0186 21.0015C14.0236 20.3018 15.7728 19.381 17.0137 18.1079C18.229 16.861 19 15.2354 19 12.9996V5.99955ZM21 12.9996C21 15.7637 20.021 17.8888 18.4463 19.5044C16.8988 21.0921 14.8204 22.1442 12.6689 22.8941L12.6611 22.897C12.233 23.0421 11.7688 23.0369 11.3438 22.8843V22.8853C11.3379 22.8833 11.3321 22.8805 11.3262 22.8785C11.3246 22.8779 11.3228 22.8781 11.3213 22.8775V22.8765C9.17204 22.132 7.09956 21.0847 5.55566 19.5035C4.07782 17.9898 3.12517 16.0279 3.01172 13.5113L3 12.9996V5.99955C3.00012 5.46928 3.21097 4.96045 3.58594 4.58549C3.96099 4.21056 4.46967 3.99955 5 3.99955L5.32129 3.98783C6.95847 3.86731 9.05353 2.86212 10.582 1.52689L10.5908 1.52006L10.7422 1.40092C11.1082 1.1406 11.5477 0.99955 12 0.99955C12.4523 0.99955 12.8918 1.1406 13.2578 1.40092L13.4092 1.52006L13.418 1.52689L13.7324 1.79154C15.3383 3.0868 17.4277 3.99955 19 3.99955C19.5303 3.99955 20.039 4.21056 20.4141 4.58549C20.789 4.96046 20.9999 5.46928 21 5.99955V12.9996Z" fill="#686583" style="fill-opacity:1;"/></svg>