<svg width="219" height="35" viewBox="0 0 219 35" fill="none" xmlns="http://www.w3.org/2000/svg">
<path d="M15.4353 0.0948559C33.0216 -1.59108 42.1318 19.6083 28.7897 30.9504C18.004 40.1144 0.994006 32.7307 0.0389407 18.7592C-0.578558 9.71004 6.21805 0.980897 15.4353 0.0948559ZM30.741 7.8149C26.3691 1.02602 16.485 -0.614797 9.59783 3.28625C-1.40601 9.51725 -1.40189 25.548 9.65546 31.7011C17.436 36.0288 28.0899 33.3173 31.9883 25.2117C32.5523 24.3543 32.6223 24.1985 32.9228 23.1935C35.047 18.4597 34.1414 11.7365 30.741 7.819V7.8149Z" fill="#1C1D23"/>
<path d="M30.741 7.8149C33.9808 12.8481 34.6559 17.4014 32.9228 23.1894C32.6264 23.8498 32.3012 24.5553 31.9883 25.2076C27.5835 31.9021 20.4411 35.2535 12.4671 32.6241C-0.767924 28.2636 -2.27051 9.86182 10.1248 3.34367C17.5348 -0.553267 25.4799 1.74798 30.741 7.8149ZM18.4157 4.57018H15.4847L13.9121 9.52135L15.7687 9.50904C16.0445 8.44662 16.3327 7.2119 16.7279 6.19459C16.7896 6.03461 16.7896 5.82131 17.0284 5.7967L18.1358 9.50904L19.836 9.52545L18.4198 4.57429L18.4157 4.57018ZM31.0539 11.3878H6.58443V15.1945L10.487 18.0208L7.52303 27.4678C7.4654 27.9272 8.7498 27.6852 8.98033 27.517L31.0539 11.3878ZM23.4133 19.9282C23.1622 19.7149 22.1289 20.6994 21.9066 20.9332L23.1046 24.744L19.8771 22.4305C19.5107 22.332 18.7821 23.1935 18.4322 23.4232L24.2037 27.6114L25.7557 27.6934L23.4175 19.9282H23.4133Z" fill="#1C1D23"/>
<path d="M42.8975 18.3736L43.1321 17.91H218.769L219 18.1397L218.769 18.3736H42.8975Z" fill="#1C1D23"/>
<path d="M129.664 5.52186C134.127 4.76708 135.971 9.37778 133.756 12.7086L134.526 13.7711L133.814 14.4684C133.357 14.5587 132.805 13.6193 132.591 13.6029C132.509 13.5947 131.504 14.0008 131.035 14.0295C125.33 14.4069 125.301 6.26023 129.664 5.52186ZM132.509 11.5396C133.312 9.54186 132.723 6.45302 129.973 7.06833C127.557 7.6098 127.964 13.2337 131.188 12.4707L130.652 11.638C130.887 11.3714 131.237 10.834 131.624 10.9325C131.933 11.0104 132.089 11.6052 132.509 11.5355V11.5396Z" fill="#1C1D23"/>
<path d="M58.7178 5.64082C60.6979 5.96898 61.2866 9.04551 59.4218 9.91104C60.772 10.8504 60.3974 12.4502 60.6691 13.8695L58.866 13.7259C58.7096 13.0532 58.796 11.2319 58.1703 10.8504C57.5446 10.4689 56.2602 10.6658 55.5274 10.6125V13.8736H53.6584V5.64082C55.1898 5.82131 57.2605 5.3988 58.7219 5.64082H58.7178ZM55.5192 9.36547H57.7792C58.9772 9.36547 58.9772 7.03551 57.7792 7.03551H55.5192V9.36547Z" fill="#1C1D23"/>
<path d="M98.847 22.2582L100.687 22.291L103.836 27.6934V22.2582H105.549V30.4869L103.705 30.4623C102.717 28.8174 101.84 26.8197 100.757 25.2568C100.662 25.1173 100.786 24.9696 100.407 25.0558V30.491H98.847V22.2582Z" fill="#1C1D23"/>
<path d="M63.2338 22.2582C65.4321 22.5658 66.1896 25.3922 64.2465 26.5284C65.6338 27.4883 64.8311 29.2235 65.4938 30.4869C64.9916 30.4213 64.3247 30.5812 63.8554 30.4869C62.9209 30.3064 63.6743 27.9149 62.995 27.4637C62.5587 27.1724 60.7679 27.0453 60.3521 27.4555V30.4828H58.6396V22.2541C60.0681 22.3977 61.8547 22.0613 63.2379 22.2541L63.2338 22.2582ZM60.3521 25.827H63.0815C63.6908 25.827 63.8595 23.8088 62.9251 23.8088H60.3521V25.827Z" fill="#1C1D23"/>
<path d="M69.3512 22.1392C71.5042 21.7783 73.5296 22.5494 74.1224 24.7645C75.0363 28.1692 73.2785 31.1473 69.4829 30.6305C65.4609 30.0808 65.4074 22.7997 69.3512 22.1392ZM70.1333 23.5298C67.334 23.9113 67.6674 29.326 70.3968 29.2522C73.4719 29.1701 73.2249 23.1073 70.1333 23.5298Z" fill="#1C1D23"/>
<path d="M122.847 5.64082V7.19139H118.484V8.90194H122.534V10.3007H118.484V12.3189H122.847V13.8695H116.615V5.64082H122.847Z" fill="#1C1D23"/>
<path d="M106.327 5.64082V7.19139H102.12V8.90194H106.014V10.3007H102.12V12.3189H106.483V13.8695H100.251V5.64082H106.327Z" fill="#1C1D23"/>
<path d="M140.458 5.64082V10.9981C140.458 11.1786 140.812 12.0154 140.998 12.1672C141.874 12.8891 143.887 12.4666 143.887 11.154V5.64082H145.756V11.154C145.756 11.3427 145.394 12.4666 145.266 12.684C144.052 14.7679 139.507 14.4971 138.812 12.0195C138.775 11.8841 138.589 10.9119 138.589 10.8463V5.64492H140.458V5.64082Z" fill="#1C1D23"/>
<path d="M48.9737 22.2582V23.8088H44.61V25.5193H48.5085V26.914H44.61V28.9363H49.1301V30.4869H42.8975V22.2582H48.9737Z" fill="#1C1D23"/>
<path d="M89.1852 22.2582V23.8129H84.8216C84.8916 24.3666 84.6116 25.1132 85.0562 25.5193H88.8765V26.9181H85.0562C84.5869 27.4104 84.9121 28.2923 84.8216 28.9363H89.3417V30.491H83.2655V22.2623H89.1893L89.1852 22.2582Z" fill="#1C1D23"/>
<path d="M184.877 12.1631L186.762 5.65723L188.076 5.79259L189.71 12.1631C189.998 12.1138 189.969 11.8431 190.039 11.6421C190.661 9.83311 190.912 7.52776 191.427 5.64902H192.666L190.467 13.8572L189.216 13.7834L187.52 7.19549L185.511 13.7793L184.255 13.8654L182.222 5.64492L183.395 5.7967L184.873 12.1672L184.877 12.1631Z" fill="#1C1D23"/>
<path d="M50.3775 22.2582C50.8015 22.3361 52.0694 22.0408 52.2259 22.5125C52.4317 24.2682 52.0283 26.3807 52.2423 28.0872C52.4605 29.8183 55.2104 29.3547 55.2104 28.079V22.2541H56.923V28.6984C56.923 28.842 56.4413 29.6255 56.2972 29.7854C55.2392 30.9668 52.4811 30.9545 51.3078 29.9454C50.9538 29.6419 50.3775 28.6574 50.3775 28.2308V22.25V22.2582Z" fill="#1C1D23"/>
<path d="M84.801 5.66133L87.7815 13.8695L85.9331 13.849L85.3691 12.159L82.4257 12.0277L81.6847 13.8531L79.8322 13.8695L82.8085 5.65723H84.7969L84.801 5.66133ZM84.8216 10.6084C84.4593 9.8126 84.2946 8.92655 83.9612 8.12666C83.8994 7.97898 83.9447 7.76978 83.7307 7.819L82.7962 10.6125H84.8216V10.6084Z" fill="#1C1D23"/>
<path d="M97.9126 30.4869L96.0354 30.4172L95.3191 28.8009L92.4415 28.8707L91.9722 30.4664L90.1238 30.4869L93.0796 22.332L95.035 22.41L97.9167 30.4869H97.9126ZM94.9486 27.3816C94.5657 26.4464 94.5245 25.1788 93.8618 24.4323L93.0796 27.3816H94.9486Z" fill="#1C1D23"/>
<path d="M45.0793 10.9201L45.0093 13.7259L43.2062 13.8695V5.64082H47.6481C47.7016 5.64082 48.4962 5.9977 48.6155 6.07563C50.1469 7.03141 50.1469 9.53366 48.6155 10.4894C48.4962 10.5633 47.7016 10.9242 47.6481 10.9242H45.0752L45.0793 10.9201ZM45.0793 9.52135C46.2155 9.52135 47.9651 9.79208 47.8992 8.19639C47.8416 6.76478 46.1208 7.04782 45.0793 7.03551V9.52135Z" fill="#1C1D23"/>
<path d="M77.3416 27.5375V30.4869H75.6291V22.2582H79.7581C80.0792 22.2582 81.0548 22.7833 81.3018 23.0499C82.2404 24.0631 82.1128 26.4751 80.8284 27.2094C80.7214 27.2709 79.9721 27.5416 79.9145 27.5416H77.3416V27.5375ZM77.3416 26.1387C81.0754 26.7704 81.2607 23.0991 77.3416 23.8088V26.1387Z" fill="#1C1D23"/>
<path d="M73.756 11.076C74.1553 11.1376 73.9989 11.0391 74.0812 10.8586C74.744 9.4188 74.9992 7.28984 75.6991 5.7967L77.6503 5.64492L74.9869 13.8572L73.0479 13.8818L70.1704 5.64082L72.1217 5.79259L73.756 11.076Z" fill="#1C1D23"/>
<path d="M206.926 5.64082C209.12 6.01 209.301 8.93476 207.473 9.98488C209.017 10.5346 208.305 12.6225 208.877 13.8695L207.646 13.8531C207.333 12.8235 207.778 10.2966 206.148 10.2966H203.653L203.418 10.5305V13.8695H202.328V5.64082C203.719 5.8049 205.6 5.41931 206.926 5.64082ZM203.418 9.36547H206.613C206.695 9.36547 207.239 8.94707 207.321 8.82811C207.844 8.04872 207.416 6.56788 206.457 6.56788H203.418V9.36547Z" fill="#1C1D23"/>
<path d="M167.575 5.64082L169.365 8.74196L171.189 5.67363L173.182 5.64082C173.293 5.73927 172.922 6.30535 172.836 6.46123C172.502 7.08474 170.218 10.4402 170.218 10.6863V13.8695H168.349V10.5305C168.349 10.1818 165.619 6.39149 165.389 5.63672H167.571L167.575 5.64082Z" fill="#1C1D23"/>
<path d="M117.845 22.2705L119.496 28.9322L119.731 29.084L121.464 22.2664C121.517 22.2213 122.156 22.2131 122.279 22.2418C122.625 22.3238 123.79 28.3087 124.173 29.084L125.98 22.2664L126.746 22.25L124.704 30.4623L123.765 30.3884L121.839 23.6447L120.064 30.3884L119.126 30.4623L117.084 22.25L117.85 22.2664L117.845 22.2705Z" fill="#1C1D23"/>
<path d="M162.433 5.64082V7.19139H160.095V13.8695H158.226V7.19139H155.731V5.64082H162.433Z" fill="#1C1D23"/>
<path d="M96.3523 5.64082V7.19139H94.0141V13.8695H92.1451V7.19139H89.6504V5.64082H96.3523Z" fill="#1C1D23"/>
<path d="M218.691 5.64082V6.57198H214.175V9.2137H218.383V10.1449H214.175V12.9384H218.848V13.8695H213.084V5.64082H218.691Z" fill="#1C1D23"/>
<path d="M142.953 30.4869V22.2582H146.617C147.14 22.2582 148.342 22.853 148.72 23.2673C150.095 24.7933 150.058 28.7189 148.206 29.8962C147.914 30.0808 146.905 30.4869 146.617 30.4869H142.953ZM146.769 23.0335C145.888 22.8858 144.657 23.1401 143.731 23.0335V29.7116H146.769C147.008 29.7116 147.951 29.1414 148.148 28.8953C149.371 27.3693 149.111 23.4273 146.769 23.0376V23.0335Z" fill="#1C1D23"/>
<path d="M139.289 22.2582C141.739 22.5617 142.265 25.146 140.302 26.3725C141.701 27.3775 140.87 29.1619 141.549 30.4869L140.635 30.4664C140.166 29.5844 140.722 26.7622 139.289 26.7622H136.251V30.491H135.473V22.2623C136.679 22.3689 138.116 22.1187 139.293 22.2623L139.289 22.2582ZM136.251 26.1387H138.824C139.993 26.1387 141.035 24.9943 140.532 23.8129C140.466 23.657 139.721 23.0335 139.602 23.0335H136.251V26.1387Z" fill="#1C1D23"/>
<path d="M150.742 28.0011L151.516 28.0093C151.33 30.3966 155.789 30.7699 155.896 28.3866C156.007 25.9418 150.878 27.357 150.886 24.3502C150.894 21.4337 156.077 21.1999 156.406 24.1533C156.423 24.3092 156.554 24.5061 156.27 24.5799C155.468 24.7892 155.645 24.0426 155.398 23.5955C154.644 22.2336 151.487 22.5905 151.68 24.4938C151.886 26.5694 156.917 25.0722 156.674 28.5507C156.46 31.6355 150.388 31.3606 150.742 28.0011Z" fill="#1C1D23"/>
<path d="M66.7412 5.64082V13.6398C66.2884 14.0951 65.4733 13.7916 64.8722 13.8736V5.64082H66.7412Z" fill="#1C1D23"/>
<path d="M151.989 5.64082V13.6398C151.536 14.0951 150.721 13.7916 150.12 13.8736V5.64082H151.989Z" fill="#1C1D23"/>
<path d="M169.411 22.4469C172.922 22.0203 173.173 27.2709 172.025 29.4081C170.979 31.3565 168.143 30.9873 167.385 28.8871C166.714 27.0248 166.809 22.7627 169.411 22.4469ZM168.563 29.5024C169.271 30.208 170.428 30.1751 171.086 29.404C172.371 27.9108 172.181 21.9423 169.016 23.3042C167.575 23.9236 167.546 28.4892 168.563 29.5024Z" fill="#1C1D23"/>
<path d="M134.378 30.4869C132.982 30.934 133.196 28.2636 132.509 27.9231H129.076C128.376 28.2677 128.573 30.9381 127.207 30.4869L130.344 22.2787L131.336 22.41L134.374 30.4869H134.378ZM132.353 27.2258L130.949 23.1894C130.088 24.2969 129.841 25.9418 129.236 27.2258H132.353Z" fill="#1C1D23"/>
<path d="M113.63 22.2787L116.615 30.4869L115.857 30.4664L114.98 28.0011C114.713 27.6811 111.913 27.8657 111.312 27.919L110.365 30.4705L109.447 30.4869L112.576 22.5043C112.79 22.1556 113.276 22.2254 113.634 22.2787H113.63ZM114.589 27.2258L113.107 23.1853L111.625 27.2258H114.589Z" fill="#1C1D23"/>
<path d="M184.564 22.5658V23.1853H181.135L180.822 25.6711C182.897 24.7276 185.186 25.749 185.021 28.2103C184.807 31.3934 179.781 31.5288 179.579 28.3128L180.336 28.3333C180.48 29.1373 181.086 29.8018 181.909 29.9577C184.922 30.5279 185.099 25.4127 181.72 26.0239C180.921 26.1674 180.76 26.955 179.892 26.7622L180.513 22.5699H184.564V22.5658Z" fill="#1C1D23"/>
<path d="M174.277 29.8675H178.64V30.4869H173.499C172.675 27.8042 177.553 26.8648 177.854 25.2773C178.36 22.5823 174.589 22.3813 174.412 25.0312L173.655 25.0517C173.597 21.3352 179.76 21.7044 178.648 25.4496C177.99 27.6729 174.585 27.4965 174.277 29.8675Z" fill="#1C1D23"/>
<path d="M161.807 29.8675H166.171V30.4869H160.873C160.325 27.7754 165.068 26.8484 165.36 25.0886C165.784 22.5207 161.861 22.5166 161.96 25.0435L161.186 25.0517C161.013 21.6101 166.578 21.487 166.175 25.1337C165.907 27.5539 161.951 27.5006 161.807 29.8675Z" fill="#1C1D23"/>
<path d="M197.655 5.64082H196.564V13.8695H197.655V5.64082Z" fill="#1C1D23"/>
<path d="M20.7663 14.6489L13.6527 18.9807C13.4387 19.0381 13.4016 18.874 13.3193 18.7304C13.0476 18.271 12.3725 16.3841 12.1996 15.8057C12.109 15.5021 12.9735 15.4857 13.2287 15.4447C15.7152 15.0673 18.2634 14.9073 20.7663 14.6489Z" fill="#1C1D23"/>
</svg>
