<svg width="32" height="32" viewBox="0 0 32 32" fill="none" xmlns="http://www.w3.org/2000/svg">
<path fill-rule="evenodd" clip-rule="evenodd" d="M3.2 0C1.43281 0 0 1.43267 0 3.2V28.8C0 30.5673 1.43281 32 3.2 32H28.8C30.5672 32 32 30.5673 32 28.8V3.2C32 1.43267 30.5672 0 28.8 0H3.2ZM25.6824 4.92002L18.1387 14.1797L28.1922 26.52H20.9895L14.5371 18.6005L8.08555 26.52H5.90039L13.4449 17.2596L3.39219 4.92002H10.5949L17.0465 12.8389L23.4977 4.92002H25.6824ZM9.77695 6.59854H6.94414L21.8066 24.8414H24.6395L9.77695 6.59854Z" fill="#1C1D23"/>
</svg>
