<svg width="92" height="32" viewBox="0 0 92 32" fill="none" xmlns="http://www.w3.org/2000/svg">
<path d="M15.2564 0C15.4059 0.0332561 15.5554 0.0613958 15.7023 0.0997682C15.7957 0.122792 15.8865 0.156048 15.9959 0.189304V12.0771C19.0899 9.64938 22.1385 7.25494 25.1952 4.85539C25.6997 5.18539 26.0467 5.60749 26.2576 6.16772C25.6757 6.60261 25.0964 7.0375 24.5037 7.48006C24.7066 7.70774 24.8935 7.92006 25.0964 8.14518C25.366 7.95332 25.6249 7.77169 25.8999 7.57727C26.1001 7.80239 26.2897 8.01216 26.4925 8.24239C26.2309 8.46751 25.98 8.6824 25.7024 8.9203C25.8999 9.1531 26.0921 9.37821 26.295 9.61868C26.562 9.41659 26.8129 9.22472 27.0932 9.0124C27.2881 9.24263 27.4803 9.46775 27.6912 9.71589C26.949 10.2915 26.2229 10.8568 25.4648 11.4426C25.2299 10.711 25.0029 10.0101 24.7654 9.27589C24.5571 9.43961 24.3729 9.58543 24.17 9.74403C24.3729 10.3836 24.5731 11.018 24.792 11.7138C24.1247 11.3966 23.532 11.0564 22.902 10.7417C22.7045 10.8926 22.5042 11.0436 22.2773 11.2175C22.9874 11.5885 23.6602 11.9389 24.3676 12.3048C23.6175 12.888 22.894 13.4482 22.1439 14.0315C21.9436 13.7757 21.7514 13.5301 21.5459 13.2666C21.8075 13.062 22.0638 12.865 22.3361 12.6527C22.1359 12.4275 21.949 12.2178 21.7434 11.9875C21.4765 12.1896 21.2175 12.3841 20.9452 12.5887C20.7424 12.3406 20.5555 12.1103 20.3499 11.8596C20.6115 11.6575 20.8598 11.4631 21.1374 11.2482C20.9452 11.0052 20.7557 10.7673 20.5421 10.5192C19.1833 11.6013 17.8379 12.6757 16.4631 13.7757C17.7631 14.781 19.0472 15.7736 20.3473 16.779C20.5475 16.5411 20.7343 16.3159 20.9212 16.0934C21.0493 15.9425 21.0814 15.9322 21.2736 15.9885C21.6473 16.0985 21.8822 16.3569 22.0611 16.6792C22.1092 16.7636 22.0771 16.825 22.0211 16.889C21.8769 17.0578 21.7328 17.2267 21.5913 17.398C21.5352 17.4646 21.4845 17.5336 21.4204 17.6155C21.5646 17.7229 21.6954 17.8201 21.8342 17.925C21.957 17.8304 22.0691 17.7434 22.1839 17.6564C22.9714 17.0732 23.8524 16.6792 24.8454 16.5871C26.4819 16.4336 27.8727 16.9427 28.9699 18.122C30.4275 19.6902 30.5743 21.9772 29.5919 23.7014C29.5599 23.7551 29.5305 23.8114 29.4931 23.8804C29.6933 24.0314 29.8882 24.1823 30.0911 24.323C30.2032 24.3997 30.2246 24.479 30.1872 24.6018C30.0484 25.0367 29.7654 25.3463 29.3463 25.5509C29.2342 25.6046 29.1514 25.5842 29.0606 25.51C28.8818 25.3642 28.6976 25.2235 28.4974 25.07C28.4306 25.1237 28.3639 25.1774 28.2972 25.2311C27.192 26.1418 25.9079 26.5332 24.4637 26.4156C22.4909 26.257 20.8385 24.9344 20.2832 23.0951C19.9121 21.8595 20.0616 20.6623 20.5982 19.5009C20.6409 19.4088 20.6836 19.3167 20.7343 19.2118C20.6089 19.0992 20.4861 18.9867 20.3473 18.8613C20.1097 19.1657 19.8801 19.4548 19.6452 19.7541C19.162 19.6774 18.8203 19.4369 18.6307 19.0071C18.5907 18.9125 18.5987 18.8332 18.6735 18.7513C18.871 18.5339 19.0605 18.3113 19.2501 18.0913C19.1513 17.9455 16.3883 15.7199 16.0333 15.4973C15.9772 15.6508 15.9532 19.0378 16.0066 19.5802C16.0626 19.5878 16.124 19.6006 16.1854 19.6032C16.4284 19.6109 16.674 19.6211 16.9169 19.616C17.0637 19.6109 17.1385 19.6774 17.1999 19.7925C17.3894 20.1506 17.3307 20.4985 17.1678 20.849C17.1251 20.9411 17.0477 20.9385 16.9649 20.9411C16.73 20.9411 16.4924 20.9411 16.2575 20.9411C16.1774 20.9411 16.0973 20.9488 16.0039 20.9513V21.4425C16.0573 21.4553 16.1187 21.4732 16.1801 21.486C17.7872 21.8365 19.0338 22.6704 19.8214 24.0672C20.7931 25.7837 20.4754 27.9019 19.0552 29.3702C18.289 30.1658 17.344 30.6698 16.2442 30.9077C16.1801 30.9205 16.1187 30.9333 16.0546 30.9486C16.0386 30.9512 16.0253 30.964 15.9906 30.9793V31.7775C15.4139 32.0947 14.8613 32.0537 14.2901 31.7749V30.964C14.202 30.9435 14.1272 30.923 14.0498 30.9077C12.0824 30.5291 10.4726 29.0044 10.0802 27.16C9.57565 24.7886 10.9211 22.7625 12.8832 21.8902C13.2676 21.7188 13.6681 21.5934 14.0845 21.5192C14.1459 21.509 14.2073 21.486 14.2767 21.4681V20.9513C14.1513 20.9462 14.0338 20.9385 13.9163 20.9385C13.7134 20.9385 13.5106 20.9334 13.3077 20.9385C13.1929 20.9437 13.1261 20.9002 13.0808 20.8004C12.9286 20.455 12.9153 20.1071 13.0674 19.7567C13.1155 19.6416 13.1875 19.5904 13.3264 19.5955C13.6334 19.6057 13.9404 19.5981 14.242 19.5981C14.2981 19.4113 14.3194 15.9425 14.274 15.5101C14.266 15.5076 14.2607 15.5024 14.2527 15.5024C14.2447 15.5024 14.234 15.4973 14.2313 15.5024C13.1956 16.3159 12.1598 17.1294 11.124 17.9455C11.0813 17.9788 11.0439 18.0171 10.9825 18.0708C11.1747 18.2806 11.3589 18.4853 11.5458 18.6874C11.7246 18.8818 11.7246 18.8843 11.5938 19.1095C11.4203 19.4088 11.164 19.6134 10.8197 19.7106C10.6194 19.7695 10.6194 19.7695 10.4966 19.616C10.3044 19.3755 10.1149 19.1325 9.90935 18.869C9.76519 18.9841 9.63171 19.089 9.48756 19.2041C9.53294 19.2911 9.57031 19.3653 9.61036 19.4395C10.5767 21.2148 10.2964 23.4813 8.90293 24.9293C7.75769 26.1188 6.32415 26.587 4.65568 26.3925C3.59054 26.2672 2.66687 25.8476 1.8847 25.1416C1.86067 25.1211 1.83398 25.1058 1.79393 25.0751C1.59372 25.2235 1.39083 25.3642 1.20129 25.5176C1.09718 25.6021 1.00642 25.6021 0.894297 25.5407C0.531239 25.3488 0.280302 25.0649 0.11746 24.7016C0.0880949 24.6351 0.0400432 24.5762 0 24.5123C0 24.4816 0 24.4509 0 24.4176C0.245598 24.2437 0.491196 24.0723 0.736794 23.8983C0.715438 23.8446 0.707429 23.8139 0.691412 23.7883C0.373736 23.1872 0.165512 22.5527 0.0800863 21.8825C0.0694081 21.793 0.0266954 21.706 0 21.6165C0 21.399 0 21.1816 0 20.9616C0.029365 20.8669 0.0747472 20.7748 0.0880949 20.6776C0.192207 19.9153 0.456492 19.2118 0.918323 18.5825C1.88203 17.2701 3.20078 16.582 4.87993 16.5615C6.02516 16.5487 7.04493 16.9222 7.96592 17.5567C8.13143 17.6692 8.28626 17.7946 8.45978 17.9225C8.58525 17.8278 8.71072 17.7357 8.84153 17.6385C8.60394 17.3418 8.38237 17.0655 8.15279 16.7815C8.28893 16.4285 8.5372 16.1906 8.88958 16.0448C9.20726 15.9143 9.22327 15.9194 9.43684 16.1727C9.60235 16.3697 9.77053 16.5692 9.94672 16.7764C11.2468 15.7711 12.5255 14.781 13.8309 13.7731C12.4561 12.6757 11.108 11.5987 9.7465 10.514C9.53561 10.7724 9.34874 11.0026 9.15386 11.2457C9.42883 11.458 9.68244 11.655 9.94672 11.8571C9.73849 12.1103 9.54896 12.3431 9.34874 12.5861C9.07378 12.3815 8.81483 12.1871 8.54788 11.9875C8.34499 12.2152 8.15812 12.425 7.95524 12.6527C8.21952 12.865 8.46245 13.0645 8.71339 13.2641C8.50517 13.5327 8.31563 13.7731 8.11541 14.029C7.38129 13.4508 6.66318 12.8855 5.92372 12.3022C6.62047 11.9338 7.28518 11.5808 7.9766 11.215C7.76303 11.0436 7.57883 10.8926 7.38663 10.7392C7.07162 10.9029 6.76729 11.0615 6.46029 11.2201C6.1533 11.3761 5.85431 11.5527 5.49659 11.7138C5.6007 11.3864 5.68613 11.1126 5.77422 10.8389C5.873 10.5268 5.97444 10.2147 6.07321 9.90264C6.09724 9.82845 6.12927 9.75426 6.04652 9.69031C5.87833 9.55729 5.71549 9.42426 5.52595 9.27077C5.28837 10.0075 5.06145 10.7085 4.82386 11.4426C4.06838 10.8568 3.3396 10.2915 2.60014 9.71589C2.80569 9.47287 2.99523 9.25031 3.19277 9.01496C3.45439 9.21705 3.70533 9.41147 3.96427 9.61357C4.17517 9.37566 4.37538 9.1531 4.58895 8.91775C4.31665 8.68751 4.06038 8.47007 3.79609 8.24495C4.00431 8.0096 4.19652 7.79216 4.3914 7.57215C4.6717 7.77169 4.92264 7.95332 5.19226 8.14518C5.3818 7.91751 5.56333 7.70262 5.75287 7.4775C5.16824 7.03238 4.60496 6.60261 4.04703 6.18052C4.14847 5.67912 4.5756 5.14702 5.10417 4.86306C8.14745 7.25238 11.1961 9.64682 14.2794 12.0668V7.27029H13.3557V8.16565H12.4347V7.26517H11.471V8.16053H10.5313V5.4719C11.2628 5.76865 11.9676 6.05261 12.707 6.35447C12.707 6.14214 12.6937 5.97075 12.7097 5.80447C12.7257 5.64586 12.6616 5.56911 12.5095 5.51283C11.9889 5.31841 11.471 5.10865 10.9531 4.90399C10.8784 4.87329 10.8063 4.83748 10.6969 4.78632C11.399 4.51771 12.053 4.26701 12.6857 4.02654V3.30003C11.9542 3.57631 11.2495 3.84236 10.5287 4.11352V1.39164C10.8277 1.34559 11.2868 1.35582 11.4604 1.40955C11.4897 1.71908 11.4443 2.0363 11.487 2.34839H12.4347V1.38141H13.3504C13.3878 1.71397 13.3397 2.03118 13.3798 2.34839H14.2954V0.186746C14.4155 0.150931 14.5143 0.120234 14.6158 0.0920938C14.7466 0.0613958 14.88 0.0306979 15.0108 0C15.0909 0 15.1737 0 15.2538 0H15.2564ZM15.1417 26.7046C15.115 26.7711 15.1069 26.8044 15.0883 26.83C14.4449 27.7074 13.0861 27.7816 12.2852 27.426C12.1491 27.3646 12.0877 27.2905 12.0984 27.1446C12.1117 26.9349 12.101 26.7251 12.101 26.5153C12.101 26.3311 12.101 26.147 12.101 25.9193C12.2185 26.0088 12.2986 26.0702 12.3787 26.129C12.6803 26.349 13.022 26.4232 13.3904 26.3567C14.3354 26.1828 14.7733 25.1365 14.234 24.3409C14.0151 24.0186 13.7001 23.8395 13.3023 23.8241C12.7417 23.8011 12.2692 23.9904 11.9035 24.4048C11.7193 24.6146 11.5885 24.8576 11.4951 25.116C10.8303 27.0014 11.9809 29.0786 14.0685 29.5928C14.1352 29.6081 14.2046 29.6081 14.2954 29.6158V28.7665C14.8694 28.5567 15.422 28.5619 16.0039 28.7691V29.6312C16.1214 29.6081 16.2068 29.5954 16.2922 29.5723C17.7952 29.1835 19.0045 27.646 18.9805 26.1597C18.9724 25.6481 18.8897 25.1518 18.6281 24.6965C18.2784 24.0825 17.7204 23.8037 17.0023 23.8216C16.6793 23.8293 16.4043 23.9572 16.1881 24.1874C15.9372 24.4535 15.8197 24.7707 15.8331 25.1288C15.8517 25.6404 16.1054 26.0242 16.5779 26.2493C17.0397 26.4693 17.4908 26.4207 17.9046 26.1137C17.9847 26.0549 18.0675 25.9986 18.1716 25.9244V27.3391C17.6484 27.6281 17.0984 27.6716 16.5298 27.5872C15.9585 27.5002 15.4967 27.2367 15.1417 26.7046ZM28.4066 23.0669C28.436 23.026 28.4573 23.003 28.4707 22.9774C28.7003 22.5399 28.8444 22.0769 28.8444 21.5883C28.8498 20.455 28.4146 19.4932 27.5497 18.7206C27.0451 18.2704 26.4392 18.0248 25.7451 18.0043C25.2619 17.9915 24.8294 18.1194 24.4824 18.4571C23.9698 18.956 23.9752 19.6978 24.4877 20.1941C24.6693 20.3681 24.8801 20.4934 25.1257 20.5676C26.0654 20.8516 26.9197 19.9613 26.7702 19.2732C26.7622 19.2322 26.7702 19.1862 26.7702 19.1018C27.1733 19.4113 27.5443 19.6953 27.9074 19.9767C27.8327 20.4602 27.6031 20.9078 27.2454 21.2685C26.7969 21.7188 26.2496 21.9516 25.5716 21.9158C25.7344 22.4837 25.6597 22.9927 25.3607 23.4711C25.067 23.9418 24.6773 24.3153 24.1327 24.5302C23.9378 24.3844 23.7509 24.2488 23.5667 24.1107C23.3852 23.9751 23.2037 23.8395 22.9954 23.6809C23.1476 23.6425 23.2571 23.6195 23.3638 23.5862C23.9298 23.4072 24.2742 22.9672 24.2955 22.3992C24.3169 21.8441 23.9485 21.3478 23.3745 21.156C22.8032 20.9641 22.2266 21.1278 21.8769 21.5858C21.5913 21.9592 21.5192 22.3788 21.6233 22.8265C21.6927 23.1258 21.8262 23.402 22.005 23.6553C22.6698 24.6095 23.6121 25.1083 24.8001 25.1646C25.6223 25.203 26.3964 25.0265 27.0852 24.5686C27.1813 24.5046 27.2694 24.4279 27.3842 24.3409C27.1252 24.1465 26.893 23.97 26.6581 23.7934C26.8396 23.2434 27.1252 22.8034 27.6858 22.5527C27.9261 22.7293 28.1637 22.9007 28.4066 23.0772V23.0669ZM3.4624 19.112C3.4624 19.2246 3.4624 19.2783 3.4624 19.332C3.45706 19.9971 3.99097 20.5574 4.68772 20.6162C5.32841 20.6699 6.00113 20.1583 6.10525 19.5367C6.22804 18.7948 5.67545 18.1067 4.87726 18.0171C4.20987 17.9429 3.60655 18.1246 3.05396 18.4725C1.80728 19.2578 1.16659 20.7799 1.4816 22.2074C1.54567 22.5041 1.63643 22.7932 1.81262 23.0695C2.06089 22.8853 2.29848 22.7139 2.52539 22.5476C3.05663 22.7753 3.48909 23.31 3.54248 23.8011C3.31824 23.97 3.09133 24.1414 2.84039 24.3307C2.92849 24.3997 2.99256 24.4535 3.06464 24.5021C3.59854 24.8679 4.19385 25.0751 4.84789 25.1339C6.19067 25.2567 7.28785 24.8116 8.12342 23.8011C8.5025 23.3432 8.70538 22.8137 8.63063 22.2151C8.55322 21.6011 8.06736 21.1304 7.43468 21.0741C6.84204 21.023 6.21737 21.3683 6.02249 21.9669C5.78757 22.6832 6.21203 23.4097 6.9942 23.6144C7.06094 23.6323 7.12768 23.6476 7.23446 23.6758C6.83136 23.9751 6.4603 24.2514 6.08656 24.5276C5.39515 24.2207 4.93599 23.7321 4.6717 23.0695C4.55958 22.7855 4.53822 22.4939 4.59962 22.1972C4.61831 22.1076 4.65035 22.0206 4.67971 21.9132C4.0497 21.9848 3.54782 21.7648 3.11536 21.3785C2.68823 20.9974 2.41861 20.5318 2.30382 19.9767C2.6909 19.6876 3.0593 19.4139 3.46507 19.1095L3.4624 19.112Z" fill="#EFEEE6"/>
<path d="M57.4886 26.4591V25.2337H60.1128C60.1662 25.0418 60.1849 6.5361 60.1341 6.14726C59.8672 6.12168 59.5949 6.13958 59.3226 6.13703C59.0476 6.13447 58.77 6.13703 58.495 6.13703H57.6354C57.6354 5.7226 57.6354 5.33121 57.6354 4.91423C57.7449 4.91423 57.8223 4.91423 57.9024 4.91423C61.1913 4.91423 64.4828 4.90911 67.7717 4.91423C68.8342 4.91423 69.8753 5.06772 70.863 5.46423C72.1364 5.97586 73.1188 6.79191 73.6447 8.03518C74.4349 9.9052 74.0985 12.0054 72.2058 13.4764C71.3462 14.1441 70.3665 14.5764 69.3013 14.8501C69.2106 14.8731 69.1225 14.9013 69.0317 14.9678C69.2026 14.9908 69.3734 15.0138 69.5416 15.0394C70.4706 15.1801 71.3649 15.4257 72.1818 15.8836C73.7088 16.7355 74.5897 18.0069 74.822 19.6799C74.9875 20.8695 74.83 22.0232 74.272 23.1104C73.7275 24.1669 72.8679 24.9267 71.792 25.4742C70.7803 25.9858 69.6964 26.2697 68.5619 26.3746C67.9479 26.4309 67.3312 26.4539 66.7146 26.4539C63.7514 26.4616 60.7855 26.4565 57.8223 26.4565C57.7182 26.4565 57.6141 26.4565 57.4886 26.4565V26.4591ZM63.9089 25.2158C63.9996 25.2209 64.0637 25.2286 64.1278 25.2286C64.8032 25.2286 65.4759 25.2388 66.1486 25.2235C66.5117 25.2158 66.8801 25.1876 67.2378 25.1237C68.9036 24.8218 70.0061 23.9035 70.5 22.3379C70.6628 21.8211 70.7376 21.289 70.7589 20.7518C70.791 19.8513 70.7109 18.9636 70.3959 18.1092C70.0728 17.2343 69.5229 16.5334 68.6526 16.0959C68.0653 15.8018 67.4353 15.6611 66.7786 15.6483C65.8763 15.6304 64.9767 15.6406 64.0744 15.6406C64.021 15.6406 63.9676 15.6585 63.9115 15.6662V25.2183L63.9089 25.2158ZM63.9249 6.15749C63.8715 6.48749 63.8902 14.2541 63.9462 14.4203C63.9836 14.4229 64.0237 14.4306 64.0637 14.4306C64.8432 14.4306 65.6254 14.4485 66.4022 14.4255C67.5848 14.3897 68.5218 13.8959 69.1786 12.9443C69.619 12.3073 69.8379 11.5961 69.9207 10.844C70.0301 9.85915 69.9234 8.89984 69.4775 7.99681C68.9116 6.85331 67.9906 6.18563 66.6425 6.14726C65.7829 6.12424 64.9206 6.13703 64.0584 6.13703C64.0103 6.13703 63.9649 6.15238 63.9222 6.16005L63.9249 6.15749Z" fill="#EFEEE6"/>
<path d="M51.992 6.13191H49.6001V4.95004C49.7603 4.90143 55.6093 4.88097 55.9803 4.93469V6.114C55.8976 6.11912 55.8121 6.13191 55.7267 6.13191C55.1821 6.13191 54.6375 6.13191 54.093 6.13191C54.0049 6.13191 53.9194 6.13958 53.81 6.1447C53.81 6.26493 53.81 6.3647 53.81 6.46447C53.81 10.7673 53.81 15.0701 53.81 19.3729C53.81 20.3092 53.7299 21.2378 53.511 22.1511C53.2974 23.0465 52.9504 23.8881 52.3551 24.6223C51.6129 25.5381 50.6172 26.0779 49.464 26.3721C48.834 26.5332 48.1906 26.6151 47.5419 26.656C46.7223 26.7072 45.9028 26.7123 45.0833 26.6509C44.0822 26.5793 43.1025 26.4156 42.1654 26.06C40.5984 25.4639 39.552 24.3921 39.002 22.8674C38.7297 22.1127 38.5802 21.3325 38.5215 20.5395C38.4788 19.9434 38.4601 19.3422 38.4601 18.7436C38.4548 14.6506 38.4574 10.5575 38.4574 6.46447V6.13191C37.6592 6.12424 36.8851 6.13191 36.0709 6.12679C36.0682 5.71749 36.0682 5.32609 36.0709 4.91934H45.0512C45.1019 5.09585 45.1073 5.85819 45.0566 6.12168H42.5365C42.5312 6.24447 42.5205 6.34168 42.5205 6.43889C42.5205 8.06588 42.5205 9.69031 42.5205 11.3173C42.5205 13.635 42.5205 15.9552 42.5205 18.2729C42.5205 19.0967 42.5365 19.923 42.6433 20.7416C42.7527 21.5781 42.9289 22.3993 43.3187 23.1641C43.9033 24.3102 44.8617 24.9625 46.1778 25.1211C47.0641 25.2286 47.945 25.1928 48.8126 24.9728C49.9979 24.6735 50.8281 23.9751 51.3273 22.9058C51.6183 22.2816 51.7705 21.6241 51.8692 20.9513C51.9707 20.2555 51.992 19.5571 51.992 18.8562C51.992 14.7324 51.992 10.6087 51.992 6.48494V6.12424V6.13191Z" fill="#EFEEE6"/>
<path d="M90.7751 10.8543H89.387C89.363 10.6624 89.3389 10.4731 89.3122 10.2812C89.2081 9.5138 89.0293 8.76682 88.6822 8.06332C88.0175 6.71261 86.907 5.98098 85.3506 5.86842C84.7126 5.82237 84.0826 5.86074 83.4713 6.04237C82.1632 6.43121 81.3917 7.29331 81.1114 8.56472C80.9993 9.07635 80.9566 9.59822 81.0714 10.1175C81.2235 10.8031 81.6346 11.3326 82.1819 11.7752C82.7211 12.2101 83.3271 12.5427 83.9758 12.7959C84.7046 13.0824 85.4441 13.3357 86.1835 13.5966C87.1206 13.9292 88.0495 14.2822 88.8985 14.7938C90.5402 15.7813 91.5894 17.1678 91.891 19.0174C92.0939 20.2632 92.0298 21.5013 91.56 22.696C90.8926 24.3895 89.6273 25.5023 87.884 26.1444C86.7548 26.5588 85.5776 26.72 84.3736 26.7149C82.7211 26.7097 81.1061 26.4821 79.531 25.9986C79.0211 25.8425 78.5246 25.6481 78.0361 25.3744C77.9747 23.5121 77.9133 21.642 77.8519 19.7541H79.2481C79.2641 19.9485 79.2774 20.1404 79.2961 20.3323C79.3789 21.2839 79.5738 22.2099 80.0249 23.072C80.6816 24.3307 81.7334 25.1032 83.1696 25.3923C83.9545 25.5509 84.75 25.5765 85.5402 25.4179C86.8936 25.1442 87.7986 24.3665 88.2604 23.1283C88.5381 22.3865 88.6288 21.6165 88.5381 20.8311C88.4473 20.0304 88.0442 19.3934 87.4169 18.8767C86.9951 18.5288 86.5172 18.2627 86.0207 18.0299C85.1638 17.6283 84.2588 17.352 83.3645 17.045C82.3527 16.6971 81.3864 16.2571 80.5054 15.6559C79.451 14.9345 78.6795 14.0059 78.2577 12.8241C77.9987 12.1001 77.9133 11.3557 77.948 10.5933C77.9827 9.7952 78.1242 9.01496 78.4392 8.27309C79.0238 6.89936 80.0569 5.94516 81.4584 5.344C82.3741 4.95004 83.3378 4.75306 84.3335 4.68399C86.3544 4.54329 88.2711 4.9526 90.1184 5.71493C90.2893 5.78656 90.5055 5.8454 90.5963 5.97586C90.6844 6.10377 90.6497 6.3161 90.655 6.49261C90.6951 7.86123 90.7298 9.22984 90.7671 10.5985C90.7671 10.6752 90.7671 10.7519 90.7671 10.8568L90.7751 10.8543Z" fill="#EFEEE6"/>
</svg>
